<?xml version="1.0" encoding="utf-8"?>
<svg xmlns="http://www.w3.org/2000/svg" xmlns:svg="http://www.w3.org/2000/svg" version="1.1" viewBox="0 0 24 40">
	<title>Dancing man with arms in the arm and legs apart.</title>
	<path d="M 21.65625,0.78320312 11.820312,8.1679688 2.6054688,0.86914062 0.99023438,2.9082031 11.777344,11.453125 23.21875,2.8632812 21.65625,0.78320312 Z"/>
	<path d="M 13.365234,7.3046875 10.765625,7.3789062 11.298828,25.919922 5.7636719,35.367188 1.0351562,33.314453 0,35.701172 6.84375,38.669922 13.919922,26.591797 13.365234,7.3046875 Z"/>
	<path d="M 14.056641,24.949219 11.705078,26.064453 18.322266,40 24,35.820312 22.457031,33.724609 19.320312,36.035156 14.056641,24.949219 Z"/>
	<path d="M 15.413516,3.4082019 A 3.5239575,3.4082 0 0 1 11.889559,6.816402 3.5239575,3.4082 0 0 1 8.3656013,3.4082019 3.5239575,3.4082 0 0 1 11.889559,1.9073486e-6 3.5239575,3.4082 0 0 1 15.413516,3.4082019 Z"/>
</svg>
