<?xml version="1.0" encoding="utf-8"?>
<svg xmlns="http://www.w3.org/2000/svg" xmlns:svg="http://www.w3.org/2000/svg" version="1.1" viewBox="0 0 270 50">
	<title>Third set of hieroglyphics, a line of nine small figures of dancing men in various attitudes, one holding up a black flag.</title>
	<path d="M 15.082031 8.6171875 C 13.038816 8.6171877 11.36914 10.253693 11.369141 12.271484 C 11.369141 14.289275 13.038816 15.925781 15.082031 15.925781 C 17.125247 15.925782 18.796875 14.289276 18.796875 12.271484 C 18.796875 10.253693 17.125247 8.6171871 15.082031 8.6171875 z"/>
	<path d="M 3.03125,7.6035156 A 1.2457259,1.2457259 0 0 0 2.1738281,9.7949219 L 12.988281,19.34375 12.126953,28.169922 0.85742188,31.859375 a 1.2457259,1.2457259 0 0 0 -0.75390626,1.681641 l 3.76367188,8.61914 -2.4726563,0.125 a 1.2457592,1.2457592 0 1 0 0.1269532,2.488282 l 4.2714844,-0.216797 a 1.2457259,1.2457259 0 0 0 1.078125,-1.742188 L 2.9355469,33.800781 13.625,30.298828 l 7.337891,6.582031 -5.964844,8.78125 a 1.2457259,1.2457259 0 0 0 1.025391,1.945313 l 5.324218,0.02148 a 1.2457259,1.2457259 0 1 0 0.0098,-2.490234 l -2.984375,-0.01172 5.261719,-7.746094 a 1.2457259,1.2457259 0 0 0 -0.1973,-1.626948 l -8.726562,-7.826172 a 1.2457259,1.2457259 0 0 0 -0.05274,-0.04297 l 0.796875,-8.19336 a 1.2457259,1.2457259 0 0 0 0.121094,-1.240234 l 0.380859,-3.904297 a 1.2457259,1.2457259 0 1 0 -2.47851,-0.242185 L 13.285156,16.283203 3.8222656,7.9277344 A 1.2457259,1.2457259 0 0 0 3.03125,7.6035156 Z"/>
	<path d="M 48.126953 9.1679688 C 46.083738 9.167969 44.414062 10.804475 44.414062 12.822266 C 44.414063 14.840056 46.083738 16.478515 48.126953 16.478516 C 50.170168 16.478516 51.841796 14.840057 51.841797 12.822266 C 51.841797 10.804474 50.170169 9.1679684 48.126953 9.1679688 z"/>
	<path d="m 48.650391,14.742188 a 1.2457259,1.2457259 0 0 0 -1.171875,1.054687 L 45.201172,29.248047 32.691406,23.722656 a 1.2457259,1.2457259 0 0 0 -1.722656,1.396485 l 2.666016,12.705078 -2.478516,0.06641 a 1.2457259,1.2457259 0 1 0 0.06641,2.490234 l 3.970703,-0.105468 a 1.2457259,1.2457259 0 0 0 1.185547,-1.5 l -2.474609,-11.792969 10.867187,4.800781 -2.660156,15.712891 a 1.2457259,1.2457259 0 0 0 1.058594,1.441406 l 5.03125,0.693359 a 1.2457259,1.2457259 0 1 0 0.339844,-2.466797 l -3.759766,-0.519531 5.154297,-30.43164 a 1.2457259,1.2457259 0 0 0 -1.285156,-1.470703 z"/>
	<path d="m 63.607422,8.9277344 a 1.2457259,1.2457259 0 0 0 -0.925781,2.1132816 l 8.730468,9.214843 a 1.2457259,1.2457259 0 0 0 1.658203,0.132813 l 11.59375,-8.824219 A 1.245932,1.245932 0 0 0 83.154297,9.5820312 L 72.451172,17.730469 64.490234,9.328125 A 1.2457259,1.2457259 0 0 0 63.607422,8.9277344 Z"/>
	<path d="m 57.525391,9.1367188 a 1.2457259,1.2457259 0 0 0 -0.857422,0.375 L 47.890625,18.236328 39.154297,9.6230469 A 1.245761,1.245761 0 1 0 37.40625,11.398438 L 47.021484,20.875 a 1.2457259,1.2457259 0 0 0 1.751954,-0.0039 l 9.65039,-9.591797 A 1.2457259,1.2457259 0 0 0 57.525391,9.1367188 Z"/>
	<path d="M 73.416016,13.765625 A 1.2457259,1.2457259 0 0 0 72.224609,14.9375 l -1.011718,13.798828 -12.566407,3.173828 a 1.2457259,1.2457259 0 0 0 -0.875,1.603516 l 2.97461,8.894531 -2.457032,0.466797 a 1.2457259,1.2457259 0 1 0 0.464844,2.447266 l 3.859375,-0.732422 A 1.2457259,1.2457259 0 0 0 63.5625,42.970703 l -3.003906,-8.972656 11.019531,-2.783203 8.675781,6.384765 -7.414062,9.75586 a 1.2457259,1.2457259 0 0 0 0.748047,1.974609 l 3.208984,0.642578 a 1.2458352,1.2458352 0 1 0 0.488281,-2.443359 l -1.255859,-0.25 6.974609,-9.179688 A 1.2457259,1.2457259 0 0 0 82.75,36.34375 l -9.107422,-6.701172 1.066406,-14.523437 a 1.2457259,1.2457259 0 0 0 -1.292968,-1.353516 z"/>
	<path d="M 73.431641 9.4003906 C 71.856515 9.4003905 70.566407 10.664657 70.566406 12.222656 C 70.566406 13.780656 71.856514 15.046875 73.431641 15.046875 C 75.006767 15.046875 76.298829 13.780656 76.298828 12.222656 C 76.298828 10.664657 75.006766 9.4003911 73.431641 9.4003906 z"/>
	<path d="m 114.19141,0.00195313 a 1.2457259,1.2457259 0 0 0 -1.18946,1.29882807 l 0.27735,9.1796878 -10.54492,7.179687 -9.218755,-8.2285154 a 1.2457259,1.2457259 0 1 0 -1.660156,1.8574214 l 9.945311,8.878907 a 1.2457259,1.2457259 0 0 0 1.53125,0.09961 l 11.91406,-8.111328 a 1.2457259,1.2457259 0 0 0 0.54493,-1.068359 l -0.29883,-9.8613285 a 1.2457259,1.2457259 0 0 0 -1.30078,-1.22460937 z"/>
	<path d="m 103.05469,14.429688 a 1.2457259,1.2457259 0 0 0 -1.28711,1.203124 l -0.69727,14.585938 -7.472654,14.537109 -3.33789,-0.945312 a 1.2457259,1.2457259 0 1 0 -0.677735,2.396484 l 4.31836,1.222657 a 1.2457259,1.2457259 0 0 0 1.447265,-0.628907 L 102.63477,32.625 l 6.55664,13.714844 a 1.2457259,1.2457259 0 0 0 1.84179,0.480468 l 3.83203,-2.699218 a 1.2457259,1.2457259 0 1 0 -1.43359,-2.03711 l -2.62891,1.851563 -6.93945,-14.511719 a 1.2457259,1.2457259 0 0 0 -0.24414,-0.353516 l 0.63672,-13.318359 a 1.2457259,1.2457259 0 0 0 -1.20117,-1.322265 z"/>
	<path d="M 103.375 9.2480469 C 101.33178 9.2480471 99.660156 10.884553 99.660156 12.902344 C 99.660156 14.920135 101.33178 16.558594 103.375 16.558594 C 105.41822 16.558594 107.08789 14.920135 107.08789 12.902344 C 107.08789 10.884553 105.41822 9.2480471 103.375 9.2480469 z"/>
	<path d="M 114.46484 0.30859375 A 0.99658071 0.99658071 0 0 0 113.46875 1.3046875 L 113.46875 5.3808594 A 0.99658071 0.99658071 0 0 0 114.46484 6.3769531 L 120.32422 6.3769531 A 0.99658071 0.99658071 0 0 0 121.32031 5.3808594 L 121.32031 1.3046875 A 0.99658071 0.99658071 0 0 0 120.32422 0.30859375 L 114.46484 0.30859375 z"/>
	<path d="m 122.34961,8.9980469 a 1.2457259,1.2457259 0 0 0 -0.8418,2.1484371 l 9.41407,9.183594 a 1.2457259,1.2457259 0 0 0 1.63085,0.0957 l 11.64454,-8.990234 a 1.2457259,1.2457259 0 1 0 -1.52344,-1.9707032 l -10.78711,8.3281252 -8.63867,-8.4296878 a 1.2457259,1.2457259 0 0 0 -0.89844,-0.3652343 z"/>
	<path d="m 132.04883,13.167969 a 1.2457259,1.2457259 0 0 0 -1.18555,1.302734 l 0.55469,16.96875 -4.91992,13.59375 -2.63477,-0.580078 a 1.2460805,1.2460805 0 1 0 -0.53711,2.433594 l 3.70508,0.814453 a 1.2457259,1.2457259 0 0 0 1.4375,-0.791016 l 4.22461,-11.671875 5.23828,11.117188 a 1.2457259,1.2457259 0 0 0 1.55664,0.638672 l 3.89844,-1.433594 a 1.2457259,1.2457259 0 1 0 -0.85742,-2.337891 l -2.83008,1.039063 -5.71484,-12.13086 a 1.2457259,1.2457259 0 0 0 -0.10547,-0.185547 1.2457259,1.2457259 0 0 0 0.0371,-0.347656 l -0.5625,-17.208984 a 1.2457259,1.2457259 0 0 0 -1.30469,-1.220703 z"/>
	<path d="M 131.63281 8.8378906 C 130.05768 8.8378868 128.76562 10.102154 128.76562 11.660156 C 128.76564 13.218158 130.05768 14.482426 131.63281 14.482422 C 133.20794 14.48242 134.5 13.218154 134.5 11.660156 C 134.5 10.102158 133.20794 8.837893 131.63281 8.8378906 z"/>
	<path d="M 157.43555,5.7480469 A 1.2457259,1.2457259 0 0 0 156.26367,6.46875 l -3.76953,7.84375 a 1.2457259,1.2457259 0 0 0 0.70898,1.714844 l 16.84376,5.927734 -6.84376,5.013672 -11.8457,2.541016 a 1.2457259,1.2457259 0 0 0 -0.97265,1.044922 l -1.34766,9.65039 -2.47461,0.183594 a 1.2457259,1.2457259 0 1 0 0.18359,2.484375 l 3.47657,-0.257813 a 1.2457259,1.2457259 0 0 0 1.14257,-1.070312 l 1.36524,-9.783203 11.25391,-2.41211 a 1.2457259,1.2457259 0 0 0 0.47656,-0.21289 l 8.96484,-6.570313 a 1.2457259,1.2457259 0 0 0 -0.32226,-2.179687 l -17.76172,-6.248047 3.16797,-6.591797 a 1.2457259,1.2457259 0 0 0 -1.07422,-1.7988281 z"/>
	<path d="m 164.8457,12.416016 a 1.2457259,1.2457259 0 0 0 -1.2539,1.101562 l -1.92969,14.785156 a 1.2457259,1.2457259 0 0 0 0.19141,0.839844 l 5.25586,8.083984 -5.16407,9.019532 a 1.2457259,1.2457259 0 0 0 1.10157,1.865234 l 4.68554,-0.08008 a 1.2462795,1.2462795 0 1 0 -0.043,-2.492188 l -2.49218,0.04297 4.45312,-7.777343 a 1.2457259,1.2457259 0 0 0 -0.0371,-1.298829 l -5.42187,-8.335937 1.86914,-14.330078 a 1.2457259,1.2457259 0 0 0 -1.21485,-1.423828 z"/>
	<path d="M 165.56055 8.1230469 C 163.51733 8.1230471 161.84766 9.7615057 161.84766 11.779297 C 161.84766 13.797087 163.51733 15.433594 165.56055 15.433594 C 167.60376 15.433594 169.27539 13.797087 169.27539 11.779297 C 169.27539 9.7615057 167.60376 8.1230471 165.56055 8.1230469 z"/>
	<path d="m 189.18945,5.8007812 a 1.2457259,1.2457259 0 0 0 -1.14453,0.9335938 l -2.53125,9.318359 a 1.2457259,1.2457259 0 0 0 0.90235,1.535157 l 17.38086,4.310547 a 1.2457259,1.2457259 0 0 0 1.42773,-0.681641 l 4.51758,-9.650391 a 1.2457259,1.2457259 0 1 0 -2.25586,-1.05664 l -4.08399,8.724609 -15.15039,-3.757813 2.19727,-8.0898432 a 1.2457259,1.2457259 0 0 0 -1.25977,-1.5859376 z"/>
	<path d="m 197.26172,12.564453 a 1.2457259,1.2457259 0 0 0 -1.25,1.109375 l -1.88086,15.089844 -11.43359,-3.101563 a 1.2457259,1.2457259 0 0 0 -1.50391,1.607422 l 3.24414,9.421875 -2.28906,0.205078 a 1.2457259,1.2457259 0 1 0 0.2207,2.480469 l 3.875,-0.345703 a 1.2457259,1.2457259 0 0 0 1.06641,-1.646484 l -2.9961,-8.703125 10.54883,2.861328 a 1.2457259,1.2457259 0 0 0 1.56055,-1.046875 l 2.06055,-16.513672 a 1.2457259,1.2457259 0 0 0 -1.22266,-1.417969 z"/>
	<path d="m 194.26367,27.722656 a 1.2457259,1.2457259 0 0 0 -0.95117,1.986328 l 6.0625,8.416016 -5.60742,8.113281 a 1.2457259,1.2457259 0 0 0 0.85156,1.94336 l 4.4082,0.613281 a 1.2457259,1.2457259 0 1 0 0.34375,-2.466797 l -2.40429,-0.335937 4.95703,-7.173829 a 1.2457259,1.2457259 0 0 0 -0.0137,-1.4375 l -6.57618,-9.126953 a 1.2457259,1.2457259 0 0 0 -1.07031,-0.53125 z"/>
	<path d="M 197.77148 7.7910156 C 195.72827 7.7910159 194.05859 9.4275219 194.05859 11.445312 C 194.05859 13.463104 195.72827 15.101563 197.77148 15.101562 C 199.8147 15.101562 201.48633 13.463104 201.48633 11.445312 C 201.48633 9.4275219 199.8147 7.7910159 197.77148 7.7910156 z"/>
	<path d="m 217.72656,8.8613281 a 1.2457259,1.2457259 0 0 0 -0.83789,2.1503909 l 10.7793,10.470703 a 1.2457259,1.2457259 0 0 0 1.59765,0.117187 l 11.45704,-8.291015 a 1.2457259,1.2457259 0 1 0 -1.45899,-2.017578 L 228.65234,18.966797 218.625,9.2246094 a 1.2457259,1.2457259 0 0 0 -0.89844,-0.3632813 z"/>
	<path d="m 209.35742,24.269531 a 1.2457259,1.2457259 0 0 0 -1.18945,1.296875 l 0.14258,4.839844 a 1.2457259,1.2457259 0 0 0 1.26953,1.208984 l 18.75976,-0.380859 a 1.2457259,1.2457259 0 1 0 -0.0508,-2.490234 l -17.52539,0.355468 -0.10547,-3.605468 a 1.2457259,1.2457259 0 0 0 -1.30078,-1.22461 z"/>
	<path d="m 228.60352,13.511719 a 1.2457259,1.2457259 0 0 0 -1.28711,1.203125 l -1.57422,32.24414 a 1.2457259,1.2457259 0 0 0 1.32031,1.302735 l 4.5,-0.275391 A 1.2457259,1.2457259 0 1 0 231.41016,45.5 l -3.11133,0.191406 1.50586,-30.855468 a 1.2457259,1.2457259 0 0 0 -1.20117,-1.324219 z"/>
	<path d="M 228.42969 8.5566406 C 226.38647 8.5566409 224.7168 10.193146 224.7168 12.210938 C 224.7168 14.228727 226.38647 15.867187 228.42969 15.867188 C 230.4729 15.867187 232.14453 14.228727 232.14453 12.210938 C 232.14453 10.193147 230.4729 8.5566409 228.42969 8.5566406 z"/>
	<path d="m 246.51758,8.7675781 a 1.2457259,1.2457259 0 0 0 -0.78125,2.1718749 l 10.06836,9.294922 a 1.2457259,1.2457259 0 0 0 1.51562,0.134766 l 12.08985,-7.730469 a 1.2458721,1.2458721 0 1 0 -1.3418,-2.09961 l -11.2793,7.212891 -9.36328,-8.642578 a 1.2457259,1.2457259 0 0 0 -0.9082,-0.3417969 z"/>
	<path d="m 257.83789,13.078125 a 1.2457259,1.2457259 0 0 0 -1.28711,1.203125 l -0.89453,18.234375 -5.16602,12.798828 -4.74023,-0.841797 a 1.2457454,1.2457454 0 1 0 -0.43555,2.453125 l 5.73438,1.019531 a 1.2457259,1.2457259 0 0 0 1.37305,-0.761718 l 4.70507,-11.658203 6.08008,11.886718 a 1.2457259,1.2457259 0 0 0 1.67969,0.541016 l 3.30664,-1.707031 a 1.2457259,1.2457259 0 1 0 -1.14258,-2.212891 L 264.85352,45.166016 258.25,32.251953 a 1.2457259,1.2457259 0 0 0 -0.0801,-0.136719 l 0.86914,-17.71289 a 1.2457259,1.2457259 0 0 0 -1.20117,-1.324219 z"/>
	<path d="M 257.62695 8.5117188 C 255.77646 8.5117165 254.26172 9.9936853 254.26172 11.822266 C 254.26172 13.650845 255.77646 15.134768 257.62695 15.134766 C 259.47744 15.134762 260.99219 13.650841 260.99219 11.822266 C 260.99219 9.9936896 259.47744 8.5117225 257.62695 8.5117188 z"/>
</svg>
