<?xml version="1.0" encoding="utf-8"?>
<svg xmlns="http://www.w3.org/2000/svg" xmlns:svg="http://www.w3.org/2000/svg" version="1.1" viewBox="0 0 464 150">
	<title>A page torn from a notebook, on which is marked a line of fifteen small figures of dancing men in various attitudes and positions, some holding up black flags.</title>
	<path d="m 5.9153058,1.9811598 c -5.75558596,3.583358 -6.41560696,6.883975 -5.66129696,27.9158632 0.378147,10.185584 0.566726,26.50117 0.472436,36.121275 -0.283858,47.249332 0.188578,82.993622 1.22575496,83.653342 0.566725,0.28274 5.567008,0.47124 11.1340172,0.1885 9.246256,-0.37699 10.190135,-0.56548 12.266474,-2.92363 1.225754,-1.32045 2.169634,-3.01788 2.263923,-3.77185 0,-2.64089 3.019227,-3.77285 11.228306,-4.05559 6.509896,-0.28274 9.340544,-0.84921 13.209362,-2.82938 4.43455,-2.2639 5.944163,-2.4524 14.530398,-2.16966 6.321319,0.18949 9.812981,-0.0942 10.284425,-0.84822 1.132458,-1.69743 5.944164,-3.58435 7.73664,-2.92363 0.84959,0.37699 2.4535,-0.28274 3.68025,-1.32044 3.30208,-3.01788 11.03873,-4.62107 15.001835,-3.11213 4.24596,1.50894 6.03845,0.75397 8.58623,-3.58435 1.13246,-1.88592 2.64207,-3.48911 3.30209,-3.48911 2.83065,0 11.88833,3.96134 12.45505,5.37603 0.75432,2.16866 6.41561,5.56353 9.24626,5.46928 1.22675,0 3.11351,-0.56548 4.15169,-1.41469 2.54777,-1.88593 7.45377,-1.88593 9.90726,-0.0942 2.64207,1.98117 4.81171,1.88692 9.15197,-0.28274 3.11352,-1.60318 4.62313,-1.79168 9.53012,-0.94246 3.39637,0.47123 6.22703,0.47123 6.79276,0 0.47243,-0.47223 4.24597,-0.66072 8.30337,-0.37798 4.62313,0.28274 8.8691,0 11.22831,-0.75398 2.73635,-0.94345 5.00028,-1.0377 8.58623,-0.18849 2.83065,0.56548 5.28314,0.65973 5.84987,0.0942 1.79249,-1.50894 17.07719,-2.07541 19.24781,-0.75497 1.41533,0.94346 2.73636,0.84921 5.94417,-0.18849 3.39638,-1.13195 4.71741,-1.13195 7.54807,-0.0943 3.01922,1.03771 3.86881,1.03771 6.03845,-0.47123 1.79347,-1.13195 4.62412,-1.69842 9.15296,-1.69842 7.07662,0 9.81199,-0.65973 12.26547,-3.11213 1.32104,-1.32044 1.60391,-1.22521 2.07635,0.94346 0.37715,1.32045 1.13147,2.4524 1.6039,2.4524 0.56573,0 1.03717,0.65972 1.03717,1.50894 0,2.35715 9.81298,0.84822 11.98361,-1.79267 1.50962,-1.88593 1.6039,-1.88593 4.24598,-0.1885 2.73536,1.79267 2.82966,1.79267 4.15069,-0.0942 0.7553,-1.03672 1.13246,-2.45141 0.84959,-3.20638 -0.37715,-1.0377 0.0942,-1.22619 1.69819,-0.84822 1.32103,0.37699 2.64207,0.65973 3.11351,0.65973 0.47245,0 -0.0943,1.2262 -1.22674,2.64089 -2.64108,3.30062 -1.79248,4.33832 1.22674,1.50894 1.60391,-1.50894 3.49166,-2.16966 6.51089,-2.16966 6.03846,0 4.71742,-2.16866 -2.07634,-3.58335 -3.01922,-0.56648 -5.94416,-1.4147 -6.60418,-1.79168 -1.50961,-0.94346 -5.09556,1.13096 -5.09556,3.01787 0,1.13096 -0.47145,1.32045 -1.69819,0.84822 -4.34027,-1.79167 -5.18887,-1.69743 -6.32132,0.94346 -1.03817,2.07442 -1.88777,2.54665 -4.90699,2.54665 -5.00028,0 -6.88705,-2.35815 -6.88705,-8.48815 0.0943,-11.12905 -1.32103,-17.259056 -3.96311,-17.259056 -1.50961,0 -2.17062,3.961346 -1.03817,5.470286 0.66102,0.75397 1.22675,3.96034 1.32103,7.26195 0.28287,8.5824 -1.32103,9.99709 -11.13401,10.09134 -4.62312,0 -8.39666,0.56548 -9.90627,1.41469 -3.2088,1.88592 -5.18986,1.88592 -4.8127,0.0942 0.37814,-1.98117 -0.18858,-1.98117 -7.17092,0.28274 -4.43455,1.41469 -7.1709,1.41469 -6.4156,0.0942 1.22674,-1.88592 -0.56574,-2.92363 -2.73637,-1.50894 -1.98105,1.2262 -7.45376,2.07442 -10.09584,1.50894 -1.98106,-0.37698 -6.98233,0.28274 -7.92522,1.03771 -0.56673,0.47123 -3.2078,0.37698 -5.94416,-0.0942 -3.30309,-0.66072 -5.94417,-0.56647 -8.20908,0.18849 -2.26492,0.75398 -3.68024,0.75398 -4.34027,0.0942 -0.7543,-0.66072 -1.88676,-0.47222 -3.68023,0.56548 -1.79248,1.03771 -3.67925,1.32045 -5.47173,0.84921 -2.73636,-0.66072 -2.73636,-0.75496 -1.03817,-2.64089 1.69819,-1.88592 1.6039,-1.98017 -0.37716,-1.98017 -1.13245,0 -2.83064,1.13096 -3.77452,2.54565 -1.32104,1.98117 -2.4535,2.4524 -5.84988,2.4524 -4.0574,0 -6.69847,-2.07442 -4.43455,-3.48911 1.69819,-1.03771 1.03817,-2.4524 -1.03817,-2.4524 -1.22575,0 -2.35821,0.94346 -2.92494,2.4524 -0.94288,2.4514 -5.56601,5.46928 -8.39666,5.46928 -1.22675,0 -1.50961,-0.56548 -0.94388,-2.16866 0.56573,-1.79168 0.37716,-1.98018 -1.69819,-1.32045 -1.32104,0.37699 -3.68024,0.94346 -5.28414,1.2262 -2.45349,0.37699 -2.73636,0.28274 -1.79248,-0.75497 1.69819,-1.79167 1.6039,-2.92363 -0.28287,-2.92363 -0.84959,0 -2.26492,1.32045 -3.2078,2.92363 -1.88776,3.39586 -4.62412,3.86709 -9.05867,1.60319 -3.20781,-1.69743 -4.62313,-4.52682 -2.83065,-5.65778 1.41532,-0.84921 0.47243,-1.2262 -2.4525,-0.84921 -1.03817,0.0943 -2.4535,-0.37699 -3.2088,-0.94346 -0.7543,-0.65972 -2.16964,-1.03671 -3.11351,-0.94246 -1.03718,0.0942 -2.64108,-0.0943 -3.58496,-0.56648 -2.07634,-0.84822 -6.69947,0.84922 -6.69947,2.54665 0,1.88592 -3.67925,6.03575 -4.43455,4.9038 -1.41533,-2.35716 -15.757135,-0.47123 -19.342095,2.54664 -1.22675,1.03771 -1.88677,1.03771 -2.736362,0.1885 -0.849591,-0.84822 -1.603902,-0.75398 -2.924937,0.47222 -1.03817,0.94247 -2.642071,1.69744 -3.58496,1.69744 -1.038168,0 -1.982049,0.84822 -2.264915,1.98017 -0.471444,1.50894 -1.132458,1.79168 -3.207804,1.32044 -1.415324,-0.28274 -3.207803,-0.94346 -4.057395,-1.32044 -0.849591,-0.47124 -2.830649,-0.56548 -4.434551,-0.28274 -1.69819,0.28274 -4.057395,0.47123 -5.472719,0.47123 -1.321035,0 -4.43455,1.13195 -6.888044,2.54665 -3.584958,2.16965 -5.755586,2.64089 -11.888326,2.73513 -8.302376,0.1885 -12.736927,1.50894 -13.492229,4.14983 -1.981057,6.41274 -2.169635,6.60124 -12.455053,6.69548 l -9.6234112,0 -0.282866,-62.905188 C 3.3675238,10.279827 3.3675238,9.1488668 5.2552838,6.3194828 8.2745108,1.7916748 -18.428073,1.9811598 355.96589,3.0178728 c 51.79928,0.188494 95.67433,0.660719 97.4668,1.037706 7.45378,1.603185 6.98234,-2.263904 7.17092,61.6789872 0.18858,56.586694 0.18858,57.435904 -1.79248,58.095634 -1.03817,0.47223 -2.54778,0.37798 -3.30309,-0.0942 -1.69819,-1.03671 -5.75558,0.56648 -8.39765,3.39586 -2.82965,3.11212 -15.379,5.94151 -20.19071,4.62106 -2.54778,-0.75496 -3.9631,-0.56647 -6.22802,0.56548 -1.6039,0.84922 -3.58495,1.32045 -4.24597,1.03771 -0.75431,-0.28274 -2.07534,0 -3.01923,0.75397 -1.13146,0.75497 -4.62312,1.13195 -10.28442,0.94346 -8.49194,-0.18849 -13.68081,-1.60318 -15.28471,-4.05558 -0.37815,-0.65973 -1.32104,-1.32045 -1.98205,-1.32045 -0.66002,0 -3.96211,-1.31945 -7.35949,-3.01788 -5.84987,-2.73513 -6.69847,-2.92363 -13.20936,-2.26291 -5.37743,0.47124 -7.2652,0.37699 -7.83093,-0.66072 -0.66101,-1.03671 -1.13245,-1.03671 -2.26492,-0.18849 -0.8486,0.75497 -4.43455,1.13195 -9.71769,0.94346 -7.54906,-0.18849 -8.30337,-0.47123 -8.30337,-2.16966 0,-1.13096 0.94387,-2.4514 2.16963,-3.01788 2.4535,-1.03671 2.83065,-1.98017 1.32104,-2.92363 -1.79248,-1.13195 -5.84987,1.69744 -6.22703,4.33833 -0.18858,2.07541 -0.84959,2.64089 -3.20781,2.82938 -6.51088,0.47223 -13.02078,1.41469 -14.34182,1.98116 -3.39638,1.31946 -5.28414,1.4147 -12.26548,0.56548 -3.86882,-0.47123 -4.71841,-0.28274 -4.34026,0.75398 0.28287,0.84921 1.6039,1.32044 3.58496,1.13195 1.69819,-0.0942 3.11351,0.18849 3.11351,0.75497 0,1.22619 4.43455,1.32044 6.79376,0 3.01923,-1.60319 11.88833,-2.35816 24.9091,-2.07542 36.51459,0.75497 34.81639,0.66072 40.3834,3.30161 2.83065,1.4147 5.94416,3.11213 6.88705,3.96035 4.43455,3.67859 23.49478,5.75301 27.64547,3.01788 1.32104,-0.84822 2.64207,-1.31946 2.92494,-0.94247 0.37814,0.28274 2.35921,-0.0942 4.43455,-0.94346 3.11451,-1.2262 4.43555,-1.32044 7.2652,-0.37699 2.64207,0.84822 4.43554,0.84822 6.88804,0 1.79248,-0.56647 4.8127,-1.13195 6.69947,-1.32044 2.07535,-0.18849 4.62313,-1.41469 6.69847,-3.20637 2.64207,-2.35815 4.34026,-3.01788 9.34154,-3.39586 L 464,126.28265 464,77.240645 c 0,-26.972403 -0.28287,-53.945799 -0.47146,-60.075801 -0.47243,-10.2798312 -0.75529,-11.1290432 -3.01921,-13.0149682 -1.32104,-1.131953 -4.907,-2.452398 -7.92622,-3.017878 C 448.80957,0.37703278 379.36539,4.5776367e-5 228.21153,4.5776367e-5 c -217.955962,0 -218.9941322,0 -222.2962242,1.981164023633 z"/>
	<path d="m 294.98484,47.852501 a 3.3408003,3.2688713 0 0 1 -3.3408,3.268871 3.3408003,3.2688713 0 0 1 -3.3408,-3.268871 3.3408003,3.2688713 0 0 1 3.3408,-3.268871 3.3408003,3.2688713 0 0 1 3.3408,3.268871 z"/>
	<path d="m 283.84766,43.035156 -2.79883,8.445313 18.29101,5.560547 3.44532,-8.371094 -2.29493,-0.94336 -2.58593,6.285157 -13.70118,-4.166016 2,-6.03125 -2.35546,-0.779297 z"/>
	<path d="m 289.74609,51.28125 -2.32617,10.591797 -11.33008,-3.644531 4.79102,10.632812 -2.45117,2.023438 1.58008,1.912109 3.91015,-3.228516 -3.27539,-7.267578 8.61133,2.769531 2.91211,-13.255859 -2.42188,-0.533203 z"/>
	<path d="m 289.33203,62.472656 -2.08008,1.351563 5.28321,8.134765 -4.93946,9.515625 6.21485,-0.07227 -0.0273,-2.480469 -2.08008,0.02539 3.69922,-7.128907 -6.07031,-9.345703 z"/>
	<path d="m 324.74537,47.515198 a 3.3408003,3.2688713 0 0 1 -3.3408,3.268871 3.3408003,3.2688713 0 0 1 -3.3408,-3.268871 3.3408003,3.2688713 0 0 1 3.3408,-3.268872 3.3408003,3.2688713 0 0 1 3.3408,3.268872 z"/>
	<path d="m 310.94531,44.255859 -1.34179,8.636719 15.82031,4.916016 -7.83789,5.253906 -10.36133,3.839844 -1.90625,8.195312 -2.38672,-0.574218 -0.58008,2.412109 4.81641,1.158203 2.16992,-9.330078 9.38672,-3.478516 12.39062,-8.304687 -18.73242,-5.822266 1.01367,-6.521484 -2.45117,-0.38086 z"/>
	<path d="m 320.21875,48.855469 -2.4668,14.097656 2.44336,0.427734 2.4668,-14.097656 -2.44336,-0.427734 z m -1.0918,14.957031 -1.54687,1.9375 7.66992,6.125 -8.17578,9.089844 6.75,1.71875 0.61133,-2.404297 -2.77149,-0.705078 7.18946,-7.996094 -9.72657,-7.765625 z"/>
	<path d="m 353.48558,46.731464 a 3.3408003,3.2688713 0 0 1 -3.3408,3.268872 3.3408003,3.2688713 0 0 1 -3.3408,-3.268872 3.3408003,3.2688713 0 0 1 3.3408,-3.268871 3.3408003,3.2688713 0 0 1 3.3408,3.268871 z"/>
	<path d="m 358.66211,43.876953 -8.98828,8.462891 -9.76172,-7.197266 -1.4707,1.996094 11.42773,8.425781 10.49414,-9.880859 -1.70117,-1.806641 z"/>
	<path d="m 349.02344,49.289062 -1.09375,14.617188 -5.11524,15.181641 -3.02929,-1.681641 -1.20313,2.167969 5.63086,3.128906 6.0625,-17.992187 8.36328,4.589843 -6.43359,9.517578 5.98828,1.078125 0.43945,-2.441406 -2.24023,-0.402344 5.82422,-8.617187 -11.25196,-6.173828 -0.49218,0.898437 1.02343,-13.685547 -2.47265,-0.185547 z"/>
	<path d="m 382.76673,46.849522 a 3.3408003,3.2688713 0 0 1 -3.3408,3.268871 3.3408003,3.2688713 0 0 1 -3.3408,-3.268871 3.3408003,3.2688713 0 0 1 3.3408,-3.268872 3.3408003,3.2688713 0 0 1 3.3408,3.268872 z"/>
	<path d="m 390.94727,44.160156 -20.26954,16.205078 7.8711,5.330078 6.39844,6.351563 -6.82422,8.611328 5.86133,1.804688 0.73046,-2.371094 -2.39257,-0.736328 5.94726,-7.50586 -8.13867,-8.078125 -5.27344,-3.572265 17.63867,-14.101563 -1.54882,-1.9375 z"/>
	<path d="m 381.2832,49.765625 -2.48047,0.04492 0.23243,13.404297 -12.27735,3.773437 4.17969,9.1875 -4.64062,0.970703 0.50781,2.427735 7.67187,-1.603516 -4.29101,-9.439453 11.36133,-3.494141 -0.26368,-15.271484 z"/>
	<path d="m 435.50096,48.196751 a 3.3408003,3.2688713 0 0 1 -3.3408,3.268871 3.3408003,3.2688713 0 0 1 -3.3408,-3.268871 3.3408003,3.2688713 0 0 1 3.3408,-3.268872 3.3408003,3.2688713 0 0 1 3.3408,3.268872 z"/>
	<path d="m 445.33789,44.132812 -11.74609,9.59375 0.0605,-4.197265 -2.48046,-0.03516 -0.18946,13.18164 -14.375,0.453125 10.17188,10.054688 -2.22266,2.246094 1.76367,1.74414 3.96875,-4.009766 -7.82812,-7.738281 10.96875,-0.345703 0.11523,-8.109375 13.36328,-10.916015 -1.57031,-1.921876 z"/>
	<path d="m 432.7832,62.375 -1.875,1.625 7.12696,8.224609 -7.2168,8.705079 4.97656,2.201171 1.00196,-2.269531 -1.97461,-0.873047 6.46484,-7.800781 -8.50391,-9.8125 z"/>
	<path d="m 233.77952,48.019169 a 3.3408003,3.2688713 0 0 1 -3.3408,3.268871 3.3408003,3.2688713 0 0 1 -3.3408,-3.268871 3.3408003,3.2688713 0 0 1 3.3408,-3.268871 3.3408003,3.2688713 0 0 1 3.3408,3.268871 z"/>
	<path d="m 229.41016,50.234375 -0.33985,12.808594 -9.67969,7.140625 7.64258,7.673828 -1.73828,1.478516 1.60742,1.888671 3.78321,-3.216797 -7.50586,-7.535156 8.33789,-6.152344 0.37109,-14.019531 -2.47851,-0.06641 z"/>
	<path d="m 230.63867,62.767578 -0.88281,2.31836 9.54492,3.634765 -7.89258,9.169922 5.20313,2.525391 1.08398,-2.232422 -2.30469,-1.117188 8.09766,-9.40625 -12.84961,-4.892578 z"/>
	<path d="m 59.585475,47.881271 a 3.3408003,3.2688713 0 0 1 -3.3408,3.268872 3.3408003,3.2688713 0 0 1 -3.340801,-3.268872 3.3408003,3.2688713 0 0 1 3.340801,-3.268871 3.3408003,3.2688713 0 0 1 3.3408,3.268871 z"/>
	<path d="m 72.354161,34.751222 -5.830024,0.128969 0.130019,5.815515 5.829032,-0.128969 -0.129027,-5.815515 z"/>
	<path d="m 67.625,34.865234 -2.478516,0.0957 0.376954,9.693359 -9.28125,8.222656 L 45.521484,42.683594 43.810547,44.480469 56.181641,56.244141 68.046875,45.732422 67.625,34.865234 Z"/>
	<path d="m 23.835938,50.298828 -0.06641,13.986328 -6.208984,13.5 -2.277344,-1.791015 -1.533203,1.951171 4.748047,3.736329 7.470703,-16.240235 6.398438,2.896485 -5.484376,8.849609 5.564454,2.4375 0.996093,-2.273438 -2.945312,-1.289062 5.466797,-8.820312 -9.707032,-4.392579 0.05859,-12.539062 -2.480468,-0.01172 z m 31.285156,1.802734 -0.878906,11.089844 -11.462891,5.208985 7.925781,7.386718 -2.382812,0.150391 0.15625,2.476562 8.134765,-0.513671 -9.421875,-8.779297 9.410156,-4.275391 0.06641,-0.851562 7.724609,6.476562 -8.068359,9.376953 6.958984,0.369141 0.130859,-2.476563 -1.916015,-0.101562 6.414062,-7.453125 -9.929687,-8.326172 -1.263672,1.507813 0.875,-11.070313 -2.472656,-0.195313 z"/>
	<path d="m 28.735179,46.433842 a 3.3408003,3.2688713 0 0 1 -3.3408,3.268871 3.3408003,3.2688713 0 0 1 -3.340801,-3.268871 3.3408003,3.2688713 0 0 1 3.340801,-3.268872 3.3408003,3.2688713 0 0 1 3.3408,3.268872 z"/>
	<path d="M 15.111328,42.017578 13.5,43.904297 l 11.572266,9.890625 12.28125,-8.3125 -1.390625,-2.054688 -10.714844,7.253907 -10.136719,-8.664063 z m 178.021482,1.650391 -1.7207,1.787109 10.13086,9.753906 12.5957,-8.673828 -1.40625,-2.042968 -10.92773,7.523437 -8.67188,-8.347656 z"/>
	<path d="m 200.9375,51.107422 -0.4707,11.923828 -5.00977,15.695312 -2.69922,-0.998046 -0.86133,2.328125 5.13477,1.896484 5.4668,-17.123047 7.65429,3.962891 -6.2207,8.697265 6.8125,1.314454 0.46875,-2.435547 -3.01367,-0.582032 5.63672,-7.882812 -10.69336,-5.533203 -0.17969,0.347656 0.45313,-11.513672 -2.47852,-0.09766 z"/>
	<path d="m 205.51474,47.446743 a 3.3408003,3.2688713 0 0 1 -3.34081,3.268871 3.3408003,3.2688713 0 0 1 -3.3408,-3.268871 3.3408003,3.2688713 0 0 1 3.3408,-3.268871 3.3408003,3.2688713 0 0 1 3.34081,3.268871 z"/>
	<path d="m 77.310547,44.310547 -1.597656,1.898437 9.652343,8.125 9.800782,-7.11914 -1.458985,-2.007813 -8.230469,5.978516 -8.166015,-6.875 z"/>
	<path d="m 84.445312,50.941406 -0.271484,28.1875 c -1.067083,0.01076 -2.259766,0.02539 -2.259766,0.02539 l 0.04297,2.480469 c 0,0 1.166707,-0.0148 2.19336,-0.02539 l -0.0059,0.666016 1.41211,-0.181641 c 0,0 0.628278,-0.08125 1.263671,-0.177734 0.317697,-0.04824 0.634117,-0.09925 0.900391,-0.152344 0.133137,-0.02654 0.248382,-0.05064 0.386719,-0.0918 0.06917,-0.02058 0.135997,-0.03571 0.28125,-0.109375 0.07263,-0.03683 0.168731,-0.07679 0.330078,-0.236328 0.08067,-0.07977 0.18326,-0.19525 0.269531,-0.394531 0.04314,-0.09964 0.0956,-0.356521 0.0957,-0.357422 1.02e-4,-9.01e-4 -0.02324,-0.419046 -0.02344,-0.419922 -1.28e-4,-5.54e-4 -0.126647,-0.327578 -0.126953,-0.328125 -3.06e-4,-5.47e-4 -0.107893,-0.164203 -0.160156,-0.222656 -0.104528,-0.116907 -0.193867,-0.181256 -0.265626,-0.226563 -0.143516,-0.09061 -0.224788,-0.113686 -0.289062,-0.134765 -0.128548,-0.04216 -0.190025,-0.0495 -0.248047,-0.05859 -0.116043,-0.01819 -0.2016,-0.02462 -0.302734,-0.03125 -0.202269,-0.01327 -0.44453,-0.02007 -0.732422,-0.02539 -0.07804,-0.0014 -0.195513,0.0011 -0.279297,0 l 0.271484,-28.162109 -2.482422,-0.02344 z"/>
	<path d="m 89.160396,46.770153 a 3.3408003,3.2688713 0 0 1 -3.340801,3.268871 3.3408003,3.2688713 0 0 1 -3.3408,-3.268871 3.3408003,3.2688713 0 0 1 3.3408,-3.268871 3.3408003,3.2688713 0 0 1 3.340801,3.268871 z"/>
	<path d="m 122.37891,44.742188 -9.31446,7.074218 -8.72656,-6.992187 -1.55078,1.935547 10.23633,8.203125 10.85547,-8.246094 -1.5,-1.974609 z"/>
	<path d="m 114.53711,50.986328 -2.48047,0.07031 0.50781,17.789062 -5.24804,9.056641 -4.46875,-1.960938 -0.99805,2.271485 6.50195,2.853515 5.67383,-9.796875 5.19727,11.074219 5.39843,-4.017578 -1.48047,-1.990234 -2.96289,2.205078 -4.98632,-10.623047 -0.17188,0.08008 -0.48242,-17.011719 z"/>
	<path d="m 116.47039,47.249325 a 3.3408003,3.2688713 0 0 1 -3.3408,3.268871 3.3408003,3.2688713 0 0 1 -3.3408,-3.268871 3.3408003,3.2688713 0 0 1 3.3408,-3.268872 3.3408003,3.2688713 0 0 1 3.3408,3.268872 z"/>
	<path d="m 147.66409,46.778088 a 3.3408003,3.2688713 0 0 1 -3.3408,3.268871 3.3408003,3.2688713 0 0 1 -3.3408,-3.268871 3.3408003,3.2688713 0 0 1 3.3408,-3.268872 3.3408003,3.2688713 0 0 1 3.3408,3.268872 z"/>
	<path d="m 133.94336,42.896484 -1.55469,1.933594 11.57813,9.302734 11.2207,-8.65625 -1.51562,-1.964843 -9.67383,7.464843 -10.05469,-8.080078 z"/>
	<path d="m 145.31836,51.6875 -2.47852,0.09375 0.50196,13.146484 -3.5586,14.525391 -3.13086,-1.607422 -1.13281,2.207031 5.92383,3.042969 4.17773,-17.046875 15.50977,4.767578 0.36914,-5.46289 -2.47461,-0.167969 -0.16016,2.339844 -13.08398,-4.021485 -0.01,0.0332 -0.45312,-11.849609 z"/>
	<path d="m 192.87805,35.42583 -7.4905,-0.857149 -0.662,5.778809 7.49049,0.858141 0.66201,-5.779801 z"/>
	<path d="m 175.19343,46.488403 a 3.3408003,3.2688713 0 0 1 -3.3408,3.268872 3.3408003,3.2688713 0 0 1 -3.3408,-3.268872 3.3408003,3.2688713 0 0 1 3.3408,-3.268871 3.3408003,3.2688713 0 0 1 3.3408,3.268871 z"/>
	<path d="m 184.16016,34.929688 -2.48633,12.4375 -9.13281,5.419921 -10.30469,-7.529297 -1.46289,2.003907 11.62695,8.49414 11.48828,-6.820312 2.70508,-13.519531 -2.43359,-0.486328 z"/>
	<path d="m 171.19531,50.414062 -0.004,16.636719 -6.12696,12.50586 -5.03711,-2.230469 -1.0039,2.267578 7.21679,3.197266 6.69727,-13.664063 6.34766,13.224609 5.19531,-4.527343 -1.62891,-1.871094 -2.74023,2.386719 -5.74414,-11.966797 -0.69531,0.333984 0.004,-16.291015 -2.48047,-0.002 z"/>
	<path d="m 269.75815,35.138129 7.08456,0 0,5.816508 -7.08456,0 z"/>
	<path d="m 263.18968,46.814796 a 3.3408003,3.2688713 0 0 1 -3.3408,3.268872 3.3408003,3.2688713 0 0 1 -3.3408,-3.268872 3.3408003,3.2688713 0 0 1 3.3408,-3.268871 3.3408003,3.2688713 0 0 1 3.3408,3.268871 z"/>
	<path d="m 268.1543,35.021484 -0.31055,12.751954 -7.37109,5.294921 -10.23828,-7.482421 -1.46485,2.003906 11.69141,8.541015 9.83203,-7.064453 0.3418,-13.984375 -2.48047,-0.06055 z"/>
	<path d="m 414.48242,45.201172 -9.06445,8.666016 -9.23633,-7.738282 -1.59375,1.900391 10.93945,9.166015 10.66993,-10.201171 -1.71485,-1.792969 z m -155.29101,5.539062 -0.004,16.636719 -6.12695,12.505859 -5.03711,-2.230468 -1.00391,2.267578 7.21875,3.197266 6.69531,-13.664063 6.34766,13.224609 5.19531,-4.527343 -1.6289,-1.869141 -2.74024,2.386719 -5.74414,-11.96875 -0.69531,0.333984 0.004,-16.291015 -2.48047,-0.002 z"/>
	<path d="m 404.02148,52.441406 -0.16406,15.515625 -5.05859,11.78711 -3.83203,-1.816407 -1.0625,2.242188 6.16015,2.921875 6.26758,-14.613281 0.16992,-16.011719 -2.48047,-0.02539 z"/>
	<path d="m 405.98242,67.505859 -2.0957,1.328125 8.21484,12.962891 4.79297,-2.632813 -1.19336,-2.173828 -2.75,1.511719 -6.96875,-10.996094 z"/>
	<path d="m 408.15818,49.174931 a 3.3408003,3.2688713 0 0 1 -3.3408,3.268871 3.3408003,3.2688713 0 0 1 -3.3408,-3.268871 3.3408003,3.2688713 0 0 1 3.3408,-3.268872 3.3408003,3.2688713 0 0 1 3.3408,3.268872 z"/>
</svg>
