<?xml version="1.0" encoding="utf-8"?>
<svg xmlns="http://www.w3.org/2000/svg" preserveAspectRatio="xMidYMid meet" version="1.0" viewBox="0 0 360 414">
	<title>Map of the moor and the Priory School.</title>
	<g fill="#000000" stroke="none" transform="translate(0.000000,414.720000) rotate(-360.00) scale(0.022857,-0.022857)">
		<path d="M57 18134 c3 -5 -8 -21 -25 -36 l-32 -26 0 -9003 0 -9002 35 -33 34 -34 7807 0 7807 0 33 35 34 34 0 8997 c0 8980 0 8996 -21 9023 -12 14 -21 33 -21 41 0 12 -1221 14 -7828 14 -4693 0 -7826 -4 -7823 -10z m15573 -44 c32 -15 55 -36 73 -66 l26 -45 0 -8911 c0 -7109 -3 -8916 -13 -8934 -24 -43 -65 -83 -101 -98 -54 -23 -15426 -23 -15480 0 -40 17 -83 61 -102 104 -9 22 -12 2077 -12 8926 0 7656 2 8902 15 8932 15 36 57 81 95 102 16 9 2102 12 7737 12 l7715 0 47 -22z"/>
		<path d="M6121 18033 c-11 -13 -10 -19 4 -34 16 -16 19 -16 35 0 19 19 12 51 -11 51 -8 0 -21 -8 -28 -17z"/>
		<path d="M6280 18034 c-12 -14 -6 -72 15 -139 6 -18 1 -26 -25 -39 -25 -13 -33 -24 -33 -46 0 -59 -57 -76 -77 -23 -13 36 -38 41 -57 11 -7 -12 -19 -21 -27 -21 -8 0 -23 9 -33 21 -25 27 -75 27 -89 0 -20 -36 -14 -55 17 -51 17 2 32 -3 39 -15 9 -14 5 -22 -18 -40 -32 -25 -35 -43 -12 -63 18 -15 42 -6 91 33 27 22 85 32 190 31 25 0 47 7 60 21 15 15 29 18 52 14 22 -5 39 0 59 16 23 18 37 20 87 15 48 -5 63 -3 74 11 19 23 7 49 -24 49 -35 0 -53 24 -39 51 18 34 14 62 -12 70 -31 10 -71 -37 -71 -84 0 -34 -26 -69 -50 -69 -23 0 -42 47 -49 117 -6 65 -27 127 -47 140 -5 3 -15 -1 -21 -10z m15 -247 c3 -6 1 -10 -5 -10 -6 0 -11 4 -11 10 0 6 2 11 5 11 2 0 7 -5 11 -11z"/>
		<path d="M5464 17971 c-4 -10 -2 -22 4 -29 16 -16 47 -1 43 21 -5 24 -39 30 -47 8z"/>
		<path d="M5736 17906 c-18 -7 -17 -79 2 -115 19 -36 21 -110 3 -128 -35 -36 -59 0 -73 112 -10 85 -21 107 -51 107 -27 0 -34 -33 -15 -77 22 -54 20 -60 -20 -60 -21 0 -42 -8 -54 -21 -21 -24 -52 -28 -64 -8 -4 7 -13 36 -20 65 -10 46 -15 53 -37 53 -22 0 -26 -4 -24 -34 1 -19 9 -51 19 -72 21 -44 13 -98 -14 -98 -13 0 -24 17 -37 62 -20 67 -39 90 -64 81 -26 -10 -31 -55 -9 -88 32 -48 48 -84 42 -95 -4 -6 -20 -13 -36 -16 -37 -8 -65 -53 -48 -79 18 -29 60 -48 91 -40 33 8 49 35 51 85 2 53 26 70 52 38 11 -13 20 -33 20 -44 0 -24 28 -38 43 -23 7 7 6 25 -2 54 -8 24 -10 47 -6 51 13 13 43 -14 49 -44 2 -16 12 -34 21 -40 24 -15 70 -1 78 23 8 26 40 37 65 24 24 -12 67 2 67 23 0 21 28 29 51 15 25 -15 54 -4 54 21 0 10 -15 33 -32 49 -28 27 -31 37 -31 90 0 96 -28 146 -71 129z m-112 -236 c-4 -18 -6 -39 -6 -48 0 -26 -47 -12 -51 16 -4 27 24 65 48 65 12 0 14 -8 9 -33z"/>
		<path d="M9466 17608 c-29 -4 -123 -9 -208 -9 -86 -1 -208 -9 -271 -18 -106 -15 -117 -15 -134 0 -21 19 -87 23 -116 7 -11 -6 -90 -11 -175 -12 -99 -1 -177 -7 -211 -17 -30 -8 -85 -14 -121 -13 -36 0 -97 -4 -134 -10 -38 -6 -85 -10 -105 -10 -38 0 -136 -14 -242 -33 -32 -5 -86 -13 -121 -17 -34 -4 -71 -11 -81 -16 -55 -28 38 -78 94 -51 29 13 114 26 247 38 l71 6 0 -30 c0 -16 7 -49 15 -72 14 -41 15 -139 1 -161 -7 -13 -40 -16 -51 -5 -3 3 1 20 10 38 15 28 15 33 0 47 -14 15 -19 13 -45 -17 -32 -36 -53 -42 -63 -17 -8 21 -45 20 -52 -3 -3 -10 -11 -29 -17 -41 -21 -45 -4 -59 64 -53 41 3 66 1 79 -9 17 -12 26 -11 60 6 22 12 48 21 58 21 10 0 27 8 38 18 20 18 21 17 41 -10 25 -34 51 -37 76 -10 24 28 21 53 -9 67 -15 6 -26 15 -26 18 0 21 30 87 47 106 22 25 12 55 -20 61 -20 4 -77 -53 -92 -90 -14 -39 -46 -26 -47 19 0 20 -4 59 -9 87 l-8 51 125 -5 c93 -4 133 -1 161 10 20 8 72 17 116 20 313 17 369 17 393 5 16 -9 45 -11 86 -6 33 3 90 9 124 13 35 3 270 7 523 8 488 1 505 3 464 48 -32 36 -87 54 -125 42 -33 -10 -283 -9 -331 2 -15 3 -50 2 -79 -3z"/>
		<path d="M7355 17438 c-40 -12 -102 -25 -136 -30 -114 -15 -168 -27 -205 -44 -33 -14 -152 -41 -252 -57 -20 -3 -43 -10 -50 -16 -7 -6 -50 -14 -95 -20 -46 -5 -97 -16 -114 -25 -16 -8 -41 -15 -55 -15 -14 0 -44 -9 -68 -20 -59 -27 -113 -43 -142 -43 -40 0 -203 -43 -226 -59 -12 -8 -34 -15 -49 -15 -15 0 -30 -3 -33 -6 -6 -6 -62 -27 -254 -94 -41 -14 -85 -26 -100 -26 -15 -1 -36 -8 -47 -16 -11 -9 -32 -15 -46 -15 -14 0 -43 -10 -64 -21 -86 -46 -276 -126 -298 -126 -8 0 -28 -7 -45 -16 -32 -16 -146 -47 -170 -47 -8 0 -26 -9 -39 -19 -13 -11 -45 -25 -70 -33 -108 -31 -152 -47 -167 -60 -20 -17 -44 -19 -59 -3 -17 16 -84 0 -119 -29 -22 -18 -37 -23 -59 -18 -24 4 -40 -2 -78 -32 -26 -21 -59 -37 -74 -37 -15 0 -63 -19 -105 -41 -43 -22 -101 -48 -130 -59 -29 -10 -80 -35 -114 -54 -33 -20 -72 -35 -86 -35 -14 0 -41 -10 -60 -21 -19 -12 -42 -21 -51 -21 -9 0 -28 -12 -41 -27 -14 -14 -53 -36 -87 -49 -33 -12 -67 -30 -74 -39 -7 -9 -31 -29 -54 -44 -53 -34 -77 -50 -168 -112 -87 -59 -108 -72 -139 -86 -12 -5 -28 -20 -34 -32 -7 -12 -33 -31 -58 -43 -25 -12 -54 -31 -64 -42 -10 -11 -24 -20 -32 -20 -7 0 -21 -13 -31 -29 -9 -17 -33 -41 -53 -54 -19 -14 -45 -41 -58 -60 -12 -20 -51 -56 -86 -80 -35 -24 -89 -70 -120 -103 -30 -33 -68 -66 -85 -72 -17 -7 -56 -37 -87 -65 -31 -29 -79 -68 -107 -86 -41 -27 -49 -38 -47 -59 5 -39 42 -41 88 -4 20 16 60 52 87 79 28 28 55 50 61 50 5 0 25 17 44 37 19 20 41 37 48 37 12 0 44 26 155 131 27 26 53 47 58 47 5 0 16 11 24 25 16 25 75 76 152 130 23 16 56 42 73 58 18 17 49 39 70 50 20 10 44 27 51 36 8 10 34 27 56 39 23 11 108 65 188 120 80 54 150 99 154 99 5 0 48 23 97 52 49 29 92 52 96 52 4 0 44 17 88 38 44 21 90 40 102 42 11 2 31 14 44 26 13 12 30 18 40 15 10 -4 31 4 52 20 20 15 43 28 52 28 8 0 38 11 65 26 27 14 59 26 71 26 11 0 36 6 54 14 125 54 204 80 244 80 17 0 41 7 53 16 25 17 168 68 192 69 9 0 45 14 79 31 34 17 69 32 78 32 26 0 104 29 153 56 23 14 71 33 106 42 34 10 70 23 79 28 46 29 95 52 110 52 10 0 42 12 71 27 29 14 84 35 122 46 88 26 325 109 354 124 12 7 54 17 92 23 39 7 79 16 88 21 10 5 61 20 113 33 52 13 108 32 126 43 17 10 42 19 55 19 14 0 39 7 57 17 17 9 68 19 112 22 44 3 93 12 108 20 31 15 84 19 128 8 21 -5 35 -1 52 14 30 26 135 69 145 58 11 -12 19 -233 9 -239 -5 -3 -28 7 -52 22 -31 21 -42 35 -42 56 0 37 -14 56 -35 47 -12 -4 -17 -19 -17 -48 0 -41 -1 -41 -31 -35 -27 6 -34 2 -65 -41 -39 -55 -59 -61 -64 -19 -3 25 -8 29 -40 29 -31 0 -37 4 -40 26 -2 14 -9 32 -15 39 -13 16 -65 18 -93 3 -31 -17 -25 -42 10 -42 40 0 58 -23 50 -64 -5 -25 -2 -37 12 -47 25 -19 6 -50 -35 -57 -24 -4 -31 -11 -31 -31 0 -16 7 -28 17 -30 22 -4 86 41 99 69 11 26 27 29 57 11 17 -11 26 -9 52 10 17 13 46 24 64 24 18 0 34 5 36 13 17 56 17 56 32 35 11 -14 22 -18 42 -13 15 4 37 2 48 -4 17 -9 28 -8 47 5 14 9 32 16 40 16 27 0 38 24 22 47 -20 26 -21 221 -2 233 7 4 32 11 55 15 23 4 80 15 126 25 51 11 103 16 130 12 68 -9 97 19 51 49 -40 26 -63 27 -139 5z"/>
		<path d="M7665 17336 c-8 -15 -6 -24 7 -37 21 -22 60 -17 65 8 8 44 -51 68 -72 29z"/>
		<path d="M7216 17283 c-54 -33 -42 -74 15 -52 46 18 69 42 55 59 -16 19 -30 18 -70 -7z"/>
		<path d="M9865 17282 c-18 -5 -81 -12 -142 -15 -61 -3 -133 -8 -160 -11 -28 -4 -94 -8 -147 -10 -180 -5 -297 -17 -342 -33 -39 -14 -50 -14 -79 -2 -41 18 -245 15 -267 -4 -22 -18 -110 -31 -243 -35 -65 -2 -134 -9 -152 -15 -32 -12 -62 -20 -278 -77 -89 -24 -110 -35 -120 -62 -1 -5 -40 -3 -85 4 -63 9 -96 9 -132 0 -26 -6 -72 -15 -101 -18 l-54 -7 -33 64 c-24 45 -31 72 -27 93 4 21 1 35 -10 44 -14 11 -20 9 -43 -16 -21 -22 -30 -26 -39 -16 -18 17 -60 15 -68 -3 -4 -11 -15 -14 -35 -10 -23 5 -33 1 -44 -16 -16 -26 -35 -28 -49 -5 -15 28 -43 10 -43 -27 0 -24 6 -35 26 -44 22 -11 30 -9 50 9 21 20 39 26 113 41 49 10 101 -21 127 -75 34 -72 24 -77 -168 -77 -93 0 -189 -6 -243 -16 -122 -23 -135 -22 -149 10 -15 31 -33 28 -38 -7 -2 -13 -13 -31 -24 -38 -37 -27 -58 -93 -69 -224 l-6 -70 45 -38 c38 -32 53 -38 95 -38 31 0 54 5 62 15 26 32 190 55 446 64 122 5 139 8 161 29 25 22 25 26 20 152 -3 73 -10 135 -17 143 -17 20 -1 28 65 33 30 2 71 5 92 7 33 2 37 0 40 -28 4 -41 30 -77 66 -96 42 -22 43 -67 1 -67 -61 0 -100 -62 -60 -95 38 -32 115 4 123 56 5 37 47 35 68 -3 19 -33 47 -49 66 -37 7 4 7 13 0 27 -7 11 -9 25 -5 31 10 15 43 12 58 -6 20 -25 54 -14 72 24 19 39 32 42 59 13 11 -13 26 -19 38 -15 10 3 33 -2 50 -11 17 -9 39 -16 48 -16 19 0 69 45 69 62 0 15 -72 94 -98 107 -15 9 -24 7 -38 -6 -14 -12 -30 -15 -62 -10 -38 6 -43 4 -50 -18 -11 -37 -27 -42 -62 -20 -27 17 -37 18 -71 8 -26 -8 -40 -20 -44 -36 -12 -47 -54 -23 -94 54 -15 28 -27 54 -27 59 0 8 137 73 154 73 6 0 17 7 24 15 7 9 29 16 51 15 21 0 110 9 198 21 88 11 169 18 181 15 12 -3 53 2 92 11 53 13 124 17 271 16 109 0 242 5 294 12 84 11 239 20 604 35 115 5 192 25 197 51 4 21 -38 72 -59 71 -10 -1 -32 -6 -49 -11z m-2629 -391 c1 -7 3 -40 4 -73 2 -34 6 -77 10 -97 5 -28 3 -38 -10 -43 -25 -10 -38 9 -43 60 -2 26 -7 69 -10 96 -5 33 -3 56 5 65 14 17 42 11 44 -8z m233 -79 c9 -92 2 -115 -29 -103 -13 5 -17 22 -17 72 0 37 -4 73 -10 82 -12 19 7 44 31 40 12 -3 18 -24 25 -91z m81 83 c12 -9 13 -14 2 -31 -10 -17 -10 -34 -1 -75 6 -29 8 -56 4 -60 -13 -14 -42 16 -45 46 -1 17 -8 49 -14 71 -9 32 -8 43 3 50 18 11 31 11 51 -1z m-407 -40 c-2 -22 1 -53 8 -71 18 -42 17 -115 -1 -115 -8 0 -23 36 -38 89 -27 97 -22 137 16 137 18 0 20 -6 15 -40z m238 -56 c13 -99 9 -121 -24 -108 -10 4 -18 20 -20 39 -1 18 -2 45 -3 60 -1 14 -5 37 -9 50 -5 15 -3 30 4 39 27 32 38 15 52 -80z m-376 21 c1 -23 3 -52 3 -65 0 -14 -5 -23 -15 -23 -11 0 -18 17 -23 63 -7 70 -4 80 18 72 9 -4 16 -22 17 -47z"/>
		<path d="M7604 17249 c-7 -7 -12 -19 -12 -26 0 -28 42 -107 62 -118 32 -17 72 -13 84 8 12 23 -4 44 -32 44 -22 0 -45 27 -36 42 9 14 -22 63 -40 63 -7 0 -19 -6 -26 -13z"/>
		<path d="M6668 16842 c-94 -30 -179 -52 -201 -52 -14 0 -58 -13 -99 -27 -40 -15 -116 -34 -168 -43 -52 -8 -118 -24 -147 -35 -29 -11 -81 -23 -115 -26 -142 -15 -255 -36 -263 -49 -4 -5 -18 -9 -32 -9 -50 0 -247 -56 -309 -87 -20 -10 -47 -18 -60 -18 -13 0 -40 -10 -61 -21 -20 -12 -44 -21 -52 -21 -8 0 -37 -12 -65 -27 -28 -14 -89 -37 -135 -51 -141 -44 -352 -123 -441 -166 -37 -18 -67 -26 -222 -61 -23 -5 -71 -20 -105 -32 -33 -13 -81 -26 -105 -30 -24 -4 -55 -15 -68 -24 -14 -9 -58 -26 -98 -39 -40 -13 -85 -32 -100 -42 -29 -21 -160 -85 -175 -85 -5 -1 -25 -15 -45 -32 -20 -17 -42 -31 -48 -31 -6 0 -22 -14 -35 -31 -13 -18 -30 -32 -38 -32 -24 0 -106 -47 -154 -88 -25 -21 -50 -38 -57 -38 -34 0 -105 -46 -218 -142 -69 -57 -144 -121 -168 -141 -49 -41 -319 -311 -369 -369 -18 -19 -45 -45 -62 -57 -16 -11 -43 -40 -60 -64 -17 -24 -47 -54 -67 -67 -20 -12 -39 -30 -42 -40 -5 -17 -106 -110 -180 -167 -17 -12 -63 -49 -103 -80 -40 -32 -136 -90 -214 -129 -77 -39 -143 -77 -146 -85 -7 -19 16 -45 41 -45 27 0 242 104 253 123 5 7 24 20 44 28 36 15 163 121 248 205 26 27 80 77 120 111 132 115 252 230 262 253 17 34 251 263 362 353 57 47 110 82 123 82 15 0 31 13 44 35 12 19 40 44 62 55 72 37 94 56 101 88 5 25 12 32 31 32 31 0 120 38 149 63 11 9 37 24 58 31 20 8 48 25 63 38 14 14 54 32 88 41 41 10 73 27 93 47 17 18 42 32 55 32 13 0 35 10 50 21 15 12 55 27 88 33 34 6 66 15 72 20 6 4 41 19 79 31 37 13 75 30 84 37 16 13 85 34 141 43 18 3 42 10 55 17 12 6 34 8 47 4 18 -4 49 8 114 45 49 29 129 64 178 78 126 37 262 85 310 110 23 11 67 24 97 28 30 4 55 11 55 16 0 4 15 14 34 21 19 7 42 17 52 22 11 5 28 10 39 10 11 0 57 18 102 41 59 29 107 44 166 52 46 7 88 16 94 21 7 5 42 11 80 14 38 3 105 18 149 33 44 15 87 25 95 22 9 -3 36 1 62 10 25 9 61 16 80 16 19 0 52 8 72 16 21 9 50 16 64 16 15 0 53 11 86 25 32 14 89 36 127 48 217 72 252 88 252 111 0 17 -49 20 -94 5z"/>
		<path d="M390 15245 c-27 -31 -43 -58 -40 -67 8 -20 32 -20 49 0 19 23 46 19 74 -11 l24 -26 -26 -29 c-15 -16 -29 -36 -32 -45 -3 -8 -19 -22 -35 -31 -26 -14 -30 -14 -47 8 -20 25 -63 32 -63 10 0 -7 30 -48 68 -91 67 -77 67 -78 51 -108 -12 -24 -21 -30 -41 -26 -20 3 -30 -4 -51 -36 -15 -22 -27 -48 -27 -58 0 -25 70 -150 105 -187 17 -18 40 -53 52 -80 20 -46 20 -49 3 -85 -12 -24 -35 -46 -65 -62 -26 -14 -78 -55 -116 -91 -37 -36 -74 -65 -81 -65 -7 0 -20 14 -30 32 -19 37 -40 35 -45 -4 -2 -21 6 -37 32 -63 20 -18 52 -66 72 -106 40 -80 87 -138 104 -127 20 12 12 38 -36 115 -26 41 -47 81 -47 89 0 16 235 253 251 253 6 0 16 -13 22 -29 16 -45 32 -72 76 -137 26 -37 28 -45 16 -72 -7 -17 -27 -46 -44 -64 -25 -27 -29 -37 -19 -47 10 -10 21 -9 50 7 40 21 67 63 67 100 0 12 5 32 11 43 9 16 5 30 -22 70 -19 27 -44 62 -57 76 -13 14 -27 38 -32 53 -4 14 -18 40 -31 57 -13 18 -34 52 -46 76 -12 25 -46 80 -75 122 -28 42 -52 86 -52 98 0 27 20 46 49 46 18 0 26 8 33 34 7 27 14 34 36 34 15 0 36 8 47 18 34 31 78 23 122 -21 21 -22 39 -46 39 -53 0 -13 41 -71 94 -133 15 -18 53 -85 85 -150 69 -143 82 -151 151 -90 25 22 61 52 79 65 18 14 38 37 44 50 6 13 30 31 52 40 48 19 51 32 11 52 -63 33 -243 299 -243 359 0 22 3 25 24 20 19 -5 31 0 48 22 12 16 31 34 42 40 11 7 30 20 44 29 14 10 40 21 59 24 28 6 36 3 51 -21 16 -23 17 -33 6 -60 -14 -38 -1 -60 24 -40 8 7 22 10 29 5 22 -12 82 -71 82 -80 0 -14 47 -81 60 -86 33 -13 64 34 34 52 -6 3 -19 24 -30 45 -11 21 -42 61 -68 88 -27 26 -48 53 -48 58 0 5 -14 25 -32 45 -17 20 -31 44 -31 53 -1 18 -43 63 -59 63 -6 0 -18 -10 -28 -22 -13 -15 -26 -19 -44 -15 -20 5 -29 1 -43 -20 -10 -15 -29 -28 -45 -30 -22 -2 -31 -11 -40 -39 -10 -32 -17 -38 -47 -41 -20 -2 -39 -9 -43 -15 -15 -24 -8 -91 13 -128 27 -48 26 -65 -3 -74 -13 -4 -45 -31 -71 -60 -56 -62 -75 -62 -115 0 -15 22 -34 48 -44 58 -9 10 -28 40 -41 66 -35 69 -45 74 -89 48 -46 -27 -57 -28 -99 -4 -64 37 -49 74 60 146 30 21 55 44 55 51 0 8 -14 35 -30 60 -17 25 -38 58 -48 74 -24 41 -47 35 -99 -25z m607 -470 c12 -17 22 -35 22 -41 0 -5 9 -18 20 -29 23 -20 85 -124 85 -141 0 -17 -59 -79 -106 -111 l-44 -31 -39 43 c-21 24 -49 65 -63 92 -13 26 -33 56 -44 66 -11 9 -19 25 -19 34 0 25 122 148 146 148 11 0 30 -14 42 -30z"/>
		<path d="M899 14704 c-14 -15 -6 -45 15 -51 30 -10 63 3 63 25 0 24 -60 43 -78 26z"/>
		<path d="M1955 15146 c-21 -26 -44 -35 -44 -15 0 14 -37 13 -50 -3 -35 -42 -14 -121 58 -217 21 -28 25 -40 17 -62 -5 -14 -18 -31 -28 -38 -16 -9 -23 -6 -40 18 -30 40 -70 38 -106 -5 -31 -38 -48 -33 -71 23 -7 16 -20 33 -28 36 -21 8 -46 -4 -46 -22 0 -18 40 -78 60 -91 16 -10 18 -35 2 -44 -17 -11 -62 4 -62 20 0 25 -29 42 -46 28 -16 -13 -12 -49 10 -74 7 -9 23 -36 35 -60 21 -42 21 -45 4 -75 -22 -38 -8 -60 31 -50 35 8 56 50 41 78 -15 28 -15 83 -1 92 7 4 26 -3 42 -15 36 -27 52 -28 52 -6 0 12 6 16 21 12 16 -4 40 12 95 64 40 38 73 77 73 87 0 18 105 127 129 134 22 7 50 36 50 51 0 7 -12 19 -26 25 -26 12 -48 50 -48 82 0 53 -88 73 -124 27z m22 -102 c10 -19 24 -42 30 -52 17 -23 -7 -57 -28 -39 -13 10 -47 96 -47 116 0 22 29 6 45 -25z"/>
		<path d="M1105 14928 c-16 -19 -28 -91 -15 -91 24 0 86 32 86 45 0 14 -23 38 -49 53 -6 3 -16 0 -22 -7z"/>
		<path d="M1271 14774 c-23 -43 29 -86 83 -69 46 15 7 90 -46 90 -16 0 -31 -9 -37 -21z"/>
		<path d="M1139 14762 c-9 -15 36 -62 59 -62 31 0 34 21 9 48 -25 27 -56 33 -68 14z"/>
		<path d="M595 14746 c-15 -16 -5 -44 28 -83 59 -68 85 -20 27 50 -32 40 -42 45 -55 33z"/>
		<path d="M11500 14689 c-35 -14 -41 -58 -15 -109 49 -96 97 -227 97 -265 0 -26 -32 -29 -49 -4 -18 25 -55 26 -67 1 -4 -9 -13 -27 -19 -40 -24 -46 -10 -81 42 -105 51 -22 124 24 136 87 4 22 83 67 118 68 28 0 80 41 80 62 0 32 -25 45 -58 32 -44 -16 -56 2 -32 48 17 32 18 40 6 63 -31 57 -77 13 -71 -67 2 -32 -1 -38 -17 -38 -26 0 -32 13 -54 115 -31 144 -48 170 -97 152z"/>
		<path d="M463 14655 c-19 -19 -14 -39 23 -87 40 -53 58 -63 79 -43 13 13 10 23 -26 74 -44 64 -58 74 -76 56z"/>
		<path d="M11856 14637 c-37 -37 -43 -80 -17 -120 13 -20 14 -30 5 -48 -24 -45 35 -74 96 -47 50 23 67 59 46 100 -13 24 -14 35 -4 57 11 23 9 32 -9 56 -31 42 -76 43 -117 2z"/>
		<path d="M1460 14501 c-16 -16 -18 -26 -10 -60 5 -22 9 -44 9 -48 1 -12 -50 -10 -57 3 -4 5 -18 10 -32 10 -35 0 -61 -42 -52 -84 6 -30 4 -33 -41 -53 -51 -22 -74 -63 -50 -86 14 -14 16 -60 3 -60 -5 0 -17 11 -27 26 -12 18 -27 26 -47 26 -35 0 -47 -21 -32 -59 17 -45 13 -67 -14 -67 -30 0 -70 -28 -70 -48 0 -8 -9 -15 -19 -15 -10 0 -30 -8 -43 -17 -21 -15 -24 -24 -20 -63 6 -55 1 -61 -31 -40 -36 23 -55 4 -55 -54 -1 -45 -1 -46 -27 -34 -21 10 -30 9 -48 -8 -17 -16 -20 -27 -14 -59 6 -36 4 -41 -21 -50 -15 -6 -32 -23 -37 -37 -11 -27 -26 -34 -37 -17 -3 6 3 17 15 25 11 8 25 27 31 42 19 50 -43 155 -91 155 -28 0 -25 -33 7 -69 38 -44 39 -51 11 -108 -11 -23 -21 -55 -21 -69 1 -25 -24 -44 -42 -32 -5 3 -7 18 -5 34 17 108 16 116 -4 128 -24 13 -49 5 -58 -19 -4 -9 5 -39 19 -67 25 -48 26 -51 7 -61 -11 -6 -27 -10 -36 -10 -9 0 -19 -10 -22 -21 -9 -29 -21 -27 -47 10 -15 20 -32 32 -48 32 -32 0 -34 -24 -5 -61 32 -40 27 -61 -21 -80 l-41 -16 16 -54 c17 -59 10 -80 -31 -85 -33 -5 -37 -54 -5 -76 28 -20 91 -13 111 12 19 24 16 83 -5 119 -17 28 -17 32 -1 48 16 15 20 15 51 -1 28 -14 41 -14 72 -5 21 7 44 14 51 16 7 2 16 18 20 35 7 37 27 56 65 61 36 5 52 19 70 62 8 20 23 39 33 43 35 14 107 71 117 92 6 11 14 34 17 50 5 21 13 29 30 29 37 0 51 15 65 69 12 47 16 52 48 57 26 3 37 11 41 30 3 13 20 32 38 42 117 63 158 100 168 154 4 20 11 36 15 36 5 0 20 18 33 39 13 22 28 41 33 44 5 2 37 26 71 55 34 28 66 51 72 51 22 0 66 72 62 102 -3 24 -8 29 -32 29 -18 0 -35 9 -45 24 -20 29 -31 29 -57 3z m-74 -168 c0 -6 -5 -11 -10 -11 -6 0 -11 5 -11 11 0 5 5 10 11 10 5 0 10 -5 10 -10z"/>
		<path d="M655 14485 c-19 -14 -24 -82 -11 -137 15 -58 97 -122 116 -91 3 5 -9 36 -26 70 -30 60 -38 90 -23 89 18 0 39 -21 55 -54 10 -21 25 -36 40 -38 34 -5 30 25 -11 72 -18 22 -42 51 -52 65 -20 31 -63 42 -88 24z"/>
		<path d="M10969 14276 c-12 -19 -14 -34 -6 -65 5 -23 9 -56 9 -74 1 -37 48 -191 66 -215 44 -55 107 -57 119 -2 14 64 16 68 34 60 37 -15 59 -10 73 19 8 16 19 29 25 29 6 0 23 9 38 21 14 12 40 21 57 21 43 0 46 22 12 92 -24 48 -35 61 -58 64 -33 3 -54 -24 -66 -82 -4 -21 -15 -46 -24 -56 -16 -17 -17 -17 -36 3 -43 46 -85 17 -86 -61 -1 -42 -5 -50 -24 -52 -25 -4 -56 32 -56 65 0 11 -5 35 -12 54 -17 47 1 88 54 120 23 14 42 34 42 44 0 25 -31 41 -56 28 -14 -8 -23 -7 -31 1 -20 19 -57 12 -74 -14z"/>
		<path d="M431 14243 c-17 -20 -6 -47 19 -47 25 0 38 29 21 49 -15 18 -24 18 -40 -2z"/>
		<path d="M321 14127 c-21 -21 -21 -43 1 -55 39 -22 84 23 56 56 -17 20 -36 20 -57 -1z"/>
		<path d="M489 14116 c-7 -20 11 -46 32 -46 9 0 15 12 15 32 0 23 -5 31 -20 31 -11 0 -23 -8 -27 -17z"/>
		<path d="M394 14045 c-12 -9 -17 -21 -12 -32 8 -23 42 -17 47 8 5 29 -12 41 -35 24z"/>
		<path d="M109 14023 c-10 -26 1 -53 22 -53 25 0 34 31 16 53 -17 20 -31 20 -38 0z"/>
		<path d="M10815 13888 c-21 -11 -26 -20 -23 -48 1 -19 -2 -40 -7 -47 -5 -6 -12 -25 -16 -41 -9 -37 -40 -35 -48 3 -11 45 -45 39 -103 -18 -48 -47 -63 -76 -71 -138 -5 -39 -36 -66 -73 -62 -26 2 -34 10 -44 40 -7 20 -13 61 -13 91 -1 51 1 56 31 71 52 28 37 90 -22 90 -49 0 -57 -23 -59 -164 l-2 -129 34 -39 c32 -37 36 -38 78 -31 32 5 52 17 73 42 16 19 44 42 63 52 43 22 58 58 49 118 -6 41 -5 46 14 46 22 0 34 -19 34 -53 0 -30 39 -33 70 -4 16 14 40 25 58 25 22 0 33 7 42 27 11 24 10 34 -9 69 -20 35 -21 42 -7 49 20 11 15 59 -7 62 -9 2 -28 -3 -42 -11z m-191 -239 c-2 -6 -8 -11 -14 -11 -5 0 -11 5 -13 11 -3 6 4 12 13 12 10 0 16 -6 14 -12z"/>
		<path d="M257 13860 c-38 -16 -155 -144 -149 -162 11 -28 57 -19 89 17 16 19 49 55 74 81 24 26 43 52 41 58 -5 15 -29 18 -55 6z"/>
		<path d="M10930 13823 c-12 -14 -11 -19 1 -27 23 -15 47 -6 47 17 0 26 -29 32 -48 10z"/>
		<path d="M10119 13489 c-9 -7 -19 -30 -23 -52 -5 -31 -15 -45 -48 -65 -53 -34 -64 -57 -60 -128 2 -49 7 -62 30 -79 49 -37 88 8 76 90 -6 49 9 91 33 91 22 0 26 -11 36 -114 11 -104 22 -133 51 -141 27 -7 66 9 66 28 0 9 -15 44 -33 79 -18 34 -31 69 -27 77 3 8 20 18 38 21 18 4 32 14 32 22 0 23 -42 49 -81 49 -25 0 -35 4 -36 18 0 10 -2 25 -3 34 -1 9 -3 28 -4 44 -2 32 -24 44 -47 26z"/>
		<path d="M9372 13163 c-26 -26 -56 -66 -68 -90 -24 -46 -47 -54 -64 -21 -22 40 -84 20 -84 -28 0 -28 27 -94 54 -132 11 -15 20 -35 20 -45 0 -9 7 -29 17 -44 15 -23 16 -33 5 -75 -14 -52 -38 -86 -60 -86 -26 0 -28 23 -4 47 31 34 21 60 -23 56 -47 -5 -59 -28 -42 -89 13 -48 12 -52 -10 -69 -32 -26 -46 -18 -47 24 0 44 -10 63 -35 63 -32 0 -43 -24 -43 -96 0 -52 -4 -74 -17 -84 -15 -12 -20 -10 -42 17 -20 26 -28 29 -43 20 -10 -7 -22 -31 -27 -55 -9 -47 -21 -54 -51 -27 -25 23 -46 6 -49 -40 -3 -44 -36 -80 -57 -63 -15 12 -33 78 -48 170 -6 33 -13 48 -26 51 -45 8 -64 -50 -34 -103 25 -44 20 -87 -14 -120 -49 -46 -53 -137 -8 -166 26 -18 60 -8 72 20 15 35 28 45 47 37 18 -6 87 29 87 45 0 22 28 50 53 52 14 2 29 3 33 4 4 1 12 17 17 36 8 32 11 34 62 37 49 3 57 7 77 39 15 25 30 37 47 37 14 0 37 14 56 36 17 20 45 39 61 43 38 9 75 43 93 84 8 21 23 36 41 40 22 6 27 13 27 43 0 29 6 39 36 58 27 16 42 20 56 12 27 -15 71 -3 98 26 15 16 35 25 57 25 53 0 84 31 80 80 -8 106 -8 104 17 107 13 2 24 -1 24 -7 0 -16 37 -34 56 -27 10 4 17 19 17 37 0 34 15 39 44 13 15 -14 22 -14 35 -4 23 20 19 38 -17 91 -34 50 -59 56 -77 20 -23 -45 -27 -47 -54 -37 -32 12 -69 -4 -111 -49 -30 -32 -72 -119 -72 -150 0 -22 -32 -53 -56 -53 -10 0 -17 8 -17 20 0 11 -7 25 -15 32 -17 13 -19 11 -48 -47 -19 -36 -66 -57 -93 -40 -10 6 -21 31 -25 56 -7 42 -5 49 30 94 21 26 71 79 112 118 62 60 71 73 60 87 -24 29 -61 19 -110 -30z"/>
		<path d="M4947 13162 c-12 -16 -23 -52 -28 -90 -4 -34 -11 -65 -17 -68 -5 -4 -9 -19 -9 -34 0 -15 -10 -48 -23 -74 -25 -53 -17 -81 24 -81 31 0 73 59 73 102 0 35 16 72 32 72 6 0 38 -29 72 -64 56 -60 63 -64 101 -61 58 5 62 39 11 86 -21 19 -38 38 -38 43 0 5 -12 22 -26 39 -14 17 -31 48 -37 70 -7 26 -22 46 -47 62 -47 31 -62 30 -88 -2z"/>
		<path d="M5053 12839 c-20 -19 -16 -107 6 -134 22 -28 60 -22 70 11 9 26 -10 91 -32 116 -21 23 -27 24 -44 7z"/>
		<path d="M5091 12488 c-19 -42 -20 -54 -10 -90 37 -122 127 -94 110 34 -7 56 -37 105 -63 105 -9 0 -25 -22 -37 -49z"/>
		<path d="M8301 12374 c-19 -20 -22 -100 -5 -132 6 -12 18 -48 27 -81 26 -101 1 -136 -66 -91 -21 14 -45 26 -52 26 -26 0 -46 -45 -46 -101 0 -62 -21 -80 -50 -46 -22 26 -62 27 -75 3 -5 -10 -7 -33 -5 -50 4 -23 -1 -38 -16 -51 -27 -25 -47 -13 -39 21 9 37 -2 67 -26 67 -30 0 -43 -35 -35 -95 6 -44 4 -53 -12 -59 -12 -5 -23 -1 -32 11 -17 23 -49 18 -53 -8 -3 -27 -11 -32 -44 -33 -24 0 -30 -6 -39 -42 -13 -50 -33 -89 -47 -89 -6 0 -7 13 -4 29 4 20 0 34 -11 43 -25 22 -48 -4 -48 -53 0 -61 15 -82 57 -82 37 0 54 13 60 47 2 11 20 29 41 39 20 10 47 27 61 39 13 12 35 22 49 22 14 0 27 4 30 8 3 5 34 20 68 32 51 19 65 29 74 54 8 24 17 32 38 32 17 0 36 9 48 24 10 14 32 31 49 37 16 7 37 27 47 44 13 23 25 31 48 31 23 0 38 10 60 38 25 33 32 37 62 31 26 -5 38 -1 52 14 28 31 18 58 -23 62 -43 4 -51 22 -65 146 -12 113 -39 151 -78 113z"/>
		<path d="M5193 12083 c-16 -25 -20 -51 -18 -115 2 -55 35 -73 71 -39 22 21 24 30 20 86 -7 88 -40 119 -73 68z"/>
		<path d="M5781 12031 c-24 -34 -20 -86 10 -145 28 -56 37 -60 101 -42 55 15 68 35 47 68 -18 27 -52 35 -64 16 -10 -16 -37 -12 -44 7 -4 10 0 20 11 26 24 14 22 68 -3 82 -30 16 -40 14 -58 -12z"/>
		<path d="M5660 11923 c-9 -10 -11 -36 -6 -83 7 -63 6 -68 -15 -74 -12 -4 -30 -19 -39 -34 -21 -32 -36 -20 -45 35 -9 58 -35 53 -47 -10 -9 -47 -8 -52 20 -81 23 -24 40 -31 68 -31 35 0 40 -4 65 -56 16 -30 31 -65 35 -78 8 -28 40 -39 68 -24 28 15 27 26 -10 117 -17 43 -32 87 -32 98 0 12 -6 29 -14 39 -16 21 -10 95 8 89 6 -2 12 -9 13 -16 1 -6 2 -17 3 -23 1 -15 56 -8 61 8 3 7 -8 23 -23 36 -14 13 -26 27 -26 32 0 16 -46 72 -59 72 -7 0 -18 -7 -25 -16z"/>
		<path d="M5279 11859 c-51 -27 -30 -67 34 -67 24 0 45 -8 55 -19 14 -16 45 -118 37 -122 -68 -43 -79 -71 -39 -106 20 -19 22 -19 50 2 17 12 30 33 32 51 2 17 12 39 23 50 25 23 26 22 -4 51 -14 13 -33 48 -43 77 -34 94 -78 119 -145 83z"/>
		<path d="M11461 11806 c-15 -15 -16 -32 -10 -110 l7 -92 -29 -8 c-46 -11 -71 -89 -46 -145 19 -40 40 -41 74 -4 29 31 34 33 64 21 29 -11 39 -9 76 12 23 13 63 31 88 39 56 17 64 8 64 -70 0 -29 6 -69 12 -87 11 -31 15 -34 44 -28 17 3 35 6 39 6 17 0 20 32 5 67 -8 19 -12 38 -8 42 3 3 -4 29 -16 58 -17 39 -21 63 -16 99 5 39 2 50 -16 69 -12 12 -29 22 -38 22 -19 0 -37 -32 -37 -66 0 -15 -7 -29 -15 -32 -18 -7 -21 -3 -31 38 -11 44 -41 33 -52 -19 -16 -74 -26 -91 -51 -87 -40 6 -51 45 -46 158 4 82 1 106 -11 118 -20 20 -30 20 -51 -1z"/>
		<path d="M7458 11782 c-20 -19 -35 -51 -44 -86 -25 -108 28 -256 83 -234 47 19 53 17 68 -21 9 -20 16 -49 16 -63 0 -39 11 -59 31 -59 47 0 71 80 33 108 -11 7 -29 39 -40 71 -15 44 -26 58 -44 61 -16 2 -25 -3 -29 -18 -14 -51 -65 -25 -77 40 -9 48 2 122 20 140 10 10 16 8 28 -7 8 -12 16 -19 18 -16 13 18 28 84 22 97 -10 27 -52 21 -85 -13z"/>
		<path d="M10987 11663 c-49 -27 -67 -65 -67 -136 0 -38 5 -73 13 -80 15 -15 50 -17 50 -2 0 6 10 11 23 11 12 0 38 5 57 12 41 15 67 -1 67 -39 0 -30 -16 -42 -57 -42 -25 0 -35 -7 -47 -30 -18 -38 -5 -63 35 -68 56 -6 101 45 116 133 8 49 -8 84 -55 121 -19 15 -23 26 -18 48 13 62 -58 105 -117 72z m66 -98 c6 -16 -37 -67 -55 -67 -18 0 -20 34 -4 64 12 22 52 24 59 3z"/>
		<path d="M4872 11550 c-12 -12 -21 -27 -21 -34 0 -17 56 -127 91 -178 17 -24 25 -49 23 -68 -4 -29 -6 -30 -52 -17 -10 3 -20 -5 -27 -20 -8 -18 -19 -24 -47 -24 -31 0 -36 -4 -39 -30 -3 -26 -7 -29 -28 -24 -30 8 -42 -8 -38 -50 3 -28 2 -30 -26 -23 -17 5 -35 9 -42 10 -6 1 -44 36 -85 78 -53 53 -82 76 -100 76 -25 0 -100 -44 -115 -67 -16 -25 -8 -56 23 -86 17 -16 36 -46 43 -67 7 -21 20 -47 30 -59 11 -11 25 -35 33 -52 12 -26 22 -32 54 -35 34 -3 42 1 59 30 11 18 23 51 27 74 7 48 27 53 52 15 23 -35 30 -34 74 10 20 20 42 37 47 37 6 0 18 14 27 32 9 17 23 31 32 31 8 0 20 10 26 22 7 12 28 28 47 36 20 9 42 24 49 35 8 11 36 30 62 43 64 32 84 52 84 82 0 34 32 28 42 -8 4 -14 20 -53 35 -87 23 -50 32 -60 54 -60 32 0 35 27 6 82 -70 135 -71 154 -10 142 26 -5 30 -3 30 17 0 36 -55 85 -96 85 -20 0 -43 8 -58 22 -13 12 -31 19 -39 16 -26 -10 -56 -81 -64 -151 -5 -45 -12 -66 -22 -66 -18 0 -40 39 -32 57 7 19 -42 176 -59 186 -20 13 -27 11 -50 -12z m272 -119 c12 -15 6 -49 -9 -49 -16 0 -34 31 -28 47 7 20 21 20 37 2z m-618 -299 c20 -10 45 -34 57 -56 17 -33 18 -42 6 -70 -8 -20 -21 -33 -33 -33 -21 0 -51 37 -51 63 0 10 -12 35 -27 56 -14 22 -26 43 -26 49 0 15 32 11 74 -9z"/>
		<path d="M11258 11537 c-6 -7 -19 -38 -29 -69 -17 -55 -17 -57 3 -84 12 -16 28 -30 38 -32 21 -4 57 32 66 67 9 35 -15 108 -39 121 -24 13 -26 13 -39 -3z"/>
		<path d="M7276 11497 c-6 -12 -10 -32 -9 -45 5 -39 -10 -64 -51 -86 -37 -20 -39 -24 -42 -77 -4 -55 -3 -55 25 -52 21 2 38 16 59 48 40 59 61 59 61 -1 0 -25 -6 -73 -12 -106 -11 -59 -10 -63 16 -89 22 -22 31 -25 45 -16 14 9 19 29 21 84 5 112 8 120 51 120 51 0 56 23 16 78 -18 26 -32 51 -32 58 0 35 -80 106 -119 106 -10 0 -22 -10 -29 -22z m85 -92 c0 -15 -12 -22 -28 -16 -8 3 -12 10 -9 15 8 12 37 12 37 1z"/>
		<path d="M10693 11424 c-13 -5 -28 -26 -35 -47 -11 -32 -10 -42 9 -72 l22 -35 -26 -12 c-31 -14 -33 -26 -10 -49 21 -20 77 -21 106 0 28 19 39 62 23 92 -7 13 -14 44 -16 70 -4 59 -23 73 -73 53z"/>
		<path d="M10945 11388 c-3 -8 -4 -26 -2 -39 5 -34 44 -34 49 -1 5 40 -34 74 -47 40z"/>
		<path d="M5398 11336 c-7 -9 -12 -24 -12 -35 6 -267 14 -302 64 -276 22 12 23 17 16 86 -3 40 -12 83 -18 95 -6 12 -9 41 -5 67 9 70 -13 101 -45 63z"/>
		<path d="M10487 11280 c-9 -10 -19 -34 -23 -52 -9 -41 -38 -69 -58 -56 -12 7 -13 14 -3 36 17 36 17 35 -9 48 -29 16 -48 -1 -62 -54 -12 -42 -30 -51 -52 -25 -16 19 -57 21 -71 3 -17 -22 -24 -92 -11 -119 7 -16 20 -25 35 -25 32 0 40 -16 42 -80 2 -63 19 -99 45 -99 43 0 55 49 32 130 -6 22 -13 48 -15 58 -2 9 -7 27 -11 40 -6 19 -3 24 15 24 12 0 24 -5 28 -10 19 -31 95 7 113 55 9 24 25 23 39 -3 6 -12 20 -21 30 -21 44 0 59 57 23 89 -12 11 -21 27 -21 37 0 19 -20 42 -38 42 -6 0 -19 -8 -28 -18z"/>
		<path d="M9419 11208 c-59 -33 -59 -32 -43 -51 19 -23 73 -20 113 4 36 22 43 41 22 61 -18 18 -39 15 -92 -14z"/>
		<path d="M9708 11177 c-19 -20 -22 -74 -5 -117 10 -26 8 -32 -23 -57 -19 -15 -41 -43 -51 -63 -23 -50 -56 -49 -63 1 -8 51 -44 52 -54 2 -9 -42 -47 -86 -76 -86 -19 0 -19 1 -3 26 13 20 15 32 7 46 -17 33 -40 34 -69 4 -26 -28 -27 -28 -42 -8 -9 11 -13 29 -9 40 7 23 -22 71 -44 71 -8 0 -21 -12 -27 -27 -15 -31 -36 -34 -51 -5 -14 27 -48 27 -62 1 -8 -14 -6 -36 9 -81 11 -34 22 -81 23 -104 4 -40 3 -42 -33 -47 -40 -6 -53 -31 -30 -59 18 -22 60 -37 83 -30 24 7 45 68 36 103 -4 15 -2 29 5 33 16 10 41 -12 44 -40 3 -14 12 -24 28 -26 22 -3 23 -1 21 58 -3 54 -1 61 17 61 13 0 24 -11 30 -32 22 -67 79 -90 118 -47 14 15 32 21 69 21 28 0 53 5 57 11 3 5 23 10 43 10 25 0 48 9 68 25 18 16 38 24 50 20 14 -3 26 4 39 22 19 30 14 59 -11 59 -21 0 -41 78 -34 138 4 33 1 55 -10 71 -18 26 -28 27 -50 6z m-468 -247 c0 -6 -5 -10 -10 -10 -6 0 -11 7 -11 16 0 9 5 14 11 10 5 -3 10 -11 10 -16z"/>
		<path d="M10065 11126 c-17 -14 -37 -41 -43 -60 -9 -27 -20 -37 -44 -42 -51 -10 -67 7 -32 36 36 30 37 57 2 70 -31 12 -58 1 -81 -31 -12 -17 -12 -33 -3 -82 18 -98 30 -104 116 -61 28 14 67 27 88 29 36 3 38 2 46 -39 5 -23 10 -60 12 -82 3 -55 35 -74 75 -45 20 14 19 18 -15 130 -19 64 -32 121 -28 127 10 17 -24 75 -44 75 -10 0 -32 -11 -49 -25z"/>
		<path d="M581 11045 c-13 -5 -33 -27 -44 -49 l-21 -41 27 -38 c26 -37 26 -40 10 -65 -10 -14 -17 -33 -17 -41 0 -26 33 -30 57 -7 33 31 51 28 44 -7 -3 -16 -7 -38 -9 -49 -2 -11 5 -25 16 -31 16 -10 22 -8 36 11 22 33 49 32 40 -1 -9 -38 24 -75 60 -66 26 7 27 10 30 97 4 100 4 101 -31 119 -14 7 -31 29 -39 48 -17 40 -32 48 -64 36 -29 -10 -35 -3 -35 39 0 40 -25 59 -60 45z"/>
		<path d="M7316 10881 c-32 -37 -29 -275 5 -315 13 -17 52 -17 69 -1 7 7 13 26 13 41 0 16 5 32 11 36 7 5 9 22 5 46 -4 21 -10 68 -13 106 -6 71 -24 105 -56 105 -10 0 -25 -8 -34 -18z"/>
		<path d="M5439 10836 c-8 -15 -6 -40 10 -97 12 -42 28 -103 37 -135 16 -62 39 -82 65 -61 18 15 18 53 0 97 -8 18 -15 66 -16 106 0 51 -6 77 -19 91 -23 26 -63 25 -77 -1z"/>
		<path d="M8712 10826 c-15 -12 -38 -21 -51 -21 -15 0 -36 -14 -53 -35 l-28 -34 -11 29 c-16 42 -54 39 -92 -8 -16 -21 -54 -65 -83 -98 -95 -107 -111 -133 -99 -164 7 -19 18 -26 37 -26 28 0 50 19 105 89 17 22 49 60 71 84 21 24 39 49 39 55 0 6 8 17 17 25 15 12 22 8 58 -33 33 -39 40 -55 40 -91 1 -59 9 -77 37 -77 25 0 43 17 63 56 9 17 20 22 42 19 51 -5 76 6 82 37 4 23 -3 37 -40 73 -34 33 -44 50 -40 66 8 28 -22 75 -48 75 -10 0 -31 -10 -46 -21z"/>
		<path d="M916 10815 c-36 -22 -52 -51 -66 -120 -11 -57 -4 -69 42 -69 26 0 42 -6 46 -16 8 -20 32 -20 49 1 12 14 18 12 47 -16 38 -37 63 -40 100 -11 35 27 42 26 42 -8 1 -34 42 -69 76 -64 17 3 28 19 44 63 l21 60 -25 53 c-13 29 -32 55 -40 58 -9 4 -37 -6 -63 -20 -58 -32 -63 -33 -67 -3 -5 32 -37 36 -67 8 -33 -31 -49 -19 -41 31 6 34 3 42 -18 57 -31 22 -38 21 -80 -4z"/>
		<path d="M1396 10788 c-13 -16 -24 -190 -14 -228 4 -13 16 -18 46 -18 33 0 45 -6 59 -26 20 -31 56 -35 63 -8 3 11 19 25 36 31 25 9 31 18 31 44 0 20 -6 36 -16 39 -20 8 -47 -14 -47 -38 0 -43 -60 -35 -69 9 -3 15 -9 41 -14 57 -6 17 -5 42 1 64 17 55 4 91 -32 91 -17 0 -36 -8 -44 -17z"/>
		<path d="M3445 10767 c-35 -29 -34 -49 3 -45 12 1 33 -3 47 -11 13 -7 30 -11 37 -8 7 3 23 -6 36 -19 23 -24 81 -36 207 -43 75 -4 214 -32 263 -53 23 -9 67 -21 99 -25 64 -9 187 -44 267 -75 32 -12 77 -19 122 -19 51 0 86 -7 127 -25 31 -14 87 -28 124 -33 37 -4 81 -14 97 -23 17 -8 69 -19 117 -25 146 -16 231 -29 275 -41 23 -7 74 -12 113 -11 45 1 90 -6 119 -17 42 -16 46 -20 46 -55 1 -21 8 -57 16 -80 8 -23 15 -58 15 -76 0 -30 4 -34 26 -34 14 0 29 5 34 12 12 20 5 93 -14 143 -29 76 -26 76 186 19 54 -15 112 -27 127 -27 16 0 51 -10 79 -22 37 -16 56 -19 72 -12 15 7 33 5 58 -6 20 -9 55 -16 78 -17 23 -1 65 -13 92 -26 28 -14 76 -26 110 -28 82 -6 146 -20 166 -37 9 -7 41 -18 71 -22 30 -5 76 -14 102 -20 26 -6 63 -14 81 -17 19 -3 37 -10 40 -15 4 -5 25 -9 47 -9 22 0 53 -5 69 -11 16 -6 84 -13 150 -15 77 -3 156 -12 212 -26 49 -12 112 -27 141 -32 53 -10 190 -38 234 -48 35 -8 29 -38 -18 -92 -24 -26 -42 -51 -42 -55 0 -4 -9 -20 -20 -35 -11 -15 -25 -46 -31 -68 -6 -23 -18 -49 -26 -58 -28 -32 -56 -182 -65 -347 -6 -106 1 -127 42 -127 51 0 63 53 35 160 -18 66 -20 88 -10 106 7 12 16 47 21 78 4 30 21 73 36 96 15 24 28 49 28 56 0 23 42 96 79 134 19 20 40 54 47 76 6 22 15 41 19 44 22 13 206 -27 296 -65 9 -4 32 -8 53 -9 20 -1 55 -7 78 -13 23 -6 65 -12 93 -12 27 0 70 -5 94 -10 24 -6 96 -18 160 -27 63 -10 142 -26 176 -37 33 -11 83 -21 110 -21 27 0 83 -10 123 -21 150 -44 201 -38 188 20 -4 15 -12 34 -19 41 -17 18 -175 47 -246 46 -31 -1 -66 4 -78 10 -38 21 -157 41 -239 41 -44 0 -84 5 -90 11 -21 21 -219 48 -298 42 -14 -2 -73 10 -131 24 -58 15 -152 35 -210 44 -58 10 -129 28 -158 42 -39 18 -79 26 -161 30 -59 4 -117 11 -128 17 -10 6 -38 11 -60 11 -23 0 -88 12 -145 27 -143 37 -182 44 -304 55 -57 6 -124 15 -147 21 -51 12 -150 48 -159 58 -4 3 -20 7 -35 7 -16 0 -50 7 -75 16 -25 9 -72 21 -103 25 -32 5 -98 18 -147 30 -50 12 -135 29 -189 39 -57 10 -113 26 -129 37 -32 23 -82 27 -101 8 -9 -10 -19 -9 -43 5 -18 11 -41 16 -56 12 -13 -3 -36 -1 -50 4 -18 7 -34 7 -46 -1 -16 -8 -24 -6 -37 11 -12 14 -35 23 -70 27 -28 4 -84 11 -125 17 -40 6 -118 16 -173 22 -55 6 -122 18 -148 26 -27 9 -68 16 -91 16 -43 0 -87 11 -148 38 -26 12 -42 13 -59 5 -19 -8 -34 -6 -67 11 -24 11 -87 27 -140 35 -54 7 -110 18 -124 24 -41 15 -96 31 -138 38 -21 4 -46 15 -56 27 -14 15 -32 20 -85 20 -53 0 -81 6 -133 31 -36 17 -94 36 -129 42 -151 25 -245 45 -299 63 -32 11 -80 23 -106 27 -43 6 -53 4 -82 -21z"/>
		<path d="M1804 10707 c-9 -13 -19 -52 -23 -86 -4 -35 -10 -80 -13 -100 -5 -32 -2 -40 26 -61 28 -20 36 -21 54 -10 27 17 27 37 -2 68 -32 34 -16 59 44 66 33 4 51 13 66 33 26 35 18 59 -23 73 -17 6 -33 18 -37 26 -9 25 -74 19 -92 -9z"/>
		<path d="M2425 10547 c-13 -15 -21 -49 -40 -156 -10 -53 -35 -83 -64 -78 -20 4 -28 48 -12 64 22 22 13 50 -16 50 -30 0 -60 -30 -84 -83 -14 -32 -14 -38 4 -68 17 -29 26 -34 71 -37 28 -1 62 3 75 10 19 10 27 10 40 -1 9 -7 27 -10 41 -7 30 8 44 57 22 81 -12 13 -12 18 1 35 11 15 22 18 47 13 35 -7 55 6 67 43 5 16 -2 32 -23 57 -16 20 -38 48 -48 64 -20 32 -59 39 -81 13z"/>
		<path d="M1617 10512 c0 -40 20 -53 39 -27 19 27 13 51 -15 55 -20 3 -24 -1 -24 -28z"/>
		<path d="M1903 10497 c-13 -16 -14 -153 -1 -161 6 -3 17 0 25 7 12 10 16 88 6 160 -2 12 -18 9 -30 -6z"/>
		<path d="M2055 10464 c-34 -34 -61 -91 -58 -119 3 -25 8 -29 41 -29 23 0 47 -8 60 -19 12 -11 30 -18 41 -16 15 3 19 14 17 56 0 29 -4 67 -9 84 -13 54 -60 75 -92 43z"/>
		<path d="M1605 10434 c-7 -13 -23 -37 -37 -53 -26 -31 -32 -64 -14 -75 20 -13 82 15 88 40 13 48 4 112 -15 112 -5 0 -15 -11 -22 -24z"/>
		<path d="M2646 10301 c-8 -12 -21 -21 -28 -21 -6 0 -17 -13 -22 -29 -6 -16 -23 -43 -38 -61 -52 -59 -28 -106 49 -97 41 5 47 2 63 -25 24 -41 65 -50 97 -19 22 21 29 22 53 12 37 -17 55 -16 86 9 35 27 51 12 54 -52 1 -11 12 -13 48 -8 39 5 49 3 58 -14 27 -50 109 -23 130 43 16 48 41 61 69 36 30 -27 23 -51 -15 -58 -24 -4 -32 -11 -32 -29 0 -13 3 -22 6 -21 2 1 22 -8 44 -22 36 -22 40 -23 70 -7 28 14 33 14 47 0 23 -23 104 -20 127 5 22 24 14 74 -18 119 -27 39 -77 39 -108 1 -25 -32 -47 -26 -47 11 0 13 -13 37 -28 53 -24 23 -35 27 -64 21 -21 -4 -42 -1 -50 6 -27 22 -63 3 -89 -47 -29 -56 -57 -69 -86 -40 -19 19 -20 23 -4 59 15 36 14 40 -5 60 -27 26 -55 13 -79 -38 -15 -31 -23 -36 -54 -36 -31 0 -36 3 -33 23 3 17 11 23 30 24 34 0 41 43 12 79 l-21 26 -33 -25 c-39 -29 -56 -25 -80 22 -32 62 -80 79 -109 40z m798 -300 c0 -8 -7 -15 -15 -15 -18 0 -30 14 -20 24 13 13 35 7 35 -9z"/>
		<path d="M8124 10289 c-9 -6 -44 -46 -77 -89 -32 -43 -67 -83 -77 -88 -22 -12 -33 -65 -19 -89 20 -36 54 -18 113 58 32 41 71 91 87 112 16 20 29 48 29 61 0 30 -30 49 -56 35z"/>
		<path d="M7314 10255 c-18 -13 -19 -24 -12 -108 8 -100 18 -122 52 -117 19 2 23 12 29 71 4 38 10 81 15 97 13 53 -40 89 -84 57z"/>
		<path d="M3685 10155 c-46 -24 -93 -109 -73 -133 7 -8 22 -15 34 -15 17 0 20 4 14 26 -11 43 56 93 71 54 11 -29 -15 -106 -56 -171 -18 -29 -7 -56 24 -56 21 0 32 13 62 70 30 59 41 71 62 71 19 0 24 -4 22 -21 -2 -11 -6 -41 -9 -67 -6 -50 -7 -50 67 -27 21 6 24 4 24 -19 0 -15 9 -33 19 -41 11 -8 25 -24 32 -37 25 -47 119 -25 144 34 10 25 22 37 37 37 19 0 20 -5 14 -52 -6 -45 -4 -53 15 -63 34 -19 73 -3 115 48 21 25 46 46 57 46 22 0 23 -10 6 -66 -12 -40 -11 -44 15 -66 35 -30 117 -45 139 -26 9 7 16 27 16 44 0 25 -7 33 -37 46 -39 16 -43 25 -25 59 9 16 9 33 0 62 -14 47 -48 62 -87 38 -37 -23 -214 -18 -252 7 -38 25 -66 14 -98 -36 -45 -71 -72 -45 -37 35 18 44 19 51 5 65 -21 21 -41 20 -62 -1 -22 -22 -32 -11 -32 35 0 46 -26 67 -57 48 -37 -23 -53 -17 -53 22 0 38 -26 70 -59 70 -11 0 -37 -9 -57 -20z"/>
		<path d="M12518 9980 c-46 -33 -55 -67 -44 -180 12 -125 22 -165 45 -170 14 -2 18 5 18 30 0 38 24 52 50 29 21 -17 96 -45 147 -54 47 -8 93 30 83 70 -6 21 -22 33 -80 57 -41 16 -74 34 -74 40 0 6 10 26 21 45 27 44 19 99 -18 128 -33 26 -114 28 -148 5z m72 -115 c0 -32 -35 -74 -52 -64 -16 10 -6 56 17 82 20 22 35 15 35 -18z"/>
		<path d="M12267 9841 c-50 -74 -59 -154 -24 -222 24 -49 42 -57 94 -43 44 12 64 31 84 81 12 31 10 38 -21 94 -53 94 -73 119 -94 119 -11 0 -28 -13 -39 -29z m64 -82 c9 -4 21 -23 28 -43 21 -65 -32 -109 -79 -65 -10 9 -9 89 1 105 6 10 27 12 50 3z"/>
		<path d="M7342 9836 c-15 -18 -11 -256 5 -272 18 -18 30 -4 44 56 17 74 4 222 -21 227 -9 1 -22 -3 -28 -11z"/>
		<path d="M12061 9789 c-8 -16 -23 -59 -33 -94 -22 -76 -16 -127 19 -167 20 -23 29 -27 56 -21 48 11 69 40 75 105 3 44 -1 72 -20 118 -13 34 -29 67 -34 74 -16 23 -48 15 -63 -15z m68 -99 c35 -35 11 -114 -34 -114 -26 0 -40 29 -33 74 9 64 30 77 67 40z"/>
		<path d="M5626 9778 c-23 -26 -30 -76 -18 -124 5 -23 12 -58 15 -78 3 -20 7 -46 9 -57 4 -29 48 -60 79 -56 26 3 28 7 35 86 6 60 5 85 -4 91 -13 8 -40 78 -40 105 -1 18 -32 52 -50 52 -5 0 -17 -9 -26 -19z"/>
		<path d="M11882 9769 c-3 -4 -6 -32 -6 -61 0 -59 -20 -99 -42 -85 -7 5 -22 29 -34 54 -19 45 -55 68 -81 52 -19 -12 -23 -71 -13 -188 7 -93 13 -117 31 -135 35 -36 55 -18 55 48 0 32 -5 61 -11 64 -24 15 -10 37 24 37 19 0 40 5 46 11 18 18 46 0 46 -31 0 -43 21 -66 58 -62 27 3 30 7 27 35 -1 17 -11 43 -20 58 -30 43 -44 102 -33 138 13 48 -19 92 -47 65z"/>
		<path d="M3612 9691 c0 -6 7 -13 16 -17 8 -3 16 -14 16 -23 1 -10 3 -12 6 -5 6 16 -14 56 -28 56 -5 0 -10 -5 -10 -11z"/>
		<path d="M11277 9565 c-14 -25 -16 -83 -6 -143 11 -66 -13 -114 -61 -123 -52 -10 -61 -2 -58 55 6 103 0 156 -19 164 -10 4 -25 -1 -37 -13 -17 -17 -18 -27 -8 -92 5 -40 10 -98 10 -128 1 -71 22 -89 87 -72 54 15 113 45 113 59 0 6 25 7 63 3 66 -7 104 7 125 47 18 34 -3 49 -70 49 l-60 0 -3 94 c-2 52 -8 100 -15 108 -17 20 -48 16 -61 -8z"/>
		<path d="M10734 9475 c-7 -3 -28 -31 -45 -63 -35 -61 -37 -90 -12 -209 22 -108 23 -108 177 -73 21 5 24 12 24 55 0 45 3 51 32 64 23 10 31 21 31 40 0 25 -3 26 -34 20 -19 -4 -51 -10 -71 -13 -20 -3 -43 -11 -50 -17 -18 -14 -16 -55 3 -70 22 -19 19 -32 -6 -32 -52 0 -63 17 -62 97 0 79 14 113 45 113 9 0 19 -5 23 -10 3 -6 15 -11 27 -11 16 0 20 7 20 36 0 53 -54 92 -102 73z"/>
		<path d="M10980 9469 c-21 -11 -23 -52 -6 -140 6 -35 11 -75 11 -89 0 -38 17 -63 41 -63 30 0 34 21 15 92 -9 35 -16 94 -16 132 0 71 -11 88 -45 68z"/>
		<path d="M7347 9378 c-64 -68 -94 -169 -55 -184 23 -9 48 3 48 23 0 10 16 45 37 78 37 61 41 94 11 106 -8 3 -26 -7 -41 -23z"/>
		<path d="M10333 9332 c-44 -23 -67 -65 -67 -119 1 -27 6 -54 13 -60 6 -7 11 -44 11 -83 0 -60 3 -71 18 -71 9 0 26 7 36 17 16 14 24 15 50 4 24 -10 36 -10 55 0 53 28 44 62 -22 82 -49 15 -50 20 -22 67 30 49 28 113 -4 148 -30 32 -33 33 -68 15z m41 -107 c0 -49 -9 -69 -31 -69 -14 0 -21 11 -26 38 -8 42 6 67 37 67 16 0 20 -8 20 -36z"/>
		<path d="M7082 9313 c-10 -16 4 -27 17 -13 8 7 8 13 1 18 -6 3 -14 1 -18 -5z"/>
		<path d="M5707 9240 c-5 -7 -3 -17 3 -23 14 -14 47 -2 41 15 -5 18 -35 23 -44 8z"/>
		<path d="M10091 9217 c-11 -12 -26 -38 -33 -58 -10 -30 -8 -40 11 -72 12 -21 22 -48 22 -61 0 -13 8 -32 19 -42 25 -22 92 -23 100 0 11 29 7 36 -24 47 -21 8 -38 26 -53 56 -28 58 -27 74 5 88 28 13 33 33 13 52 -18 19 -36 16 -60 -10z"/>
		<path d="M3336 9219 c-24 -15 -25 -97 -2 -116 14 -11 22 -10 49 5 27 16 46 18 115 12 45 -3 95 -11 109 -17 15 -5 42 -10 61 -10 46 0 268 -50 306 -70 46 -23 135 -45 228 -56 74 -9 242 -58 303 -89 14 -8 59 -17 99 -22 41 -4 84 -14 96 -22 13 -9 34 -12 48 -9 15 4 53 -2 90 -15 36 -12 82 -21 102 -21 21 0 51 -7 66 -15 16 -8 75 -17 133 -21 76 -4 113 -12 139 -27 25 -15 56 -22 96 -22 33 0 79 -8 102 -17 23 -9 97 -20 163 -25 91 -6 133 -13 165 -30 24 -12 70 -24 104 -28 34 -3 71 -10 82 -16 32 -14 181 -51 205 -51 12 0 29 -5 40 -10 10 -5 60 -16 112 -23 52 -7 114 -21 138 -31 24 -10 73 -18 115 -19 80 -2 117 -7 203 -29 69 -17 83 -28 64 -51 -17 -21 -6 -47 20 -47 13 0 28 12 37 30 10 19 27 32 48 36 27 6 46 28 23 28 -5 0 -17 6 -27 14 -18 12 -15 18 30 70 55 65 61 108 18 114 -35 5 -48 -11 -75 -93 -25 -73 -25 -73 -63 -73 -22 0 -53 10 -74 24 -71 48 -116 64 -146 53 -19 -7 -36 -7 -51 -1 -17 8 -32 7 -52 -2 -27 -12 -31 -11 -55 18 -25 28 -34 31 -118 37 -50 4 -104 12 -119 18 -15 5 -52 7 -82 4 -48 -6 -61 -3 -115 26 -53 30 -69 33 -133 31 -40 -1 -79 3 -87 9 -15 12 -144 52 -192 60 -67 11 -96 19 -149 45 -39 18 -65 24 -85 19 -25 -5 -36 0 -67 32 -36 37 -39 38 -74 26 -64 -21 -229 -11 -291 17 -20 10 -57 19 -82 22 -25 3 -48 9 -51 14 -3 5 -20 10 -39 10 -18 0 -54 7 -80 16 -26 9 -76 15 -115 15 -130 -3 -209 19 -307 87 -14 9 -24 9 -44 -2 -21 -11 -33 -11 -74 3 -27 9 -63 17 -79 17 -16 0 -38 9 -48 21 -14 16 -33 21 -70 21 -29 0 -63 7 -76 16 -13 8 -71 22 -129 30 -58 8 -122 23 -141 34 -31 16 -91 28 -261 52 -21 3 -46 0 -56 -6z"/>
		<path d="M9940 9203 c-21 -21 -21 -30 -3 -84 36 -104 30 -135 -17 -92 -20 18 -21 17 -41 -6 -24 -30 -45 -18 -54 29 -7 30 -32 49 -52 37 -14 -10 -4 -54 29 -124 30 -62 61 -78 73 -38 9 28 31 26 62 -5 26 -26 54 -27 72 -1 13 20 9 80 -9 118 -12 26 -15 48 -10 80 14 84 13 97 -11 100 -12 2 -30 -5 -39 -14z"/>
		<path d="M5725 9080 c-7 -7 -13 -28 -13 -48 0 -19 -5 -44 -11 -56 -9 -16 -8 -25 5 -40 9 -10 17 -26 17 -36 0 -23 39 -101 51 -101 27 0 38 39 37 139 0 101 -1 106 -29 130 -33 29 -40 30 -57 12z"/>
		<path d="M9597 9048 c-41 -67 -40 -123 3 -187 35 -53 72 -54 106 -2 39 57 38 122 -4 180 -40 56 -75 59 -105 9z m84 -59 c26 -50 -2 -117 -41 -96 -22 12 -34 71 -20 98 12 24 47 23 61 -2z"/>
		<path d="M7164 9055 c-7 -3 -37 -52 -65 -109 -44 -89 -51 -110 -46 -146 7 -50 15 -58 51 -49 16 4 28 16 32 35 6 25 35 85 66 139 23 39 40 92 34 102 -6 10 -49 35 -56 34 -2 -1 -9 -4 -16 -6z"/>
		<path d="M9345 8973 c-12 -32 -7 -171 6 -183 5 -5 32 -15 60 -21 44 -11 54 -10 92 9 33 17 42 27 40 45 -4 27 -48 37 -83 18 -35 -19 -49 2 -50 74 0 34 -4 67 -7 73 -13 20 -48 11 -58 -15z"/>
		<path d="M7578 8744 c-15 -12 -16 -23 -7 -92 14 -105 18 -115 47 -115 34 0 38 10 39 102 0 70 -3 82 -23 99 -28 23 -33 23 -56 6z"/>
		<path d="M5836 8447 c-7 -7 -1 -206 8 -254 7 -43 39 -62 74 -46 30 13 32 45 9 121 -8 28 -15 72 -15 98 0 58 -16 87 -46 87 -14 0 -27 -3 -30 -6z"/>
		<path d="M7965 8411 c-10 -11 -21 -38 -24 -61 -4 -34 -1 -46 19 -64 13 -12 32 -22 43 -22 24 0 40 -32 40 -79 0 -31 -4 -38 -18 -35 -10 2 -19 11 -20 19 0 9 -2 22 -2 29 -1 7 -16 13 -35 13 -31 0 -32 -1 -25 -37 7 -41 -6 -47 -41 -20 -11 8 -38 15 -59 15 -62 0 -139 29 -187 69 -33 29 -48 36 -57 27 -18 -19 -48 -14 -139 20 -46 17 -91 31 -100 31 -9 0 -32 12 -52 26 -24 18 -49 27 -79 27 -24 0 -47 3 -51 7 -13 13 -85 34 -119 34 -42 1 -44 -15 -5 -35 16 -9 36 -23 43 -31 7 -9 37 -19 67 -22 30 -4 78 -18 107 -32 91 -43 259 -101 277 -95 37 12 58 -19 55 -81 -1 -44 2 -59 14 -64 28 -11 49 22 42 66 -8 49 6 60 51 39 19 -9 86 -24 149 -33 64 -10 120 -22 125 -27 6 -6 2 -24 -9 -45 -18 -33 -18 -39 -4 -61 9 -14 29 -32 45 -40 25 -13 30 -13 38 0 6 11 1 24 -19 44 -25 26 -26 29 -7 29 11 0 37 9 56 19 29 16 45 18 79 10 24 -5 73 -15 111 -23 38 -7 75 -15 84 -18 57 -21 95 -30 127 -30 20 0 70 -14 112 -31 42 -18 111 -47 154 -64 43 -18 110 -41 149 -52 40 -10 87 -25 106 -32 26 -11 42 -12 68 -3 19 7 62 18 95 24 48 10 61 17 61 32 0 33 -37 50 -93 45 -27 -3 -55 -10 -62 -16 -17 -14 -154 8 -208 33 -111 52 -192 85 -212 85 -12 0 -39 7 -60 16 -21 9 -43 13 -49 10 -12 -8 -195 15 -225 28 -11 5 -47 11 -78 13 -62 5 -84 10 -126 31 -26 12 -27 17 -26 102 0 49 4 102 7 119 18 79 -82 148 -133 91z"/>
		<path d="M6775 8177 c-7 -7 -13 -20 -13 -30 0 -10 -9 -40 -21 -67 -12 -27 -21 -58 -21 -68 0 -11 -12 -30 -26 -44 -51 -49 -26 -118 36 -99 21 7 85 144 85 182 0 11 5 35 11 54 22 62 -13 111 -51 72z"/>
		<path d="M8139 7949 c-19 -5 -40 -14 -47 -20 -6 -7 -27 -12 -46 -12 -40 0 -55 -23 -36 -54 16 -25 16 -27 -9 -33 -33 -9 -26 -45 15 -70 40 -25 58 -21 94 20 17 18 18 26 9 47 -17 37 -4 42 106 44 98 1 125 12 106 43 -19 29 -131 49 -192 35z"/>
		<path d="M7575 7882 c-11 -43 -1 -107 17 -107 19 0 37 66 27 104 -9 34 -35 36 -44 3z"/>
		<path d="M5948 7864 c-11 -18 13 -38 28 -24 12 13 4 35 -12 35 -5 0 -12 -5 -16 -11z"/>
		<path d="M7857 7799 c-29 -38 -36 -80 -25 -152 6 -39 8 -98 4 -131 -5 -52 -3 -60 15 -70 15 -8 26 -8 38 2 14 10 15 26 9 99 -5 48 -5 92 -1 98 4 8 28 6 74 -5 107 -25 133 -28 162 -17 20 8 26 17 24 34 -4 23 -8 24 -138 27 -134 3 -135 3 -127 26 15 42 11 96 -7 100 -10 1 -22 -3 -28 -11z"/>
		<path d="M5951 7794 c-35 -9 -37 -78 -4 -227 17 -78 31 -101 60 -101 22 0 56 57 45 74 -3 7 -11 41 -16 76 -22 146 -25 157 -46 170 -11 7 -29 10 -39 8z"/>
		<path d="M7590 7699 c-6 -16 -8 -49 -4 -76 4 -26 9 -64 10 -84 2 -20 4 -43 4 -50 1 -7 14 -13 28 -13 35 0 51 31 36 70 -6 16 -9 56 -8 88 3 61 -11 94 -40 94 -8 0 -20 -13 -26 -29z"/>
		<path d="M6651 7699 c-5 -4 -19 -29 -30 -55 -10 -26 -23 -57 -28 -68 -5 -12 -17 -44 -26 -72 -15 -46 -15 -53 0 -76 22 -32 30 -32 69 3 37 33 83 154 84 215 0 47 -37 76 -69 53z"/>
		<path d="M8082 7410 c-3 -7 -1 -20 4 -29 11 -23 -2 -39 -37 -46 -62 -11 -57 -47 10 -79 68 -33 73 -63 11 -63 -65 0 -79 -51 -24 -85 18 -11 42 -20 52 -20 26 -1 23 -18 -8 -38 -33 -22 -33 -54 0 -69 38 -18 40 -37 5 -50 -35 -12 -39 -32 -13 -75 14 -24 15 -35 5 -56 -13 -29 1 -52 39 -64 27 -8 35 -33 16 -48 -12 -10 -28 -10 -76 4 -97 27 -125 29 -143 11 -21 -21 -21 -28 5 -52 16 -14 45 -20 123 -25 102 -6 102 -6 106 -35 2 -22 -3 -31 -23 -40 -16 -8 -28 -24 -32 -44 -12 -59 79 -128 117 -89 18 17 16 40 -4 62 -16 17 -16 25 -4 62 10 31 11 51 3 81 -7 22 -9 54 -6 72 4 28 0 36 -28 56 -38 27 -40 38 -10 48 29 9 21 36 -17 58 -41 22 -40 44 3 56 39 11 42 23 13 54 -20 21 -20 25 -6 53 23 44 22 196 -1 231 -16 26 -16 29 1 59 16 26 17 36 6 62 -19 45 -76 70 -87 38z"/>
		<path d="M6021 7228 c-29 -32 -32 -65 -11 -107 8 -15 20 -56 27 -90 13 -64 43 -105 71 -99 31 6 40 35 27 89 -7 28 -18 86 -25 128 -18 108 -42 129 -89 79z"/>
		<path d="M6415 7229 c-20 -25 0 -52 38 -52 27 0 31 4 31 31 0 26 -5 32 -27 35 -16 2 -34 -4 -42 -14z"/>
		<path d="M6543 7206 c-16 -16 -34 -48 -40 -71 -7 -23 -18 -62 -25 -85 -17 -58 -6 -89 30 -88 42 0 63 22 72 74 4 25 16 60 26 78 22 35 25 70 9 100 -15 28 -39 26 -72 -8z"/>
		<path d="M7619 7169 c-11 -41 -7 -149 7 -176 19 -37 57 -41 66 -6 9 38 -1 141 -17 177 -16 35 -47 37 -56 5z"/>
		<path d="M6447 6736 c-12 -15 -22 -46 -45 -145 -9 -36 -9 -56 -1 -68 14 -22 46 -24 58 -2 21 38 51 110 51 121 0 7 7 18 16 26 19 15 20 53 3 71 -18 17 -66 16 -82 -3z"/>
		<path d="M7654 6693 c-19 -23 -23 -184 -6 -234 14 -40 40 -53 64 -33 11 9 13 38 9 134 -2 67 -10 129 -16 136 -15 18 -35 17 -51 -3z"/>
		<path d="M6104 6609 c-3 -9 -1 -34 4 -55 6 -21 17 -83 25 -138 8 -56 21 -107 31 -119 17 -21 17 -21 41 2 14 15 21 30 16 41 -12 32 -27 111 -36 188 -5 42 -12 81 -16 87 -10 17 -58 12 -65 -6z"/>
		<path d="M7919 6442 c-47 -39 -46 -84 2 -131 31 -30 46 -35 113 -43 113 -13 213 -12 227 3 18 17 16 47 -2 54 -9 3 -44 0 -79 -6 -87 -17 -116 -3 -116 52 0 48 -30 83 -80 93 -25 4 -39 0 -65 -22z m100 -65 c14 -21 13 -24 -7 -35 -31 -16 -63 -4 -63 25 0 13 3 27 7 31 13 14 48 2 63 -21z"/>
		<path d="M6365 6371 c-5 -7 -22 -46 -37 -87 -14 -40 -32 -88 -39 -107 -17 -41 -1 -66 43 -66 27 0 32 5 42 45 11 40 15 56 19 99 1 6 14 27 29 45 l28 33 -24 25 c-27 29 -45 33 -61 13z"/>
		<path d="M8420 6236 c-13 -8 -12 -11 1 -20 18 -12 34 -9 39 7 5 16 -22 25 -40 13z"/>
		<path d="M7678 6156 c-6 -10 -8 -42 -6 -70 2 -28 -1 -59 -7 -70 -6 -11 -8 -50 -4 -94 8 -89 29 -122 69 -112 38 10 54 57 39 121 -7 27 -11 65 -11 85 1 45 -26 138 -43 149 -20 13 -27 11 -37 -9z"/>
		<path d="M6200 5870 c-15 -30 -15 -37 6 -106 23 -78 45 -101 89 -90 19 5 25 16 31 54 5 34 3 53 -7 65 -8 9 -23 36 -35 60 -27 56 -60 63 -84 17z"/>
		<path d="M6963 5205 c-30 -32 -29 -56 4 -77 31 -20 54 -14 70 22 9 21 8 31 -6 52 -22 33 -38 34 -68 3z"/>
		<path d="M7441 5136 c-23 -25 -22 -47 2 -68 36 -33 86 -16 86 30 0 26 -31 58 -55 58 -9 0 -24 -9 -33 -20z"/>
		<path d="M8656 5097 c-32 -32 -30 -41 21 -82 44 -36 64 -32 88 18 8 16 23 28 34 28 50 0 30 40 -27 53 -65 15 -88 12 -116 -17z"/>
		<path d="M6681 5091 c-34 -34 -1 -89 38 -65 25 16 22 71 -4 75 -12 1 -27 -3 -34 -10z"/>
		<path d="M6892 5046 c-3 -8 -4 -24 -2 -34 5 -27 64 -27 70 0 7 39 -54 70 -68 34z"/>
		<path d="M7200 5054 c-4 -4 -7 -18 -7 -31 0 -17 7 -27 26 -31 40 -10 59 2 56 35 -3 23 -10 29 -36 32 -17 2 -35 0 -39 -5z"/>
		<path d="M7924 5031 c-23 -25 -22 -51 4 -64 24 -13 56 0 67 26 8 23 8 22 -10 41 -22 22 -40 21 -61 -3z"/>
		<path d="M8386 5023 c-13 -14 -7 -57 10 -64 24 -9 50 21 41 48 -7 22 -36 30 -51 16z"/>
		<path d="M6401 4981 c-12 -31 -7 -56 15 -67 44 -24 86 36 50 71 -18 18 -58 16 -65 -4z"/>
		<path d="M8192 4985 c-33 -33 2 -91 42 -70 31 17 22 83 -12 83 -9 0 -23 -6 -30 -13z"/>
		<path d="M7511 4977 c-28 -11 -41 -48 -24 -68 18 -23 51 -30 68 -16 21 18 20 80 -1 88 -9 4 -18 6 -18 6 -1 -1 -12 -5 -25 -10z"/>
		<path d="M8448 4908 c-20 -20 -21 -28 -4 -44 21 -22 50 -15 57 13 11 45 -20 64 -53 31z"/>
		<path d="M6213 4857 c-17 -17 -15 -40 6 -66 14 -19 55 -17 71 3 12 14 11 21 -3 45 -20 33 -51 41 -74 18z"/>
		<path d="M6660 4855 c-8 -21 23 -47 46 -39 8 4 14 16 12 28 -4 29 -48 37 -58 11z"/>
		<path d="M8726 4826 c-9 -12 -10 -21 -1 -37 14 -26 31 -28 59 -7 16 12 18 19 9 34 -15 25 -50 30 -67 10z"/>
		<path d="M7042 4823 c-13 -13 -7 -42 14 -61 41 -38 104 7 67 49 -17 18 -67 26 -81 12z"/>
		<path d="M6514 4762 c-5 -20 -1 -34 11 -46 24 -24 53 -4 53 36 0 26 -5 31 -28 34 -24 3 -30 -2 -36 -24z"/>
		<path d="M7717 4758 c-37 -37 -37 -68 -1 -73 31 -5 75 24 75 49 0 11 -9 28 -21 38 -19 18 -21 17 -53 -14z"/>
		<path d="M8069 4777 c-13 -21 6 -52 32 -52 26 0 48 27 39 50 -5 16 -61 18 -71 2z"/>
		<path d="M8420 4766 c-21 -21 -21 -23 -3 -42 26 -29 61 -22 65 13 5 42 -32 59 -62 29z"/>
		<path d="M7315 4720 c-15 -38 20 -66 52 -42 16 11 17 18 8 33 -15 25 -52 30 -60 9z"/>
		<path d="M8942 4706 c-22 -24 -22 -59 0 -80 21 -21 27 -21 58 4 14 11 40 21 57 23 46 5 40 33 -9 41 -22 4 -45 12 -52 19 -17 17 -34 15 -54 -7z"/>
		<path d="M6040 4680 c-22 -28 -23 -50 -2 -71 28 -28 60 -26 75 5 22 48 -42 106 -73 66z"/>
		<path d="M6370 4666 c-13 -13 -7 -65 8 -70 8 -4 23 0 33 8 17 12 18 18 7 41 -12 26 -33 35 -48 21z"/>
		<path d="M6546 4606 c-27 -23 -32 -39 -53 -161 -6 -35 10 -77 30 -77 7 0 23 13 36 29 l25 29 26 -32 c23 -28 28 -30 48 -17 19 11 28 12 48 1 31 -17 40 -8 40 41 0 47 31 60 47 19 13 -36 33 -45 48 -24 17 23 25 22 49 -9 23 -30 56 -34 90 -10 22 15 26 15 51 -5 37 -29 80 -28 118 4 37 32 50 33 59 5 6 -18 15 -21 51 -18 36 2 44 7 47 25 3 18 -4 25 -30 30 -34 8 -59 45 -49 72 4 10 23 18 46 19 32 3 41 8 43 26 3 17 -4 25 -29 34 -43 15 -55 9 -106 -57 -43 -56 -77 -76 -109 -64 -22 9 -1 53 33 69 31 14 41 38 24 59 -19 24 -37 19 -72 -19 -22 -23 -32 -44 -32 -67 0 -19 -5 -36 -10 -39 -10 -7 -96 25 -95 34 0 18 19 31 47 35 43 5 50 45 11 63 -37 16 -78 -3 -93 -44 -17 -43 -36 -39 -49 9 -6 23 -19 44 -28 48 -26 10 -66 -34 -80 -85 -16 -59 -42 -93 -65 -84 -16 6 -18 17 -11 79 6 68 5 74 -17 89 -34 24 -56 22 -89 -7z m59 -70 c0 -25 -28 -39 -45 -23 -8 8 -8 16 2 28 19 23 43 20 43 -5z"/>
		<path d="M7364 4607 c-4 -7 -9 -59 -10 -116 -2 -94 0 -103 20 -118 75 -52 154 22 154 144 1 43 -22 65 -94 90 -47 16 -60 16 -70 0z m102 -93 c15 -28 5 -68 -19 -77 -34 -13 -61 57 -32 86 19 19 38 16 51 -9z"/>
		<path d="M8477 4605 c-9 -25 3 -123 20 -169 12 -31 23 -43 42 -45 19 -2 28 3 32 18 8 33 43 27 57 -9 6 -18 17 -32 23 -32 23 0 50 40 57 83 4 25 17 63 28 85 19 37 19 42 4 57 -28 29 -48 17 -66 -39 -9 -27 -19 -39 -33 -39 -11 0 -20 5 -20 11 0 5 -10 10 -21 10 -12 0 -21 -5 -21 -10 0 -6 -10 -11 -21 -11 -16 0 -21 7 -21 26 0 60 -43 106 -60 64z"/>
		<path d="M7840 4588 c-39 -31 -36 -68 9 -109 20 -19 37 -37 37 -40 0 -4 -21 -8 -45 -10 -34 -3 -45 -8 -48 -24 -6 -26 25 -47 69 -47 47 0 102 51 92 86 -4 13 -16 32 -27 41 -24 21 -27 41 -6 41 8 0 20 7 27 15 11 13 10 21 -4 42 -21 33 -66 35 -104 5z"/>
		<path d="M8039 4591 c-3 -6 -9 -54 -13 -109 -6 -85 -4 -101 11 -113 24 -20 36 -5 39 51 3 37 8 48 23 51 26 5 39 -16 28 -45 -10 -26 5 -58 26 -58 28 0 44 165 18 191 -7 7 -18 7 -32 -1 -31 -17 -42 -14 -45 12 -4 24 -43 39 -55 21z"/>
		<path d="M8271 4570 c-8 -16 -23 -63 -33 -106 -15 -58 -17 -79 -7 -89 9 -9 19 -4 39 22 30 39 61 44 78 13 16 -31 52 -28 52 5 0 33 -40 142 -61 166 -23 27 -52 22 -68 -11z"/>
		<path d="M7629 4561 c-8 -22 13 -58 33 -55 23 5 39 34 31 55 -8 22 -55 22 -64 0z"/>
		<path d="M9145 4514 c-14 -26 3 -51 33 -51 21 0 38 42 26 62 -12 19 -47 12 -59 -11z"/>
		<path d="M5786 4500 c-13 -14 -36 -27 -52 -29 -21 -3 -28 -10 -31 -32 -2 -25 1 -29 25 -29 16 0 51 -8 79 -18 49 -17 52 -17 72 2 31 27 28 74 -6 106 -35 32 -56 32 -87 0z"/>
		<path d="M6200 4477 c-9 -10 -14 -24 -11 -32 3 -9 6 -20 6 -25 0 -15 46 -12 68 5 18 12 19 18 8 42 -14 31 -45 35 -71 10z"/>
		<path d="M9022 4471 c-32 -31 5 -80 50 -66 25 8 37 43 21 63 -16 19 -54 20 -71 3z"/>
		<path d="M5586 4436 c-17 -20 -6 -47 18 -47 28 1 59 28 52 47 -8 20 -53 21 -70 0z"/>
		<path d="M7645 4370 c-8 -14 -6 -26 6 -43 21 -30 60 -26 65 7 6 48 -50 76 -71 36z"/>
		<path d="M8856 4353 c-8 -31 1 -48 25 -48 22 0 46 36 37 57 -10 27 -55 20 -62 -9z"/>
		<path d="M5972 4357 c-23 -13 -25 -65 -3 -83 20 -17 58 -10 73 13 8 14 7 25 -5 47 -18 32 -38 39 -65 23z"/>
		<path d="M6311 4311 c-6 -8 -26 -20 -43 -27 -27 -11 -31 -19 -31 -53 0 -67 61 -77 94 -16 8 15 22 27 32 27 32 0 42 21 25 54 -17 33 -56 41 -77 15z"/>
		<path d="M5744 4278 c-32 -15 -53 -31 -50 -39 6 -20 39 -22 60 -3 19 18 67 14 79 -6 4 -5 15 -9 27 -9 37 0 24 40 -20 62 l-41 21 -55 -26z"/>
		<path d="M6808 4279 c-11 -29 1 -53 30 -56 23 -3 30 2 35 23 4 14 3 31 0 37 -11 17 -58 14 -65 -4z"/>
		<path d="M9031 4280 c-18 -21 -10 -74 11 -78 25 -5 53 28 49 60 -4 32 -40 43 -60 18z"/>
		<path d="M5604 4277 c-25 -24 16 -74 46 -55 12 7 10 14 -12 36 -15 15 -30 23 -34 19z"/>
		<path d="M7405 4271 c-30 -29 2 -70 39 -50 26 14 27 24 5 47 -20 19 -28 20 -44 3z"/>
		<path d="M7280 4235 c-16 -40 40 -70 63 -33 8 12 7 22 -3 34 -18 22 -52 21 -60 -1z"/>
		<path d="M8805 4236 c-20 -20 -20 -21 -6 -47 13 -23 52 -27 71 -8 19 19 16 48 -7 61 -28 14 -39 13 -58 -6z"/>
		<path d="M8078 4225 c-7 -18 6 -48 24 -53 21 -8 49 24 41 47 -8 28 -55 32 -65 6z"/>
		<path d="M8688 4216 c-11 -27 4 -49 30 -46 17 3 23 11 23 30 0 19 -6 27 -23 30 -15 2 -27 -4 -30 -14z"/>
		<path d="M7019 4168 c-9 -28 6 -44 38 -40 19 3 25 10 25 30 0 36 -52 44 -63 10z"/>
		<path d="M8446 4174 c-10 -27 5 -49 30 -46 17 3 25 12 27 33 3 25 0 29 -24 29 -15 0 -30 -8 -33 -16z"/>
		<path d="M7720 4166 c-32 -31 1 -77 38 -54 24 16 26 31 6 50 -20 20 -28 21 -44 4z"/>
		<path d="M6565 4156 c-14 -14 -17 -39 -7 -65 8 -20 47 -22 65 -4 28 27 8 82 -29 82 -9 0 -22 -6 -29 -13z"/>
		<path d="M8219 4073 c-26 -15 -24 -59 3 -73 17 -9 28 -8 47 5 32 21 33 42 3 63 -27 19 -29 19 -53 5z"/>
		<path d="M6983 4053 c-9 -16 -7 -25 10 -42 37 -37 96 7 63 48 -19 22 -60 19 -73 -6z"/>
		<path d="M8715 4048 c-18 -22 -5 -47 25 -47 34 0 56 26 38 47 -17 20 -46 20 -63 0z"/>
		<path d="M7310 4044 c-8 -5 -13 -20 -11 -34 3 -21 10 -25 41 -25 30 0 37 4 40 25 3 26 -13 43 -40 43 -9 0 -23 -4 -30 -9z"/>
		<path d="M7552 4036 c-19 -8 -16 -44 6 -55 26 -14 47 1 42 31 -3 25 -22 34 -48 24z"/>
		<path d="M7867 4030 c-18 -18 -16 -50 3 -57 29 -11 70 14 66 41 -4 27 -48 38 -69 16z"/>
		<path d="M8466 4025 c-8 -3 -19 -15 -25 -26 -9 -17 -7 -26 7 -41 40 -45 101 -10 74 43 -12 26 -32 34 -56 24z"/>
		<path d="M6457 3961 c-19 -16 -22 -26 -16 -53 9 -40 41 -52 99 -38 31 8 39 15 42 38 2 23 -4 33 -32 50 -43 26 -63 27 -93 3z"/>
		<path d="M7051 3919 c-9 -30 4 -54 34 -62 31 -8 58 20 53 54 -5 31 -77 37 -87 8z"/>
		<path d="M8692 3828 c-16 -37 -4 -58 33 -58 25 0 35 6 43 26 18 48 13 58 -27 58 -29 0 -39 -6 -49 -26z"/>
		<path d="M8001 3602 c-28 -25 -26 -25 -51 -9 -27 17 -50 5 -58 -30 -36 -148 -27 -187 35 -148 17 10 25 9 45 -11 14 -13 31 -23 37 -23 20 0 41 43 60 122 14 58 16 80 6 97 -15 28 -43 29 -74 2z"/>
		<path d="M7492 3591 c-11 -12 -20 -40 -21 -66 -2 -38 -13 -81 -21 -81 -10 0 -75 37 -81 46 -5 7 -8 32 -8 56 0 35 -5 45 -23 51 -28 8 -51 -17 -52 -58 0 -15 -3 -45 -5 -66 -4 -33 0 -45 22 -67 25 -25 33 -27 80 -22 32 4 60 2 72 -5 21 -14 53 3 53 28 0 26 27 39 50 25 63 -39 74 90 14 162 -20 24 -57 23 -80 -3z"/>
		<path d="M7785 3565 c-39 -43 -64 -47 -78 -12 -12 34 -31 44 -47 26 -10 -10 -11 -33 -5 -86 4 -39 11 -74 14 -78 4 -4 36 -8 70 -9 71 -1 84 9 84 72 0 20 6 45 15 56 20 27 20 53 -1 61 -9 4 -17 6 -18 6 -1 0 -16 -16 -34 -36z"/>
		<path d="M14017 3245 c-21 -12 -45 -71 -62 -147 -7 -32 -22 -87 -32 -123 -11 -36 -25 -94 -32 -130 -6 -36 -15 -73 -20 -82 -15 -30 -45 -121 -52 -159 -5 -20 -16 -52 -25 -70 -10 -19 -18 -50 -18 -70 0 -20 -9 -59 -21 -86 -12 -27 -21 -58 -21 -69 0 -12 -12 -32 -26 -45 -46 -43 -97 -45 -1339 -47 -257 -1 -507 -6 -556 -12 -50 -6 -342 -14 -650 -16 -308 -3 -563 -7 -567 -10 -4 -2 -142 -5 -306 -6 -165 -1 -384 -9 -487 -17 -295 -24 -824 -35 -859 -18 -35 18 -93 18 -146 2 -32 -9 -50 -9 -82 2 -34 11 -55 11 -107 1 -36 -7 -125 -13 -197 -13 -73 0 -158 -4 -189 -10 -30 -6 -58 -9 -61 -6 -4 4 2 41 12 85 11 44 16 91 12 108 -4 16 -11 73 -16 127 -11 129 -15 133 -140 133 -54 0 -123 -1 -155 -3 -32 -1 -119 0 -194 1 -75 2 -149 -1 -163 -6 -14 -5 -73 -9 -131 -9 -57 0 -110 -4 -117 -10 -16 -13 -21 -149 -16 -361 2 -65 -14 -80 -87 -78 -29 1 -152 -9 -274 -21 -221 -21 -402 -21 -473 0 -17 5 -289 9 -614 9 -955 -2 -1357 2 -1375 10 -14 8 -184 16 -577 28 -84 2 -198 9 -252 14 -55 5 -176 10 -268 11 -93 0 -204 4 -247 9 -43 5 -99 5 -124 0 -26 -5 -54 -4 -64 1 -18 10 -435 7 -451 -3 -5 -3 -131 -7 -281 -9 l-272 -2 -3 49 c-2 27 4 74 13 104 20 68 21 114 2 141 -14 18 -30 20 -187 22 -96 0 -177 -3 -184 -9 -7 -6 -18 -7 -25 -3 -27 17 -227 26 -282 13 -72 -16 -84 -32 -83 -101 1 -33 6 -68 11 -79 8 -14 5 -25 -11 -42 -19 -20 -20 -30 -13 -83 4 -33 10 -62 13 -65 8 -8 516 -9 577 -1 47 6 68 4 99 -10 32 -16 42 -17 60 -6 15 9 79 15 196 18 174 4 710 3 799 -1 26 -1 70 2 98 8 33 6 60 6 79 -1 28 -11 228 -21 574 -28 224 -4 446 -15 458 -22 5 -3 45 -1 88 5 53 8 86 8 99 1 11 -6 93 -13 184 -15 90 -3 169 -8 176 -12 16 -10 224 -6 275 6 27 6 49 5 62 -2 13 -7 248 -12 683 -14 675 -4 892 -10 932 -25 13 -4 44 -4 69 0 25 5 146 12 269 15 284 9 319 9 365 0 29 -6 46 -3 68 12 28 18 54 19 345 17 174 -1 328 -2 342 -3 14 0 50 2 79 5 79 8 472 17 651 16 202 -1 390 -2 457 -1 28 0 74 0 102 0 27 0 114 5 192 11 190 15 315 21 404 19 94 -2 103 -2 310 6 95 3 267 9 383 12 115 3 217 9 226 12 8 3 79 8 157 10 153 5 315 10 646 21 115 3 311 8 436 10 124 2 235 4 246 5 12 0 307 -3 657 -6 349 -3 653 -6 675 -6 65 -1 97 18 111 66 7 23 29 75 49 115 21 40 39 87 41 104 6 47 26 105 50 144 11 19 17 39 14 44 -9 14 22 124 52 186 15 31 26 72 26 97 0 24 9 58 20 76 11 17 17 41 15 51 -3 11 7 41 22 66 33 56 35 101 6 132 -24 25 -29 27 -53 13z m-6274 -735 c36 -14 34 -26 -14 -89 -22 -29 -48 -69 -58 -87 -17 -34 -58 -49 -58 -21 0 18 45 79 73 99 14 9 21 24 19 38 -4 29 -21 27 -36 -3 -7 -12 -23 -36 -37 -51 -55 -61 -112 -145 -119 -176 -8 -38 -63 -109 -85 -109 -8 0 -15 4 -15 9 0 28 71 152 119 208 31 37 63 79 71 95 17 33 82 96 101 97 7 0 24 -5 39 -10z m216 -21 c0 -10 -19 -41 -115 -184 -24 -34 -42 -68 -42 -76 0 -29 -55 -120 -79 -131 -26 -12 -58 -6 -58 11 0 9 33 53 95 126 12 14 19 32 16 39 -2 8 7 29 20 48 14 20 34 47 44 62 65 93 119 141 119 105z m116 -4 c0 -8 -8 -21 -16 -28 -9 -7 -16 -17 -16 -23 0 -5 -17 -26 -37 -46 -20 -20 -36 -46 -36 -57 0 -20 -34 -38 -53 -26 -17 10 -13 18 52 108 43 58 70 86 84 86 12 0 22 -7 22 -14z m-483 -5 c0 -4 -10 -20 -21 -34 -11 -14 -43 -56 -71 -94 -54 -71 -103 -98 -96 -54 5 31 147 190 169 190 10 0 19 -3 19 -8z m262 -5 c0 -7 -19 -38 -42 -68 -23 -31 -42 -59 -42 -62 0 -13 -46 -56 -60 -56 -21 0 -17 14 21 70 76 112 123 157 123 116z m-462 -15 c0 -5 -5 -15 -10 -24 -12 -19 -26 -7 -18 15 6 17 28 23 28 9z m-5802 -51 c14 -10 48 -15 112 -15 115 0 125 -4 125 -48 0 -64 -5 -67 -94 -67 -64 0 -84 -4 -88 -17 -10 -25 43 -41 148 -46 7 0 13 -12 13 -27 0 -29 6 -28 -144 -31 -104 -3 -117 6 -93 63 22 53 21 63 -11 77 -20 9 -25 17 -19 31 4 10 7 30 7 44 -3 53 9 63 44 36z m6527 -1 c0 -22 -62 -87 -82 -87 -18 0 -10 43 14 81 19 29 68 33 68 6z m-6628 -48 c4 -59 -7 -67 -70 -50 -31 8 -55 8 -84 0 -75 -20 -128 17 -113 79 6 24 8 24 135 23 l129 -2 3 -50z m5856 -108 c0 -11 -9 -22 -19 -24 -18 -4 -26 28 -11 44 13 12 30 0 30 -20z m-5878 -13 c28 -18 31 -57 8 -76 -11 -10 -34 -11 -81 -6 -36 5 -87 9 -113 10 -44 1 -47 3 -51 32 -2 20 3 36 15 44 25 19 192 16 222 -4z m6240 -1 c0 -23 -30 -39 -45 -23 -7 7 -6 16 3 26 18 23 42 21 42 -3z m-94 -22 c0 -21 -34 -47 -46 -35 -11 10 -8 21 10 39 22 22 36 21 36 -4z m283 -20 c0 -43 -37 -96 -67 -96 -41 0 -41 16 0 77 41 61 67 68 67 19z m115 -1 c12 -7 9 -16 -16 -46 -18 -21 -41 -37 -54 -38 -13 0 -24 2 -24 5 0 16 34 68 50 78 23 13 25 13 44 1z m-461 -58 c0 -9 -7 -16 -16 -16 -17 0 -29 15 -19 25 12 12 35 7 35 -9z"/>
		<path d="M14480 3222 c-12 -13 -22 -26 -22 -29 -9 -62 -11 -87 -11 -122 -1 -44 -17 -203 -31 -299 -12 -77 -34 -165 -54 -210 -33 -72 -71 -218 -71 -267 0 -13 -8 -38 -16 -55 -21 -39 -20 -81 1 -99 16 -13 103 -21 183 -18 63 4 271 -7 367 -18 50 -6 61 -4 81 15 13 13 24 29 24 37 0 39 -27 41 -491 37 -42 0 -81 3 -87 6 -5 3 -10 22 -10 42 0 34 5 50 38 128 8 18 18 49 21 68 4 19 18 55 32 79 13 24 34 88 46 142 11 53 25 116 31 139 5 23 17 78 25 121 8 43 21 105 27 137 27 124 26 141 -5 166 -36 28 -51 28 -78 0z"/>
		<path d="M7239 3124 c-21 -31 -6 -65 33 -75 49 -12 90 54 55 88 -22 22 -69 15 -88 -13z"/>
		<path d="M7880 2955 c-35 -18 -57 -43 -57 -64 0 -8 17 -33 37 -56 23 -25 36 -48 32 -58 -9 -23 -23 -19 -52 12 -16 18 -32 26 -43 22 -25 -10 -20 -47 11 -77 22 -23 33 -26 64 -21 21 3 48 15 60 27 27 25 48 28 48 6 0 -22 46 -49 69 -41 11 4 29 15 39 24 18 15 23 15 53 -3 32 -18 33 -18 48 3 15 24 37 28 57 11 7 -6 31 -22 53 -37 39 -26 52 -27 91 -11 10 4 27 -2 41 -14 37 -32 61 -27 79 15 19 47 51 50 67 6 13 -39 56 -68 90 -59 43 10 42 36 -4 78 -51 46 -53 64 -11 89 68 40 86 128 30 148 -36 12 -93 -25 -93 -62 0 -39 -22 -79 -47 -85 -13 -3 -51 4 -85 16 -79 28 -81 28 -125 -11 -36 -32 -58 -33 -58 -4 0 16 -10 19 -51 16 -23 -2 -25 0 -18 33 15 71 12 97 -9 101 -29 6 -48 -26 -48 -81 0 -57 -33 -120 -61 -114 -13 2 -18 14 -18 40 0 29 -4 37 -21 39 -12 2 -31 -6 -41 -18 -11 -12 -26 -21 -33 -21 -21 0 -27 32 -10 58 21 33 20 49 -6 82 -25 32 -35 33 -78 11z"/>
		<path d="M6836 2943 c-9 -3 -34 -22 -56 -43 -50 -48 -53 -90 -7 -137 17 -18 31 -44 31 -58 0 -42 30 -101 51 -101 34 0 47 26 34 64 -18 53 -14 77 18 101 77 57 79 150 3 171 -41 11 -51 12 -74 3z m70 -83 c7 -18 -7 -48 -24 -53 -22 -8 -49 24 -42 47 9 28 56 32 66 6z"/>
		<path d="M931 2889 c-58 -38 -64 -57 -61 -187 1 -68 4 -79 30 -103 33 -30 52 -33 76 -11 14 13 21 13 44 2 41 -22 137 -29 160 -12 11 8 25 12 31 8 6 -3 41 -7 78 -9 77 -3 98 16 55 48 -18 13 -22 24 -16 38 15 36 24 124 14 143 -5 10 -16 19 -24 19 -24 0 -49 -47 -42 -77 5 -19 0 -32 -17 -48 -13 -13 -30 -22 -36 -22 -7 0 -19 -8 -26 -16 -17 -20 -31 -11 -31 20 0 14 -8 28 -16 31 -17 6 -51 -21 -61 -47 -4 -11 -9 -12 -24 -3 -30 17 -29 31 5 70 39 44 40 59 6 112 -41 66 -89 81 -145 44z m81 -108 c17 -24 12 -51 -10 -51 -19 0 -38 36 -30 57 9 22 21 21 40 -6z"/>
		<path d="M1848 2888 c-5 -11 -13 -67 -17 -126 -5 -79 -11 -105 -22 -105 -8 0 -17 7 -20 15 -9 24 -44 19 -58 -8 -6 -13 -13 -24 -14 -26 -1 -2 -19 4 -39 13 -39 16 -42 22 -57 121 -4 20 -18 50 -33 66 -46 49 -93 35 -123 -36 -10 -25 -23 -56 -29 -69 -6 -12 -8 -35 -4 -50 4 -15 2 -37 -4 -48 -9 -16 -9 -26 1 -37 15 -19 123 -11 169 13 27 13 61 10 61 -7 0 -5 44 -9 97 -9 99 1 199 -7 242 -18 30 -7 71 29 71 63 0 14 -11 31 -24 40 -22 14 -22 18 -9 58 8 23 11 55 7 70 -5 23 -12 28 -35 25 -22 -3 -31 -12 -40 -40 -7 -19 -17 -38 -24 -40 -15 -5 -26 43 -17 72 11 35 -14 84 -43 84 -14 0 -30 -10 -36 -21z m-300 -119 c8 -13 7 -22 -6 -35 -21 -21 -40 -11 -40 21 0 42 24 49 46 14z m16 -86 c15 -17 6 -37 -15 -37 -20 0 -28 15 -20 36 8 21 19 21 35 1z"/>
		<path d="M2237 2902 c-23 -6 -53 -63 -53 -98 0 -33 21 -56 48 -51 22 4 42 -25 33 -48 -6 -14 -15 -17 -45 -11 -29 6 -40 3 -52 -13 -20 -26 -19 -49 4 -70 30 -28 83 -22 124 14 44 39 67 41 67 5 0 -14 3 -26 7 -27 68 -9 149 -5 170 8 19 13 30 14 51 4 14 -6 35 -9 47 -5 13 4 29 -1 43 -14 49 -45 108 -35 112 19 4 52 -1 61 -55 95 -42 26 -70 35 -115 37 -54 3 -62 1 -82 -24 l-21 -28 -24 22 c-20 18 -30 20 -76 13 -29 -5 -62 -11 -73 -12 -18 -3 -22 3 -25 36 -1 22 3 47 9 55 32 38 -39 107 -94 93z"/>
		<path d="M7303 2878 c-68 -31 -89 -60 -89 -117 0 -21 8 -36 25 -47 35 -23 62 -16 71 19 5 16 12 41 17 57 6 22 14 29 34 29 20 0 26 -6 29 -29 2 -15 13 -35 25 -43 19 -14 27 -13 68 7 43 21 49 21 75 7 18 -10 30 -28 34 -47 3 -22 11 -31 26 -31 19 0 21 7 21 87 0 94 -15 127 -40 92 -13 -17 -15 -16 -33 4 -27 30 -35 27 -56 -16 -21 -44 -58 -47 -64 -4 -5 34 -31 63 -58 62 -12 -1 -51 -14 -85 -30z"/>
		<path d="M7099 2794 c-6 -11 -11 -30 -11 -42 0 -32 -40 -29 -53 5 -16 41 -42 44 -70 9 -33 -41 -31 -56 7 -64 17 -3 32 -10 32 -15 0 -5 9 -14 21 -20 17 -9 28 -8 49 5 18 13 37 16 62 11 46 -9 52 6 26 73 -21 57 -46 72 -63 38z"/>
		<path d="M11714 2073 c-21 -21 -10 -46 20 -46 28 0 42 27 25 48 -15 19 -25 18 -45 -2z"/>
		<path d="M2400 2028 c-16 -18 -16 -21 -1 -37 29 -29 73 10 46 42 -15 19 -23 18 -45 -5z"/>
		<path d="M15400 2032 c-33 -33 -57 -87 -64 -142 -7 -58 -29 -94 -55 -94 -8 0 -24 -11 -36 -23 l-23 -22 7 35 c22 114 30 186 24 202 -7 18 -54 25 -64 9 -3 -5 -8 -61 -12 -124 -7 -116 -22 -161 -52 -161 -10 0 -15 10 -15 31 0 31 -39 84 -62 84 -19 0 -63 -43 -66 -65 -4 -25 -35 -49 -48 -36 -9 9 -8 79 2 135 8 42 47 82 79 82 10 0 26 9 37 21 15 16 16 24 7 34 -19 18 -129 18 -150 0 -10 -8 -38 -16 -64 -17 -52 -3 -71 -12 -71 -34 0 -21 35 -37 70 -30 50 10 58 -12 31 -88 -24 -68 -35 -75 -56 -34 -7 14 -19 29 -27 33 -22 13 -60 -19 -60 -49 0 -21 -6 -25 -32 -25 -24 0 -31 4 -31 19 0 26 -38 58 -59 50 -9 -4 -30 1 -47 11 -25 15 -35 16 -57 5 -15 -6 -39 -12 -53 -12 -17 0 -36 -14 -59 -42 -18 -23 -40 -42 -47 -42 -18 0 -33 30 -41 81 -8 45 4 62 48 68 34 4 42 46 10 56 -41 13 -80 -13 -104 -71 -32 -78 -30 -133 9 -171 l32 -30 37 21 c36 19 39 19 52 1 15 -21 74 -25 85 -6 5 8 -1 19 -15 28 -12 8 -22 22 -22 30 0 24 31 29 47 7 15 -19 16 -19 31 1 13 16 18 17 31 6 9 -7 17 -19 17 -26 0 -8 9 -11 25 -8 13 2 37 -3 51 -13 15 -9 33 -16 41 -14 7 1 27 -1 43 -5 18 -5 47 -2 76 8 64 22 77 20 88 -9 11 -29 32 -39 63 -31 12 3 28 1 36 -5 10 -9 20 -8 37 5 22 15 26 15 50 -8 23 -21 29 -23 58 -12 23 9 38 9 57 0 22 -10 30 -8 52 13 14 14 26 33 26 43 0 9 7 23 15 30 19 15 48 -12 48 -46 0 -48 54 -72 109 -47 19 9 35 9 58 1 41 -15 102 2 111 30 4 11 3 31 -1 44 -4 13 -6 41 -5 62 3 43 -24 68 -58 54 -24 -9 -69 -61 -85 -99 -10 -24 -19 -30 -44 -30 -55 0 -73 72 -29 114 14 13 38 48 54 79 23 45 28 64 22 94 -8 46 -39 67 -62 44z"/>
		<path d="M12417 2007 c-2 -4 -26 -19 -53 -33 -28 -14 -50 -34 -54 -47 -3 -13 -26 -43 -51 -66 -103 -97 -84 -235 21 -155 43 33 60 64 79 142 16 65 36 96 59 87 12 -5 12 -11 -5 -38 -12 -21 -20 -58 -21 -103 -3 -83 8 -96 86 -101 30 -2 68 -6 86 -9 28 -5 37 -1 56 26 14 20 24 51 25 77 2 42 0 45 -26 49 -18 2 -35 -5 -46 -18 -58 -67 -68 -75 -97 -75 -17 0 -34 6 -37 14 -3 8 6 47 20 87 27 80 32 140 13 159 -14 15 -47 17 -55 4z m-118 -197 c10 -11 -24 -67 -41 -67 -20 0 -19 21 1 50 17 24 28 29 40 17z"/>
		<path d="M11504 1986 c-9 -10 -17 -32 -17 -48 0 -42 -18 -69 -46 -69 -32 0 -44 29 -22 53 21 23 17 51 -8 66 -22 14 -43 -3 -45 -38 -2 -28 -54 -139 -73 -154 -10 -8 -21 -8 -40 0 -32 15 -70 -2 -70 -31 0 -25 43 -64 70 -64 39 0 55 12 94 69 39 59 70 73 80 36 3 -12 0 -35 -6 -52 -7 -17 -9 -34 -5 -38 13 -13 50 8 56 33 7 27 37 40 80 34 20 -3 24 -10 24 -38 0 -35 20 -56 44 -47 19 7 18 87 0 113 -12 15 -26 19 -63 18 -40 -2 -49 0 -49 14 0 17 21 71 43 113 7 14 7 24 -2 35 -16 19 -24 18 -45 -5z"/>
		<path d="M13135 1971 c-11 -18 -20 -40 -20 -47 -1 -26 -33 -76 -49 -76 -10 0 -35 -5 -57 -12 -32 -9 -45 -22 -64 -58 l-25 -47 26 -21 c15 -12 31 -17 42 -13 9 4 41 10 71 12 52 4 56 6 56 32 0 15 16 51 36 80 39 57 66 139 55 167 -11 29 -48 20 -71 -17z m-94 -202 c-7 -8 -17 -15 -22 -15 -5 0 -9 7 -9 15 0 9 9 16 22 16 18 0 20 -3 9 -16z"/>
		<path d="M2990 1977 c-9 -10 -21 -52 -27 -92 -7 -41 -16 -91 -21 -113 -8 -29 -6 -44 4 -57 13 -18 16 -17 40 12 l25 32 27 -29 c30 -32 82 -38 143 -17 26 9 40 9 60 -2 18 -10 31 -11 43 -4 32 21 39 42 25 88 -17 56 -37 55 -108 -5 -58 -49 -71 -54 -104 -36 -27 14 -26 46 1 74 44 44 66 128 39 154 -20 21 -128 16 -147 -5z m90 -76 c-2 -38 -36 -81 -55 -69 -17 10 -14 60 5 88 25 35 52 25 50 -19z"/>
		<path d="M2129 1966 c-9 -10 -20 -40 -24 -65 -14 -87 -20 -95 -72 -95 -75 0 -94 -54 -35 -98 47 -36 80 -16 140 84 12 19 12 19 34 -1 12 -11 23 -28 23 -38 0 -10 6 -23 14 -30 12 -10 19 -6 35 16 20 28 23 28 57 14 19 -8 41 -14 48 -12 7 2 25 -5 39 -14 15 -10 32 -15 40 -13 7 3 21 1 30 -3 22 -12 15 -125 -8 -143 -26 -21 -755 -5 -812 17 -14 6 -95 12 -180 15 -142 4 -156 3 -194 -18 -45 -26 -54 -45 -33 -74 13 -17 19 -18 56 -7 29 9 107 10 257 6 118 -3 297 -8 399 -11 227 -6 349 -12 405 -21 26 -4 62 -1 94 9 40 11 64 12 104 4 52 -10 110 -13 205 -10 140 4 267 5 341 2 125 -5 438 -4 641 1 98 2 210 0 249 -5 45 -6 75 -5 84 2 8 6 135 11 325 12 171 1 360 6 420 11 62 5 116 4 126 -1 11 -5 37 -5 63 0 37 8 129 12 381 14 12 1 149 0 305 -2 265 -2 286 -3 318 -23 37 -23 7 -22 1220 -32 20 0 53 1 74 2 20 1 81 -4 136 -11 109 -15 194 -16 441 -10 90 2 229 1 310 -3 81 -5 211 -7 289 -6 210 4 251 2 312 -12 44 -11 73 -11 133 -2 55 9 87 9 109 2 31 -11 173 -9 328 5 43 4 107 7 141 7 186 -2 317 -9 335 -16 11 -5 55 -4 100 2 93 13 86 12 243 17 66 1 137 6 157 11 21 4 49 3 65 -3 17 -7 42 -7 63 -2 19 5 167 13 329 18 395 11 437 12 861 12 578 0 862 -4 1759 -24 101 -2 306 -12 456 -21 325 -20 568 -23 586 -7 20 16 253 -1 393 -30 72 -15 98 -2 98 46 0 20 -6 40 -14 46 -11 10 -162 23 -291 25 -26 1 -209 -2 -407 -6 -322 -6 -362 -5 -386 11 -24 16 -75 19 -199 14 -18 -1 -56 4 -87 10 -45 10 -60 10 -85 -4 -25 -12 -38 -13 -65 -4 -24 9 -44 9 -67 1 -18 -6 -79 -9 -137 -7 -58 2 -122 3 -142 3 -100 0 -368 3 -604 6 -1031 16 -1948 21 -2388 11 -61 -1 -123 2 -139 8 -19 7 -35 6 -52 -4 -21 -12 -135 -21 -216 -18 -13 0 -80 1 -147 1 -68 0 -154 1 -192 1 -214 3 -336 1 -373 -7 -56 -11 -451 -9 -481 3 -14 5 -47 5 -80 -1 -31 -6 -94 -8 -141 -4 -82 7 -241 8 -566 4 -93 -1 -169 3 -202 12 -39 10 -216 14 -708 16 -361 2 -699 7 -751 11 -99 7 -158 8 -184 3 -30 -6 -247 13 -289 24 -63 18 -560 13 -703 -7 -64 -9 -172 -18 -242 -21 -314 -10 -570 -17 -603 -16 -21 0 -59 0 -84 -1 -26 -1 -71 -2 -100 -1 -29 0 -117 0 -194 -1 -348 -2 -1096 13 -1105 22 -5 5 -4 23 1 42 5 18 7 61 4 95 -5 57 -4 64 18 75 27 15 33 10 48 -34 10 -30 15 -33 62 -33 50 -1 79 13 79 39 -1 36 -16 60 -43 69 -34 12 -38 32 -18 97 13 44 -1 76 -28 66 -20 -8 -29 -31 -36 -93 l-6 -53 -63 4 c-57 3 -69 -1 -115 -31 l-51 -34 -23 28 c-12 15 -32 28 -45 28 -20 0 -23 6 -23 37 0 21 4 47 10 57 14 26 3 53 -22 53 -22 0 -23 -2 -41 -71 -12 -47 -35 -66 -55 -46 -9 8 -9 22 0 50 8 26 9 45 2 58 -13 24 -23 25 -44 1z"/>
		<path d="M11710 1951 c-17 -17 -16 -25 3 -45 13 -12 39 -16 105 -16 48 0 90 -4 93 -9 3 -5 -4 -36 -15 -69 -26 -73 -20 -105 18 -96 14 4 42 1 62 -6 47 -17 62 -4 49 45 -6 23 -19 40 -37 49 -35 17 -35 19 -3 77 36 64 25 80 -46 66 -48 -10 -142 -5 -195 11 -11 4 -27 1 -34 -7z"/>
		<path d="M3735 1942 c-10 -7 -18 -24 -18 -41 0 -33 -13 -47 -53 -57 -16 -3 -42 -26 -62 -54 -33 -46 -35 -48 -54 -30 -11 10 -20 29 -20 42 0 32 -44 61 -78 52 -34 -8 -82 -91 -73 -126 7 -30 25 -34 56 -14 16 9 31 10 62 1 34 -9 45 -8 57 4 13 13 19 13 46 0 19 -10 38 -12 52 -7 28 10 40 27 25 36 -16 10 -13 55 5 62 20 7 29 -8 25 -44 -2 -20 6 -37 27 -58 29 -29 31 -30 45 -12 9 13 10 23 3 30 -15 15 -13 52 5 75 15 21 21 105 10 135 -8 19 -33 21 -60 6z"/>
		<path d="M13913 1884 c-28 -24 -32 -34 -32 -78 0 -46 4 -54 39 -83 49 -41 67 -41 113 0 41 36 56 88 37 127 -34 65 -102 80 -157 34z m94 -79 c0 -13 -7 -20 -21 -20 -24 0 -30 37 -8 45 19 7 29 -1 29 -25z"/>
		<path d="M11730 1803 c-53 -27 -56 -73 -7 -91 30 -12 33 -28 12 -52 -9 -9 -17 -31 -19 -48 -3 -27 0 -32 22 -32 20 0 28 11 49 69 49 133 25 197 -57 154z"/>
		<path d="M12728 1806 c-28 -12 -42 -45 -36 -82 5 -23 9 -25 45 -19 22 4 53 2 69 -4 33 -13 88 -4 88 14 0 7 -21 32 -47 57 -47 45 -72 52 -119 34z"/>
		<path d="M3929 1765 c-22 -14 -11 -58 16 -62 25 -4 51 31 41 57 -6 16 -36 19 -57 5z"/>
		<path d="M8612 940 c-25 -21 -43 -26 -90 -26 -55 0 -59 -2 -66 -28 -12 -48 7 -62 78 -59 79 4 95 -11 78 -69 -6 -21 -14 -53 -18 -70 -7 -32 -32 -68 -48 -68 -5 0 -17 14 -26 32 -14 27 -21 32 -45 27 -15 -3 -43 0 -62 6 -30 11 -38 9 -81 -22 -56 -40 -83 -40 -88 1 -4 37 -37 39 -60 3 -22 -34 -53 -34 -61 -1 -9 34 -36 41 -129 32 -92 -8 -129 -33 -149 -100 -11 -37 -11 -47 3 -69 9 -14 26 -25 37 -25 35 0 84 36 95 70 6 18 20 41 32 51 27 25 47 8 56 -47 6 -36 21 -53 49 -53 5 0 22 12 37 26 26 24 30 25 58 10 41 -21 62 -19 106 11 l39 27 18 -27 c16 -24 57 -37 57 -18 0 5 6 18 14 29 15 20 16 20 48 -11 l33 -31 33 19 c32 18 33 18 63 -4 21 -15 39 -20 56 -16 24 6 78 55 78 72 0 4 9 8 21 8 15 0 21 -7 21 -25 0 -14 10 -34 22 -44 21 -19 22 -19 68 6 l47 26 39 -23 39 -23 -3 -86 c-2 -82 -1 -89 26 -117 64 -66 100 -26 111 121 4 59 10 133 14 166 8 71 -6 104 -43 104 -18 0 -30 -10 -42 -32 -19 -37 -51 -42 -68 -10 -17 31 -41 25 -82 -22 -50 -59 -81 -55 -81 11 0 45 -1 47 -31 47 -24 0 -37 -8 -56 -36 -13 -20 -38 -45 -54 -56 -27 -17 -31 -17 -47 -2 -21 21 -21 44 -1 82 9 17 16 44 16 61 0 17 5 41 11 53 10 18 18 20 58 14 29 -4 61 -2 83 6 30 11 37 19 37 43 0 18 -8 33 -20 40 -26 13 -82 14 -90 0 -10 -16 -23 -13 -54 16 -15 14 -34 26 -41 26 -8 0 -28 -12 -45 -26z"/>
		<path d="M6028 918 c-61 -55 -88 -120 -82 -199 11 -145 41 -204 103 -204 29 0 48 8 79 36 27 25 45 35 56 30 9 -4 39 -7 68 -6 28 2 57 -3 65 -9 20 -17 46 7 46 42 0 55 -58 118 -79 85 -10 -16 -36 -12 -36 5 0 8 -10 20 -22 27 -28 15 -41 4 -72 -57 -25 -48 -57 -66 -96 -54 -38 12 -51 161 -18 202 6 8 27 14 46 14 34 0 78 29 78 51 0 17 -46 62 -71 69 -17 5 -34 -3 -65 -32z"/>
		<path d="M6630 867 c-9 -14 -21 -70 -28 -126 -11 -97 -13 -102 -42 -117 -64 -33 -107 3 -45 37 35 20 45 46 26 69 -38 46 -115 -15 -123 -98 -4 -43 -1 -56 17 -74 26 -26 81 -29 111 -6 30 22 56 18 75 -11 14 -21 26 -26 57 -26 22 0 45 6 53 15 7 9 30 16 53 16 45 0 71 20 79 64 10 45 40 68 75 56 36 -13 38 -48 5 -62 -32 -14 -42 -48 -18 -65 15 -11 25 -10 56 3 21 8 41 21 46 28 15 24 8 92 -14 135 -21 42 -23 43 -67 38 -25 -3 -59 -15 -76 -27 -16 -11 -41 -23 -56 -25 -19 -2 -32 -17 -52 -58 -27 -57 -44 -66 -85 -45 -21 12 -28 60 -11 79 4 6 14 32 22 58 7 25 17 58 23 71 13 33 11 69 -4 84 -20 21 -59 14 -77 -13z"/>
		<path d="M7773 866 c-47 -29 -106 -102 -133 -166 -35 -85 -12 -160 59 -197 49 -25 63 -25 87 2 26 28 11 53 -40 65 -90 22 -91 92 -3 183 43 44 61 56 87 56 18 0 36 -5 40 -11 9 -15 51 -13 66 2 19 19 15 34 -13 65 -34 36 -90 37 -150 1z"/>
		<path d="M7402 792 c-5 -15 -10 -34 -10 -42 0 -8 -19 -27 -42 -41 -47 -30 -84 -82 -84 -118 0 -33 44 -61 72 -46 30 16 55 14 76 -6 44 -39 82 21 50 78 -18 32 -18 38 -4 65 19 37 21 107 3 124 -21 22 -50 15 -61 -14z"/>
		<path d="M7130 699 c-16 -18 -24 -39 -25 -74 -1 -43 2 -53 26 -71 20 -15 36 -19 55 -14 33 8 55 43 39 62 -6 8 -8 31 -5 52 12 68 -42 95 -90 45z"/>
	</g>
</svg>
