<?xml version="1.0" encoding="utf-8"?>
<svg xmlns="http://www.w3.org/2000/svg" viewBox="0 0 452 68" fill-rule="evenodd" clip-rule="evenodd" stroke-linecap="round" stroke-linejoin="round" stroke-miterlimit="1.5"  preserveAspectRatio="xMidYMid meet">
  <title>Sixth set of hieroglyphics, fourteen little dancing men, one upside down. Three of them are holding up black flags, including the upside-down figure.</title>
  <path d="M328.636 11.455l11.327 10.963 10.582-10.089" fill="none" stroke="#000" stroke-width="2.5"/>
  <path d="M323.172 41.678l4.802-.024-3.254-11.418 14.372 3.386.994-15.331M342.478 49.397l-3.823-.493 1.192-16.632" fill="none" stroke="#000" stroke-width="2.5"/>
  <ellipse cx="339.388" cy="13.83" rx="3.366" ry="3.295"/>
  <path d="M382.479 12.341L360.557 22.96l8.743 6.469 7.512 8.084-8.366 10.363 4.479 1.966" fill="none" stroke="#000" stroke-width="2.5"/>
  <path d="M357.888 44.941l3.573-2.399-6.747-7.564L369 30.471l.787-13.777" fill="none" stroke="#000" stroke-width="2.5"/>
  <ellipse cx="369.181" cy="13.892" rx="3.366" ry="3.295"/>
  <path d="M390.477 12.43l9.703 9.299 11.659-8.276" fill="none" stroke="#000" stroke-width="2.5"/>
  <path d="M387.206 45.585l4.02-.964-4.233-10.065 12.948-3.748.557-13.117" fill="none" stroke="#000" stroke-width="2.5"/>
  <path d="M403.166 49.412l-2.743-1.113 6.425-9.521-8.017-8.476" fill="none" stroke="#000" stroke-width="2.5"/>
  <ellipse cx="400.208" cy="14.457" rx="3.366" ry="3.295"/>
  <path d="M416.329 12.629l10.186 10.316 9.666-9.731" fill="none" stroke="#000" stroke-width="2.5"/>
  <path d="M415.335 47.28l4.618.508 6.409-16.526.773-13.841M436.891 47.42l-3.606.639-6.142-16.33" fill="none" stroke="#000" stroke-width="2.5"/>
  <ellipse cx="426.441" cy="15.019" rx="3.366" ry="3.295"/>
  <ellipse cx="306.835" cy="47.312" rx="3.366" ry="3.295"/>
  <path d="M295.845 14.283l3.472-2.566 8.751 15.68 8.191-13.904 3.207 2.631M296.21 49.44l11.222-9.493 10.386 7.546.848 8.692M307.977 26.01l-.53 16.788" fill="none" stroke="#000" stroke-width="2.5"/>
  <path stroke="#000" stroke-width="2.5" d="M318.913 53.542h5.875v5.863h-5.875z"/>
  <ellipse cx="276.77" cy="14.701" rx="3.366" ry="3.295"/>
  <path d="M266.615 12.239l10.12 8.788 11.143-8.667" fill="none" stroke="#000" stroke-width="2.5"/>
  <path d="M266.866 47.399l3.136 1.466 6.332-18 .131-13.258M287.671 46.468l-3.621-.748 6.755-8.278-13.742-6.876" fill="none" stroke="#000" stroke-width="2.5"/>
  <ellipse cx="244.126" cy="14.466" rx="3.366" ry="3.295"/>
  <path d="M233.988 12.11l9.67 8.301 11.542-7.363-.17-5.303" fill="none" stroke="#000" stroke-width="2.5"/>
  <path d="M233.708 47.934l3.845 1.53 7.261-15.232.018-17.552" fill="none" stroke="#000" stroke-width="2.5"/>
  <path d="M254.052 46.671l-3.698 2.043-5.813-13.925" fill="none" stroke="#000" stroke-width="2.5"/>
  <path stroke="#000" stroke-width="2.5" d="M254.923 4.923h5.875v5.863h-5.875z"/>
  <ellipse cx="211.483" cy="14.231" rx="3.366" ry="3.295"/>
  <path d="M201.602 13.918l9.942 7.499 11.292-7.604" fill="none" stroke="#000" stroke-width="2.5"/>
  <path d="M203.376 48.371l4.694 2.228 3.479-18.672.213-15.251" fill="none" stroke="#000" stroke-width="2.5"/>
  <path d="M229.656 31.823l-.253 3.195-18.198-3.079" fill="none" stroke="#000" stroke-width="2.5"/>
  <ellipse cx="180.924" cy="16.457" rx="3.366" ry="3.295"/>
  <path d="M171.604 14.912l9.343 8.497 11.228-9.254" fill="none" stroke="#000" stroke-width="2.5"/>
  <path d="M169.983 47.242l3.465 2.183 7.292-13.749.316-16.446M190.484 46.646l-3.441 2.365-5.294-13.604" fill="none" stroke="#000" stroke-width="2.5"/>
  <ellipse cx="153.06" cy="15.525" rx="3.35" ry="3.295"/>
  <path d="M149.434 50.52l6.3-.07M153.252 16.213l-.258 34.267M164.511 13.269l-11.299 8.296-9.437-7.251" fill="none" stroke="#000" stroke-width="2.5"/>
  <ellipse cx="123.109" cy="16.878" rx="3.35" ry="3.295"/>
  <path d="M111.719 14.629l10.915 9.653 9.726-6.916.163-10.147" fill="none" stroke="#000" stroke-width="2.5"/>
  <path d="M112.51 48.839l3.926 1.456 6.535-13.807.083-16.884M134.067 48.071l-4.272 2.247-6.627-14.554" fill="none" stroke="#000" stroke-width="2.5"/>
  <path stroke="#000" stroke-width="2.5" d="M132.062 6.243h5.875v5.863h-5.875z"/>
  <ellipse cx="92.857" cy="17.689" rx="3.35" ry="3.295"/>
  <path d="M81.277 15.089l10.599 9.379 12.297-8.98" fill="none" stroke="#000" stroke-width="2.5"/>
  <path d="M81.955 48.826l4.443-2.048-7.706-9.503 14.018-2.377.185-14.927" fill="none" stroke="#000" stroke-width="2.5"/>
  <path d="M98.696 51.115l-4.441-1.191 8.738-7.767-10.551-7.821" fill="none" stroke="#000" stroke-width="2.5"/>
  <ellipse cx="61.484" cy="16.686" rx="3.35" ry="3.295"/>
  <path d="M50.809 15.215l10.857 9.26 11.082-9.036M46.546 44.95l4.951-1.075-5.422-10.391 14.881 1.502" fill="none" stroke="#000" stroke-width="2.5"/>
  <path d="M64.376 51.085l-3.191-.082.527-31.614" fill="none" stroke="#000" stroke-width="2.5"/>
  <ellipse cx="26.555" cy="18.42" rx="3.35" ry="3.295" stroke="#000" stroke-width=".75"/>
  <path d="M14.299 15.927l11.725 10.298 11.184-10.379" fill="none" stroke="#000" stroke-width="2.5"/>
  <path d="M14.283 50.844l4.741-2.098-7.662-9.97 15.037-4.249-.039-12.973" fill="none" stroke="#000" stroke-width="2.5"/>
  <path d="M33.452 52.667l-5.096-1.513 6.082-7.619-8.365-9.713" fill="none" stroke="#000" stroke-width="2.5"/>
</svg>
