<?xml version="1.0" encoding="utf-8"?>
<svg xmlns="http://www.w3.org/2000/svg" xmlns:serif="http://www.serif.com/" viewBox="0 0 494 170" fill-rule="evenodd" clip-rule="evenodd" stroke-linecap="round" stroke-linejoin="round" stroke-miterlimit="1.5"  preserveAspectRatio="xMidYMid meet">
  <title>A page torn from a notebook, on which is marked a line of fifteen small figures of dancing men in various attitudes and positions, some holding up black flags.</title>
  <clipPath id="a">
    <path d="M15.568 9.782h467.483v151.174H15.568z"/>
  </clipPath>
  <g clip-path="url(#a)">
    <path d="M21.532 11.764c-5.799 3.612-6.464 6.939-5.704 28.139.381 10.267.571 26.713.476 36.41-.286 47.627.19 83.657 1.235 84.322.571.285 5.609.475 11.218.19 9.316-.38 10.267-.57 12.359-2.947 1.235-1.331 2.186-3.042 2.281-3.802 0-2.662 3.042-3.803 11.313-4.088 6.559-.285 9.411-.856 13.309-2.852 4.468-2.282 5.989-2.472 14.64-2.187 6.369.191 9.887-.095 10.362-.855 1.141-1.711 5.989-3.613 7.795-2.947.856.38 2.472-.285 3.708-1.331 3.327-3.042 11.122-4.658 15.115-3.137 4.278 1.521 6.084.76 8.651-3.613 1.141-1.901 2.662-3.517 3.327-3.517 2.852 0 11.978 3.993 12.549 5.419.76 2.186 6.464 5.608 9.316 5.513 1.236 0 3.137-.57 4.183-1.426 2.567-1.901 7.51-1.901 9.982-.095 2.662 1.997 4.848 1.902 9.221-.285 3.137-1.616 4.658-1.806 9.602-.95 3.422.475 6.274.475 6.844 0 .476-.476 4.278-.666 8.366-.381 4.658.285 8.936 0 11.313-.76 2.757-.951 5.038-1.046 8.651-.19 2.852.57 5.323.665 5.894.095 1.806-1.521 17.206-2.092 19.393-.761 1.426.951 2.757.856 5.989-.19 3.422-1.141 4.753-1.141 7.605-.095 3.042 1.046 3.898 1.046 6.084-.475 1.807-1.141 4.659-1.712 9.222-1.712 7.13 0 9.886-.665 12.358-3.137 1.331-1.331 1.616-1.235 2.092.951.38 1.331 1.14 2.472 1.616 2.472.57 0 1.045.665 1.045 1.521 0 2.376 9.887.855 12.074-1.807 1.521-1.901 1.616-1.901 4.278-.19 2.756 1.807 2.851 1.807 4.182-.095.761-1.045 1.141-2.471.856-3.232-.38-1.046.095-1.236 1.711-.855 1.331.38 2.662.665 3.137.665.476 0-.095 1.236-1.236 2.662-2.661 3.327-1.806 4.373 1.236 1.521 1.616-1.521 3.518-2.187 6.56-2.187 6.084 0 4.753-2.186-2.092-3.612-3.042-.571-5.989-1.426-6.654-1.806-1.521-.951-5.134 1.14-5.134 3.042 0 1.14-.475 1.331-1.711.855-4.373-1.806-5.228-1.711-6.369.951-1.046 2.091-1.902 2.567-4.944 2.567-5.038 0-6.939-2.377-6.939-8.556.095-11.218-1.331-17.397-3.993-17.397-1.521 0-2.187 3.993-1.046 5.514.666.76 1.236 3.992 1.331 7.32.285 8.651-1.331 10.077-11.218 10.172-4.658 0-8.46.57-9.981 1.426-3.233 1.901-5.229 1.901-4.849.095.381-1.997-.19-1.997-7.225.285-4.468 1.426-7.225 1.426-6.464.095 1.236-1.901-.57-2.947-2.757-1.521-1.996 1.236-7.51 2.091-10.172 1.521-1.996-.38-7.035.285-7.985 1.046-.571.475-3.232.38-5.989-.095-3.328-.666-5.989-.571-8.271.19-2.282.76-3.708.76-4.373.095-.76-.666-1.901-.476-3.708.57-1.806 1.046-3.707 1.331-5.513.856-2.757-.666-2.757-.761-1.046-2.662 1.711-1.901 1.616-1.996-.38-1.996-1.141 0-2.852 1.14-3.803 2.566-1.331 1.997-2.472 2.472-5.894 2.472-4.088 0-6.749-2.091-4.468-3.517 1.711-1.046 1.046-2.472-1.046-2.472-1.235 0-2.376.951-2.947 2.472-.95 2.471-5.608 5.513-8.46 5.513-1.236 0-1.521-.57-.951-2.186.57-1.806.38-1.996-1.711-1.331-1.331.38-3.708.951-5.324 1.236-2.472.38-2.757.285-1.806-.761 1.711-1.806 1.616-2.947-.285-2.947-.856 0-2.282 1.331-3.232 2.947-1.902 3.423-4.659 3.898-9.127 1.616-3.232-1.711-4.658-4.563-2.852-5.703 1.426-.856.476-1.236-2.471-.856-1.046.095-2.472-.38-3.233-.951-.76-.665-2.186-1.045-3.137-.95-1.045.095-2.661-.095-3.612-.571-2.092-.855-6.75.856-6.75 2.567 0 1.901-3.707 6.084-4.468 4.943-1.426-2.376-15.876-.475-19.488 2.567-1.236 1.046-1.901 1.046-2.757.19-.856-.855-1.616-.76-2.947.476-1.046.95-2.662 1.711-3.612 1.711-1.046 0-1.997.855-2.282 1.996-.475 1.521-1.141 1.806-3.232 1.331-1.426-.285-3.232-.951-4.088-1.331-.856-.475-2.852-.57-4.468-.285-1.711.285-4.088.475-5.514.475-1.331 0-4.468 1.141-6.94 2.567-3.612 2.187-5.799 2.662-11.978 2.757-8.365.19-12.833 1.521-13.594 4.183-1.996 6.464-2.186 6.654-12.549 6.749h-9.696l-.285-63.408c-.286-74.436-.286-75.576 1.616-78.428 3.042-4.564-23.862-4.373 353.356-3.328 52.19.19 96.396.666 98.202 1.046 7.51 1.616 7.035-2.282 7.225 62.172.19 57.039.19 57.895-1.806 58.56-1.046.476-2.567.381-3.328-.095-1.711-1.045-5.799.571-8.461 3.423-2.851 3.137-15.495 5.989-20.343 4.658-2.567-.761-3.993-.571-6.275.57-1.616.856-3.612 1.331-4.278 1.046-.76-.285-2.091 0-3.042.76-1.14.761-4.658 1.141-10.362.951-8.556-.19-13.784-1.616-15.4-4.088-.381-.665-1.331-1.331-1.997-1.331-.665 0-3.992-1.33-7.415-3.042-5.894-2.757-6.749-2.947-13.309-2.281-5.418.475-7.32.38-7.89-.666-.666-1.045-1.141-1.045-2.282-.19-.855.761-4.468 1.141-9.791.951-7.606-.19-8.366-.475-8.366-2.187 0-1.14.951-2.471 2.186-3.042 2.472-1.045 2.852-1.996 1.331-2.947-1.806-1.141-5.894 1.711-6.274 4.373-.19 2.092-.856 2.662-3.232 2.852-6.56.476-13.119 1.426-14.45 1.997-3.422 1.33-5.324 1.426-12.358.57-3.898-.475-4.754-.285-4.373.76.285.856 1.616 1.331 3.612 1.141 1.711-.095 3.137.19 3.137.761 0 1.236 4.468 1.331 6.845 0 3.042-1.616 11.978-2.377 25.097-2.092 36.79.761 35.079.666 40.688 3.328 2.852 1.426 5.989 3.137 6.939 3.992 4.468 3.708 23.672 5.799 27.854 3.042 1.331-.855 2.662-1.33 2.947-.95.381.285 2.377-.095 4.468-.951 3.138-1.236 4.469-1.331 7.32-.38 2.662.855 4.469.855 6.94 0 1.806-.571 4.849-1.141 6.75-1.331 2.091-.19 4.658-1.426 6.749-3.232 2.662-2.377 4.373-3.042 9.412-3.423l6.179-.475V87.625c0-27.188-.285-54.377-.475-60.556-.476-10.362-.761-11.218-3.042-13.119-1.331-1.141-4.944-2.472-7.986-3.042-3.802-.761-73.77-1.141-226.064-1.141-219.6 0-220.646 0-223.973 1.997z" fill-rule="nonzero"/>
  </g>
  <ellipse cx="309.416" cy="58.002" rx="3.366" ry="3.295"/>
  <path d="M302.747 53.539l-2.417 7.296 16.116 4.903 3.039-7.388" fill="none" stroke="#000" stroke-width="2.5"/>
  <path d="M296.898 82.182l3.204-2.647-4.063-9.022 10.046 3.233 2.639-12.019" fill="none" stroke="#000" stroke-width="2.5"/>
  <path d="M311.585 90.57l-4.179.049 4.352-8.389-5.72-8.809" fill="none" stroke="#000" stroke-width="2.5"/>
  <ellipse cx="339.401" cy="57.662" rx="3.366" ry="3.295"/>
  <path d="M330.098 54.568l-1.187 7.64 17.406 5.412-10.19 6.834-9.948 3.688-2.054 8.833-3.629-.873" fill="none" stroke="#000" stroke-width="2.5"/>
  <path d="M342.147 91.899l-4.798-1.221 7.741-8.611-8.763-7.001M339.438 59.229l-2.487 14.209" fill="none" stroke="#000" stroke-width="2.5"/>
  <ellipse cx="368.358" cy="56.872" rx="3.366" ry="3.295"/>
  <path d="M357.307 56.277l10.675 7.873 9.814-9.245" fill="none" stroke="#000" stroke-width="2.5"/>
  <path d="M357.314 88.884l4.363 2.425 5.683-16.875 1.114-14.89M376.688 89.072l-4.145-.747 6.175-9.139-10.135-5.564" fill="none" stroke="#000" stroke-width="2.5"/>
  <ellipse cx="397.86" cy="56.991" rx="3.366" ry="3.295"/>
  <path d="M410.249 55.257l-19.098 15.274 6.622 4.487 7.324 7.273-6.434 8.122 4.157 1.281" fill="none" stroke="#000" stroke-width="2.5"/>
  <path d="M384.887 88.753l6.203-1.297-4.267-9.388 11.909-3.663-.251-14.452" fill="none" stroke="#000" stroke-width="2.5"/>
  <ellipse cx="450.992" cy="58.349" rx="3.366" ry="3.295"/>
  <path d="M444.219 86.679l3.12-3.154-9.068-8.967 12.767-.402.208-14.481M465.06 55.221l-13.914 11.371" fill="none" stroke="#000" stroke-width="2.5"/>
  <path d="M455.159 92.419l-3.502-1.55 6.893-8.319-7.874-9.09" fill="none" stroke="#000" stroke-width="2.5"/>
  <ellipse cx="247.749" cy="58.17" rx="3.366" ry="3.295"/>
  <path d="M243.376 90.689l2.782-2.366-7.632-7.666 9.077-6.7.358-13.521" fill="none" stroke="#000" stroke-width="2.5"/>
  <path d="M254.514 89.701l-3.782-1.836 8.056-9.362-11.282-4.299" fill="none" stroke="#000" stroke-width="2.5"/>
  <ellipse cx="72.241" cy="58.031" rx="3.366" ry="3.295"/>
  <path d="M88.472 44.796l-5.874.13.131 5.862 5.873-.13-.13-5.862z" serif:id="(Rectangle)" stroke="#000" stroke-width="2.5"/>
  <path d="M60.575 53.697l11.633 11.066 10.653-9.442-.403-10.362" fill="none" stroke="#000" stroke-width="2.5"/>
  <path d="M64.338 87.56l5.299-.335-8.741-8.148 10.516-4.78.942-11.914M79.398 89.377l-4.471-.237 7.296-8.483-9.034-7.579M30.198 87.352l3.539 2.786 7.032-15.295.068-14.369M48.766 88.883l-4.287-1.879 5.517-8.905-8.833-3.998" fill="none" stroke="#000" stroke-width="2.5"/>
  <ellipse cx="41.158" cy="56.572" rx="3.366" ry="3.295"/>
  <path d="M29.986 53.071l10.936 9.352 11.584-7.845M209.295 54.684l9.472 9.124 11.851-8.163" fill="none" stroke="#000" stroke-width="2.5"/>
  <path d="M209.35 89.29l3.947 1.459 5.497-17.229.48-12.188M228.142 87.974l-4.95-.955 5.974-8.357-9.494-4.915" fill="none" stroke="#000" stroke-width="2.5"/>
  <ellipse cx="219.271" cy="57.593" rx="3.366" ry="3.295" serif:id="(Ellipse)"/>
  <path d="M92.661 55.389l8.976 7.56 9.084-6.602" fill="none" stroke="#000" stroke-width="2.5"/>
  <path d="M98.126 90.804s5.927-.104 5.96.039c.026.113-2.472.434-2.472.434l.291-30.15" fill="none" stroke="#000" stroke-width="2.5"/>
  <ellipse cx="102.039" cy="56.911" rx="3.366" ry="3.295"/>
  <path d="M119.916 55.925l9.553 7.658 10.161-7.721" fill="none" stroke="#000" stroke-width="2.5"/>
  <path d="M118.693 87.461l5.527 2.426 6.024-10.404-.521-18.286M140.387 87.717l-4.212 3.136-5.673-12.094" fill="none" stroke="#000" stroke-width="2.5"/>
  <ellipse cx="129.555" cy="57.394" rx="3.366" ry="3.295"/>
  <ellipse cx="160.984" cy="56.919" rx="3.366" ry="3.295"/>
  <path d="M149.743 53.98l10.898 8.762 10.526-8.125" fill="none" stroke="#000" stroke-width="2.5"/>
  <path d="M152.685 89.348l4.561 2.344 4.005-16.35-.513-13.427M177.043 75.558l-.266 3.933-14.691-4.517" fill="none" stroke="#000" stroke-width="2.5"/>
  <path d="M209.905 45.476l-7.547-.864-.667 5.825 7.547.865.667-5.826z" stroke="#000" stroke-width="2.5"/>
  <ellipse cx="188.721" cy="56.627" rx="3.366" ry="3.295"/>
  <path d="M178.295 56.397l11.049 8.076 10.388-6.17 2.615-13.082" fill="none" stroke="#000" stroke-width="2.5"/>
  <path d="M176.301 88.854l6.173 2.736 6.83-13.946.004-17.059M200.624 87.27l-3.998 3.485-6.499-13.543" fill="none" stroke="#000" stroke-width="2.5"/>
  <path stroke="#000" stroke-width="2.5" d="M287.365 45.186h7.138v5.863h-7.138z"/>
  <ellipse cx="277.381" cy="56.956" rx="3.366" ry="3.295"/>
  <path d="M266.956 56.727l11.048 8.076 8.666-6.229.329-13.475" fill="none" stroke="#000" stroke-width="2.5"/>
  <path d="M264.961 89.183l6.173 2.736 6.83-13.946.004-17.059M289.284 87.6l-3.998 3.484-6.499-13.543M413.939 57.222l10.164 8.521 9.942-9.51" fill="none" stroke="#000" stroke-width="2.5"/>
  <path d="M412.983 89.448l5.034 2.388 5.705-13.306.169-15.89" fill="none" stroke="#000" stroke-width="2.5"/>
  <path d="M435.01 88.468l-3.8 2.089-7.649-12.076" fill="none" stroke="#000" stroke-width="2.5"/>
  <ellipse cx="423.443" cy="59.335" rx="3.366" ry="3.295"/>
</svg>
