<?xml version="1.0" encoding="utf-8"?>
<svg xmlns="http://www.w3.org/2000/svg" xmlns:serif="http://www.serif.com/" xmlns:xlink="http://www.w3.org/1999/xlink" height="100%" style="fill-rule:evenodd;clip-rule:evenodd;stroke-linecap:round;stroke-linejoin:round;stroke-miterlimit:1.5;" version="1.1" viewBox="0 0 292 60" width="100%" xml:space="preserve">
	<title>Third set of hieroglyphics, a line of nine small figures of dancing men in various attitudes, one holding up a black flag.</title>
	<ellipse cx="25.369" cy="16.564" rx="3.35" ry="3.295" style="stroke:#000;stroke-width:0.75px;"/>
	<path d="M13.25,13.139l11.465,10.136" style="fill:none;stroke:#000;stroke-width:2.5px;"/>
	<path d="M11.705,47.952l4.284,-0.216l-4.497,-10.314l12.076,-3.959l1.435,-14.735" style="fill:none;stroke:#000;stroke-width:2.5px;"/>
	<path d="M31.657,50.819l-5.34,-0.021l6.596,-9.722l-8.75,-7.858" style="fill:none;stroke:#000;stroke-width:2.5px;"/>
	<ellipse cx="58.509" cy="17.118" rx="3.35" ry="3.295" style="stroke:#000;stroke-width:0.75px;"/>
	<path d="M41.522,43.541l3.983,-0.106l-2.982,-14.227l13.978,6.182" style="fill:none;stroke:#000;stroke-width:2.5px;"/>
	<path d="M58.754,52.841l-5.047,-0.697l5.383,-31.831" style="fill:none;stroke:#000;stroke-width:2.5px;"/>
	<path d="M48.634,14.796l9.642,9.517l9.678,-9.633" style="fill:none;stroke:#000;stroke-width:2.5px;"/>
	<path d="M74.013,14.469l8.754,9.252l11.627,-8.862" style="fill:none;stroke:#000;stroke-width:2.5px;"/>
	<path d="M68.933,48.524l3.87,-0.735l-3.438,-10.291l13.476,-3.409l1.081,-14.757" style="fill:none;stroke:#000;stroke-width:2.5px;"/>
	<path d="M87.506,53.196l-3.218,-0.644l8.203,-10.808l-9.844,-7.254" style="fill:none;stroke:#000;stroke-width:2.5px;"/>
	<ellipse cx="83.887" cy="16.516" rx="2.5" ry="2.459" style="stroke:#000;stroke-width:0.75px;"/>
	<path d="M103.196,14.645l9.973,8.915l11.95,-8.146l-0.299,-9.904" style="fill:none;stroke:#000;stroke-width:2.5px;"/>
	<path d="M100.423,49.438l4.331,1.228l8.085,-15.748l0.713,-14.918" style="fill:none;stroke:#000;stroke-width:2.5px;"/>
	<path d="M124.72,47.524l-3.844,2.711l-7.597,-15.908" style="fill:none;stroke:#000;stroke-width:2.5px;"/>
	<ellipse cx="113.915" cy="17.198" rx="3.35" ry="3.295" style="stroke:#000;stroke-width:0.75px;"/>
	<rect height="4.093" style="stroke:#000;stroke-width:2px;" width="5.875" x="125.038" y="5.552"/>
	<path d="M132.973,14.54l9.442,9.222l11.677,-9.027" style="fill:none;stroke:#000;stroke-width:2.5px;"/>
	<path d="M134.194,50.102l3.714,0.819l5.389,-14.909l-0.565,-17.28" style="fill:none;stroke:#000;stroke-width:2.5px;"/>
	<path d="M153.613,48.819l-3.911,1.439l-6.218,-13.218" style="fill:none;stroke:#000;stroke-width:2.5px;"/>
	<ellipse cx="142.255" cy="15.951" rx="2.5" ry="2.459" style="stroke:#000;stroke-width:0.75px;"/>
	<path d="M168.083,11.279l-3.78,7.877l19.127,6.738l-8.991,6.596l-12.141,2.607l-1.491,10.69l-3.487,0.259" style="fill:none;stroke:#000;stroke-width:2.5px;"/>
	<path d="M178.437,51.222l-4.698,0.081l5.559,-9.721l-5.688,-8.758l1.934,-14.847" style="fill:none;stroke:#000;stroke-width:2.5px;"/>
	<ellipse cx="176.281" cy="16.069" rx="3.35" ry="3.295" style="stroke:#000;stroke-width:0.75px;"/>
	<path d="M200.035,11.332l-2.538,9.357l17.431,4.328l4.53,-9.691" style="fill:none;stroke:#000;stroke-width:2.5px;"/>
	<path d="M193.027,42.537l3.886,-0.347l-3.774,-10.972l12.855,3.492l2.066,-16.583" style="fill:none;stroke:#000;stroke-width:2.5px;"/>
	<path d="M210.017,52.002l-4.421,-0.617l6.125,-8.875l-6.595,-9.166" style="fill:none;stroke:#000;stroke-width:2.5px;"/>
	<ellipse cx="208.585" cy="15.735" rx="3.35" ry="3.295" style="stroke:#000;stroke-width:0.75px;"/>
	<path d="M228.628,14.402l10.809,10.515l11.491,-8.324" style="fill:none;stroke:#000;stroke-width:2.5px;"/>
	<path d="M220.26,29.879l0.142,4.86l18.813,-0.383" style="fill:none;stroke:#000;stroke-width:2.5px;"/>
	<path d="M242.397,51.18l-4.514,0.277l1.58,-32.379" style="fill:none;stroke:#000;stroke-width:2.5px;"/>
	<ellipse cx="239.332" cy="16.504" rx="3.35" ry="3.295" style="stroke:#000;stroke-width:0.75px;"/>
	<path d="M257.535,14.307l10.098,9.334l12.124,-7.762" style="fill:none;stroke:#000;stroke-width:2.5px;"/>
	<path d="M256.482,50.132l5.752,1.023l5.64,-13.99l0.906,-18.522" style="fill:none;stroke:#000;stroke-width:2.5px;"/>
	<path d="M278.636,49.57l-3.316,1.713l-7.194,-14.086" style="fill:none;stroke:#000;stroke-width:2.5px;"/>
	<ellipse cx="268.612" cy="16.114" rx="3" ry="2.951" style="stroke:#000;stroke-width:0.75px;"/>
</svg>
