<?xml version="1.0" encoding="utf-8"?>
<svg xmlns="http://www.w3.org/2000/svg" viewBox="0 0 292 60" fill-rule="evenodd" clip-rule="evenodd" stroke-linecap="round" stroke-linejoin="round" stroke-miterlimit="1.5"  preserveAspectRatio="xMidYMid meet">
  <title>Third set of hieroglyphics, a line of nine small figures of dancing men in various attitudes, one holding up a black flag.</title>
  <ellipse cx="25.369" cy="16.564" rx="3.35" ry="3.295" stroke="#000" stroke-width=".75"/>
  <path d="M13.25 13.139l11.465 10.136M11.705 47.952l4.284-.216-4.497-10.314 12.076-3.959 1.435-14.735M31.657 50.819l-5.34-.021 6.596-9.722-8.75-7.858" fill="none" stroke="#000" stroke-width="2.5"/>
  <ellipse cx="58.509" cy="17.118" rx="3.35" ry="3.295" stroke="#000" stroke-width=".75"/>
  <path d="M41.522 43.541l3.983-.106-2.982-14.227 13.978 6.182M58.754 52.841l-5.047-.697 5.383-31.831" fill="none" stroke="#000" stroke-width="2.5"/>
  <path d="M48.634 14.796l9.642 9.517 9.678-9.633M74.013 14.469l8.754 9.252 11.627-8.862" fill="none" stroke="#000" stroke-width="2.5"/>
  <path d="M68.933 48.524l3.87-.735-3.438-10.291 13.476-3.409 1.081-14.757M87.506 53.196l-3.218-.644 8.203-10.808-9.844-7.254" fill="none" stroke="#000" stroke-width="2.5"/>
  <ellipse cx="83.887" cy="16.516" rx="2.5" ry="2.459" stroke="#000" stroke-width=".75"/>
  <path d="M103.196 14.645l9.973 8.915 11.95-8.146-.299-9.904" fill="none" stroke="#000" stroke-width="2.5"/>
  <path d="M100.423 49.438l4.331 1.228 8.085-15.748.713-14.918M124.72 47.524l-3.844 2.711-7.597-15.908" fill="none" stroke="#000" stroke-width="2.5"/>
  <ellipse cx="113.915" cy="17.198" rx="3.35" ry="3.295" stroke="#000" stroke-width=".75"/>
  <path stroke="#000" stroke-width="2" d="M125.038 5.552h5.875v4.093h-5.875z"/>
  <path d="M132.973 14.54l9.442 9.222 11.677-9.027" fill="none" stroke="#000" stroke-width="2.5"/>
  <path d="M134.194 50.102l3.714.819 5.389-14.909-.565-17.28M153.613 48.819l-3.911 1.439-6.218-13.218" fill="none" stroke="#000" stroke-width="2.5"/>
  <ellipse cx="142.255" cy="15.951" rx="2.5" ry="2.459" stroke="#000" stroke-width=".75"/>
  <path d="M168.083 11.279l-3.78 7.877 19.127 6.738-8.991 6.596-12.141 2.607-1.491 10.69-3.487.259" fill="none" stroke="#000" stroke-width="2.5"/>
  <path d="M178.437 51.222l-4.698.081 5.559-9.721-5.688-8.758 1.934-14.847" fill="none" stroke="#000" stroke-width="2.5"/>
  <ellipse cx="176.281" cy="16.069" rx="3.35" ry="3.295" stroke="#000" stroke-width=".75"/>
  <path d="M200.035 11.332l-2.538 9.357 17.431 4.328 4.53-9.691" fill="none" stroke="#000" stroke-width="2.5"/>
  <path d="M193.027 42.537l3.886-.347-3.774-10.972 12.855 3.492 2.066-16.583" fill="none" stroke="#000" stroke-width="2.5"/>
  <path d="M210.017 52.002l-4.421-.617 6.125-8.875-6.595-9.166" fill="none" stroke="#000" stroke-width="2.5"/>
  <ellipse cx="208.585" cy="15.735" rx="3.35" ry="3.295" stroke="#000" stroke-width=".75"/>
  <path d="M228.628 14.402l10.809 10.515 11.491-8.324M220.26 29.879l.142 4.86 18.813-.383" fill="none" stroke="#000" stroke-width="2.5"/>
  <path d="M242.397 51.18l-4.514.277 1.58-32.379" fill="none" stroke="#000" stroke-width="2.5"/>
  <ellipse cx="239.332" cy="16.504" rx="3.35" ry="3.295" stroke="#000" stroke-width=".75"/>
  <path d="M257.535 14.307l10.098 9.334 12.124-7.762" fill="none" stroke="#000" stroke-width="2.5"/>
  <path d="M256.482 50.132l5.752 1.023 5.64-13.99.906-18.522M278.636 49.57l-3.316 1.713-7.194-14.086" fill="none" stroke="#000" stroke-width="2.5"/>
  <ellipse cx="268.612" cy="16.114" rx="3" ry="2.951" stroke="#000" stroke-width=".75"/>
</svg>
