<?xml version="1.0" encoding="utf-8"?>
<svg xmlns="http://www.w3.org/2000/svg" xmlns:svg="http://www.w3.org/2000/svg" version="1.1" viewBox="0 0 170 50">
	<title>Fourth set of hieroglyphics, five small figures of dancing men in various attitudes.</title>
	<path d="M 14.244141 1.6132812 C 11.828948 1.6132812 9.8515625 3.5440856 9.8515625 5.9257812 C 9.8515626 8.3074769 11.828948 10.240234 14.244141 10.240234 C 16.659333 10.240234 18.634766 8.3074769 18.634766 5.9257812 C 18.634766 3.5440856 16.659334 1.6132812 14.244141 1.6132812 z"/>
	<path d="M 30.396484,2.2871094 A 1.4714413,1.4714413 0 0 0 29.603516,2.5253906 L 6.2148438,17.294922 a 1.4714413,1.4714413 0 0 0 -0.1816407,2.353516 l 9.5898439,8.359374 6.25,7.271485 -6.84375,11.328125 a 1.4714413,1.4714413 0 0 0 0.925781,2.195312 l 4.964844,1.154297 a 1.4714413,1.4714413 0 1 0 0.666016,-2.865234 l -2.990235,-0.697266 6.345703,-10.505859 a 1.4714413,1.4714413 0 0 0 -0.142578,-1.71875 L 17.785156,26.009766 A 1.4714413,1.4714413 0 0 0 17.636719,25.859375 L 9.4570312,18.728516 31.175781,5.0136719 A 1.4714413,1.4714413 0 0 0 30.396484,2.2871094 Z"/>
	<path d="M 61.566406,1.4296875 A 1.4714413,1.4714413 0 0 0 60.523438,1.7949219 L 48.431641,12.103516 37.707031,2.8242188 A 1.4714413,1.4714413 0 1 0 35.78125,5.0488281 L 47.460938,15.15625 a 1.4714413,1.4714413 0 0 0 1.917968,0.0078 L 62.433594,4.0332031 A 1.4714413,1.4714413 0 0 0 61.566406,1.4296875 Z"/>
	<path d="M 15.429688,7.59375 A 1.4714413,1.4714413 0 0 0 14.021484,8.9765625 L 12.744141,26.105469 0.7421875,32.945312 a 1.4714413,1.4714413 0 0 0 -0.359375,2.267579 l 6.4960937,7.148437 -3.4160156,1.783203 a 1.4715682,1.4715682 0 1 0 1.3613282,2.609375 L 9.9316406,44.087891 A 1.4714413,1.4714413 0 0 0 10.339844,41.794922 L 3.7949219,34.591797 14.882812,28.273438 a 1.4714413,1.4714413 0 0 0 0.738282,-1.167969 L 16.955078,9.1953125 A 1.4714413,1.4714413 0 0 0 15.429688,7.59375 Z"/>
	<path d="M 49.083984,6.5 A 1.4714413,1.4714413 0 0 0 47.630859,7.9882812 L 47.582031,30.820312 39.333984,44.349609 37.9375,43.203125 a 1.4717163,1.4717163 0 1 0 -1.867188,2.275391 l 2.707032,2.220703 a 1.4714413,1.4714413 0 0 0 2.189453,-0.371094 l 7.855469,-12.888672 6.134765,12.074219 a 1.4714413,1.4714413 0 0 0 2.283203,0.4375 l 3.085938,-2.710938 a 1.4718093,1.4718093 0 1 0 -1.94336,-2.210937 l -1.660156,1.460937 -6.201172,-12.201172 a 1.4714413,1.4714413 0 0 0 0.002,-0.05273 L 50.574219,7.9941406 A 1.4714413,1.4714413 0 0 0 49.083984,6.5 Z"/>
	<path d="M 48.675781 0.91210938 C 46.260588 0.91210932 44.285156 2.8448669 44.285156 5.2265625 C 44.285156 7.6082581 46.260588 9.5390626 48.675781 9.5390625 C 51.090974 9.5390626 53.068359 7.6082581 53.068359 5.2265625 C 53.068359 2.8448669 51.090974 0.91210931 48.675781 0.91210938 z"/>
	<path d="m 62.884766,19.400391 a 1.4714413,1.4714413 0 0 0 -1.482422,1.460937 l -0.105469,4.78125 a 1.4714413,1.4714413 0 0 0 1.515625,1.501953 l 20.390625,-0.611328 a 1.4714413,1.4714413 0 1 0 -0.08789,-2.941406 l -18.841796,0.564453 0.07227,-3.230469 a 1.4714413,1.4714413 0 0 0 -1.460937,-1.52539 z"/>
	<path d="m 83.353516,6.6113281 a 1.4714413,1.4714413 0 0 0 -1.472657,1.46875 L 81.269531,46.166016 a 1.4714413,1.4714413 0 0 0 1.296875,1.484375 l 4.050782,0.484375 a 1.4714413,1.4714413 0 1 0 0.349609,-2.921875 L 84.234375,44.886719 84.822266,8.1269531 a 1.4714413,1.4714413 0 0 0 -1.46875,-1.515625 z"/>
	<path d="M 83.107422 0.21289062 C 80.692229 0.21289057 78.716797 2.143695 78.716797 4.5253906 C 78.716797 6.9070862 80.692229 8.8398438 83.107422 8.8398438 C 85.522615 8.8398438 87.5 6.9070862 87.5 4.5253906 C 87.5 2.143695 85.522615 0.21289058 83.107422 0.21289062 z"/>
	<path d="m 112.24609,5.8417969 a 1.4714413,1.4714413 0 0 0 -1.44336,1.4980469 l 0.0977,22.1367182 -7.72461,13.38086 -2.07226,-1.535156 a 1.4714413,1.4714413 0 1 0 -1.751958,2.363281 L 102.75,46.203125 a 1.4714413,1.4714413 0 0 0 2.15039,-0.447266 l 7.59375,-13.152343 6.17188,13.429687 a 1.4714413,1.4714413 0 0 0 2.08007,0.65625 l 3.69532,-2.162109 a 1.4714413,1.4714413 0 1 0 -1.48438,-2.541016 l -2.29492,1.341797 -6.66016,-14.490234 a 1.4714413,1.4714413 0 0 0 -0.16211,-0.277344 l -0.0937,-21.232422 a 1.4714413,1.4714413 0 0 0 -1.5,-1.4863281 z"/>
	<path d="M 111.84766 0.52929688 C 109.43247 0.5292998 107.45703 2.4620565 107.45703 4.84375 C 107.45703 7.2254435 109.43247 9.1562471 111.84766 9.15625 C 114.26285 9.1562531 116.23828 7.2254477 116.23828 4.84375 C 116.23828 2.4620523 114.26285 0.52929382 111.84766 0.52929688 z"/>
	<path d="m 132.40234,0 a 1.4714413,1.4714413 0 0 0 -0.98632,2.5976562 l 14.76757,12.7636718 a 1.4714413,1.4714413 0 0 0 1.95313,-0.02734 L 161.76562,2.8925781 A 1.4714413,1.4714413 0 1 0 159.7832,0.71875 L 147.11914,12.279297 133.33984,0.37109375 A 1.4714413,1.4714413 0 0 0 132.40234,0 Z"/>
	<path d="M 99.236328,0.6015625 A 1.4714413,1.4714413 0 0 0 98.333984,3.2285156 L 111.31055,13.748047 a 1.4714413,1.4714413 0 0 0 1.82226,0.02344 L 125.38477,4.3808594 A 1.4714413,1.4714413 0 1 0 123.5957,2.0449219 L 112.26172,10.730469 100.18555,0.94140625 A 1.4714413,1.4714413 0 0 0 99.236328,0.6015625 Z"/>
	<path d="m 147.25391,7.3300781 a 1.4714413,1.4714413 0 0 0 -1.51368,1.4277344 l -0.66406,15.3593755 a 1.4714413,1.4714413 0 0 0 -0.0117,0.277343 l -0.82812,19.152344 -3.625,-1.289063 a 1.4714413,1.4714413 0 1 0 -0.98438,2.771485 l 5.5,1.957031 a 1.4714413,1.4714413 0 0 0 1.96289,-1.322266 l 0.85157,-19.695312 20.40625,2.525391 a 1.4714413,1.4714413 0 0 0 1.64257,-1.63086 l -0.48632,-4.179687 a 1.4718702,1.4718702 0 1 0 -2.92383,0.341797 l 0.26953,2.318359 -18.7793,-2.322266 0.61133,-14.1367184 a 1.4714413,1.4714413 0 0 0 -1.42773,-1.5546875 z"/>
	<path d="M 147.36328 0.96679688 C 144.94809 0.96679381 142.97266 2.8975991 142.97266 5.2792969 C 142.97266 7.6609946 144.94809 9.5917999 147.36328 9.5917969 C 149.77847 9.5917939 151.75391 7.6609903 151.75391 5.2792969 C 151.75391 2.8976034 149.77847 0.9667998 147.36328 0.96679688 z"/>
</svg>
