<?xml version="1.0" encoding="utf-8"?>
<svg xmlns="http://www.w3.org/2000/svg" xmlns:svg="http://www.w3.org/2000/svg" version="1.1" viewBox="0 0 376 50">
	<title>Sixth set of hieroglyphics, fourteen little dancing men, one upside down. Three of them are holding up black flags, including the upside-down figure.</title>
	<path d="m 279.76367,5.7207031 a 1.0975228,1.0975228 0 0 0 -0.73242,1.8964844 l 9.95117,9.6210935 a 1.0975228,1.0975228 0 0 0 1.51953,0.0039 l 9.29493,-8.851563 A 1.0975917,1.0975917 0 0 0 298.2832,6.8007812 L 289.75,14.927734 280.55664,6.0390625 a 1.0975228,1.0975228 0 0 0 -0.79297,-0.3183594 z"/>
	<path d="m 289.79883,11.714844 a 1.0975228,1.0975228 0 0 0 -1.04102,1.041015 l -0.78906,12.158203 -11.36328,-2.673828 a 1.0975228,1.0975228 0 0 0 -1.30664,1.369141 l 2.46289,8.626953 -2.77149,0.01367 a 1.0976674,1.0976674 0 1 0 0.01,2.195312 l 4.21875,-0.02148 a 1.0975228,1.0975228 0 0 0 1.04883,-1.398437 l -2.3457,-8.220703 10.46484,2.46289 L 287.5,39.609375 a 1.0975228,1.0975228 0 0 0 0.95508,1.167969 l 3.35742,0.43164 a 1.0975228,1.0975228 0 1 0 0.28125,-2.175781 l -2.33008,-0.300781 0.97266,-13.558594 a 1.0975228,1.0975228 0 0 0 -0.51953,-1.029297 l 0.73047,-11.246093 a 1.0975228,1.0975228 0 0 0 -1.14844,-1.183594 z"/>
	<path d="M 289.24023 5.5214844 C 287.34304 5.5214816 285.7832 7.0389991 285.7832 8.9121094 C 285.7832 10.78522 287.34304 12.30469 289.24023 12.304688 C 291.13742 12.304683 292.69531 10.785215 292.69531 8.9121094 C 292.69531 7.0390035 291.13742 5.5214879 289.24023 5.5214844 z"/>
	<path d="m 327.11133,6.5019531 a 1.0975228,1.0975228 0 0 0 -0.49805,0.1171875 l -19.25586,9.3164064 a 1.0975228,1.0975228 0 0 0 -0.17578,1.871094 l 7.59961,5.615234 5.88086,6.322266 -6.75195,8.353515 a 1.0975228,1.0975228 0 0 0 0.41406,1.69336 l 3.93359,1.724609 a 1.0975228,1.0975228 0 1 0 0.88086,-2.009766 l -2.61719,-1.148437 6.44532,-7.97461 a 1.0975228,1.0975228 0 0 0 -0.0508,-1.4375 l -6.59766,-7.091796 A 1.0975228,1.0975228 0 0 0 316.166,21.716797 l -6.21875,-4.595703 17.62109,-8.527344 a 1.0975228,1.0975228 0 0 0 -0.45703,-2.0917969 z"/>
	<path d="m 315.87891,10.314453 a 1.0975228,1.0975228 0 0 0 -1.03321,1.048828 l -0.64648,11.332031 -11.82617,3.726563 a 1.0975228,1.0975228 0 0 0 -0.49024,1.777344 l 5.08789,5.697265 -2.09179,1.402344 a 1.0980264,1.0980264 0 0 0 1.22265,1.824219 l 3.13867,-2.105469 A 1.0975228,1.0975228 0 0 0 309.44727,33.375 l -4.79688,-5.369141 10.92969,-3.445312 a 1.0975228,1.0975228 0 0 0 0.76562,-0.984375 l 0.69141,-12.087891 a 1.0975228,1.0975228 0 0 0 -1.1582,-1.173828 z"/>
	<path d="M 315.41016 5.5761719 C 313.51297 5.5761754 311.95312 7.093691 311.95312 8.9667969 C 311.95313 10.839903 313.51297 12.359371 315.41016 12.359375 C 317.30735 12.359378 318.86719 10.839907 318.86719 8.9667969 C 318.86719 7.0936866 317.30735 5.5761691 315.41016 5.5761719 z"/>
	<path d="m 334.08008,6.5761719 a 1.0975228,1.0975228 0 0 0 -0.72266,1.9003906 l 8.52344,8.1601565 a 1.0975228,1.0975228 0 0 0 1.39453,0.101562 L 353.51562,9.4765625 A 1.0975228,1.0975228 0 1 0 352.24609,7.6875 l -9.50195,6.736328 -7.86914,-7.5312499 a 1.0975228,1.0975228 0 0 0 -0.79492,-0.3164062 z"/>
	<path d="m 342.94922,11.1875 a 1.0975228,1.0975228 0 0 0 -1.12695,1.066406 l -0.45508,10.720703 -10.61524,3.070313 a 1.0975228,1.0975228 0 0 0 -0.70703,1.480469 l 3.2168,7.638671 -2.27344,0.544922 a 1.0975228,1.0975228 0 1 0 0.50977,2.134766 l 3.53125,-0.845703 a 1.0975228,1.0975228 0 0 0 0.75586,-1.494141 l -3.23828,-7.693359 10.1875,-2.945313 a 1.0975228,1.0975228 0 0 0 0.79101,-1.007812 l 0.49023,-11.509766 a 1.0975228,1.0975228 0 0 0 -1.0664,-1.160156 z"/>
	<path d="m 341.47266,22.257812 a 1.0975228,1.0975228 0 0 0 -0.81446,1.863282 l 6.4375,6.796875 -5.15234,7.625 a 1.0975228,1.0975228 0 0 0 0.49805,1.630859 l 2.4082,0.976563 a 1.0975228,1.0975228 0 1 0 0.82617,-2.033203 l -1.15625,-0.46875 4.88672,-7.230469 a 1.0975228,1.0975228 0 0 0 -0.11328,-1.369141 l -7.04102,-7.4375 a 1.0975228,1.0975228 0 0 0 -0.77929,-0.353516 z"/>
	<path d="M 342.66406 6.0722656 C 340.76687 6.0722629 339.20703 7.5897804 339.20703 9.4628906 C 339.20703 11.336001 340.76687 12.853518 342.66406 12.853516 C 344.56125 12.853512 346.12109 11.335996 346.12109 9.4628906 C 346.12109 7.5897848 344.56125 6.0722691 342.66406 6.0722656 z"/>
	<path d="m 356.82031,6.75 a 1.0975228,1.0975228 0 0 0 -0.77539,1.8808594 l 8.94727,9.0507816 a 1.0975228,1.0975228 0 0 0 1.55859,0.0039 l 8.49024,-8.5390626 a 1.0979523,1.0979523 0 0 0 -1.55664,-1.5488282 l -7.70899,7.7539058 -8.16992,-8.2636714 A 1.0975228,1.0975228 0 0 0 356.82031,6.75 Z"/>
	<path d="m 366.36328,10.951172 a 1.0975228,1.0975228 0 0 0 -1.14062,1.050781 l -0.66993,11.970703 -5.26171,13.552735 -3.21875,-0.353516 a 1.0975228,1.0975228 0 1 0 -0.24024,2.181641 l 4.05664,0.447265 a 1.0975228,1.0975228 0 0 0 1.14258,-0.695312 l 4.86133,-12.517578 4.80078,12.746093 a 1.0975228,1.0975228 0 0 0 1.2168,0.69336 l 3.16796,-0.560547 a 1.0975228,1.0975228 0 1 0 -0.38281,-2.160156 l -2.26953,0.40039 -5.07422,-13.474609 a 1.0975228,1.0975228 0 0 0 -0.58008,-0.628906 L 367.41406,12.125 a 1.0975228,1.0975228 0 0 0 -1.05078,-1.173828 z"/>
	<path d="M 365.70703 6.5644531 C 363.80984 6.5644566 362.25195 8.0839254 362.25195 9.9570312 C 362.25195 11.830137 363.80984 13.347653 365.70703 13.347656 C 367.60422 13.347659 369.16406 11.830141 369.16406 9.9570312 C 369.16406 8.0839211 367.60422 6.5644504 365.70703 6.5644531 z"/>
	<path d="M 260.64453 34.900391 C 258.74734 34.900388 257.1875 36.417906 257.1875 38.291016 C 257.1875 40.164126 258.74734 41.683597 260.64453 41.683594 C 262.54172 41.68359 264.10156 40.164122 264.10156 38.291016 C 264.10156 36.41791 262.54172 34.900394 260.64453 34.900391 z"/>
	<path d="m 253.99805,5.9628906 a 1.0975228,1.0975228 0 0 0 -0.60938,0.2128906 l -3.04883,2.2519532 a 1.0975228,1.0975228 0 1 0 1.30274,1.7656246 l 2.04687,-1.5117184 6.82032,12.2031254 -0.32618,10.339843 -9.58007,8.095703 a 1.0975228,1.0975228 0 1 0 1.41601,1.675782 l 8.07031,-6.81836 -0.004,0.119141 a 1.0975228,1.0975228 0 1 0 2.19336,0.06836 L 262.29102,34 l 6.95703,5.048828 0.69726,7.134766 a 1.0975228,1.0975228 0 1 0 2.1836,-0.212891 L 271.38477,38.34375 A 1.0975228,1.0975228 0 0 0 270.9375,37.5625 l -8.5625,-6.212891 0.31445,-10.005859 6.52735,-11.066406 1.82812,1.498047 a 1.0978612,1.0978612 0 1 0 1.39063,-1.699219 l -2.81836,-2.3085939 a 1.0975228,1.0975228 0 0 0 -1.64063,0.2929688 l -6.15625,10.4414061 a 1.0975228,1.0975228 0 0 0 -0.13672,-0.01367 L 254.99805,6.5234375 a 1.0975228,1.0975228 0 0 0 -1,-0.5605469 z"/>
	<path d="M 271.25391 42.660156 A 1.0975228 1.0975228 0 0 0 270.15625 43.757812 L 270.15625 48.902344 A 1.0975228 1.0975228 0 0 0 271.25391 50 L 276.41406 50 A 1.0975228 1.0975228 0 0 0 277.51172 48.902344 L 277.51172 43.757812 A 1.0975228 1.0975228 0 0 0 276.41406 42.660156 L 271.25391 42.660156 z"/>
	<path d="M 234.23438 6.2851562 C 232.33719 6.2851599 230.77734 7.8046286 230.77734 9.6777344 C 230.77734 11.55084 232.33719 13.068356 234.23438 13.068359 C 236.13156 13.068362 237.69141 11.550845 237.69141 9.6777344 C 237.69141 7.8046242 236.13156 6.2851536 234.23438 6.2851562 z"/>
	<path d="m 225.33398,6.4101562 a 1.0975228,1.0975228 0 0 0 -0.73828,1.9355469 l 8.88868,7.7109379 a 1.0975228,1.0975228 0 0 0 1.39257,0.03711 l 9.78907,-7.6035156 a 1.0982081,1.0982081 0 0 0 -1.34766,-1.734375 L 234.24219,13.808594 226.0332,6.6875 a 1.0975228,1.0975228 0 0 0 -0.69922,-0.2773438 z"/>
	<path d="m 233.96094,11.113281 a 1.0975228,1.0975228 0 0 0 -1.0918,1.103516 L 232.75586,23.667969 227.65625,38.146484 226,37.373047 a 1.0975228,1.0975228 0 1 0 -0.92969,1.988281 l 2.75586,1.28711 a 1.0975228,1.0975228 0 0 0 1.49805,-0.628907 L 234.64844,24.902344 244.8457,30 l -5.0664,6.201172 a 1.0975228,1.0975228 0 0 0 0.6289,1.767578 l 3.17969,0.65625 a 1.0975228,1.0975228 0 1 0 0.44531,-2.148438 l -1.40625,-0.291015 4.78711,-5.859375 a 1.0975228,1.0975228 0 0 0 -0.35937,-1.675781 l -12.07227,-6.035157 a 1.0975228,1.0975228 0 0 0 -0.0215,-0.0098 l 0.10351,-10.367188 a 1.0975228,1.0975228 0 0 0 -1.10351,-1.125 z"/>
	<path d="M 205.56055 6.0800781 C 203.66335 6.0800754 202.10352 7.5975929 202.10352 9.4707031 C 202.10352 11.343814 203.66335 12.861331 205.56055 12.861328 C 207.45773 12.861325 209.01758 11.343809 209.01758 9.4707031 C 209.01758 7.5975973 207.45773 6.0800816 205.56055 6.0800781 z"/>
	<path d="m 215.08594,2.4609375 a 1.0975228,1.0975228 0 0 0 -1.04492,1.1484375 l 0.1289,4.0273438 -8.92383,5.6875002 -7.87695,-6.7539065 a 1.0976818,1.0976818 0 1 0 -1.42969,1.6660156 l 8.4961,7.2832029 a 1.0975228,1.0975228 0 0 0 1.30273,0.09375 l 10.13867,-6.4609372 a 1.0975228,1.0975228 0 0 0 0.50782,-0.9609376 l -0.15039,-4.6523437 a 1.0975228,1.0975228 0 0 0 -1.14844,-1.078125 z"/>
	<path d="m 206.16406,10.300781 a 1.0975228,1.0975228 0 0 0 -1.08203,1.111328 l -0.0156,15.154297 -5.82813,12.214844 -2.42383,-0.962891 a 1.0975228,1.0975228 0 1 0 -0.81054,2.039063 l 3.37695,1.341797 a 1.0975228,1.0975228 0 0 0 1.39648,-0.546875 l 6.37696,-13.365235 a 1.0975228,1.0975228 0 0 0 0.10742,-0.470703 l 0.0156,-15.402344 a 1.0975228,1.0975228 0 0 0 -1.11328,-1.113281 z"/>
	<path d="m 205.90625,26.191406 a 1.0975228,1.0975228 0 0 0 -0.99414,1.535156 l 5.10547,12.21875 a 1.0975228,1.0975228 0 0 0 1.54297,0.53711 l 3.24804,-1.792969 a 1.0975369,1.0975369 0 1 0 -1.06054,-1.921875 l -2.17578,1.201172 -4.63477,-11.087891 a 1.0975228,1.0975228 0 0 0 -1.03125,-0.689453 z"/>
	<path d="M 215.04492 0 A 1.0975228 1.0975228 0 0 0 213.94727 1.0976562 L 213.94727 6.2421875 A 1.0975228 1.0975228 0 0 0 215.04492 7.3398438 L 220.20508 7.3398438 A 1.0975228 1.0975228 0 0 0 221.30273 6.2421875 L 221.30273 1.0976562 A 1.0975228 1.0975228 0 0 0 220.20508 0 L 215.04492 0 z"/>
	<path d="M 176.88672 5.8730469 C 174.98953 5.8730504 173.42969 7.3925192 173.42969 9.265625 C 173.42969 11.138731 174.98953 12.656246 176.88672 12.65625 C 178.78391 12.656253 180.34375 11.138735 180.34375 9.265625 C 180.34375 7.3925148 178.78391 5.8730441 176.88672 5.8730469 z"/>
	<path d="m 186.83203,7.7929688 a 1.0975228,1.0975228 0 0 0 -0.58594,0.1953124 l -9.26953,6.2343748 -8.10937,-6.1093748 a 1.0976573,1.0976573 0 1 0 -1.32031,1.7539063 l 8.73242,6.5800785 a 1.0975228,1.0975228 0 0 0 1.27343,0.0332 l 9.91797,-6.6718752 a 1.0975228,1.0975228 0 0 0 -0.63867,-2.015625 z"/>
	<path d="m 177.13086,10.296875 a 1.0975228,1.0975228 0 0 0 -1.09766,1.097656 l -0.18554,13.289063 -2.77735,14.888672 -2.83593,-1.34375 a 1.0977624,1.0977624 0 1 0 -0.93946,1.984375 l 4.12305,1.955078 a 1.0975228,1.0975228 0 0 0 1.54883,-0.791016 l 3.05664,-16.382812 a 1.0975228,1.0975228 0 0 0 0.0176,-0.1875 l 0.1875,-13.38086 a 1.0975228,1.0975228 0 0 0 -1.09766,-1.128906 z"/>
	<path d="m 192.81055,23.587891 a 1.0975228,1.0975228 0 0 0 -1.05469,1.02539 l -0.12695,1.609375 -14.80469,-2.501953 a 1.0975228,1.0975228 0 1 0 -0.36524,2.164063 l 15.98438,2.701172 a 1.0975228,1.0975228 0 0 0 1.27734,-0.994141 l 0.22266,-2.804688 a 1.0975228,1.0975228 0 0 0 -1.13281,-1.199218 z"/>
	<path d="M 150.04297 7.8261719 C 148.14578 7.8261754 146.58594 9.3456441 146.58594 11.21875 C 146.58594 13.091856 148.14578 14.609371 150.04297 14.609375 C 151.94016 14.609378 153.5 13.09186 153.5 11.21875 C 153.5 9.3456397 151.94016 7.8261691 150.04297 7.8261719 z"/>
	<path d="m 159.90234,8.0917969 a 1.0975228,1.0975228 0 0 0 -0.67382,0.2597656 l -9.13086,7.5156255 -7.50391,-6.8164068 a 1.0975228,1.0975228 0 1 0 -1.47656,1.6230468 l 8.20703,7.457031 a 1.0975228,1.0975228 0 0 0 1.43555,0.03516 l 9.86328,-8.121094 a 1.0975228,1.0975228 0 0 0 -0.72071,-1.9531251 z"/>
	<path d="m 150.16406,12.537109 a 1.0975228,1.0975228 0 0 0 -1.10351,1.09375 l -0.27149,14.167969 -5.72851,10.789063 -2.04493,-1.28711 a 1.0975228,1.0975228 0 1 0 -1.16796,1.857422 l 3.04296,1.916016 a 1.0975228,1.0975228 0 0 0 1.55469,-0.414063 l 5.84571,-11.011718 4.10351,10.533203 a 1.0975228,1.0975228 0 0 0 1.64453,0.505859 l 3.02149,-2.076172 a 1.0975228,1.0975228 0 1 0 -1.24219,-1.808594 l -1.88086,1.291016 -4.14844,-10.646484 a 1.0975228,1.0975228 0 0 0 -0.78515,-0.6875 l 0.25195,-13.087891 a 1.0975228,1.0975228 0 0 0 -1.0918,-1.134766 z"/>
	<path d="M 125.56641 7.0097656 C 123.67572 7.0097661 122.12305 8.5285961 122.12305 10.400391 C 122.12305 12.272185 123.67572 13.791015 125.56641 13.791016 C 127.4571 13.791015 129.00977 12.272185 129.00977 10.400391 C 129.00977 8.5285961 127.4571 7.0097661 125.56641 7.0097656 z"/>
	<path d="m 135.66211,7.3144531 a 1.0975228,1.0975228 0 0 0 -0.68555,0.2207031 l -8.16406,5.9882818 0.0195,-2.511719 a 1.0975228,1.0975228 0 1 0 -2.19336,-0.01563 l -0.0195,2.492187 -6.54102,-5.0214841 a 1.0977164,1.0977164 0 0 0 -1.33593,1.7421871 l 7.85742,6.029297 -0.17969,23.748047 -2.05078,0.02344 a 1.0975228,1.0975228 0 1 0 0.0254,2.193359 l 2.95117,-0.0332 a 1.0975228,1.0975228 0 0 0 0.34571,-0.002 l 2.23632,-0.02539 a 1.0977295,1.0977295 0 0 0 -0.0254,-2.195312 l -1.28906,0.01367 0.17969,-23.701172 9.48047,-6.9550785 a 1.0975228,1.0975228 0 0 0 -0.61133,-1.9902344 z"/>
	<path d="M 99.257812 8.1953125 C 97.367122 8.1953124 95.814453 9.7160952 95.814453 11.587891 C 95.814453 13.459685 97.367124 14.978516 99.257812 14.978516 C 101.1485 14.978513 102.69922 13.459683 102.69922 11.587891 C 102.69922 9.716097 101.1485 8.1953149 99.257812 8.1953125 z"/>
	<path d="M 107.52734,1.9980469 A 1.0975228,1.0975228 0 0 0 106.42969,3.09375 l -0.13477,8.349609 -7.380858,5.242188 -8.935546,-7.8945314 a 1.0975228,1.0975228 0 1 0 -1.453125,1.6445314 l 9.58789,8.470703 a 1.0975228,1.0975228 0 0 0 1.361328,0.07227 l 8.544921,-6.06836 a 1.0975228,1.0975228 0 0 0 0.46094,-0.876953 l 0.14258,-8.9042968 a 1.0975228,1.0975228 0 0 0 -1.09571,-1.1308593 z"/>
	<path d="m 99.197266,12.867188 a 1.0975228,1.0975228 0 0 0 -1.085938,1.107421 L 98.039058,28.544922 92.83398,39.53125 90.328121,38.601562 a 1.0975228,1.0975228 0 1 0 -0.761719,2.058594 l 3.447266,1.277344 a 1.0975228,1.0975228 0 0 0 1.373047,-0.558594 l 4.964843,-10.480468 4.779302,10.486328 a 1.0975228,1.0975228 0 0 0 1.50976,0.515625 l 3.75196,-1.970703 a 1.0975228,1.0975228 0 1 0 -1.01953,-1.94336 l -2.72657,1.431641 -5.33789,-11.714844 a 1.0975228,1.0975228 0 0 0 -0.0684,-0.125 l 0.0664,-13.59375 a 1.0975228,1.0975228 0 0 0 -1.109378,-1.117187 z"/>
	<path d="M 107.12109 1.1582031 A 1.0975228 1.0975228 0 0 0 106.02344 2.2558594 L 106.02344 7.4003906 A 1.0975228 1.0975228 0 0 0 107.12109 8.4980469 L 112.2832 8.4980469 A 1.0975228 1.0975228 0 0 0 113.37891 7.4003906 L 113.37891 2.2558594 A 1.0975228 1.0975228 0 0 0 112.2832 1.1582031 L 107.12109 1.1582031 z"/>
	<path d="M 72.683594 8.9082031 C 70.792904 8.9082036 69.240235 10.427034 69.240234 12.298828 C 69.240234 14.170623 70.792904 15.689453 72.683594 15.689453 C 74.574284 15.689453 76.126954 14.170623 76.126953 12.298828 C 76.126953 10.427034 74.574284 8.908203 72.683594 8.9082031 z"/>
	<path d="m 62.541016,8.9101562 a 1.0975228,1.0975228 0 0 0 -0.75586,1.9296878 l 9.310547,8.230468 a 1.0975228,1.0975228 0 0 0 1.373047,0.0625 L 83.269531,11.253906 A 1.0975228,1.0975228 0 1 0 81.976562,9.4804688 L 71.888672,16.839844 63.238281,9.1953125 A 1.0975228,1.0975228 0 0 0 62.541016,8.9101562 Z"/>
	<path d="m 72.714844,13.1875 a 1.0975228,1.0975228 0 0 0 -1.095703,1.099609 L 71.46875,26.470703 60.056641,28.402344 a 1.0975228,1.0975228 0 0 0 -0.667969,1.773437 l 5.878906,7.242188 -2.61914,1.205078 a 1.0976411,1.0976411 0 1 0 0.917968,1.994141 l 3.902344,-1.796876 a 1.0975228,1.0975228 0 0 0 0.392578,-1.689453 l -5.583984,-6.878906 10.460937,-1.771484 a 1.0975228,1.0975228 0 0 0 0.914063,-1.06836 L 73.814453,14.314453 A 1.0975228,1.0975228 0 0 0 72.714844,13.1875 Z"/>
	<path d="m 72.253906,25.800781 a 1.0975228,1.0975228 0 0 0 -0.58789,1.986328 l 8.18164,6.058594 -6.664062,5.917969 a 1.0975228,1.0975228 0 0 0 0.443359,1.878906 l 3.902344,1.046875 a 1.0977085,1.0977085 0 1 0 0.566406,-2.121094 l -1.931641,-0.517578 6.152344,-5.460937 a 1.0975228,1.0975228 0 0 0 -0.07617,-1.703125 l -9.267578,-6.863281 a 1.0975228,1.0975228 0 0 0 -0.71875,-0.222657 z"/>
	<path d="M 45.125 8.0273438 C 43.23431 8.0273435 41.681641 9.5461738 41.681641 11.417969 C 41.68164 13.289764 43.23431 14.810547 45.125 14.810547 C 47.01569 14.810547 48.56836 13.289764 48.568359 11.417969 C 48.568359 9.5461737 47.01569 8.0273436 45.125 8.0273438 z"/>
	<path d="m 35.757812,9.0214844 a 1.0975228,1.0975228 0 0 0 -0.720703,1.9414066 l 9.53711,8.125 a 1.0975228,1.0975228 0 0 0 1.404297,0.01563 l 9.734375,-7.927735 A 1.0975228,1.0975228 0 1 0 54.326172,9.4746094 L 45.300781,16.824219 36.458984,9.2929688 A 1.0975228,1.0975228 0 0 0 35.757812,9.0214844 Z"/>
	<path d="m 31.589844,25.060547 a 1.0975228,1.0975228 0 0 0 -0.972656,1.605469 l 4.095703,7.841796 -2.941407,0.638672 a 1.0975228,1.0975228 0 1 0 0.464844,2.144532 l 4.34961,-0.94336 a 1.0975228,1.0975228 0 0 0 0.738281,-1.580078 l -3.820313,-7.3125 11.046875,1.113281 a 1.0975228,1.0975228 0 1 0 0.220703,-2.183593 l -13.072265,-1.31836 a 1.0975228,1.0975228 0 0 0 -0.109375,-0.0059 z"/>
	<path d="m 45.328125,12.677734 a 1.0975228,1.0975228 0 0 0 -1.099609,1.09375 l -0.462891,27.740235 a 1.0975228,1.0975228 0 0 0 1.068359,1.115234 l 2.802735,0.07227 a 1.0975228,1.0975228 0 1 0 0.05664,-2.19336 l -1.714843,-0.04492 0.443359,-26.652344 a 1.0975228,1.0975228 0 0 0 -1.09375,-1.13086 z"/>
	<path d="M 14.443359 9.7207031 C 12.643349 9.720703 11.171875 11.161596 11.171875 12.939453 C 11.171875 14.71731 12.643349 16.160156 14.443359 16.160156 C 16.24337 16.160156 17.714844 14.71731 17.714844 12.939453 C 17.714844 11.161596 16.24337 9.720703 14.443359 9.7207031 z"/>
	<path d="M 23.820312,9.5742188 A 1.0975228,1.0975228 0 0 0 23.054688,9.8769531 L 13.957031,18.310547 4.4003906,9.9277344 A 1.0975389,1.0975389 0 1 0 2.953125,11.578125 l 10.298828,9.035156 a 1.0975228,1.0975228 0 0 0 1.470703,-0.01953 l 9.824219,-9.107422 A 1.0975228,1.0975228 0 0 0 23.820312,9.5742188 Z"/>
	<path d="m 14.251953,14.578125 a 1.0975228,1.0975228 0 0 0 -1.078125,1.115234 l 0.0332,10.550782 -12.40820288,3.501953 a 1.0975228,1.0975228 0 0 0 -0.5703125,1.724609 L 6.1054688,39.111328 3.21875,40.386719 a 1.0978441,1.0978441 0 1 0 0.8886719,2.007812 L 8.2714844,40.552734 A 1.0975228,1.0975228 0 0 0 8.6972656,38.880859 L 2.9550781,31.417969 14.603516,28.128906 a 1.0975228,1.0975228 0 0 0 0.800781,-1.058594 L 15.369141,15.6875 a 1.0975228,1.0975228 0 0 0 -1.117188,-1.109375 z"/>
	<path d="m 13.980469,25.345703 a 1.0975228,1.0975228 0 0 0 -0.791016,1.826172 l 6.751953,7.832031 -4.773437,5.97461 a 1.0975228,1.0975228 0 0 0 0.544922,1.736328 l 4.476562,1.328125 a 1.0981376,1.0981376 0 1 0 0.625,-2.105469 l -2.914062,-0.863281 4.324218,-5.41211 a 1.0975228,1.0975228 0 0 0 -0.02539,-1.40039 l -7.347657,-8.523438 a 1.0975228,1.0975228 0 0 0 -0.871093,-0.392578 z"/>
</svg>
