<?xml version="1.0" standalone="no"?>
<svg version="1.0" xmlns="http://www.w3.org/2000/svg" viewBox="0 0 222 219" preserveAspectRatio="xMidYMid meet">
<title>Map of the moor and the Priory School.</title>
<g transform="translate(-0.475508,221.246588) rotate(-360.00) scale(0.022857,-0.022857)"
fill="#000000" stroke="none">
<path d="M4950 9666 c-11 -27 4 -50 30 -46 17 2 23 10 23 30 0 19 -6 27 -23
29 -15 2 -27 -3 -30 -13z"/>
<path d="M5054 9605 c-18 -25 -36 -56 -40 -70 -8 -26 -93 -116 -109 -116 -21
0 -20 15 4 46 14 19 26 37 26 41 0 14 -51 6 -56 -9 -6 -16 -59 -22 -59 -7 0 4
9 27 21 49 25 50 26 88 3 97 -22 8 -52 -32 -61 -81 -10 -53 -32 -81 -69 -89
-52 -12 -67 10 -45 65 19 49 14 77 -15 77 -23 0 -55 -66 -55 -113 0 -43 -27
-107 -61 -142 -23 -24 -36 -29 -82 -29 -46 0 -56 -4 -62 -21 -10 -34 3 -42 67
-42 48 0 65 5 80 21 10 11 27 23 37 26 10 3 30 30 43 58 21 45 29 53 54 53 37
0 46 -22 24 -57 -18 -27 -14 -69 7 -69 17 0 50 45 50 69 1 34 40 78 71 78 25
0 26 -3 19 -38 -7 -41 1 -78 18 -78 6 0 30 17 53 38 l43 39 15 -23 c17 -25 54
-29 86 -9 16 9 26 10 40 0 11 -6 42 -15 69 -19 43 -7 53 -4 75 16 25 23 26 23
63 6 21 -10 41 -16 44 -12 3 3 24 -4 45 -17 l40 -22 36 28 c45 34 51 34 82 0
22 -23 32 -26 70 -21 25 3 56 1 70 -6 31 -14 80 -3 80 17 0 8 -9 18 -21 22
-25 8 -27 24 -4 56 15 22 15 25 -2 44 -30 34 -54 25 -90 -33 -22 -35 -38 -51
-48 -47 -8 3 -19 6 -24 6 -5 0 -12 9 -16 21 -6 20 46 128 69 142 16 10 12 24
-11 37 -31 16 -59 -3 -74 -50 -18 -57 -36 -73 -111 -98 -73 -24 -116 -24 -111
1 2 8 5 20 6 25 3 19 -37 18 -52 -1 -14 -18 -16 -18 -29 -1 -22 28 -56 22 -82
-13 -27 -37 -40 -40 -40 -10 0 24 26 63 86 128 22 24 40 46 40 50 0 18 -33 33
-57 27 -24 -6 -69 -74 -69 -104 0 -21 -71 -116 -92 -124 -17 -5 -34 6 -34 24
0 3 9 17 22 31 12 14 36 45 54 70 18 24 36 45 41 45 5 0 9 14 9 31 0 50 -41
43 -81 -13z m669 -175 c0 -6 -5 -13 -11 -17 -6 -3 -10 1 -10 10 0 9 4 17 10
17 6 0 11 -5 11 -10z m-251 -33 c-14 -12 -28 -18 -32 -15 -7 8 29 37 46 36 6
0 -1 -10 -14 -21z"/>
<path d="M5407 9638 c-12 -6 -12 -12 -3 -21 13 -13 46 -6 46 10 0 15 -27 22
-43 11z"/>
<path d="M7284 9097 c-3 -3 -32 -8 -62 -10 -223 -13 -271 -18 -308 -28 -36 -9
-1162 -23 -1685 -20 -505 3 -679 1 -710 -10 -20 -6 -39 -9 -44 -6 -16 11 -468
-43 -491 -58 -6 -4 -41 -10 -78 -14 -102 -11 -209 -41 -298 -83 -43 -20 -92
-40 -108 -43 -72 -15 -148 -42 -184 -64 -22 -14 -46 -25 -53 -25 -7 -1 -32
-10 -55 -21 -23 -11 -56 -20 -72 -21 -34 0 -67 -16 -94 -43 -10 -11 -28 -20
-39 -20 -11 0 -50 -18 -86 -40 -37 -22 -102 -58 -145 -80 -43 -22 -96 -52
-118 -65 -21 -14 -42 -25 -46 -25 -11 0 -217 -139 -240 -163 -42 -42 -114 -84
-182 -105 -73 -24 -100 -48 -79 -69 25 -25 195 51 292 130 35 28 74 56 88 61
14 5 44 24 68 40 64 45 130 85 201 122 35 19 77 41 95 51 17 9 37 17 43 17 7
0 17 6 24 14 6 8 48 31 93 50 45 19 100 46 123 61 23 14 75 34 114 45 40 10
97 30 126 44 30 13 75 28 101 32 26 4 91 28 144 54 53 25 105 47 115 47 10 0
52 11 92 25 91 31 178 45 362 59 78 6 151 16 163 23 16 9 175 13 563 15 353 2
565 7 611 15 50 9 122 10 247 4 295 -16 949 -7 1253 17 190 14 338 16 395 5
42 -8 46 -7 57 19 7 15 9 31 5 35 -4 4 -41 11 -83 15 -41 3 -83 9 -92 13 -9 4
-19 4 -23 0z"/>
<path d="M6347 8871 c-17 -5 -93 -15 -168 -20 -75 -5 -174 -14 -220 -20 -46
-5 -139 -10 -205 -11 -131 -1 -277 -21 -296 -40 -9 -8 -9 -15 0 -26 12 -14 12
-14 375 14 86 7 219 16 294 21 75 5 184 16 241 25 117 18 522 15 751 -6 66 -6
154 -13 194 -15 41 -3 111 -9 157 -15 84 -10 111 -4 111 26 0 38 -32 44 -310
58 -358 18 -883 23 -924 9z"/>
<path d="M4526 8745 c-61 -4 -167 -12 -237 -17 -69 -4 -132 -12 -140 -17 -8
-5 -65 -13 -126 -17 -144 -11 -260 -37 -595 -138 -40 -12 -88 -33 -107 -47
-18 -14 -38 -25 -44 -25 -6 0 -37 -14 -69 -31 -32 -18 -65 -32 -72 -32 -8 0
-34 -14 -57 -31 -24 -17 -77 -49 -119 -71 -106 -56 -115 -62 -147 -92 -16 -14
-33 -26 -38 -26 -6 0 -21 -10 -34 -21 -14 -12 -34 -21 -44 -21 -23 0 -42 -11
-129 -69 -35 -24 -85 -54 -111 -67 -26 -13 -60 -35 -77 -49 -16 -14 -38 -25
-48 -25 -11 0 -31 -10 -46 -21 -37 -30 -64 -29 -54 2 4 13 14 32 22 41 23 26
13 56 -19 59 -34 4 -58 -30 -68 -94 -7 -47 -39 -92 -64 -92 -22 0 -28 30 -11
50 31 36 41 64 29 86 -15 28 -29 26 -59 -6 -22 -24 -30 -52 -27 -98 1 -24 -29
-76 -40 -69 -6 3 -11 22 -10 42 0 41 -18 47 -63 21 -38 -22 -50 -20 -57 10
-11 41 -38 34 -38 -10 0 -26 -6 -40 -21 -48 -29 -15 -42 -5 -42 32 0 17 -5 33
-11 37 -22 14 -36 -17 -37 -77 -1 -33 -6 -78 -12 -100 -13 -44 -51 -91 -74
-91 -7 0 -22 -14 -32 -31 -16 -28 -59 -48 -79 -35 -5 3 -5 24 -2 46 6 33 4 42
-11 48 -23 9 -56 -33 -57 -71 0 -15 -3 -30 -7 -34 -12 -12 -45 26 -45 52 -1
54 -46 38 -59 -20 -11 -51 -46 -64 -46 -17 0 26 -27 37 -48 20 -18 -15 -21
-69 -5 -79 18 -11 12 -26 -10 -26 -17 0 -22 7 -22 34 0 54 -11 82 -32 82 -29
0 -51 -42 -51 -95 0 -48 -25 -100 -43 -89 -6 4 -10 25 -10 48 0 49 -16 53 -78
15 -22 -13 -46 -23 -53 -20 -7 3 -19 -2 -26 -11 -8 -9 -29 -16 -49 -16 -24 0
-38 -7 -46 -21 -6 -12 -15 -21 -20 -21 -5 0 -12 9 -15 21 -8 33 -45 26 -58
-13 -7 -18 -12 -43 -12 -55 0 -23 -18 -48 -34 -48 -12 0 -10 71 3 79 5 3 10
18 10 33 0 15 8 50 18 78 15 41 16 54 5 64 -26 26 -49 -4 -54 -74 -6 -62 -8
-66 -69 -125 -34 -34 -69 -70 -76 -79 -17 -21 -44 -24 -45 -4 0 8 14 33 31 56
38 52 46 80 38 119 -5 22 -14 32 -27 32 -26 0 -47 -35 -62 -105 -17 -74 -24
-87 -47 -91 -11 -1 -24 -8 -30 -14 -7 -6 -25 -11 -41 -11 l-29 0 6 63 c6 52 4
63 -9 63 -31 0 -50 -36 -50 -95 0 -66 -10 -87 -38 -82 -16 3 -20 15 -23 60 -3
59 -21 78 -50 53 -13 -11 -15 -29 -10 -103 8 -110 -10 -157 -66 -174 -55 -16
-60 -79 -6 -79 41 0 99 62 119 126 18 61 44 87 65 65 11 -10 10 -20 0 -50 -12
-33 -12 -41 2 -55 29 -29 49 1 49 75 0 59 13 74 23 24 2 -11 13 -26 24 -34 32
-21 82 21 82 68 0 36 7 39 41 21 16 -8 28 -8 46 2 19 10 28 10 48 -4 33 -24
38 -22 61 16 18 29 27 34 66 34 54 1 92 27 123 82 13 22 27 40 33 40 5 0 10
-21 10 -47 0 -26 5 -50 11 -54 18 -11 52 28 52 59 0 16 2 37 6 46 11 29 25 18
25 -20 0 -50 20 -47 51 7 l25 44 15 -28 c18 -35 22 -35 79 -2 25 14 53 26 62
26 8 0 21 5 28 12 6 7 25 13 42 14 17 2 43 15 58 31 24 24 31 26 49 14 18 -11
28 -10 66 10 29 15 60 23 88 22 45 -2 78 15 78 40 0 9 11 15 30 15 38 0 86 47
117 115 38 83 47 98 57 96 6 -1 11 -15 11 -31 1 -38 12 -54 37 -54 18 0 21 7
21 57 0 66 16 85 29 35 7 -26 14 -34 29 -32 11 2 35 5 52 6 18 1 46 13 63 26
16 13 36 21 44 18 8 -3 28 2 45 10 39 20 67 20 84 0 21 -25 85 -19 121 11 26
21 29 27 16 36 -9 6 -26 9 -39 6 -25 -6 -87 4 -87 14 0 4 17 8 39 8 22 1 53 9
71 19 17 9 38 16 45 16 8 0 53 26 100 57 47 31 102 65 123 76 20 11 55 33 79
48 23 15 65 38 94 51 29 13 67 34 84 48 18 13 69 43 114 66 45 23 94 53 110
66 16 13 47 33 70 44 23 11 54 27 70 34 15 8 35 15 44 15 19 0 54 17 85 43 24
20 111 51 142 51 11 0 36 7 55 15 19 8 56 20 82 27 25 7 75 22 110 32 91 26
150 39 215 47 32 3 88 13 126 21 104 22 274 36 530 43 189 5 234 9 244 22 6 8
10 22 6 30 -6 17 -130 18 -328 3z m-2590 -941 c-4 -13 -11 -23 -16 -23 -12 0
-11 7 2 33 14 26 22 21 14 -10z m-750 -262 c0 -5 -4 -15 -10 -24 -8 -13 -10
-11 -10 8 0 13 4 24 10 24 6 0 10 -4 10 -8z m-419 -187 c0 -8 -5 -15 -11 -15
-6 0 -10 7 -10 15 0 9 4 16 10 16 6 0 11 -7 11 -16z m-162 -84 c1 -8 -5 -20
-13 -27 -11 -9 -14 -9 -14 4 0 42 21 60 27 23z m-222 -99 c-3 -6 -11 -11 -16
-11 -6 0 -10 5 -10 11 0 5 7 10 16 10 9 0 14 -5 10 -10z"/>
<path d="M5332 8741 c-2 -2 -98 -6 -213 -9 -242 -4 -236 -1 -238 -108 -1 -37
-2 -72 -3 -79 -2 -26 57 -40 190 -46 216 -9 222 -9 230 -18 14 -13 43 -8 66
11 16 14 24 38 31 102 10 85 3 128 -22 144 -15 9 -33 11 -41 3z m-355 -79 c0
-19 -38 -49 -49 -38 -3 3 3 20 12 38 18 34 37 34 37 0z m112 15 c2 -6 -9 -28
-25 -49 -16 -21 -37 -49 -46 -62 -25 -34 -54 -19 -40 21 24 69 98 130 111 90z
m230 6 c9 -15 -69 -133 -94 -142 -34 -12 -38 10 -12 66 29 63 88 105 106 76z
m-121 -21 c0 -12 -7 -24 -16 -27 -8 -3 -18 -20 -21 -36 -9 -38 -32 -62 -59
-62 -30 0 -25 32 13 93 25 40 40 54 58 54 18 0 25 -6 25 -22z m147 -74 c0 -21
-22 -51 -38 -51 -21 0 -19 38 3 51 24 14 35 14 35 0z"/>
<path d="M1286 8495 l-63 -39 3 -192 c1 -123 -2 -198 -9 -206 -6 -7 -30 -17
-55 -21 -24 -4 -53 -13 -65 -21 -11 -8 -42 -15 -68 -17 -40 -3 -47 0 -50 18
-13 74 -57 109 -95 75 -10 -8 -39 -24 -65 -34 -26 -10 -54 -24 -63 -32 -9 -7
-28 -16 -43 -20 -14 -3 -39 -17 -55 -29 l-29 -23 27 -67 c14 -37 31 -73 37
-81 7 -8 9 -29 5 -50 -4 -22 -2 -39 5 -43 22 -14 10 -46 -27 -77 -27 -21 -37
-36 -32 -48 10 -28 34 -21 80 23 48 46 52 68 22 128 -21 40 -30 136 -13 136 5
0 15 -12 21 -26 15 -33 55 -36 55 -5 0 34 -49 76 -80 69 -23 -6 -24 -5 -14 17
6 14 34 35 65 49 30 14 70 32 90 42 34 16 35 16 55 -8 12 -15 20 -41 20 -65 0
-47 15 -61 41 -37 10 9 23 17 28 17 6 0 23 -32 38 -71 27 -70 28 -71 68 -72
22 0 47 -3 56 -5 20 -6 28 58 10 80 -18 22 -43 19 -49 -6 -3 -12 -8 -21 -12
-21 -10 0 -54 87 -54 108 0 24 28 23 36 -2 7 -22 34 -36 50 -26 6 3 7 18 4 32
-8 32 9 56 40 56 36 0 48 -21 49 -78 0 -61 13 -91 32 -73 12 13 9 122 -5 153
-7 14 -2 21 19 29 31 12 34 30 10 75 -19 37 -19 37 20 47 28 7 29 6 29 -42 0
-35 4 -48 15 -48 24 0 29 39 10 80 -18 37 -18 39 0 52 11 8 25 11 31 7 6 -3
24 -6 40 -4 l30 2 0 -161 c0 -89 3 -165 6 -168 14 -14 35 16 29 41 -3 14 -3
42 1 62 7 37 7 37 24 16 18 -22 18 -22 51 -2 32 20 32 22 21 58 -11 36 -13 37
-51 31 -32 -5 -39 -3 -39 11 0 19 34 44 74 54 23 5 32 1 51 -26 18 -25 21 -36
12 -47 -15 -18 2 -132 20 -132 24 0 28 40 15 131 -7 52 -14 99 -15 105 -6 26
2 37 26 37 23 0 27 -5 27 -36 0 -20 4 -39 9 -42 17 -11 33 32 23 59 -11 29 4
75 23 69 13 -4 21 -41 38 -181 11 -86 18 -107 39 -115 24 -9 29 21 15 92 -8
35 -16 115 -18 177 -4 94 -8 114 -26 130 -26 25 -49 12 -75 -41 -22 -43 -33
-47 -62 -21 -31 28 -55 7 -61 -55 -4 -43 -9 -52 -28 -55 -13 -2 -29 -10 -36
-18 -6 -9 -23 -15 -37 -15 -24 0 -25 2 -25 78 0 78 -1 79 -27 79 -14 0 -29 -7
-32 -16 -4 -10 -20 -15 -47 -15 -35 0 -44 -6 -65 -37 -13 -20 -27 -37 -31 -37
-12 0 -31 83 -24 105 4 12 23 25 46 31 69 19 86 37 86 96 0 38 -6 57 -21 73
-28 27 -37 26 -111 -21z m66 -66 c2 -9 -11 -23 -35 -34 -53 -25 -68 -7 -25 30
35 30 55 31 60 4z"/>
<path d="M5754 8476 c-28 -11 -84 -79 -84 -101 0 -13 -7 -33 -16 -46 -11 -16
-16 -41 -13 -79 3 -51 5 -55 32 -58 16 -2 36 2 44 8 10 9 23 7 51 -6 35 -17
38 -17 66 6 l30 23 17 -22 c10 -12 24 -21 32 -21 34 0 94 29 115 56 l23 30 15
-35 c27 -66 87 -95 118 -57 19 22 6 48 -23 48 -53 0 -65 40 -21 78 24 21 26
26 14 41 -18 21 -30 21 -50 1 -17 -17 -35 -21 -35 -6 0 5 7 15 16 22 16 13 47
70 47 86 0 14 -36 10 -62 -9 -13 -9 -40 -50 -59 -90 -38 -79 -65 -116 -80
-107 -13 8 -11 22 5 38 7 8 17 25 20 38 7 28 -16 43 -39 24 -8 -7 -21 -12 -28
-11 -38 5 -73 -2 -90 -19 -33 -33 -96 -61 -109 -48 -16 16 16 106 49 137 29
26 42 30 52 14 10 -17 47 -13 54 5 3 9 -2 27 -11 42 -17 25 -45 32 -80 18z
m79 -223 c0 -8 -6 -16 -13 -18 -7 -3 -12 5 -11 17 2 24 24 24 24 1z"/>
<path d="M6334 8442 c-19 -11 -34 -29 -34 -40 0 -21 25 -47 55 -58 17 -6 18
-9 4 -36 -8 -16 -27 -40 -42 -54 -32 -30 -37 -75 -9 -74 10 0 30 12 44 27 25
27 26 27 34 5 11 -31 27 -27 48 9 23 41 32 40 30 -2 -1 -33 0 -34 33 -32 19 2
44 -1 55 -7 15 -9 25 -4 51 26 18 20 35 37 38 37 3 0 6 -17 6 -37 0 -44 24
-61 81 -56 31 3 40 8 43 27 2 17 -4 26 -25 34 -22 8 -27 16 -23 33 4 12 1 33
-6 48 -9 19 -17 24 -33 18 -28 -8 -47 -8 -76 1 -18 5 -30 0 -50 -21 -26 -28
-48 -28 -48 0 0 8 -10 20 -21 26 -18 10 -27 6 -54 -20 -17 -18 -34 -32 -36
-32 -9 0 -4 27 7 39 9 8 48 105 51 126 1 5 -63 34 -75 34 -8 0 -29 -9 -48 -21z
m50 -42 c0 -6 -5 -10 -11 -10 -6 0 -8 4 -5 10 4 6 9 11 11 11 3 0 5 -5 5 -11z"/>
<path d="M4673 8435 c-87 -5 -105 -12 -105 -35 0 -19 7 -21 63 -21 47 0 63 -4
60 -13 -3 -7 -18 -13 -34 -13 -37 0 -46 -21 -17 -37 24 -12 29 -36 11 -48 -7
-4 -17 -2 -24 5 -16 16 -54 14 -69 -3 -16 -19 -4 -46 24 -54 12 -3 33 -12 46
-18 19 -9 27 -8 44 7 12 11 24 29 27 42 7 23 24 62 53 123 19 39 15 73 -8 70
-8 -1 -40 -3 -71 -5z"/>
<path d="M4856 8432 c-7 -13 2 -32 17 -32 12 0 12 28 0 36 -6 4 -13 2 -17 -4z"/>
<path d="M5022 8408 c-6 -7 -15 -27 -21 -45 -10 -30 -55 -52 -55 -27 0 23 -48
10 -80 -21 -35 -34 -65 -34 -48 -1 5 10 7 24 4 31 -6 18 -34 17 -34 -1 0 -8
-7 -21 -16 -28 -11 -10 -16 -28 -13 -57 2 -36 7 -43 28 -46 13 -2 29 1 35 7
14 14 54 -5 44 -20 -3 -6 -24 -22 -47 -36 -47 -30 -59 -59 -41 -101 9 -23 19
-30 41 -30 34 0 74 39 74 73 0 27 32 105 43 105 4 0 13 -7 20 -16 18 -22 39
-19 53 6 14 27 49 26 58 -2 5 -18 12 -20 40 -15 18 4 49 7 70 6 20 0 60 5 88
12 39 9 53 9 56 0 7 -19 25 -14 56 16 l29 27 16 -38 c12 -29 24 -40 48 -45 18
-3 35 -10 38 -15 8 -14 -35 -51 -59 -51 -29 0 -62 -40 -62 -75 -1 -33 42 -76
66 -67 42 17 96 113 109 199 6 35 14 70 18 79 3 9 0 25 -8 36 -14 19 -16 19
-58 2 -55 -21 -53 -22 -64 8 -7 19 -20 26 -60 31 -45 6 -53 4 -68 -16 -18 -24
-19 -24 -34 -3 -15 20 -16 20 -43 -10 -21 -22 -31 -27 -40 -17 -23 22 14 67
66 80 49 12 66 32 35 42 -16 5 -42 16 -79 33 -4 2 -21 -12 -39 -30 -28 -27
-32 -37 -27 -67 6 -27 2 -39 -17 -58 l-23 -24 -15 28 c-8 15 -23 28 -34 28
-31 0 -36 19 -16 57 20 37 16 69 -9 69 -8 0 -20 -6 -25 -13z m-108 -128 c0 -8
-4 -18 -10 -21 -12 -8 -25 12 -16 26 9 15 26 12 26 -5z m53 -48 c0 -6 -5 -10
-11 -10 -6 0 -10 4 -10 10 0 6 4 11 10 11 6 0 11 -5 11 -11z m562 -16 c-27
-20 -44 -20 -27 0 7 9 21 16 30 16 15 -1 14 -3 -3 -16z"/>
<path d="M5346 8393 c5 -23 46 -26 46 -3 0 8 -11 17 -25 19 -19 2 -24 -1 -21
-16z"/>
<path d="M1747 8046 c0 -37 10 -55 31 -55 4 0 7 20 5 44 -2 30 -9 46 -20 48
-12 2 -16 -7 -16 -37z"/>
<path d="M1345 8009 c-22 -11 -24 -17 -18 -64 7 -60 18 -71 70 -67 l36 2 -2
51 c-5 85 -27 106 -86 78z"/>
<path d="M855 7966 c-5 -13 33 -91 43 -91 3 0 9 9 16 21 8 15 7 28 -2 45 -20
38 -47 50 -57 25z"/>
<path d="M977 7807 c0 -55 1 -58 26 -58 14 0 26 6 26 13 0 22 -34 103 -43 103
-5 0 -9 -26 -9 -58z"/>
<path d="M837 7815 c-22 -5 -23 -34 -3 -82 15 -35 40 -48 53 -26 10 16 -6 103
-19 108 -7 2 -21 2 -31 0z"/>
<path d="M3386 6397 c-11 -2 -28 -11 -36 -18 -14 -11 -93 -41 -145 -54 -16 -4
-29 -33 -19 -43 3 -4 23 -1 44 7 21 7 41 9 46 4 4 -5 3 -38 -3 -74 -8 -48 -8
-72 1 -92 14 -32 39 -34 57 -5 15 24 35 27 43 5 4 -9 15 -16 26 -16 32 0 33
-10 6 -50 -29 -43 -31 -58 -9 -76 21 -17 29 -9 68 64 27 51 33 57 65 57 30 0
35 4 38 29 5 44 32 52 114 33 130 -30 136 -30 155 -3 11 18 15 46 14 93 -2 60
-5 69 -25 71 -23 4 -68 -45 -82 -89 -4 -13 -12 -24 -17 -24 -16 0 -11 42 6 49
20 7 20 29 0 45 -23 19 -77 -5 -86 -38 -7 -30 -24 -32 -32 -3 -3 11 -9 21 -14
21 -12 0 -41 -31 -41 -43 0 -6 -8 -10 -16 -10 -9 0 -16 7 -16 17 0 30 -36 10
-55 -30 -22 -47 -37 -50 -41 -11 -5 42 -34 42 -73 -1 -18 -21 -37 -35 -42 -32
-14 9 -11 50 7 72 8 11 15 29 15 39 0 23 31 41 71 41 36 0 55 16 55 49 0 19
-5 24 -29 23 -16 -1 -38 -4 -50 -7z m314 -123 c-7 -17 -25 -22 -25 -7 0 11 11
23 22 23 5 0 6 -8 3 -16z m101 -58 c0 -6 -2 -10 -5 -10 -2 0 -7 4 -11 10 -3 6
-1 11 5 11 6 0 11 -5 11 -11z"/>
<path d="M5568 6392 c-13 -17 -55 -107 -55 -117 0 -23 -45 -102 -56 -98 -13 5
-14 11 -2 42 5 13 2 18 -14 18 -11 0 -23 -7 -27 -16 -10 -27 -26 -17 -29 19
-5 45 -32 49 -73 9 -27 -28 -34 -31 -53 -20 -19 12 -25 9 -52 -23 -29 -34 -33
-35 -42 -19 -12 22 -30 15 -31 -11 0 -24 -38 -68 -52 -60 -16 10 -13 40 10 91
26 56 27 91 5 100 -21 8 -29 -5 -52 -76 -13 -42 -23 -57 -42 -61 -29 -8 -78
-78 -78 -111 0 -11 8 -25 19 -31 15 -8 25 -4 48 17 27 25 33 26 65 15 29 -11
39 -10 62 5 25 16 28 16 47 -1 26 -24 48 -8 61 40 l9 33 72 -2 c53 -1 74 -6
81 -19 12 -21 45 -12 84 24 33 31 88 37 147 15 34 -13 42 -12 70 4 27 16 34
17 49 4 15 -13 20 -11 40 14 13 16 27 29 31 29 5 0 20 -15 35 -33 35 -41 82
-40 82 1 0 17 -8 30 -24 37 -20 9 -23 16 -18 44 5 27 2 36 -16 45 -18 10 -26
9 -43 -6 -13 -12 -40 -20 -75 -21 -44 -2 -58 -8 -76 -30 -23 -29 -36 -26 -36
6 0 33 -20 32 -52 -4 l-32 -34 0 27 c-1 40 23 67 52 59 32 -8 63 9 63 35 0 23
-11 26 -28 9 -15 -15 -38 -2 -31 18 14 35 -21 62 -43 33z m144 -176 c-6 -12
-16 -21 -22 -21 -6 0 -6 7 1 21 6 12 16 21 22 21 6 0 6 -7 -1 -21z"/>
<path d="M5835 6387 c-11 -10 -9 -53 3 -61 18 -11 53 6 53 25 0 32 -37 56 -56
36z"/>
<path d="M5709 6373 c-38 -23 -15 -59 30 -48 29 8 35 43 9 53 -20 7 -16 8 -39
-5z"/>
<path d="M2988 6328 c-33 -43 -58 -114 -59 -163 0 -27 -8 -46 -26 -63 -29 -27
-42 -23 -42 12 0 16 -11 28 -36 40 -44 21 -61 15 -96 -37 -14 -21 -31 -37 -38
-37 -16 -1 -18 27 -3 36 6 4 11 16 11 27 0 22 -36 29 -48 9 -4 -6 -20 -8 -36
-4 -24 5 -30 2 -35 -15 -3 -12 -11 -22 -18 -22 -9 0 -11 9 -6 26 3 15 9 38 12
53 11 40 -4 77 -36 93 -26 14 -36 14 -83 0 -51 -15 -55 -19 -60 -55 -10 -60
-27 -118 -50 -169 -19 -42 -20 -50 -6 -74 10 -18 25 -27 47 -29 28 -3 43 5 87
47 29 28 53 57 53 64 0 7 7 13 15 13 9 0 16 -13 18 -35 3 -26 9 -35 29 -37 13
-2 29 1 35 7 6 6 25 8 43 5 23 -5 35 -2 46 13 14 20 15 20 33 -4 l19 -25 15
24 c14 20 18 21 38 9 18 -11 28 -11 50 -2 33 16 180 17 189 2 4 -5 1 -26 -6
-46 -11 -29 -11 -39 0 -53 24 -28 40 -18 47 32 9 67 23 88 57 89 40 0 80 59
66 96 -9 25 -53 61 -74 61 -6 0 -45 -23 -87 -52 -89 -61 -99 -53 -49 38 64
116 64 117 52 140 -17 30 -38 26 -68 -14z m-469 -105 c7 -9 9 -33 5 -64 -6
-41 -15 -56 -60 -96 -62 -57 -82 -50 -57 19 9 24 20 59 23 77 8 37 41 78 63
78 8 0 19 -6 26 -14z m648 -109 c-11 -11 -20 5 -11 19 7 11 9 11 13 0 2 -7 1
-16 -2 -19z m-80 -8 c0 -2 -5 -7 -10 -11 -6 -3 -11 -1 -11 5 0 6 5 11 11 11 5
0 10 -2 10 -5z m-49 -21 c-3 -9 -13 -16 -22 -16 -13 0 -13 3 -2 16 7 8 17 16
21 16 5 0 7 -8 3 -16z"/>
<path d="M5157 6282 c2 -10 11 -19 20 -19 8 0 17 9 19 19 2 13 -4 18 -19 18
-16 0 -22 -5 -20 -18z"/>
<path d="M4839 6261 c-27 -32 -51 -75 -51 -91 0 -8 -7 -20 -15 -27 -9 -8 -17
-36 -19 -70 -3 -63 -22 -82 -27 -28 -4 38 -19 43 -58 22 -21 -13 -38 -15 -153
-22 -42 -2 -50 -7 -76 -44 -15 -23 -27 -44 -25 -47 6 -11 -15 -53 -27 -53 -8
0 -10 13 -5 42 7 49 -1 56 -55 44 -28 -6 -41 -18 -64 -60 -26 -47 -64 -76 -64
-48 0 6 4 12 10 12 14 0 26 84 12 97 -21 21 -62 -8 -70 -50 -4 -20 -11 -40
-16 -43 -20 -12 -9 -55 18 -73 23 -15 34 -16 66 -7 21 7 50 11 64 9 22 -1 27
3 31 34 7 47 28 53 37 12 8 -36 38 -43 65 -16 9 9 31 19 48 23 17 3 33 12 36
20 7 17 35 20 35 3 0 -6 11 -9 24 -8 19 3 24 12 29 46 3 29 10 43 23 45 10 2
19 -2 19 -8 0 -6 9 -20 20 -32 21 -20 23 -20 61 -3 21 11 43 25 48 32 5 8 31
13 65 13 62 0 75 16 42 53 -14 15 -14 22 -1 53 24 57 33 167 15 178 -20 13
-25 12 -42 -8z m-34 -195 c-2 -7 -5 -1 -5 14 0 14 3 20 5 13 3 -8 3 -19 0 -27z"/>
<path d="M3994 6054 c-43 -30 -88 -173 -73 -231 8 -32 42 -53 82 -50 34 3 37
-14 13 -62 -22 -42 -17 -108 9 -113 29 -5 49 19 49 61 0 21 4 43 9 48 15 16
20 207 5 212 -6 2 -24 -18 -40 -44 -22 -38 -33 -48 -51 -45 -20 2 -22 8 -19
48 2 25 10 62 18 82 13 29 20 35 37 30 21 -7 52 10 52 28 0 14 -41 51 -56 51
-7 0 -23 -7 -35 -15z"/>
<path d="M3198 5977 c-12 -22 -32 -51 -45 -66 -35 -39 -68 -107 -57 -118 19
-19 47 -1 72 48 14 27 30 50 34 50 5 0 15 -29 22 -64 16 -69 31 -90 58 -79 14
5 16 14 10 40 -25 119 -17 129 48 64 42 -40 73 -42 73 -4 0 14 -22 37 -63 67
-34 25 -73 58 -87 74 -15 15 -30 28 -36 28 -5 0 -18 -18 -29 -40z"/>
<path d="M5036 5976 c-33 -63 -69 -96 -106 -96 -29 0 -39 -7 -57 -37 -43 -73
-12 -135 36 -74 22 28 24 29 34 10 6 -11 7 -29 2 -41 -14 -34 -11 -85 5 -99
32 -27 72 49 66 125 -2 23 3 27 40 34 73 13 99 21 111 36 24 29 -4 39 -69 25
-85 -18 -93 -4 -38 59 47 53 52 81 15 86 -17 2 -28 -5 -39 -28z"/>
<path d="M5828 5895 c0 -42 -88 -193 -112 -193 -21 0 -18 18 7 31 24 13 27 51
4 59 -11 5 -29 -8 -54 -37 -21 -23 -44 -43 -51 -43 -8 0 -23 13 -36 28 -21 27
-23 27 -55 13 -21 -10 -49 -13 -71 -10 -34 6 -35 7 -13 15 35 12 23 32 -19 36
-20 1 -47 8 -60 15 -22 11 -29 7 -71 -34 -26 -26 -47 -51 -47 -56 0 -5 10 -17
23 -27 12 -10 19 -23 16 -29 -7 -11 -76 -25 -144 -28 -36 -2 -37 -4 -34 -41 2
-43 -19 -55 -38 -21 -10 17 -12 17 -27 -3 -9 -11 -16 -27 -16 -34 0 -7 -6 -13
-12 -13 -8 0 -10 14 -7 42 7 46 3 50 -25 25 -11 -10 -36 -17 -61 -16 -34 0
-51 -7 -79 -31 -39 -35 -73 -33 -42 2 20 21 15 49 -12 59 -42 16 -89 -107 -54
-142 16 -16 63 -16 80 1 11 10 16 9 28 -7 21 -29 68 -15 68 20 0 15 9 30 22
37 12 6 23 10 24 8 1 -2 8 -17 15 -33 11 -25 17 -29 36 -23 13 4 40 10 61 13
44 7 87 38 94 69 4 15 17 25 41 30 19 4 40 12 46 18 18 18 28 14 39 -14 10
-27 39 -35 58 -17 6 5 22 11 36 13 20 3 28 13 37 46 19 75 36 86 55 37 15 -40
40 -50 66 -27 21 19 126 32 126 15 0 -15 49 -11 63 6 9 12 18 13 33 5 16 -9
21 -6 30 16 10 27 26 34 37 16 3 -5 29 -21 57 -36 68 -34 103 -25 130 30 16
35 17 47 7 92 -16 65 -35 64 -81 -7 -19 -29 -39 -54 -45 -56 -16 -6 -25 29
-12 43 17 17 15 39 -6 62 -15 17 -16 24 -5 41 11 17 11 25 1 37 -16 20 -51 19
-51 -2z m22 -134 c-9 -8 -12 -7 -12 5 0 9 3 19 8 24 4 4 9 2 11 -5 3 -6 -1
-17 -7 -24z m-434 -36 c-2 -10 -14 -20 -27 -22 -13 -1 -29 -13 -35 -25 -10
-19 -13 -20 -21 -5 -14 24 -1 47 31 59 42 15 56 13 52 -7z m113 -42 c-11 -11
-17 5 -9 25 7 19 8 19 11 1 3 -11 2 -22 -2 -26z m446 29 c0 -6 -5 -10 -11 -10
-6 0 -10 4 -10 10 0 6 4 11 10 11 6 0 11 -5 11 -11z m-1086 -206 c-4 -10 -9
-15 -12 -12 -3 3 -2 13 1 23 4 9 9 15 12 12 3 -3 3 -13 -1 -23z"/>
<path d="M4405 5768 c-20 -27 -37 -57 -37 -67 0 -11 -5 -22 -10 -26 -6 -3 -11
-25 -11 -48 0 -34 4 -42 17 -39 22 4 32 22 46 80 18 71 41 55 72 -47 14 -48
32 -89 41 -92 19 -8 45 12 45 34 0 23 -42 107 -54 107 -13 0 -12 29 1 37 5 3
29 -7 52 -22 43 -28 74 -28 74 0 0 9 -11 23 -24 32 -54 38 -156 100 -165 100
-5 0 -26 -22 -47 -49z"/>
<path d="M3260 5625 c-3 -7 -2 -48 3 -91 7 -70 10 -79 29 -79 18 0 21 8 24 68
4 87 -3 116 -30 116 -12 0 -23 -6 -26 -14z"/>
<path d="M2355 5516 c-40 -16 4 -61 70 -72 48 -8 54 -10 114 -40 19 -10 45
-17 56 -17 12 0 34 -7 49 -15 16 -8 80 -25 143 -38 63 -13 123 -27 131 -32 16
-8 63 -21 159 -43 25 -6 51 -15 57 -19 6 -5 34 -12 63 -16 62 -8 120 -26 142
-43 9 -7 35 -15 60 -18 24 -3 83 -19 131 -37 48 -17 113 -39 145 -50 32 -10
70 -25 84 -33 14 -7 36 -13 48 -13 12 0 26 -5 31 -10 10 -8 49 -21 178 -60 35
-10 75 -24 90 -31 24 -11 48 -19 161 -47 23 -6 47 -14 53 -18 21 -13 116 -44
137 -44 12 0 35 -8 51 -16 17 -9 38 -16 48 -16 9 -1 36 -10 59 -21 23 -11 59
-20 80 -21 30 0 45 -7 65 -31 31 -37 55 -41 65 -11 8 25 34 27 64 6 11 -8 37
-16 56 -18 44 -5 50 -18 21 -49 -23 -25 -21 -54 4 -54 8 0 27 14 43 32 21 23
35 31 52 27 67 -16 119 -31 138 -38 11 -5 42 -14 68 -20 64 -17 130 -37 200
-62 88 -31 164 -53 267 -76 52 -12 114 -29 137 -38 23 -9 51 -21 63 -25 11 -5
49 -17 84 -27 34 -9 77 -22 94 -28 18 -6 59 -17 92 -25 111 -27 181 -44 244
-62 35 -9 85 -21 111 -27 65 -15 144 -41 177 -58 52 -27 91 -10 74 34 -6 16
-21 24 -58 29 -27 3 -55 11 -61 16 -7 5 -33 14 -59 20 -26 6 -73 19 -105 28
-32 9 -77 21 -100 26 -67 16 -216 51 -267 64 -26 6 -52 15 -58 20 -6 5 -34 12
-63 17 -29 4 -72 18 -96 32 -23 14 -59 25 -78 25 -41 1 -185 37 -203 51 -6 5
-32 13 -56 17 -25 4 -48 12 -51 17 -3 5 -15 10 -26 10 -26 -1 -147 40 -166 55
-7 6 -36 15 -63 19 -70 11 -169 40 -211 62 -33 17 -199 53 -243 53 -21 -1 -51
32 -51 54 0 9 -7 22 -15 28 -10 9 -19 6 -38 -14 -14 -15 -31 -26 -39 -26 -20
0 -121 32 -135 43 -7 5 -33 13 -58 18 -49 10 -181 55 -237 81 -18 8 -41 15
-50 15 -9 0 -25 4 -35 9 -32 17 -135 43 -166 44 -17 0 -44 7 -61 15 -16 9 -35
16 -41 16 -6 0 -30 9 -54 20 -116 54 -167 75 -203 84 -22 6 -61 16 -86 22 -26
7 -56 16 -66 22 -21 11 -95 36 -135 45 -30 7 -41 30 -41 88 0 22 -5 34 -15 34
-18 0 -31 -35 -22 -62 3 -11 3 -23 -2 -25 -12 -8 -199 29 -215 42 -8 6 -56 22
-108 35 -51 12 -101 27 -110 32 -9 5 -59 18 -111 31 -108 25 -185 47 -232 69
-19 8 -43 15 -54 15 -12 0 -35 7 -51 15 -31 16 -42 18 -64 9z"/>
<path d="M7247 5479 c-7 -7 -13 -25 -13 -39 0 -15 -18 -64 -41 -108 -42 -81
-42 -82 -24 -113 13 -22 26 -32 45 -32 29 0 76 28 98 58 18 24 34 14 42 -26 4
-21 12 -32 25 -32 25 0 38 10 75 57 34 43 35 42 37 -14 1 -43 19 -52 45 -23
10 12 27 22 38 22 10 0 29 5 40 12 17 8 25 8 38 -5 24 -24 -10 -105 -57 -133
-27 -16 -36 -27 -33 -45 3 -20 10 -23 44 -23 35 0 45 5 61 31 28 47 41 79 50
130 5 27 17 51 31 61 26 18 29 54 4 63 -9 4 -39 -1 -67 -10 -27 -10 -52 -18
-56 -18 -13 0 -5 22 26 68 35 52 51 114 32 126 -27 16 -52 -7 -70 -63 -22 -72
-51 -92 -134 -94 -48 -2 -66 -7 -79 -23 -22 -27 -59 -42 -51 -20 4 8 1 29 -6
47 -10 27 -9 38 7 64 11 19 16 40 12 53 -12 36 -92 56 -119 29z m59 -65 c2 -9
-4 -20 -13 -24 -23 -8 -30 1 -22 28 8 25 30 23 35 -4z m-1 -108 c6 -16 -38
-56 -62 -56 -24 0 -25 29 -1 55 19 21 56 21 63 1z m276 -20 c0 -10 -29 -36
-41 -36 -6 0 -3 9 7 21 17 20 34 28 34 15z m-162 -25 c-4 -6 -12 -11 -18 -11
-7 0 -7 6 2 16 14 17 27 13 16 -5z"/>
<path d="M4543 5453 c-14 -14 -7 -36 25 -79 17 -24 31 -49 31 -57 0 -16 42
-47 54 -40 12 7 11 42 0 65 -53 107 -60 118 -81 118 -12 0 -25 -3 -29 -7z"/>
<path d="M6530 5390 c-46 -106 -98 -146 -131 -101 -12 18 -14 18 -34 0 -19
-18 -21 -18 -36 5 l-16 24 -32 -23 c-17 -12 -34 -20 -38 -16 -12 12 -6 45 10
51 9 4 16 19 16 37 0 25 -5 30 -27 30 -29 0 -32 -5 -41 -75 -7 -50 -23 -66
-54 -55 -12 5 -15 20 -13 66 3 52 1 59 -17 59 -16 0 -24 -13 -36 -53 -27 -93
-64 -160 -98 -177 -15 -7 -26 -23 -28 -41 -2 -24 1 -28 22 -28 31 0 75 44 97
97 16 38 29 45 62 33 14 -6 16 -17 10 -64 -6 -56 -6 -58 18 -54 24 3 27 9 49
82 3 11 9 7 20 -14 17 -32 39 -32 88 3 27 19 28 18 71 -7 34 -20 48 -23 64
-14 12 6 34 11 51 11 16 1 38 8 50 16 28 21 55 19 68 -5 14 -26 14 -63 1 -63
-6 0 -11 -7 -11 -15 0 -17 -40 -54 -49 -45 -3 3 2 14 11 23 21 21 22 46 2 54
-15 5 -90 -64 -90 -84 0 -18 53 -59 77 -59 35 0 81 38 81 68 0 13 7 32 15 40
10 10 16 35 16 63 0 48 22 85 46 77 21 -7 20 -41 -5 -90 -13 -27 -27 -51 -31
-53 -16 -12 -19 -72 -5 -84 21 -18 54 3 61 39 16 80 34 110 90 147 46 31 60
35 74 25 36 -26 45 -25 68 4 14 17 30 27 39 23 11 -4 10 -6 -4 -7 -14 0 -18
-7 -16 -23 9 -59 85 -46 97 16 4 18 9 46 13 62 4 20 1 30 -11 35 -10 4 -24 23
-33 42 -16 39 -45 47 -68 20 -11 -13 -10 -20 4 -35 24 -27 23 -58 -1 -45 -75
37 -121 33 -135 -11 -4 -13 -16 -33 -28 -45 l-20 -22 3 42 4 42 -68 2 c-51 0
-71 -3 -80 -16 -11 -14 -15 -14 -41 3 -16 10 -38 16 -49 13 -30 -8 -33 10 -8
44 25 34 23 68 -4 73 -13 3 -24 -10 -40 -47z m59 -129 c-4 -6 -12 -8 -18 -5
-7 5 -6 10 3 16 17 10 25 5 15 -11z m-112 -28 c-2 -10 -12 -19 -22 -20 -22 -4
-23 1 -5 21 17 21 31 20 27 -1z m-177 -14 c0 -6 -5 -11 -10 -11 -6 0 -11 5
-11 11 0 5 5 10 11 10 5 0 10 -5 10 -10z"/>
<path d="M6401 5391 c-23 -22 -10 -46 26 -46 25 0 31 4 31 25 0 13 -8 28 -17
31 -22 9 -22 9 -40 -10z"/>
<path d="M5911 5342 c-9 -7 -20 -22 -23 -32 -9 -22 -48 -24 -57 -2 -3 8 -17
16 -31 16 -35 0 -33 -35 4 -62 l29 -21 -35 -49 c-30 -43 -33 -52 -20 -65 21
-21 47 -6 71 40 19 37 24 40 42 30 12 -6 24 -18 27 -26 7 -18 42 -21 52 -5 5
10 -3 26 -42 80 -7 9 -5 20 8 33 20 23 24 76 4 76 -7 -1 -20 -6 -29 -13z"/>
<path d="M651 5296 c-9 -3 -35 -36 -58 -74 -23 -38 -49 -80 -57 -94 -15 -22
-14 -28 0 -54 18 -33 53 -42 73 -19 17 21 46 21 63 1 32 -39 86 -8 130 74 37
69 37 117 0 131 -44 17 -60 -9 -33 -52 10 -17 8 -27 -8 -58 -35 -64 -75 -61
-64 5 5 28 2 43 -9 52 -20 16 -20 36 -1 52 8 7 13 19 10 28 -6 14 -16 16 -46
8z m4 -114 c-7 -17 -25 -22 -25 -7 0 11 11 23 22 23 5 0 6 -8 3 -16z"/>
<path d="M1073 5256 c-19 -21 -45 -40 -60 -44 -32 -8 -35 -41 -4 -49 l22 -6
-23 -32 c-29 -41 -51 -41 -59 -1 -9 43 -43 42 -86 -3 -61 -63 -41 -90 66 -86
54 2 76 -1 84 -12 13 -19 120 -35 177 -27 24 3 43 13 50 24 8 16 22 20 63 20
57 0 69 -20 19 -32 -14 -3 -25 -13 -25 -21 0 -12 14 -15 59 -15 33 0 63 -4 68
-8 15 -15 45 -8 57 13 14 27 24 27 36 -2 6 -13 26 -32 45 -43 30 -18 39 -18
66 -7 28 11 34 10 46 -6 10 -14 22 -17 46 -12 21 4 36 1 44 -9 7 -9 27 -15 43
-15 26 0 31 4 31 26 0 16 -6 26 -17 26 -26 0 -30 31 -6 48 25 18 96 121 96
139 0 36 -83 -10 -84 -46 0 -20 -58 -67 -91 -74 -26 -5 -35 -2 -44 15 -18 34
-40 34 -81 1 -48 -38 -57 -38 -57 -2 0 15 -7 35 -16 45 -14 16 -12 23 16 74
34 63 41 112 16 122 -20 7 -55 -33 -64 -74 -8 -37 -65 -132 -79 -132 -5 0 -9
9 -9 20 0 27 -16 35 -73 37 -27 2 -59 6 -72 11 -20 6 -31 0 -65 -37 -29 -31
-47 -42 -59 -38 -16 6 -16 9 0 32 20 31 21 55 3 61 -21 7 -49 -4 -49 -19 0
-15 -41 -41 -49 -33 -3 3 8 26 24 51 16 25 30 51 30 58 0 7 9 22 19 33 22 24
20 58 -4 63 -9 1 -32 -14 -50 -34z m-164 -163 c-4 -6 -12 -11 -18 -11 -7 0 -7
6 2 16 14 17 27 13 16 -5z m231 0 c-4 -6 -12 -11 -18 -11 -7 0 -7 6 2 16 14
17 27 13 16 -5z m509 -105 c0 -6 -9 -11 -19 -11 -16 0 -16 2 -2 11 19 12 21
12 21 0z"/>
<path d="M5680 5190 c-14 -10 -40 -26 -57 -36 -35 -18 -41 -48 -15 -64 12 -8
30 0 76 35 59 46 77 83 41 83 -10 0 -31 -8 -45 -18z"/>
<path d="M4658 5164 c-20 -30 -15 -52 37 -163 23 -48 37 -66 52 -66 35 0 35
31 2 98 -18 36 -35 77 -38 91 -3 14 -13 35 -21 46 -14 20 -15 20 -32 -6z"/>
<path d="M3346 5075 c-10 -10 -9 -75 2 -81 5 -3 12 -24 16 -46 6 -39 39 -73
59 -60 13 8 14 75 1 83 -5 3 -11 25 -15 49 -6 51 -39 79 -63 55z"/>
<path d="M5481 5052 c-9 -4 -50 -32 -92 -64 -59 -43 -76 -62 -74 -78 6 -40 39
-32 96 22 30 29 65 58 78 65 37 19 29 70 -8 55z"/>
<path d="M1913 4977 c-28 -38 -29 -47 -2 -74 15 -15 29 -19 47 -14 19 4 35 -1
59 -21 18 -16 45 -27 62 -27 16 0 36 -3 45 -6 8 -3 27 7 42 22 32 32 64 30 69
-4 4 -27 37 -48 65 -41 11 3 27 -3 37 -15 14 -15 27 -18 53 -13 26 5 42 1 63
-16 35 -27 51 -28 78 -1 28 29 30 116 2 116 -10 0 -29 -7 -41 -16 -26 -18 -35
-12 -35 25 0 27 -1 27 -91 29 -75 2 -97 6 -122 25 l-30 22 -63 -37 c-63 -38
-93 -47 -93 -28 0 5 9 12 20 16 24 8 37 37 23 51 -7 7 -20 4 -38 -8 -28 -18
-47 -15 -47 10 0 17 -32 37 -60 37 -11 0 -30 -14 -43 -32z m48 -23 c-2 -7 -10
-14 -17 -17 -7 -2 -10 3 -6 13 8 19 29 23 23 4z m339 -82 c0 -6 -6 -10 -12
-10 -6 0 -8 4 -4 10 3 6 8 11 11 11 2 0 5 -5 5 -11z m92 -18 c-2 -10 -14 -20
-28 -22 -21 -3 -23 -1 -12 18 14 27 45 30 40 4z"/>
<path d="M2638 4975 c-20 -20 -15 -38 11 -42 35 -5 35 -43 -2 -103 -34 -55
-41 -88 -21 -100 14 -9 52 25 52 48 0 24 59 105 78 105 27 0 27 -20 1 -81 -25
-60 -23 -86 7 -74 9 3 23 24 33 46 34 77 47 93 75 96 l27 3 -33 -65 c-38 -74
-33 -106 19 -126 66 -26 96 -24 119 5 27 35 39 35 47 -1 16 -63 50 -73 83 -24
32 48 50 41 42 -16 -6 -40 -5 -47 11 -47 9 0 31 14 47 32 16 17 39 31 51 31
26 0 31 32 9 51 -8 6 -68 19 -134 27 -66 9 -136 19 -154 23 -23 4 -43 1 -60
-11 -15 -9 -31 -16 -37 -16 -16 0 -13 42 4 62 8 9 17 31 21 50 11 51 -21 78
-82 70 -29 -4 -48 -2 -53 5 -4 7 -19 12 -33 12 -17 0 -30 9 -38 26 -9 20 -20
27 -45 27 -18 0 -38 -6 -45 -13z m344 -250 c0 -6 -5 -10 -10 -10 -6 0 -11 4
-11 10 0 6 5 11 11 11 5 0 10 -5 10 -11z"/>
<path d="M5196 4843 c-46 -38 -61 -56 -61 -79 -1 -27 17 -22 74 21 33 26 51
48 51 63 1 32 -22 30 -64 -5z"/>
<path d="M3406 4718 c-10 -40 5 -175 22 -191 26 -26 48 -7 46 43 -2 109 -13
158 -38 167 -20 7 -24 4 -30 -19z"/>
<path d="M4752 4557 c-4 -5 -4 -20 -1 -34 3 -13 2 -46 -3 -74 -11 -56 2 -86
35 -79 18 3 21 14 24 77 4 92 -3 121 -29 121 -11 0 -23 -5 -26 -11z"/>
<path d="M4919 4503 c9 -75 20 -103 42 -103 26 0 36 33 24 84 -15 65 -22 78
-50 82 -23 3 -23 2 -16 -63z"/>
<path d="M3467 4443 c-10 -6 -12 -27 -6 -77 7 -77 32 -121 62 -110 15 6 17 16
11 65 -7 54 -29 114 -47 125 -4 2 -13 1 -20 -3z"/>
<path d="M2528 4351 c-27 -27 14 -67 69 -67 29 0 165 -41 183 -55 7 -6 54 -19
105 -29 91 -19 176 -46 197 -63 5 -5 43 -16 84 -26 133 -31 241 -60 259 -70
11 -5 30 -9 44 -9 30 0 59 -25 59 -51 0 -45 48 -58 63 -17 10 26 10 26 50 9
68 -30 80 -34 124 -40 23 -3 64 -17 90 -31 26 -14 64 -29 83 -33 20 -4 43 -11
52 -16 9 -5 35 -13 58 -19 50 -12 197 -61 243 -82 18 -8 38 -14 44 -14 5 0 26
-8 45 -18 64 -31 72 -34 86 -34 26 0 126 -33 172 -56 48 -25 54 -43 36 -109
-11 -38 -1 -59 26 -54 14 2 21 14 23 40 6 88 23 102 84 69 42 -22 137 -49 186
-53 67 -4 97 -30 106 -88 7 -51 29 -85 53 -85 17 0 20 68 4 78 -6 4 -11 19
-11 34 0 20 4 25 18 21 89 -28 141 -42 182 -49 81 -14 198 -42 217 -51 10 -5
52 -20 92 -33 41 -13 83 -27 95 -32 11 -5 55 -19 97 -32 42 -12 78 -26 81 -31
3 -4 26 -11 52 -15 26 -4 50 -11 53 -16 3 -5 25 -12 48 -16 24 -4 72 -19 107
-33 36 -14 80 -25 98 -25 54 0 148 -31 259 -86 10 -4 25 -8 32 -8 17 0 50 33
50 50 0 21 -47 43 -111 54 -131 21 -189 33 -207 43 -10 5 -28 10 -40 10 -13 0
-37 7 -56 15 -18 9 -61 23 -96 33 -77 21 -380 121 -451 149 -29 11 -80 24
-113 28 -33 4 -63 12 -66 17 -4 6 -16 10 -28 10 -12 0 -46 7 -76 15 -29 8 -91
23 -137 33 -46 10 -101 21 -121 26 -20 5 -57 13 -81 19 -25 5 -51 14 -58 20
-7 6 -36 14 -63 18 -27 3 -52 11 -56 17 -3 5 -19 10 -36 10 -43 0 -63 10 -74
36 -8 21 -16 24 -78 24 -54 0 -77 5 -98 21 -16 11 -62 29 -102 39 -40 10 -78
22 -84 26 -6 5 -37 18 -70 30 -33 13 -69 27 -79 33 -10 5 -38 14 -61 20 -23 6
-77 22 -120 36 -44 15 -108 35 -142 45 -35 10 -70 22 -79 26 -24 11 -179 63
-219 73 -19 5 -48 21 -64 36 -29 28 -52 34 -69 17 -10 -9 -81 7 -136 32 -12 5
-64 19 -116 31 -52 12 -99 26 -105 31 -6 4 -27 12 -47 16 -20 4 -41 11 -47 15
-6 5 -27 11 -47 14 -68 11 -173 44 -211 66 -21 12 -56 26 -79 30 -23 4 -46 12
-52 17 -15 12 -114 24 -123 14z"/>
<path d="M7702 4281 c-16 -24 -59 -70 -96 -101 -46 -40 -67 -65 -67 -81 0 -33
32 -49 69 -35 16 6 57 9 92 8 56 -3 65 -1 68 16 5 26 -15 38 -63 38 -58 1 -60
19 -6 68 26 23 57 58 67 77 17 31 18 36 4 45 -27 17 -38 11 -68 -35z"/>
<path d="M4946 4250 c0 -78 26 -155 52 -155 28 0 31 21 15 105 -20 106 -24
116 -47 116 -18 0 -20 -8 -20 -66z"/>
<path d="M8044 4301 c-8 -9 -16 -46 -19 -82 -3 -37 -12 -77 -20 -89 -15 -25
-10 -56 10 -56 7 0 23 17 37 37 29 42 45 39 42 -11 -3 -36 15 -68 39 -68 15 0
119 124 120 143 0 6 12 22 26 36 27 25 35 56 16 68 -5 3 -18 -4 -28 -15 -20
-21 -22 -24 -70 -88 -30 -40 -59 -52 -59 -23 0 9 -6 26 -12 38 -9 17 -14 18
-26 8 -27 -22 -41 4 -20 36 32 49 -1 108 -36 66z"/>
<path d="M7860 4240 l-61 -54 5 -53 c5 -52 26 -80 59 -80 19 0 107 92 107 111
0 8 9 19 21 26 11 6 21 20 21 32 0 26 -46 73 -71 73 -11 0 -47 -25 -81 -55z
m89 -34 c0 -24 -53 -79 -75 -79 -31 0 -26 46 8 72 32 25 67 29 67 7z"/>
<path d="M4751 4245 c-4 -16 -11 -42 -17 -57 -6 -15 -9 -46 -7 -68 3 -36 7
-41 30 -41 22 0 26 6 29 37 1 20 7 57 13 82 8 34 8 50 -1 61 -20 23 -41 17
-47 -14z"/>
<path d="M8367 4261 c-29 -25 -82 -100 -82 -118 0 -18 -38 -77 -62 -96 -8 -6
-13 -20 -10 -31 2 -16 14 -22 45 -24 23 -2 47 -8 52 -13 14 -14 56 -13 64 1
10 15 -24 50 -51 54 -29 4 -35 41 -10 63 10 10 35 19 56 21 41 4 51 33 13 38
-13 2 -24 9 -24 16 0 27 27 39 86 39 62 0 79 14 48 39 -23 18 -107 25 -125 11z"/>
<path d="M8523 4210 c-10 -6 -18 -20 -18 -30 0 -11 -7 -25 -16 -32 -8 -8 -15
-22 -15 -33 0 -10 -5 -22 -11 -25 -16 -10 -44 -77 -37 -89 13 -22 38 -10 53
24 16 39 42 55 55 35 4 -7 8 -43 8 -80 0 -66 1 -69 26 -69 25 0 26 3 26 69 0
37 -4 76 -10 86 -9 15 -3 26 29 55 61 56 49 100 -29 100 -23 0 -51 -5 -61 -11z
m45 -68 c0 -16 -22 -21 -35 -9 -9 10 14 37 26 30 5 -4 9 -13 9 -21z"/>
<path d="M8813 4160 c-17 -10 -57 -71 -81 -120 -24 -53 -19 -93 16 -112 24
-13 34 -14 71 -1 23 7 53 25 66 39 l24 26 -25 20 c-24 20 -64 27 -78 13 -3 -3
-1 -15 4 -26 8 -15 7 -21 -6 -26 -32 -12 -41 13 -21 56 28 60 47 78 69 66 36
-19 63 -13 63 15 0 42 -65 74 -102 50z"/>
<path d="M9027 4109 c-9 -16 -19 -42 -23 -56 -9 -29 -56 -95 -76 -108 -16 -10
-18 -56 -3 -65 25 -16 160 181 155 225 -4 38 -35 40 -53 4z"/>
<path d="M9159 4099 c-7 -3 -32 -41 -56 -84 -24 -42 -48 -77 -53 -77 -6 0 -9
-15 -8 -33 3 -27 10 -35 41 -45 21 -7 43 -11 49 -9 12 4 24 -6 142 -113 63
-58 92 -63 92 -18 0 25 -59 89 -102 112 -13 6 -24 16 -24 21 0 5 28 40 63 78
35 39 63 73 63 78 -1 23 -15 54 -25 54 -6 0 -32 -28 -57 -62 -48 -65 -105
-126 -119 -126 -4 0 -20 11 -36 25 l-27 26 24 33 c14 19 38 47 54 64 44 44 29
97 -21 76z"/>
<path d="M4983 4035 c-10 -11 -7 -75 5 -82 5 -3 10 -19 10 -35 0 -37 27 -75
53 -75 23 0 28 38 11 71 -5 10 -17 40 -27 67 -16 46 -37 68 -52 54z"/>
<path d="M5151 4028 c-17 -12 -20 -31 -21 -152 -1 -77 2 -144 6 -151 12 -19
30 3 30 38 0 23 9 42 26 59 32 30 43 22 38 -28 -2 -24 4 -44 16 -57 21 -24 32
-25 51 -6 8 8 49 18 91 21 41 4 82 13 91 20 12 10 18 9 28 -6 14 -19 37 -24
37 -7 0 6 7 11 16 11 8 0 16 -5 16 -11 0 -6 11 -10 24 -10 20 0 27 7 32 31 3
18 13 32 22 32 11 0 16 -11 16 -32 0 -31 0 -31 62 -31 47 0 63 -5 68 -17 6
-15 9 -15 24 -3 9 8 24 30 32 49 8 19 31 44 52 57 l38 22 -24 19 c-28 23 -49
24 -84 4 -35 -20 -39 -20 -45 5 -6 24 -41 28 -58 7 -9 -10 -42 -14 -115 -13
-79 1 -105 -3 -115 -15 -21 -28 -24 -5 -8 51 18 60 10 86 -27 86 -28 0 -48
-41 -56 -116 -4 -45 -12 -73 -24 -81 -22 -16 -25 -13 -34 30 -5 27 -14 36 -40
43 l-33 8 15 37 c18 42 10 64 -34 99 -31 25 -85 28 -113 7z m84 -55 c32 -21
32 -26 -2 -66 -38 -46 -67 -44 -67 6 0 21 8 47 17 58 21 23 20 23 52 2z m525
-150 c-8 -24 -27 -30 -27 -8 0 15 22 41 29 34 2 -2 1 -14 -2 -26z m-457 -10
c0 -5 -10 -17 -21 -28 -21 -18 -21 -18 -21 2 0 12 3 24 7 28 9 10 35 9 35 -2z"/>
<path d="M6020 3961 c-35 -31 -42 -43 -34 -57 5 -10 9 -44 7 -77 -2 -48 1 -62
16 -72 16 -10 24 -6 50 22 37 41 44 42 67 8 20 -31 18 -36 -41 -103 -30 -33
-33 -57 -12 -86 13 -17 19 -18 42 -7 15 6 28 21 28 31 0 11 5 25 12 32 8 7 18
33 24 57 10 42 13 45 45 41 28 -3 36 1 44 24 13 35 45 35 70 1 18 -25 22 -26
53 -14 38 14 55 6 37 -16 -16 -18 -6 -28 29 -28 35 0 55 31 46 73 -5 27 -10
31 -28 26 -23 -6 -23 -5 -2 11 19 15 22 15 34 -1 12 -17 14 -17 14 4 0 26 -38
56 -60 48 -8 -3 -23 2 -34 11 -22 20 -49 13 -65 -16 -14 -26 -43 -25 -60 2
l-14 22 -35 -21 c-31 -18 -37 -19 -48 -6 -11 14 -15 14 -30 0 -16 -14 -19 -13
-31 6 -13 21 -13 21 -49 -6 -44 -33 -47 -33 -47 0 0 20 8 29 32 38 37 13 39
25 7 63 l-23 29 -44 -39z m397 -120 c-7 -8 -12 -8 -12 -2 0 14 12 27 19 20 3
-3 0 -11 -7 -18z"/>
<path d="M4721 3961 c-5 -27 -10 -139 -8 -169 1 -8 11 -12 25 -10 22 3 24 10
31 97 4 52 5 98 2 103 -13 20 -45 7 -50 -21z"/>
<path d="M8208 3846 c-9 -10 -21 -39 -28 -63 -7 -26 -33 -69 -64 -105 -28 -33
-52 -66 -52 -72 0 -18 40 -50 55 -44 8 3 20 24 28 46 7 23 24 54 37 70 22 28
24 29 54 13 26 -13 32 -13 47 0 9 9 26 15 37 15 11 0 16 -3 9 -8 -18 -13 -49
-95 -43 -112 4 -11 16 -16 31 -14 18 2 25 13 32 45 11 48 22 77 51 135 39 75
2 93 -71 33 -65 -53 -78 -49 -78 21 0 62 -14 74 -45 40z"/>
<path d="M3560 3783 c0 -51 37 -134 61 -138 33 -5 39 24 16 75 -19 42 -21 49
-24 78 0 8 -13 14 -27 14 -22 0 -26 -6 -26 -29z"/>
<path d="M8471 3756 c-14 -14 -39 -47 -55 -74 -70 -120 37 -149 125 -34 29 39
36 98 14 119 -19 20 -55 15 -84 -11z m55 -48 c0 -16 -51 -64 -68 -64 -23 0
-20 19 8 48 23 24 60 34 60 16z"/>
<path d="M5034 3733 c-4 -14 0 -38 10 -55 8 -16 18 -43 22 -59 4 -20 12 -28
24 -26 27 5 28 35 2 104 -24 65 -47 80 -58 36z"/>
<path d="M8619 3703 c-53 -49 -74 -111 -51 -153 14 -28 32 -28 76 1 30 21 113
129 113 148 0 17 -44 50 -66 50 -13 0 -44 -20 -72 -46z m75 -31 c-1 -20 -50
-70 -68 -70 -21 0 -20 31 3 59 28 34 65 41 65 11z"/>
<path d="M8803 3714 c-5 -7 -24 -40 -41 -74 -17 -34 -38 -67 -48 -74 -27 -19
-35 -58 -14 -66 13 -5 27 3 47 26 35 43 59 36 68 -20 8 -50 60 -107 93 -102
29 4 34 34 10 58 -36 37 -67 86 -66 105 0 10 14 33 31 49 39 38 40 62 4 90
-31 24 -70 28 -84 8z m47 -63 c-3 -15 -12 -24 -27 -27 -27 -3 -29 1 -11 30 18
29 42 27 38 -3z"/>
<path d="M3629 3478 c-11 -11 -7 -49 12 -102 16 -44 24 -53 45 -53 29 0 39 27
22 62 -6 12 -15 36 -20 53 -8 29 -46 54 -59 40z"/>
<path d="M4689 3379 c-28 -97 -34 -197 -11 -205 6 -2 19 3 28 10 14 10 18 35
21 107 3 83 1 95 -15 98 -10 2 -20 -2 -23 -10z"/>
<path d="M5139 3254 c-8 -14 18 -102 34 -116 18 -15 45 17 38 46 -14 52 -57
94 -72 70z"/>
<path d="M3682 3227 c-12 -12 -8 -57 8 -86 8 -15 26 -50 39 -78 15 -33 29 -49
40 -47 27 5 25 49 -3 107 -15 29 -32 66 -38 82 -10 28 -31 37 -46 22z"/>
<path d="M4679 3053 c-22 -36 -32 -180 -13 -196 11 -9 17 -8 27 4 14 17 19 41
28 145 6 60 4 71 -10 71 -9 0 -24 -11 -32 -24z"/>
<path d="M5187 3041 c0 -33 29 -101 54 -129 15 -15 19 -30 15 -45 -9 -26 28
-105 64 -139 l25 -23 23 24 24 23 -28 23 c-33 29 -87 128 -78 143 4 7 -7 42
-25 80 -24 50 -37 68 -53 68 -15 0 -21 -7 -21 -25z"/>
<path d="M3767 2933 c-25 -7 -23 -22 7 -61 14 -19 29 -47 33 -62 5 -21 13 -27
33 -27 25 0 26 2 21 41 -5 35 -55 118 -70 115 -3 -1 -14 -4 -24 -6z"/>
<path d="M4375 2860 c-12 -13 -8 -43 8 -56 11 -9 21 -9 37 -1 20 11 21 13 5
38 -17 25 -36 32 -50 19z"/>
<path d="M4905 2843 c-13 -33 7 -73 33 -69 32 5 45 33 31 65 -16 35 -52 37
-64 4z"/>
<path d="M4215 2810 c-17 -13 -18 -19 -7 -42 17 -37 66 -39 66 -3 0 14 -9 33
-20 42 -16 15 -21 15 -39 3z"/>
<path d="M3973 2799 c-13 -34 1 -53 38 -53 40 0 54 25 31 53 -16 19 -61 19
-69 0z"/>
<path d="M4575 2786 c-22 -22 7 -66 44 -66 17 0 25 41 11 58 -13 16 -43 20
-55 8z"/>
<path d="M5166 2753 c0 -10 6 -24 13 -31 7 -7 21 -13 31 -13 14 0 19 8 19 32
0 28 -3 31 -31 31 -24 0 -32 -5 -32 -19z"/>
<path d="M5445 2724 c-18 -48 -1 -74 42 -63 32 8 35 52 5 69 -28 15 -39 13
-47 -6z"/>
<path d="M4730 2709 c-8 -26 -1 -38 25 -45 31 -8 47 8 39 39 -8 34 -53 38 -64
6z"/>
<path d="M4448 2700 c-9 -14 5 -52 22 -59 22 -8 35 3 35 31 0 30 -43 51 -57
28z"/>
<path d="M5064 2681 c-20 -8 -16 -29 8 -51 17 -15 26 -17 39 -8 20 12 19 45
-1 58 -14 9 -27 9 -46 1z"/>
<path d="M3784 2662 c-10 -26 4 -47 32 -47 23 0 27 4 27 31 0 27 -4 32 -27 32
-14 0 -29 -8 -32 -16z"/>
<path d="M5320 2642 c-9 -24 15 -38 64 -38 31 0 47 5 51 16 9 22 8 22 -55 30
-41 5 -55 3 -60 -8z"/>
<path d="M4118 2637 c-18 -11 -4 -45 18 -41 18 3 23 41 6 46 -6 2 -16 0 -24
-5z"/>
<path d="M4403 2630 c-10 -26 5 -47 33 -47 30 0 31 0 14 36 -13 30 -37 36 -47
11z"/>
<path d="M4590 2624 c-16 -26 -4 -45 26 -39 13 2 20 13 20 30 0 33 -27 38 -46
9z"/>
<path d="M4884 2622 c3 -15 11 -23 25 -23 14 0 22 8 24 23 3 20 -2 24 -24 24
-23 0 -27 -4 -25 -24z"/>
<path d="M3897 2607 c-18 -7 -54 -92 -54 -129 0 -16 -7 -35 -16 -42 -22 -19
-19 -42 6 -42 13 0 25 10 31 26 12 32 38 35 47 5 4 -11 16 -25 26 -31 32 -17
72 8 43 26 -16 10 -13 71 5 94 24 32 18 57 -19 80 -35 21 -45 23 -69 13z m44
-62 c10 -10 -13 -48 -25 -40 -15 9 -12 47 4 47 8 0 17 -3 21 -7z"/>
<path d="M4048 2531 c-14 -28 -31 -54 -37 -58 -14 -9 -13 -58 1 -58 7 0 19 8
27 18 13 18 15 18 28 1 8 -11 22 -16 35 -13 12 4 27 -1 34 -11 21 -24 60 -19
84 11 l21 27 17 -26 c23 -36 45 -42 76 -22 20 13 31 15 48 6 21 -10 97 -21
168 -24 42 -2 91 48 91 93 0 45 -34 81 -69 72 -16 -4 -36 0 -53 11 -25 17 -29
17 -63 -1 -22 -12 -40 -33 -48 -54 -11 -32 -14 -34 -30 -19 -19 17 -47 11 -56
-12 -6 -16 -38 -21 -38 -6 0 13 48 44 68 44 11 0 16 10 16 31 0 24 -5 32 -19
32 -21 0 -69 -40 -77 -62 -5 -17 -82 -29 -82 -13 0 7 11 17 26 22 32 12 36 53
6 53 -20 0 -74 -55 -74 -75 0 -5 -5 -9 -10 -9 -5 0 -12 21 -16 47 -10 66 -39
65 -74 -5z m486 -38 c3 -25 -30 -67 -54 -67 -25 0 -33 22 -13 37 10 8 15 19
11 26 -9 14 14 32 37 28 9 -1 17 -12 19 -24z m-439 12 c0 -3 -5 -8 -10 -11 -6
-4 -11 -2 -11 4 0 6 5 12 11 12 5 0 10 -3 10 -5z m489 -56 c-10 -10 -19 6 -10
20 6 11 9 11 12 0 3 -7 2 -16 -2 -20z"/>
<path d="M4761 2536 c-14 -21 -15 -32 -6 -59 15 -43 16 -41 -13 -41 -39 0 -53
-24 -27 -47 18 -17 26 -18 64 -6 l43 13 -6 56 c-4 42 -1 60 10 69 11 9 12 16
3 27 -19 22 -49 17 -68 -12z"/>
<path d="M5090 2551 c-10 -6 -18 -19 -18 -29 0 -11 -5 -24 -11 -29 -17 -18
-50 -87 -44 -93 12 -12 45 -5 51 10 10 25 35 18 35 -10 0 -37 19 -43 47 -17
20 19 29 21 45 12 18 -9 24 -7 38 15 22 33 42 33 57 0 19 -43 49 -33 82 25
l30 52 13 -31 c17 -42 59 -40 64 3 3 25 -1 29 -33 35 -24 5 -38 14 -42 27 -8
30 -37 24 -57 -11 -21 -37 -29 -38 -74 -15 -21 10 -33 24 -33 37 0 20 -27 38
-40 26 -4 -4 -7 -30 -8 -59 0 -29 -5 -56 -9 -60 -11 -11 -40 29 -34 46 6 14
-22 77 -34 77 -4 0 -15 -5 -25 -11z m13 -78 c0 -2 -5 -7 -10 -11 -6 -3 -11 -1
-11 5 0 6 5 11 11 11 5 0 10 -2 10 -5z"/>
<path d="M4875 2513 c-14 -28 -19 -54 -16 -85 6 -59 25 -54 51 13 7 18 9 16
12 -14 3 -28 8 -34 27 -31 19 3 23 11 26 47 2 24 10 50 18 56 23 20 19 53 -6
53 -13 0 -25 -11 -32 -28 -11 -30 -20 -29 -24 3 -6 35 -34 27 -56 -14z"/>
<path d="M3740 2497 c-17 -17 -16 -35 3 -50 21 -18 50 5 45 35 -3 26 -29 34
-48 15z"/>
<path d="M5507 2393 c-4 -6 -4 -23 0 -37 4 -19 12 -25 28 -23 28 4 46 31 37
54 -7 19 -54 24 -65 6z"/>
<path d="M3676 2364 c-13 -24 4 -43 37 -43 14 0 29 -10 35 -21 6 -12 21 -26
32 -32 16 -9 22 -7 31 10 16 30 -4 67 -32 58 -14 -4 -22 -1 -27 13 -14 38 -59
47 -76 15z"/>
<path d="M4604 2352 c-9 -14 13 -42 34 -42 21 0 13 46 -9 50 -10 2 -21 -2 -25
-8z"/>
<path d="M3853 2326 c-11 -15 -10 -21 9 -40 27 -26 48 -14 42 25 -4 30 -31 38
-51 15z"/>
<path d="M4058 2306 c-17 -13 -18 -18 -7 -43 15 -33 43 -32 55 1 13 34 -20 62
-48 42z"/>
<path d="M4988 2305 c-19 -23 -5 -50 23 -46 32 5 41 62 10 62 -11 0 -26 -8
-33 -16z"/>
<path d="M5412 2295 c-9 -22 15 -60 34 -57 28 6 41 36 25 55 -17 21 -52 22
-59 2z"/>
<path d="M4331 2288 c-8 -13 25 -53 38 -45 5 3 10 17 10 31 0 18 -6 26 -21 26
-11 0 -23 -6 -27 -12z"/>
<path d="M4508 2273 c-7 -19 3 -47 16 -47 19 0 43 32 37 48 -8 20 -45 19 -53
-1z"/>
<path d="M4727 2260 c3 -23 9 -29 30 -29 20 0 26 6 29 29 3 26 0 29 -29 29
-30 0 -33 -3 -30 -29z"/>
<path d="M5205 2261 c-4 -4 -7 -18 -7 -31 0 -21 5 -25 31 -25 28 0 32 4 32 32
0 26 -5 31 -25 31 -13 0 -28 -3 -31 -7z"/>
<path d="M5093 2237 c-13 -8 -14 -15 -5 -29 17 -27 44 -29 52 -4 11 38 -13 55
-47 33z"/>
<path d="M5547 2235 c-30 -30 -9 -86 30 -81 21 3 25 9 25 46 0 34 -4 42 -21
45 -12 1 -27 -3 -34 -10z"/>
<path d="M4077 2198 c-23 -9 -16 -53 9 -60 30 -7 41 0 41 30 0 19 -23 42 -35
36 -1 0 -8 -3 -15 -6z"/>
<path d="M3943 2132 c-3 -5 -3 -17 1 -26 10 -26 51 -16 55 12 2 19 -2 24 -23
24 -15 0 -29 -4 -33 -10z"/>
<path d="M4223 2118 c2 -17 10 -23 30 -23 19 0 27 6 29 23 3 21 -1 24 -29 24
-29 0 -33 -3 -30 -24z"/>
<path d="M5068 2116 c-21 -21 -14 -37 14 -37 27 0 37 20 18 39 -13 13 -17 13
-32 -2z"/>
<path d="M5411 2116 c-8 -21 4 -37 28 -37 26 0 36 18 21 37 -17 20 -41 20 -49
0z"/>
<path d="M4520 2111 c-10 -17 4 -32 31 -32 31 0 40 10 26 28 -14 16 -47 19
-57 4z"/>
<path d="M4764 2114 c-16 -15 -6 -35 17 -35 32 0 41 10 27 28 -13 15 -33 18
-44 7z"/>
<path d="M4182 2057 c-30 -11 -31 -37 -3 -52 27 -14 42 -5 42 27 0 31 -9 37
-39 25z"/>
<path d="M5292 2016 c0 -28 3 -32 24 -30 17 3 23 11 23 30 0 19 -6 27 -23 30
-21 2 -24 -2 -24 -30z"/>
<path d="M4372 2008 c-4 -16 -16 -43 -27 -60 -40 -67 -45 -80 -33 -98 7 -10
20 -16 31 -14 11 2 45 3 76 3 52 -1 55 0 52 22 -3 19 -11 24 -40 27 -50 5 -57
15 -36 55 10 19 21 48 26 65 8 26 6 29 -17 29 -19 0 -27 -7 -32 -29z"/>
<path d="M4570 2002 c-19 -19 -34 -42 -34 -52 0 -9 -5 -20 -11 -24 -6 -3 -16
-19 -22 -33 -14 -38 3 -53 38 -35 24 13 28 12 41 -4 24 -34 41 -13 55 68 20
116 -5 145 -67 80z m19 -101 c0 -6 -5 -11 -11 -11 -6 0 -10 5 -10 11 0 5 4 10
10 10 6 0 11 -5 11 -10z"/>
<path d="M5024 1990 c-9 -20 -15 -41 -15 -47 0 -27 -23 -18 -36 14 -19 46 -35
55 -59 32 -19 -16 -21 -16 -27 -1 -14 37 -58 7 -72 -48 -3 -16 -12 -29 -18
-29 -7 0 -9 10 -4 28 5 22 3 26 -10 21 -11 -5 -20 2 -27 20 -12 33 -55 32 -60
-1 -2 -11 -11 -38 -20 -60 -20 -45 -13 -75 16 -66 11 3 32 -1 48 -9 40 -21 65
-9 94 46 33 62 51 67 47 14 -1 -22 -7 -49 -12 -60 -13 -27 23 -19 39 9 6 12
13 24 15 26 1 3 12 -6 22 -20 17 -22 23 -24 44 -14 14 6 32 24 40 41 9 17 29
48 46 70 34 45 31 71 -9 71 -21 0 -30 -9 -42 -37z"/>
<path d="M5419 1986 c-8 -14 -7 -25 4 -39 12 -17 16 -17 31 -5 22 18 21 39 -4
53 -16 9 -23 7 -31 -9z"/>
<path d="M1928 1806 c-21 -19 -38 -42 -38 -52 0 -22 32 -53 56 -53 23 0 22
-22 -2 -49 -27 -28 -44 -62 -36 -70 21 -22 75 20 76 58 1 20 19 35 30 25 3 -4
1 -22 -6 -40 -7 -19 -9 -37 -4 -42 11 -11 44 19 44 40 0 28 30 16 33 -14 3
-26 7 -29 55 -32 28 -2 56 2 62 8 19 19 39 12 49 -16 10 -24 15 -26 66 -23 47
2 55 6 55 24 0 17 -6 20 -34 18 -31 -2 -33 0 -36 37 l-4 39 -55 3 c-42 3 -57
0 -61 -13 -11 -26 -33 -18 -45 16 -9 25 -17 31 -42 31 -18 0 -35 -5 -38 -10
-4 -6 -12 -11 -18 -11 -11 0 -7 64 5 95 9 21 -14 49 -47 57 -21 6 -35 0 -65
-26z m55 -44 c-5 -29 -30 -38 -30 -11 0 22 8 34 23 34 6 0 8 -10 7 -23z"/>
<path d="M1686 1784 c-21 -18 -41 -45 -45 -61 -11 -48 -55 -106 -79 -106 -16
0 -8 39 13 58 23 21 53 74 53 95 0 8 -9 19 -20 25 -15 8 -24 5 -41 -13 -33
-37 -56 -77 -59 -104 -7 -65 -53 -107 -54 -49 -1 33 -14 53 -29 44 -7 -4 -28
-6 -48 -5 -41 3 -54 -10 -54 -54 0 -27 3 -29 39 -29 22 0 61 -1 87 -2 26 -2
73 0 105 4 49 6 64 3 102 -19 34 -19 50 -23 65 -15 32 18 36 43 7 43 -34 0
-59 10 -58 25 0 6 23 42 52 79 58 73 63 89 32 106 -27 14 -26 15 -68 -22z"/>
<path d="M1218 1798 c-24 -9 -31 -25 -31 -70 0 -26 -9 -52 -25 -73 -52 -69
-39 -95 38 -78 23 5 48 7 56 4 25 -9 41 24 27 59 -9 26 -9 38 4 62 20 40 19
58 -6 83 -21 21 -35 24 -63 13z m15 -167 c8 -21 -8 -40 -25 -30 -16 10 -14 48
4 48 8 0 17 -8 21 -18z"/>
<path d="M547 1767 c-17 -14 -24 -35 -28 -87 -4 -43 -14 -79 -28 -98 -20 -29
-28 -74 -15 -87 12 -13 36 6 53 42 18 37 41 49 54 27 10 -16 81 -43 96 -37 8
3 14 15 14 27 0 15 -7 21 -27 21 -38 0 -41 23 -10 68 14 22 27 46 27 54 0 34
-22 65 -54 76 -45 16 -56 15 -82 -6z m81 -73 c4 -25 -26 -59 -44 -53 -14 5
-11 48 6 67 16 19 34 12 38 -14z"/>
<path d="M952 1767 c-4 -3 -7 -22 -7 -42 0 -26 -9 -45 -35 -72 -37 -38 -59
-46 -59 -21 0 23 -30 48 -57 48 -24 0 -69 -39 -69 -59 0 -6 15 -25 34 -43 32
-32 38 -34 143 -39 104 -5 148 2 148 26 0 5 -13 10 -29 10 -56 0 -60 11 -39
92 10 40 16 81 12 90 -6 18 -29 23 -42 10z m-144 -145 c-7 -9 -15 -14 -18 -11
-7 7 8 27 20 27 7 0 7 -6 -2 -16z m106 -31 c-8 -9 -18 -13 -23 -10 -13 8 0 26
19 26 14 0 14 -3 4 -16z"/>
<path d="M824 1754 c-7 -13 2 -32 17 -32 12 0 12 28 0 36 -6 4 -13 2 -17 -4z"/>
<path d="M4053 1656 c-17 -14 -84 -109 -84 -120 0 -4 -8 -15 -17 -25 -17 -19
-14 -51 6 -51 5 0 27 17 47 38 21 21 49 39 62 40 54 2 81 78 40 114 -22 21
-33 21 -54 4z m32 -66 c0 -17 -28 -33 -39 -22 -8 8 16 39 29 39 5 0 10 -8 10
-17z"/>
<path d="M5027 1643 c-16 -9 -33 -25 -39 -36 -9 -17 -7 -23 10 -32 12 -6 19
-16 15 -22 -4 -7 -15 -5 -31 5 -27 18 -36 13 -36 -21 0 -28 40 -40 89 -27 27
8 31 14 31 47 0 30 4 39 19 39 25 0 23 38 -2 52 -25 13 -21 14 -56 -5z"/>
<path d="M4210 1642 c-9 -3 -28 -23 -42 -46 -14 -23 -29 -42 -32 -42 -13 0
-21 -55 -10 -66 7 -8 19 -2 36 17 31 33 48 36 56 8 6 -25 26 -34 46 -22 12 8
12 16 2 42 -10 27 -9 34 3 38 26 11 18 56 -12 67 -15 6 -28 10 -29 9 -1 0 -9
-3 -18 -5z m21 -62 c-7 -9 -15 -14 -18 -11 -7 7 8 27 20 27 7 0 7 -6 -2 -16z"/>
<path d="M4629 1622 c-7 -14 -16 -26 -21 -26 -5 0 -9 -7 -9 -14 0 -8 -7 -21
-16 -28 -8 -7 -15 -22 -15 -33 0 -23 26 -26 35 -4 9 24 49 20 56 -5 4 -14 14
-21 30 -21 29 0 29 0 15 38 -9 22 -7 32 6 47 17 18 17 21 0 46 -23 36 -65 36
-81 0z m41 -28 c-2 -7 -10 -14 -17 -17 -7 -2 -10 3 -6 13 8 19 29 23 23 4z"/>
<path d="M5283 1624 c-19 -21 -23 -35 -21 -76 4 -58 27 -75 37 -26 7 38 25 43
25 6 0 -14 3 -28 8 -31 10 -5 35 21 54 56 15 28 32 28 32 0 0 -29 19 -62 35
-62 7 0 32 19 55 42 40 41 40 44 25 71 -21 38 -61 43 -84 12 l-18 -23 -12 22
c-15 29 -28 29 -51 2 -20 -24 -39 -28 -31 -7 6 14 -10 39 -24 39 -4 0 -17 -12
-30 -25z m204 -50 c9 -14 -11 -35 -26 -26 -12 7 -4 38 10 38 5 0 12 -6 16 -12z"/>
<path d="M4764 1631 c-4 -3 0 -20 9 -36 8 -16 15 -49 15 -73 0 -35 3 -42 18
-40 10 2 27 20 37 41 9 20 21 41 26 47 38 51 41 86 3 53 -20 -19 -52 -16 -52
4 0 12 -45 15 -56 4z"/>
<path d="M5170 1623 c-36 -16 -67 -53 -67 -80 0 -9 11 -27 25 -40 24 -23 27
-23 58 -7 40 20 41 34 5 48 -26 10 -27 12 -11 29 10 11 18 25 18 32 0 6 7 12
15 12 9 0 16 5 16 11 0 14 -20 12 -59 -5z"/>
<path d="M4346 1580 c-21 -44 -21 -50 -7 -65 22 -21 40 -9 40 27 0 16 5 34 11
41 14 13 6 45 -11 45 -6 0 -21 -22 -33 -48z"/>
<path d="M4441 1594 c-38 -41 -39 -71 -5 -96 31 -21 54 -13 89 31 27 35 28 73
1 88 -33 18 -53 12 -85 -23z m53 -29 c0 -6 -5 -11 -11 -11 -6 0 -8 5 -5 11 4
5 9 10 11 10 3 0 5 -5 5 -10z"/>
<path d="M5581 1592 c-26 -26 -27 -29 -11 -59 20 -37 42 -39 81 -7 25 20 28
28 21 54 -12 43 -54 49 -91 12z m47 -27 c0 -6 -5 -11 -11 -11 -6 0 -8 5 -5 11
4 5 9 10 11 10 3 0 5 -5 5 -10z"/>
<path d="M5720 1599 c-35 -41 -42 -66 -25 -92 14 -21 27 -25 82 -29 82 -5 106
10 70 43 -13 12 -36 23 -52 23 -31 0 -49 15 -31 26 6 3 11 15 11 27 0 25 -33
27 -55 2z"/>
<path d="M1397 1540 c-60 -10 -97 -12 -250 -16 -78 -1 -90 -4 -114 -28 -24
-24 -25 -28 -11 -48 12 -16 14 -46 10 -134 -8 -159 -17 -154 262 -163 117 -3
298 -9 402 -13 104 -3 252 -1 329 6 92 7 146 7 153 1 8 -6 17 -7 23 -1 7 8
209 15 333 12 l29 -1 -22 -45 c-13 -24 -30 -58 -38 -74 -8 -16 -14 -46 -14
-66 0 -30 3 -36 18 -34 10 2 20 15 22 27 4 31 29 31 45 0 7 -13 20 -29 29 -36
22 -17 75 -16 99 2 12 9 33 12 55 9 40 -7 59 16 36 44 -17 20 -11 27 19 19 13
-3 23 -14 23 -24 0 -34 24 -42 98 -35 59 5 74 3 91 -13 19 -17 22 -17 48 0 25
16 30 16 62 1 49 -23 82 -21 109 8 31 33 13 50 -47 42 -57 -8 -71 14 -37 60
32 43 30 65 -6 61 -20 -3 -30 -11 -33 -25 -4 -24 -59 -63 -106 -73 -28 -6 -33
-4 -42 19 -9 25 -13 26 -111 26 -96 0 -103 -1 -124 -27 -42 -49 -50 -55 -76
-55 -15 0 -32 10 -42 26 -16 24 -16 28 5 61 19 32 20 37 5 52 -38 37 -10 42
215 35 119 -4 311 -9 427 -12 115 -2 247 -9 294 -14 46 -5 87 -8 91 -5 5 3 83
8 174 12 166 8 267 7 659 -4 115 -4 238 -6 273 -5 223 3 453 2 598 -3 93 -3
267 -8 389 -11 121 -4 263 -11 315 -17 81 -9 212 -14 524 -19 68 -1 71 -3 56
-20 -10 -10 -26 -40 -38 -67 -24 -56 -66 -93 -107 -93 -36 0 -46 -14 -31 -42
12 -22 47 -28 58 -11 3 6 15 11 26 11 10 0 32 15 49 34 49 55 62 63 84 51 11
-5 28 -13 38 -16 13 -4 18 -14 16 -34 -5 -45 18 -39 48 12 33 56 69 66 70 19
0 -48 14 -62 45 -46 58 31 80 -15 28 -58 -17 -15 -31 -36 -31 -47 0 -17 -7
-19 -45 -15 -25 3 -120 8 -213 11 -423 14 -485 17 -515 27 -22 7 -42 7 -60 0
-47 -18 -457 -16 -847 3 -50 3 -345 8 -657 11 -312 4 -668 10 -792 13 -125 3
-233 6 -242 5 -50 -2 -213 -1 -1107 8 -543 5 -992 7 -998 5 -7 -3 -56 2 -111
9 -55 8 -125 14 -157 14 -55 -1 -58 -2 -55 -26 2 -14 4 -27 5 -28 3 -3 905
-17 995 -16 38 1 94 2 126 3 32 1 136 1 231 1 95 -1 187 -1 205 -1 17 1 64 0
105 -1 40 0 83 -1 94 -1 12 0 71 -3 132 -5 105 -4 434 -11 1081 -23 165 -3
337 -7 383 -10 46 -2 186 -6 310 -8 769 -13 986 -19 1024 -29 46 -13 189 -5
263 13 34 9 63 9 112 -1 97 -19 124 -20 838 -26 360 -3 698 -8 750 -10 52 -3
203 -9 336 -15 133 -7 284 -16 336 -22 52 -5 278 -13 503 -16 224 -3 412 -8
417 -11 13 -9 51 15 52 31 0 25 -34 30 -247 34 -432 7 -880 24 -912 34 -18 6
-181 13 -361 17 -180 3 -352 10 -383 14 -55 8 -207 7 -415 -5 -96 -5 -108 -3
-108 12 0 35 104 156 105 123 0 -4 5 -15 11 -23 9 -14 13 -12 30 9 21 28 39
23 54 -16 7 -19 17 -25 41 -25 21 0 32 5 32 16 0 8 -4 16 -9 15 -13 0 -33 60
-24 69 3 3 -4 15 -18 25 -21 16 -22 21 -12 49 7 16 17 34 24 38 18 12 184 10
191 -1 6 -11 -47 -107 -81 -144 -23 -26 -21 -60 3 -64 8 -2 26 13 40 34 14 20
29 37 34 37 4 0 25 -18 45 -39 34 -37 38 -38 63 -25 15 8 37 11 53 7 20 -5 29
-2 34 9 8 23 32 20 38 -5 9 -33 37 -37 89 -12 42 21 49 22 64 8 11 -10 40 -16
75 -16 32 -1 79 -2 105 -4 37 -2 48 2 50 15 3 14 -5 19 -31 21 -30 3 -35 8
-38 35 -2 24 6 42 29 68 18 20 32 46 32 58 0 21 4 21 362 25 264 3 363 0 363
-8 0 -7 -7 -15 -16 -18 -26 -10 -71 -113 -63 -144 11 -41 31 -52 84 -46 26 3
50 1 53 -4 3 -5 17 -9 31 -10 24 0 56 35 72 79 6 17 9 18 17 5 15 -23 13 -31
-11 -40 -19 -7 -19 -9 -6 -28 15 -21 16 -21 45 1 l30 23 28 -31 c23 -25 32
-29 48 -20 14 7 24 7 33 -2 9 -9 20 -8 48 7 20 11 38 26 41 34 9 23 41 17 80
-15 29 -24 48 -30 92 -31 30 -1 57 3 60 8 3 5 21 7 41 3 29 -4 37 -1 53 23 24
37 68 33 88 -7 23 -48 93 -96 142 -97 33 -1 44 4 47 18 3 13 -5 20 -29 25 -40
8 -40 15 0 37 38 22 39 39 4 72 l-27 25 -41 -23 c-77 -44 -86 1 -15 71 26 26
47 49 47 53 0 4 -12 13 -26 20 -23 13 -29 12 -47 -5 -12 -10 -22 -27 -22 -36
0 -20 -62 -84 -81 -84 -20 -1 -15 25 8 52 24 27 25 31 11 53 -12 18 -41 5 -58
-28 -31 -57 -71 -109 -91 -121 -20 -10 -26 -9 -39 11 -15 23 -58 30 -70 11
-10 -17 -26 -1 -26 27 0 27 27 47 62 47 30 0 28 12 -9 47 -30 28 -33 29 -51
13 -10 -10 -34 -21 -52 -24 -19 -4 -39 -14 -46 -22 -6 -7 -18 -14 -25 -14 -21
0 -41 -32 -39 -63 3 -40 -24 -62 -47 -39 -10 10 -18 31 -18 47 -1 24 -6 30
-43 37 -23 5 -67 12 -99 15 -48 4 -59 2 -73 -16 -9 -12 -35 -31 -58 -44 -40
-22 -42 -22 -55 -4 -32 43 6 101 68 103 45 1 57 27 28 59 -17 19 -17 22 -1 46
9 14 17 32 17 40 1 7 15 30 32 50 17 20 31 42 31 50 0 8 20 36 45 63 112 122
130 160 88 185 -15 10 -24 6 -47 -21 -16 -17 -41 -53 -57 -78 -16 -26 -43 -66
-60 -89 -17 -23 -31 -47 -32 -54 0 -6 -17 -38 -38 -70 l-37 -58 -75 -8 c-42
-5 -128 -9 -191 -10 -64 -1 -276 -4 -473 -8 -196 -3 -442 -1 -546 4 -280 14
-396 18 -640 26 -122 4 -259 10 -305 12 -117 8 -145 8 -246 5 -50 -2 -128 2
-174 8 -46 5 -157 12 -248 14 -90 3 -168 8 -174 11 -5 4 -141 7 -301 9 -203 2
-294 6 -301 14 -5 7 -14 66 -20 132 -6 65 -16 124 -22 130 -13 13 -154 14
-507 4 -200 -6 -256 -11 -276 -24 -26 -17 -27 -22 -30 -194 l0 -48 -79 3 c-43
2 -93 4 -110 5 -18 1 -81 -5 -142 -12 -100 -12 -431 -10 -688 5 -69 4 -347 12
-645 20 -107 2 -301 -1 -431 -7 -302 -15 -480 -14 -499 3 -12 9 -15 45 -15
161 0 130 -3 152 -19 166 -24 20 -118 28 -191 15z m141 -45 c19 -19 22 -102 3
-117 -21 -16 -177 -25 -180 -10 -2 7 -10 31 -17 54 -13 39 -12 43 13 64 34 29
155 35 181 9z m-243 -65 c13 -66 3 -73 -104 -71 -99 2 -120 14 -120 69 0 46
17 53 120 50 l95 -3 9 -45z m3479 -29 c2 -6 -19 -37 -47 -71 -28 -33 -62 -83
-76 -112 -23 -50 -52 -68 -67 -43 -8 13 65 165 99 206 27 32 83 45 91 20z
m-146 -26 c2 -17 -8 -38 -30 -62 -19 -20 -42 -61 -52 -90 -17 -47 -22 -53 -54
-55 -59 -5 -68 9 -40 62 13 25 37 63 54 84 16 21 30 43 30 50 0 14 53 43 74
40 8 -1 17 -14 18 -29z m276 18 c0 -7 -19 -42 -42 -78 -24 -36 -42 -68 -42
-73 0 -5 -14 -24 -31 -43 -37 -40 -95 -48 -95 -13 0 11 4 23 10 27 6 3 17 21
25 40 8 18 24 43 34 54 11 12 31 39 45 61 20 33 29 39 60 39 22 0 36 -5 36
-14z m88 -2 c22 -23 21 -31 -11 -65 -15 -16 -46 -59 -69 -95 -41 -62 -62 -75
-60 -36 1 27 102 212 116 212 4 0 15 -7 24 -16z m-503 -5 c4 -6 -12 -36 -34
-66 -23 -30 -52 -77 -65 -105 -23 -48 -53 -65 -69 -39 -8 12 49 135 82 179 28
37 72 53 86 31z m-116 -10 c6 -10 -1 -22 -39 -64 -10 -11 -21 -31 -24 -44 -8
-33 -45 -57 -54 -34 -6 17 -3 26 28 73 11 18 25 42 31 55 11 24 46 33 58 14z
m-3079 -63 c10 -1 10 -86 0 -102 -8 -12 -170 -11 -191 1 -17 11 -33 82 -21 96
8 10 147 14 212 5z m258 -3 c7 -7 13 -29 13 -50 0 -55 -15 -63 -105 -63 -49 0
-85 5 -93 13 -17 16 -16 99 1 106 27 11 172 7 184 -6z m3457 -80 c0 -38 -24
-70 -46 -61 -24 9 -22 33 5 70 26 35 41 32 41 -9z m-2431 -159 c0 -8 -6 -16
-13 -18 -8 -3 -13 4 -13 18 0 14 5 21 13 18 7 -2 13 -10 13 -18z m4237 -28 c0
-36 -26 -66 -62 -73 -59 -11 -81 18 -59 78 6 18 121 13 121 -5z m82 -28 c3
-30 -17 -46 -46 -34 -15 5 -15 9 2 38 22 37 39 35 44 -4z m237 26 c3 -5 -3
-26 -13 -47 -12 -27 -22 -37 -33 -33 -50 20 -75 17 -111 -10 -43 -33 -61 -28
-47 11 6 14 11 40 11 56 l0 30 93 1 c52 0 97 -3 100 -8z m802 -27 c5 -25 -24
-54 -90 -89 l-56 -31 -12 25 c-10 23 -19 26 -81 28 -127 4 -135 3 -170 -32
-55 -54 -86 -35 -40 23 12 15 23 39 24 52 6 49 7 49 220 45 179 -3 202 -6 205
-21z m-5024 -33 c-9 -23 -23 -18 -17 6 3 11 9 18 14 15 5 -3 6 -12 3 -21z
m4557 20 c8 -8 -12 -45 -25 -45 -5 0 -10 11 -10 26 0 24 19 35 35 19z m-4392
-34 c0 -5 -8 -12 -16 -15 -16 -6 -22 5 -9 18 10 10 25 8 25 -3z m3948 -48 c0
-15 -19 -32 -28 -24 -7 8 7 40 18 40 5 0 10 -7 10 -16z m577 -5 c0 -6 -7 -11
-16 -11 -8 0 -15 5 -15 11 0 5 7 10 15 10 9 0 16 -5 16 -10z m1580 -11 c4 -6
-1 -14 -10 -17 -20 -8 -31 1 -22 16 9 14 24 15 32 1z m-1469 -22 c10 -16 -12
-35 -31 -27 -10 4 -14 13 -10 22 7 19 31 22 41 5z m162 -4 c0 -9 -7 -16 -16
-16 -27 0 -18 21 13 31 2 0 3 -7 3 -15z"/>
<path d="M9153 1396 c-10 -6 -18 -16 -18 -22 0 -7 -14 -35 -31 -63 -18 -28
-32 -60 -32 -70 0 -10 -7 -28 -16 -39 -83 -109 -92 -124 -82 -140 10 -15 43
-18 244 -20 228 -3 232 -3 232 19 0 11 -6 23 -13 26 -8 3 -73 2 -145 -3 -190
-12 -266 3 -229 47 8 10 31 49 50 87 19 37 49 80 66 95 51 45 30 115 -26 83z"/>
<path d="M2159 1107 c-10 -9 -17 -25 -17 -35 0 -10 -12 -29 -26 -43 -25 -23
-27 -23 -46 -7 -26 24 -67 22 -119 -4 -44 -23 -60 -17 -61 20 0 9 -9 13 -25
10 -16 -3 -29 1 -37 14 -15 25 -46 25 -69 -1 -11 -12 -26 -21 -33 -21 -8 0
-14 -5 -14 -11 0 -25 -29 -7 -38 24 -14 49 -42 49 -57 0 -17 -52 -29 -66 -72
-84 -25 -11 -39 -12 -47 -4 -18 18 -47 13 -54 -9 -11 -33 2 -42 58 -42 66 0
96 14 119 57 19 34 20 35 83 31 l65 -3 -3 -38 c-2 -21 1 -37 8 -37 6 0 11 10
11 22 0 31 31 85 45 80 7 -2 18 -20 25 -40 11 -32 16 -36 51 -36 45 0 60 -20
31 -41 -28 -20 -3 -58 37 -58 26 0 34 6 50 44 27 61 47 76 75 59 18 -11 24
-10 43 6 21 20 22 20 54 -13 35 -36 72 -43 93 -18 15 19 5 37 -22 37 -11 0
-20 5 -20 11 0 6 -12 23 -27 38 -24 24 -26 30 -14 52 10 19 10 27 -1 40 -17
21 -26 21 -46 0z"/>
<path d="M1901 1081 c0 -6 4 -8 10 -5 6 4 11 9 11 11 0 3 -5 5 -11 5 -6 0 -10
-5 -10 -11z"/>
<path d="M8474 968 c-27 -8 -63 -47 -63 -65 0 -20 26 -45 56 -56 24 -9 80 39
80 67 0 28 -47 63 -73 54z"/>
<path d="M4630 591 c-54 -38 -104 -121 -104 -177 -1 -61 15 -70 164 -95 28 -5
36 -1 57 26 29 40 39 41 47 7 4 -15 10 -27 14 -28 36 -6 124 -4 134 4 17 13
35 1 35 -24 0 -30 23 -25 47 11 24 35 35 39 43 16 16 -52 12 -50 56 -26 39 22
41 22 68 4 28 -17 30 -17 58 4 32 23 43 21 43 -10 0 -29 24 -23 47 12 38 57
73 51 96 -16 17 -51 5 -68 -47 -66 -48 2 -77 -13 -107 -55 -21 -29 -22 -36 -9
-59 21 -40 45 -48 94 -33 47 13 82 55 125 150 13 29 36 77 51 107 15 30 24 58
20 62 -4 4 -24 7 -44 7 -20 -1 -39 3 -42 8 -4 6 -16 6 -30 1 -13 -5 -45 -7
-71 -4 -43 5 -52 2 -85 -27 -46 -40 -76 -44 -66 -9 13 46 43 76 80 79 51 5 62
20 31 44 -22 16 -24 22 -13 35 14 17 8 39 -11 39 -6 0 -30 -17 -52 -37 -22
-20 -52 -37 -65 -37 -35 0 -40 -10 -21 -42 15 -26 15 -30 -2 -56 -23 -35 -44
-36 -60 -1 -10 22 -17 25 -40 20 -16 -3 -32 -1 -36 5 -12 19 -35 12 -74 -22
-39 -34 -61 -33 -39 1 19 30 -37 69 -85 59 -42 -9 -56 -9 -98 0 -34 7 -46 -1
-96 -63 -7 -9 -20 -16 -29 -16 -21 0 -42 47 -28 65 5 7 13 26 17 41 8 34 39
47 68 29 43 -27 73 33 35 68 -25 22 -43 22 -76 -1z m95 -197 c0 -9 -7 -16 -16
-16 -8 0 -15 7 -15 16 0 8 7 16 15 16 9 0 16 -8 16 -16z m656 -235 c-34 -22
-55 -19 -36 5 7 8 25 14 40 14 l28 0 -32 -19z"/>
<path d="M3360 589 c0 -5 -31 -40 -68 -78 -72 -71 -82 -99 -56 -147 24 -45 83
-65 111 -37 8 8 18 7 35 -6 34 -23 40 -21 53 14 14 41 39 50 59 21 12 -17 23
-21 46 -16 22 4 40 0 61 -16 33 -24 60 -17 88 23 14 21 17 21 46 6 21 -11 35
-12 49 -4 10 5 32 8 48 4 25 -5 36 2 73 43 32 36 47 46 55 37 16 -16 3 -45
-23 -52 -13 -3 -20 -13 -18 -23 2 -13 14 -16 50 -15 173 6 191 5 209 -11 23
-21 42 -21 65 0 18 16 21 15 47 -5 33 -26 70 -29 88 -7 17 20 -3 58 -31 58
-42 0 -38 16 39 142 24 39 26 47 20 63 -10 25 -49 -1 -86 -56 -50 -76 -165
-144 -147 -87 4 11 -2 29 -12 43 l-19 23 -47 -48 c-25 -26 -50 -45 -54 -42 -5
3 -9 22 -9 42 0 42 -21 55 -58 35 -15 -7 -38 -10 -58 -6 -29 6 -39 1 -74 -36
-23 -23 -46 -41 -51 -41 -21 0 -10 26 21 52 17 14 31 31 31 38 0 6 7 18 16 25
20 17 20 62 0 70 -22 8 -104 -67 -116 -106 -14 -43 -42 -59 -61 -33 -13 18
-16 18 -48 1 -18 -9 -36 -24 -39 -32 -4 -9 -13 -15 -22 -15 -11 0 -13 7 -8 31
8 38 -9 48 -54 30 -16 -7 -40 -11 -51 -10 -12 1 -47 -18 -77 -41 -61 -46 -100
-52 -105 -16 -5 34 35 69 77 69 37 0 48 16 26 38 -12 11 -4 46 11 46 5 0 12
-5 15 -11 9 -13 44 -14 52 0 15 22 -20 53 -60 53 -21 0 -39 -5 -39 -10z m536
-135 c0 -11 -23 -34 -34 -34 -5 0 -4 9 2 21 11 21 32 29 32 13z m222 -36 c-8
-8 -12 -8 -12 -2 0 14 12 27 19 20 3 -3 0 -11 -7 -18z m-443 -19 c0 -14 -30
-26 -40 -16 -3 3 0 11 9 16 20 13 31 13 31 0z m578 -15 c-8 -9 -18 -16 -24
-16 -6 0 -3 9 8 21 22 24 36 19 16 -5z"/>
</g>
</svg>
