<?xml version="1.0" encoding="utf-8"?>
<svg xmlns="http://www.w3.org/2000/svg" preserveAspectRatio="xMidYMid meet" version="1.0" viewBox="0 0 456 261">
	<title>Sketch plan of part of a house. Downstairs a room is marked Professor’s Study and an X marks the spot where Smith’s body was found. At the end of one corridor stairs lead up to the Professor’s bedroom. Another corridor leads to the back door and garden path.</title>
	<g fill="#000000" stroke="none" transform="translate(-3.600000,265.198135) rotate(-360.00) scale(0.022857,-0.022857)">
		<path d="M16009 11583 c-20 -21 -26 -159 -7 -159 6 0 11 -40 11 -99 0 -55 -5 -102 -11 -106 -6 -3 -10 -46 -10 -94 0 -49 4 -91 10 -95 6 -4 11 -87 11 -215 0 -128 4 -211 10 -215 6 -4 11 -23 11 -42 0 -20 -5 -39 -11 -42 -6 -4 -10 -39 -10 -79 0 -40 4 -75 10 -79 6 -3 11 -36 11 -73 0 -37 -5 -70 -11 -74 -13 -8 -14 -81 -1 -95 6 -6 13 -449 16 -1054 5 -640 11 -1047 17 -1049 13 -4 13 -141 0 -154 -5 -6 -11 -52 -13 -104 -2 -63 -8 -95 -16 -98 -8 -2 -13 -16 -13 -30 0 -14 -5 -25 -10 -25 -5 0 -12 -19 -16 -42 -3 -23 -11 -42 -16 -42 -5 0 -12 -14 -16 -31 -4 -18 -10 -32 -15 -32 -4 0 -16 -15 -27 -34 -11 -19 -28 -40 -38 -47 -10 -7 -21 -26 -25 -42 -4 -15 -22 -43 -41 -61 -19 -18 -41 -43 -47 -55 -7 -13 -17 -23 -22 -23 -12 0 -84 -68 -85 -80 -1 -18 -40 -57 -56 -57 -9 0 -17 -5 -17 -10 0 -6 -7 -11 -14 -11 -8 0 -20 -7 -27 -15 -7 -8 -25 -18 -40 -21 -15 -4 -35 -16 -44 -26 -9 -10 -24 -21 -32 -25 -9 -4 -30 -17 -48 -29 -17 -11 -38 -23 -47 -27 -9 -3 -29 -12 -45 -18 -16 -7 -28 -16 -28 -20 0 -4 -6 -8 -14 -8 -7 0 -31 -9 -52 -21 -22 -12 -49 -21 -60 -21 -12 0 -21 -5 -21 -10 0 -6 -12 -11 -26 -11 -14 0 -29 -5 -32 -10 -4 -6 -15 -11 -24 -11 -10 0 -32 -7 -48 -16 -18 -9 -58 -16 -95 -15 -38 0 -71 -6 -78 -14 -10 -10 -120 -14 -456 -16 -328 -2 -445 -7 -451 -16 -6 -9 -8 -9 -8 1 0 9 -18 13 -53 13 -29 0 -52 -5 -52 -10 0 -6 -17 -11 -37 -11 -20 0 -37 5 -37 11 0 6 -63 10 -168 10 -105 0 -168 -4 -168 -10 0 -6 -28 -11 -63 -11 -35 0 -63 5 -63 11 0 13 -50 13 -54 0 -2 -6 -346 -13 -886 -17 -495 -4 -886 -11 -892 -16 -14 -14 -86 -12 -112 4 -18 10 -23 10 -27 0 -6 -18 -118 -19 -118 -1 0 10 -3 10 -13 0 -9 -9 -72 -13 -215 -12 -128 0 -203 -4 -203 -11 0 -6 -12 -10 -26 -10 -15 0 -26 4 -26 10 0 6 -39 11 -95 11 -56 0 -94 -5 -94 -11 0 -6 -8 -10 -16 -10 -9 0 -16 4 -16 10 0 6 -37 11 -90 11 -60 0 -95 4 -104 13 -11 11 -15 283 -20 1383 -4 754 -7 1449 -6 1546 0 115 -3 176 -11 176 -6 0 -10 9 -10 21 0 12 4 21 10 21 16 0 13 92 -3 98 -10 4 -10 6 0 6 16 1 19 75 3 75 -6 0 -10 9 -10 21 0 11 4 21 10 21 6 0 11 29 11 68 0 38 -5 68 -11 68 -6 0 -10 17 -10 37 0 20 4 37 10 37 6 0 11 16 11 36 0 20 -5 37 -11 37 -16 0 -14 197 3 202 10 4 9 9 -3 24 -12 14 -13 20 -3 23 15 5 19 66 4 66 -6 0 -12 15 -13 34 -7 64 14 62 -743 56 -501 -4 -690 -9 -701 -18 -11 -9 -18 -9 -27 0 -15 15 -99 16 -108 2 -3 -6 -20 -11 -37 -11 -17 0 -31 5 -31 11 0 16 -456 13 -485 -3 -17 -11 -23 -11 -26 0 -6 16 -167 18 -177 3 -3 -6 -15 -11 -27 -11 -11 0 -20 5 -20 11 0 6 -33 10 -79 10 -45 0 -78 -4 -78 -10 0 -6 -26 -11 -58 -11 -32 0 -58 5 -58 11 0 5 -19 10 -41 10 -23 0 -45 -5 -48 -10 -4 -7 -124 -11 -326 -11 -201 0 -321 4 -325 11 -4 5 -21 10 -38 10 -17 0 -30 -5 -30 -10 0 -7 -93 -11 -257 -11 -160 0 -259 -4 -263 -10 -9 -14 -58 -14 -58 0 0 14 -98 13 -113 -3 -10 -9 -16 -9 -26 0 -15 16 -67 17 -76 3 -9 -14 -170 -14 -179 0 -8 13 -47 13 -47 0 0 -6 -21 -11 -47 -11 -26 0 -47 5 -47 11 0 15 -71 12 -77 -3 -4 -11 -8 -11 -19 0 -10 10 -73 13 -240 13 -168 0 -231 -3 -241 -13 -11 -11 -15 -11 -19 0 -6 16 -150 18 -150 3 0 -7 -37 -11 -89 -11 -53 0 -89 4 -89 11 0 15 -145 13 -151 -3 -3 -11 -7 -11 -18 0 -18 16 -331 19 -341 3 -3 -6 -18 -11 -32 -11 -14 0 -25 5 -25 11 0 6 -35 10 -84 10 -70 0 -88 -3 -105 -21 -12 -12 -21 -27 -21 -34 0 -21 26 -50 45 -50 9 0 19 -5 23 -10 10 -17 1278 -15 1295 2 10 10 17 10 33 0 26 -16 363 -18 373 -2 11 17 38 11 59 -13 17 -19 20 -41 20 -162 l0 -140 30 0 c17 0 34 -5 38 -11 4 -8 154 -11 449 -10 244 1 468 -2 498 -6 30 -4 63 -4 73 0 11 4 63 7 117 6 102 -2 158 13 161 41 1 9 2 76 3 150 0 73 5 137 11 143 12 11 2908 22 2919 11 3 -4 6 -262 6 -575 0 -359 4 -570 10 -574 14 -8 14 -99 0 -99 -6 0 -10 -24 -10 -53 0 -29 4 -52 10 -52 7 0 11 -196 11 -567 0 -371 3 -567 10 -567 6 0 11 -26 11 -58 0 -32 -5 -58 -11 -58 -13 0 -14 -128 -1 -142 5 -6 12 -286 15 -624 4 -401 10 -617 17 -624 6 -6 11 -22 11 -35 0 -15 7 -24 18 -25 100 -6 851 5 858 12 14 13 69 13 69 0 0 -7 58 -11 152 -11 95 0 153 4 153 11 0 5 11 10 26 10 14 0 26 -5 26 -10 0 -6 30 -11 68 -11 39 0 69 5 69 11 0 6 56 10 147 10 91 0 147 -4 147 -10 0 -6 7 -11 15 -11 9 0 16 5 16 11 0 6 163 10 467 10 305 0 468 4 468 11 0 5 7 10 15 10 9 0 16 -5 16 -10 0 -7 129 -11 367 -11 233 0 369 4 373 11 9 14 45 13 52 -3 5 -11 7 -11 12 0 8 16 309 19 309 3 0 -14 50 -14 54 -1 2 6 131 11 315 13 288 3 313 2 323 -15 9 -14 8 -24 -1 -39 -11 -17 -11 -26 -1 -42 17 -27 17 -129 1 -146 -11 -10 -11 -17 0 -33 7 -11 13 -51 13 -89 0 -38 4 -68 9 -68 5 0 12 -74 16 -165 10 -206 17 -196 -147 -201 -66 -2 -120 -8 -120 -13 0 -6 -167 -10 -403 -10 -314 0 -405 -3 -409 -13 -3 -11 -7 -11 -18 0 -17 15 -115 18 -115 3 0 -6 -28 -11 -62 -11 -35 0 -66 5 -69 11 -9 13 -58 13 -58 0 0 -7 -42 -11 -104 -11 -59 0 -108 5 -111 11 -8 13 -61 13 -74 0 -6 -5 -577 -12 -1407 -17 l-1396 -7 -30 -25 c-16 -14 -34 -25 -39 -25 -15 0 -12 -141 3 -155 9 -10 9 -13 0 -13 -16 0 -18 -107 -2 -122 8 -8 12 -454 13 -1444 l2 -1432 -29 -3 c-16 -2 -28 -7 -28 -12 0 -5 -36 -13 -79 -17 -44 -4 -79 -11 -79 -16 0 -5 -19 -10 -41 -10 -23 0 -44 -4 -47 -9 -3 -5 -27 -11 -53 -15 -26 -4 -57 -11 -69 -17 -11 -6 -31 -16 -43 -22 -12 -6 -46 -14 -76 -17 -30 -4 -59 -10 -65 -15 -6 -4 -49 -11 -95 -15 -76 -7 -89 -11 -114 -38 -35 -37 -31 -71 12 -90 31 -15 77 -18 77 -6 0 13 52 32 103 38 26 3 49 10 53 15 3 6 34 12 69 15 34 3 64 11 66 17 5 14 87 17 87 4 0 -15 -46 -52 -74 -60 -14 -4 -29 -11 -31 -15 -11 -13 -119 -63 -137 -63 -11 0 -24 -7 -28 -14 -9 -14 -77 -50 -95 -50 -15 1 -66 -25 -66 -33 0 -4 -14 -10 -31 -14 -18 -4 -34 -11 -38 -16 -3 -6 -13 -10 -21 -10 -21 0 -99 -35 -99 -44 0 -4 -17 -15 -37 -24 -20 -9 -53 -23 -72 -32 -20 -8 -41 -16 -47 -16 -7 0 -12 -3 -12 -8 0 -8 -77 -44 -95 -44 -5 0 -10 -5 -10 -10 0 -6 -5 -11 -10 -11 -17 0 -95 -36 -95 -44 0 -4 -14 -10 -31 -14 -18 -4 -32 -11 -32 -16 0 -6 -9 -10 -19 -10 -26 0 -86 -30 -86 -43 0 -5 -5 -10 -10 -10 -18 0 -95 -36 -95 -44 0 -4 -19 -11 -42 -14 -23 -4 -42 -11 -42 -16 0 -5 -5 -10 -12 -10 -18 0 -86 -34 -108 -54 -11 -11 -26 -19 -33 -19 -8 0 -20 -6 -28 -14 -7 -8 -31 -18 -53 -22 -21 -4 -39 -11 -39 -17 0 -5 -9 -10 -20 -10 -11 0 -22 -7 -26 -16 -3 -8 -18 -15 -32 -15 -15 0 -27 -5 -27 -11 0 -6 -5 -11 -10 -11 -18 0 -95 -36 -95 -44 0 -4 -11 -8 -25 -8 -14 0 -40 -12 -56 -26 -17 -14 -43 -28 -59 -32 -15 -4 -28 -11 -28 -17 0 -5 -5 -9 -12 -9 -14 0 -86 -33 -93 -43 -3 -4 -25 -10 -49 -14 -24 -4 -52 -16 -61 -27 -10 -11 -32 -23 -49 -26 -16 -4 -30 -12 -30 -17 0 -5 -7 -9 -16 -9 -8 0 -15 -5 -15 -10 0 -5 -18 -12 -40 -17 -21 -4 -42 -10 -44 -14 -8 -10 -43 -31 -87 -51 -22 -10 -39 -22 -39 -26 -1 -4 -15 -10 -32 -14 -17 -4 -34 -11 -37 -16 -4 -6 -13 -10 -21 -10 -22 0 -100 -35 -99 -44 0 -5 -6 -9 -14 -9 -7 0 -41 -14 -76 -31 -34 -17 -71 -31 -81 -31 -10 0 -18 -5 -18 -11 0 -6 -12 -11 -26 -11 -15 0 -34 -11 -47 -26 -12 -16 -36 -30 -58 -33 -21 -4 -38 -10 -37 -15 0 -5 -7 -9 -15 -9 -8 0 -20 -8 -27 -16 -8 -9 -24 -16 -36 -16 -13 0 -30 -9 -38 -21 -8 -11 -28 -23 -44 -27 -16 -3 -30 -11 -30 -16 1 -5 -10 -9 -24 -9 -13 0 -35 -12 -49 -26 -13 -15 -28 -24 -32 -21 -5 3 -12 0 -15 -6 -4 -6 -21 -10 -38 -10 -17 0 -30 -4 -30 -9 0 -5 -19 -18 -42 -29 -23 -11 -42 -23 -42 -27 0 -3 -18 -9 -40 -13 -22 -3 -46 -15 -55 -27 -8 -12 -20 -22 -26 -22 -6 0 -23 -6 -38 -14 -15 -7 -41 -17 -57 -21 -17 -5 -41 -17 -52 -27 -12 -11 -33 -22 -47 -26 -43 -12 -85 -32 -84 -39 0 -4 -15 -10 -32 -14 -17 -4 -32 -12 -31 -17 0 -5 -10 -9 -21 -9 -12 0 -21 -5 -21 -10 -1 -5 -15 -13 -32 -17 -17 -4 -32 -11 -31 -16 0 -6 -10 -10 -21 -10 -28 0 -64 -31 -63 -56 0 -19 6 -20 66 -15 59 5 78 10 133 41 41 23 105 51 115 51 6 0 11 5 11 11 0 5 7 10 16 10 8 0 16 4 15 10 0 5 16 13 35 17 18 4 36 10 39 14 3 4 31 19 63 35 113 53 132 62 158 77 14 8 37 15 51 15 14 0 32 9 42 19 9 11 29 24 43 28 14 5 29 11 32 15 2 4 23 17 45 28 76 38 80 41 81 49 0 4 18 11 42 14 23 4 42 11 42 16 0 4 14 11 31 15 17 4 32 10 32 14 -1 8 77 43 94 43 6 0 11 4 10 9 0 8 76 44 98 45 7 0 27 10 44 21 18 11 40 23 50 27 10 3 19 10 19 15 0 5 13 10 30 10 17 0 38 7 47 15 8 9 25 16 37 16 12 0 22 4 22 9 0 6 12 13 26 16 15 4 27 12 27 17 0 6 11 11 26 11 14 0 26 4 26 9 0 5 14 13 32 17 17 4 31 11 31 16 0 6 5 10 12 10 13 0 85 33 93 42 3 4 12 10 21 14 9 4 30 16 47 27 18 11 39 21 48 22 8 0 34 10 57 21 23 11 48 20 55 21 8 0 14 5 14 11 0 5 7 10 15 10 9 0 16 4 16 9 0 6 12 13 26 16 15 4 27 12 27 17 0 6 11 11 26 11 14 0 26 4 26 10 0 6 5 11 10 11 18 0 95 36 95 44 0 4 11 8 25 8 14 0 31 7 38 16 7 8 22 16 32 16 11 0 22 4 26 10 3 5 23 18 45 27 21 9 46 21 55 26 8 6 22 13 31 16 9 4 31 13 49 21 18 8 38 15 44 15 7 0 12 4 12 10 0 5 14 12 31 16 18 4 38 16 45 26 7 10 31 22 53 26 21 4 39 11 39 17 0 5 9 10 21 10 12 0 21 4 21 9 0 5 19 12 42 16 23 4 42 10 42 14 0 5 19 17 42 28 23 11 42 24 42 29 0 5 5 9 10 9 17 0 95 36 95 44 0 4 14 10 31 14 18 4 32 10 32 14 0 8 46 28 89 38 17 4 34 11 37 15 7 11 141 75 156 75 6 0 12 3 12 8 0 8 77 44 95 44 5 0 10 4 10 8 0 8 77 44 95 44 5 0 10 5 10 10 0 5 14 13 31 17 18 4 32 10 32 14 0 8 78 43 95 43 5 0 10 4 10 9 0 4 19 16 42 26 23 10 42 23 42 28 0 6 11 11 24 11 13 1 32 8 44 16 11 9 29 16 39 16 10 0 19 4 19 9 0 5 14 13 31 17 18 4 32 11 32 16 0 6 10 10 21 10 19 0 67 24 84 42 12 12 50 29 81 36 18 4 39 14 46 22 6 9 18 16 25 16 22 0 219 105 238 128 12 14 20 38 20 67 0 24 4 48 10 51 6 4 11 63 11 143 0 83 -5 136 -11 136 -6 0 -10 25 -10 57 0 32 4 58 10 58 14 0 14 186 0 194 -14 9 -14 132 0 132 7 0 11 113 11 320 0 206 -4 320 -11 320 -17 0 -14 385 3 392 9 4 10 8 1 14 -9 6 -15 175 -21 618 -8 628 -8 677 2 687 4 3 765 7 1693 9 1010 1 1696 6 1708 12 12 5 249 12 530 14 375 3 510 7 513 16 2 7 21 13 43 13 21 0 43 4 49 9 5 5 59 11 119 14 73 2 111 8 114 16 3 9 29 13 75 13 55 0 82 6 118 25 25 13 70 27 100 30 30 4 64 12 76 18 12 6 31 16 43 22 11 5 37 10 58 10 23 0 39 6 43 16 4 9 20 16 42 16 19 0 36 4 36 9 0 5 18 12 42 16 23 3 42 10 42 14 0 8 76 45 94 45 6 0 11 3 11 8 0 8 4 11 97 57 32 16 64 36 71 45 7 9 19 16 27 16 9 0 18 6 21 15 3 8 19 18 35 21 16 4 40 18 54 32 13 14 28 26 33 26 5 0 21 12 35 26 15 15 31 26 36 26 14 0 178 170 185 192 3 10 12 19 20 19 9 0 16 4 16 10 0 6 33 43 73 83 40 40 74 77 74 82 0 6 12 21 26 35 15 14 34 40 42 57 9 18 27 44 41 60 15 15 29 40 33 55 4 15 11 27 15 27 5 0 12 11 17 24 4 13 16 31 27 40 10 10 19 30 19 45 0 16 11 37 26 50 14 12 28 36 32 52 4 17 11 31 16 31 6 0 10 8 10 19 0 11 12 42 26 69 15 27 27 54 27 60 0 14 33 86 42 93 4 3 11 30 15 60 4 31 12 56 17 56 5 0 10 9 10 21 0 21 23 65 51 94 12 13 174 15 1160 19 654 3 1147 8 1149 14 5 13 44 11 44 -1 0 -6 19 -11 42 -11 23 0 42 5 42 11 0 5 19 10 42 10 23 0 42 -5 42 -10 0 -6 12 -11 26 -11 15 0 27 5 27 11 0 6 75 10 204 10 113 0 205 4 205 9 0 6 12 13 26 16 23 6 27 13 27 49 0 23 -8 50 -18 62 -17 19 -28 20 -176 14 -87 -3 -163 -10 -168 -15 -6 -5 -68 -9 -139 -9 -70 0 -131 -4 -134 -9 -3 -5 -330 -12 -726 -16 -481 -4 -726 -10 -735 -18 -9 -7 -20 -7 -35 3 -17 10 -26 11 -42 1 -27 -17 -1065 -22 -1085 -5 -8 6 -34 15 -58 19 -25 4 -44 11 -44 16 0 5 -12 9 -27 9 -14 0 -26 4 -26 10 0 5 -25 12 -55 17 -30 4 -62 11 -71 15 -46 24 -95 42 -114 42 -13 0 -22 5 -22 11 0 5 -10 10 -21 10 -11 0 -23 4 -26 9 -3 5 -32 13 -64 17 -31 4 -57 11 -57 15 0 4 -23 12 -50 18 -91 18 -85 -42 -86 888 -1 642 -4 816 -14 820 -11 4 -11 8 0 19 17 18 17 85 0 102 -10 11 -10 15 2 23 11 7 12 12 3 23 -8 10 -14 263 -19 859 -4 469 -11 850 -16 855 -13 14 -12 77 1 81 7 3 6 14 -2 33 -12 24 -20 28 -57 28 -28 0 -49 -6 -60 -19z m-10013 -1009 c0 -15 98 -14 113 1 9 10 18 9 39 -1 20 -11 29 -12 39 -2 15 15 166 17 166 2 0 -14 181 -14 195 0 7 7 98 9 251 8 l241 -3 3 -101 c3 -84 0 -103 -15 -116 -14 -12 -93 -15 -423 -16 -222 -1 -417 -3 -431 -4 -14 -1 -83 1 -152 4 l-126 5 -9 81 c-10 86 0 131 30 131 8 0 16 5 16 11 0 5 14 10 31 10 17 0 32 -5 32 -10z m10242 -2782 c3 -6 27 -13 53 -17 25 -4 52 -14 58 -22 7 -8 24 -14 38 -14 13 0 25 -5 25 -11 0 -6 11 -10 26 -10 14 0 26 -5 26 -10 0 -5 24 -11 54 -14 29 -3 56 -10 60 -15 4 -6 29 -14 56 -17 28 -4 60 -12 71 -18 12 -6 30 -15 40 -20 11 -5 44 -12 74 -16 30 -5 55 -12 55 -17 0 -6 7 -10 15 -10 9 0 16 -5 16 -10 0 -6 11 -11 24 -11 13 0 30 -6 37 -13 14 -13 17 -60 5 -60 -9 0 -27 -39 -40 -82 -4 -16 -15 -23 -32 -23 -14 0 -25 4 -25 9 0 5 -12 12 -27 16 -14 3 -26 11 -26 17 0 5 -7 10 -14 10 -8 0 -21 7 -28 16 -7 8 -24 16 -37 16 -13 0 -26 3 -28 8 -6 14 -117 63 -158 70 -22 4 -39 11 -39 16 0 6 -10 11 -21 11 -12 0 -21 4 -21 9 0 5 -19 13 -42 17 -24 4 -42 11 -42 16 0 6 -12 10 -27 10 -14 0 -26 5 -26 11 0 5 -12 10 -27 10 -14 0 -29 7 -32 16 -4 8 -11 16 -17 16 -17 0 -85 34 -107 54 -17 16 -18 23 -8 45 9 21 20 27 48 27 20 0 40 -5 43 -10z m-52 -169 c3 -6 15 -10 26 -10 11 0 26 -7 33 -14 19 -18 87 -49 107 -49 9 0 19 -5 23 -11 3 -6 15 -10 25 -10 11 0 25 -8 33 -16 7 -9 29 -16 48 -16 20 0 36 -5 36 -10 0 -6 17 -18 39 -28 22 -10 42 -22 45 -26 2 -3 23 -10 45 -14 39 -7 79 -24 91 -39 3 -3 23 -9 44 -13 22 -4 52 -14 67 -22 29 -15 61 -65 47 -73 -4 -3 -11 -20 -15 -38 -7 -34 -29 -62 -48 -62 -6 0 -11 4 -11 10 0 6 -14 11 -30 11 -17 0 -36 7 -43 15 -8 9 -19 16 -26 16 -7 0 -22 9 -32 21 -11 12 -27 21 -37 21 -10 0 -24 7 -31 16 -8 8 -20 16 -28 16 -8 0 -14 4 -14 9 0 5 -15 13 -32 17 -17 4 -31 10 -31 15 0 5 -16 11 -35 15 -41 9 -91 30 -91 40 0 4 -42 27 -92 52 -51 25 -95 48 -97 52 -3 4 -17 10 -30 14 -55 17 -77 57 -59 105 7 18 62 23 73 6z m-84 -157 c3 -6 14 -11 24 -11 10 0 30 -7 44 -15 14 -9 44 -24 66 -34 21 -11 39 -23 39 -27 0 -4 7 -8 14 -8 8 0 21 -7 27 -15 7 -8 28 -18 46 -22 32 -7 70 -25 81 -37 3 -4 21 -15 39 -26 19 -11 35 -23 35 -27 0 -5 14 -11 32 -15 17 -4 45 -14 60 -22 16 -8 32 -14 38 -14 5 0 16 -9 26 -20 9 -10 35 -22 58 -26 23 -3 53 -17 66 -31 23 -23 24 -26 9 -55 -9 -17 -16 -38 -16 -46 -1 -20 -42 -64 -61 -64 -13 0 -32 13 -94 63 -7 6 -18 11 -24 11 -6 0 -21 11 -33 25 -12 14 -35 29 -50 32 -16 3 -37 18 -47 32 -11 14 -29 26 -40 26 -11 0 -33 12 -48 26 -16 15 -35 27 -42 27 -8 0 -27 11 -42 26 -16 14 -34 26 -42 26 -7 0 -13 5 -13 11 0 5 -11 10 -25 10 -13 0 -33 10 -44 22 -11 13 -34 29 -52 38 -70 32 -94 52 -98 79 -5 42 48 90 67 61z m-58 -163 c7 -9 20 -16 28 -16 7 0 14 -5 14 -10 0 -6 12 -14 26 -17 15 -4 27 -11 27 -16 0 -5 6 -9 14 -9 7 0 22 -10 33 -21 10 -12 24 -21 31 -21 6 0 18 -10 27 -21 8 -12 24 -21 35 -21 11 0 37 -15 58 -32 21 -18 43 -36 49 -40 38 -26 54 -35 70 -40 10 -4 19 -11 19 -16 0 -5 9 -9 20 -9 11 0 36 -13 55 -29 41 -34 77 -55 94 -55 40 0 70 -78 35 -91 -8 -3 -15 -12 -15 -20 0 -8 -13 -26 -28 -42 -33 -32 -69 -28 -103 12 -13 14 -30 26 -39 26 -10 0 -20 7 -23 15 -4 9 -13 16 -20 16 -8 0 -34 21 -58 47 -25 26 -49 48 -55 48 -6 0 -24 14 -40 31 -17 17 -35 32 -41 32 -5 0 -21 11 -34 26 -14 14 -30 26 -35 26 -6 0 -25 16 -44 35 -18 20 -43 39 -56 43 -13 4 -23 11 -23 16 0 5 -8 11 -18 15 -27 9 -55 28 -91 62 l-30 30 29 31 c33 33 69 39 89 15z m-122 -137 c8 -8 20 -15 24 -15 5 0 33 -24 62 -53 28 -29 57 -52 63 -52 6 0 25 -15 41 -32 17 -17 34 -31 39 -31 4 0 26 -19 48 -42 21 -24 44 -42 51 -42 6 0 20 -10 30 -21 11 -12 26 -21 34 -21 8 0 17 -8 20 -16 4 -9 12 -16 19 -16 7 0 27 -14 44 -31 16 -17 35 -32 41 -32 6 0 34 -23 62 -52 l51 -51 -48 -48 c-26 -27 -56 -48 -67 -48 -19 0 -150 118 -150 135 0 13 -39 54 -52 54 -6 0 -11 7 -11 15 0 9 -8 16 -16 16 -9 0 -16 5 -16 11 0 6 -7 14 -17 17 -9 4 -74 65 -144 136 -81 83 -138 132 -156 136 -23 5 -29 12 -29 33 0 30 26 66 48 66 7 0 20 -7 29 -16z m-77 -136 c9 -18 28 -37 41 -44 30 -15 105 -88 106 -103 0 -14 94 -104 118 -114 10 -3 21 -15 25 -25 8 -21 31 -44 62 -62 11 -6 26 -22 32 -34 13 -26 41 -53 73 -71 11 -6 25 -21 31 -34 5 -12 16 -22 23 -22 8 0 14 -13 14 -29 0 -29 -27 -66 -47 -66 -7 0 -19 -9 -27 -21 -8 -12 -22 -21 -31 -21 -16 0 -116 96 -116 112 0 5 -15 23 -32 39 -17 17 -31 37 -31 45 0 8 -5 14 -10 14 -6 0 -11 7 -11 16 0 8 -5 16 -11 16 -14 0 -41 26 -41 39 0 5 -15 23 -32 39 -17 17 -32 35 -32 42 0 6 -35 45 -78 88 -44 42 -79 81 -79 86 0 5 -14 24 -31 42 -18 17 -32 35 -32 39 0 3 13 20 29 36 35 37 63 35 87 -7z m-154 -96 c10 -3 17 -12 17 -19 0 -7 14 -26 32 -43 17 -16 31 -35 31 -41 0 -6 19 -29 42 -51 23 -21 42 -45 42 -51 0 -7 17 -26 37 -43 20 -18 37 -37 37 -44 0 -7 14 -26 31 -43 17 -16 32 -35 32 -41 0 -6 16 -27 36 -47 21 -19 37 -42 37 -50 0 -8 7 -14 15 -14 27 0 101 -83 101 -113 0 -29 -57 -97 -81 -97 -8 0 -14 -5 -14 -10 0 -6 -15 -11 -34 -11 -29 0 -38 6 -55 37 -10 20 -23 37 -27 37 -5 0 -11 14 -15 31 -4 17 -11 32 -15 32 -4 0 -18 20 -30 45 -13 25 -33 54 -44 65 -12 10 -21 25 -21 33 0 8 -5 14 -11 14 -6 0 -10 7 -10 16 0 9 -12 26 -27 38 -14 13 -26 28 -26 35 0 6 -9 19 -21 29 -12 10 -21 27 -21 38 0 10 -12 30 -26 44 -15 13 -26 29 -26 36 0 6 -10 18 -21 27 -12 8 -21 20 -21 28 0 7 -12 23 -25 37 -35 33 -40 55 -18 73 32 28 67 36 99 23z m-139 -102 c10 -7 21 -26 25 -42 4 -15 11 -28 17 -28 5 0 9 -9 9 -21 0 -12 4 -21 8 -21 4 0 13 -9 18 -20 48 -94 61 -116 69 -116 6 0 10 -7 10 -14 0 -8 12 -25 26 -39 14 -13 29 -40 33 -59 3 -20 11 -35 16 -35 5 0 9 -10 9 -21 0 -12 4 -21 10 -21 9 0 17 -12 59 -94 10 -19 37 -53 60 -75 34 -33 40 -45 35 -67 -4 -15 -13 -27 -21 -27 -8 0 -20 -7 -27 -16 -8 -8 -25 -15 -39 -15 -13 0 -24 -5 -24 -11 0 -6 -10 -10 -22 -10 -23 0 -43 15 -55 42 -4 8 -20 36 -34 62 -14 25 -26 55 -26 65 0 11 -4 20 -9 20 -5 0 -18 18 -29 41 -11 23 -23 42 -28 42 -4 0 -7 12 -7 25 0 14 -8 31 -16 39 -9 7 -16 24 -16 38 0 13 -4 25 -10 25 -5 0 -12 14 -16 31 -4 17 -11 32 -16 32 -5 0 -12 13 -16 30 -3 17 -13 36 -21 43 -8 7 -25 34 -38 61 -13 27 -27 52 -31 55 -19 13 -13 59 11 86 27 31 58 36 86 15z m-170 -91 c4 -9 13 -26 20 -39 7 -13 12 -33 12 -45 0 -11 5 -21 11 -21 5 0 10 -7 10 -14 0 -8 7 -21 16 -28 8 -7 16 -22 16 -34 0 -21 27 -76 49 -100 8 -8 14 -21 14 -30 0 -8 4 -23 9 -33 18 -33 43 -95 43 -104 0 -5 9 -16 21 -24 12 -9 21 -27 21 -40 0 -13 7 -27 16 -30 8 -4 16 -11 16 -17 0 -14 33 -86 44 -93 5 -3 12 -23 15 -44 6 -37 5 -39 -24 -39 -17 0 -44 -7 -61 -16 -32 -17 -58 -7 -58 23 0 7 -5 14 -11 14 -6 0 -10 5 -10 10 0 18 -37 95 -45 95 -4 0 -8 12 -8 27 0 15 -7 44 -16 63 -8 20 -23 52 -31 72 -9 19 -16 41 -16 47 0 6 -5 12 -10 12 -6 0 -14 18 -17 42 -4 23 -10 42 -14 42 -8 0 -29 47 -38 86 -4 16 -12 32 -17 35 -5 3 -9 17 -9 31 0 14 -4 26 -10 26 -5 0 -12 14 -16 32 -4 17 -12 31 -17 31 -17 0 -10 31 14 58 25 30 69 32 81 5z m-131 -132 c4 -31 11 -57 17 -57 5 0 10 -11 10 -25 0 -14 7 -39 15 -55 9 -17 16 -43 16 -59 0 -16 5 -29 11 -29 5 0 10 -5 10 -10 0 -18 36 -95 44 -95 5 0 9 -10 9 -22 0 -11 11 -41 25 -66 13 -25 28 -60 32 -78 4 -18 11 -36 17 -39 5 -4 10 -14 10 -22 0 -9 7 -33 17 -54 22 -45 11 -66 -41 -81 -21 -6 -41 -14 -46 -19 -4 -4 -21 -7 -37 -7 -25 0 -30 4 -30 26 0 14 -4 26 -9 26 -5 0 -13 26 -17 58 -4 32 -11 58 -17 58 -5 0 -9 16 -9 36 0 20 -5 37 -10 37 -4 0 -12 30 -15 66 -4 36 -12 67 -18 69 -5 2 -10 18 -10 37 0 19 -7 43 -15 54 -9 12 -16 38 -16 60 0 22 -5 40 -10 40 -5 0 -13 14 -17 31 -4 17 -11 32 -16 32 -6 0 -10 9 -10 21 0 11 -5 21 -10 21 -15 0 -14 98 2 113 7 7 23 13 36 13 14 0 25 5 25 12 0 7 11 2 25 -11 17 -17 27 -41 32 -81z m-203 10 c11 -10 20 -29 20 -43 0 -13 4 -32 9 -43 22 -43 31 -74 37 -122 3 -28 10 -56 15 -63 5 -6 13 -34 17 -61 3 -27 11 -52 17 -56 5 -3 10 -29 10 -58 0 -28 4 -51 9 -51 5 0 12 -26 16 -56 5 -38 14 -61 28 -71 16 -12 20 -27 20 -75 l0 -61 -40 0 c-22 0 -44 -4 -50 -9 -18 -17 -65 -23 -75 -9 -6 7 -14 69 -18 139 -4 69 -12 128 -16 131 -5 3 -12 50 -16 105 -3 55 -10 109 -15 121 -5 11 -14 33 -20 47 -6 14 -14 57 -18 94 -4 38 -11 74 -17 81 -14 17 23 77 48 77 11 0 29 -8 39 -17z m-164 -29 c10 -10 16 -38 16 -82 0 -37 4 -72 10 -77 5 -6 13 -61 17 -123 4 -62 11 -113 15 -113 4 0 11 -33 15 -73 3 -41 11 -76 17 -80 5 -3 10 -19 10 -36 0 -17 4 -33 10 -37 6 -3 11 -41 11 -84 l0 -78 -42 0 c-23 0 -44 -5 -48 -11 -9 -15 -74 -13 -88 3 -7 10 -11 85 -12 215 0 110 -5 202 -10 204 -15 5 -24 355 -9 372 15 19 69 19 88 0z"/>
		<path d="M262 11569 c0 -4 -12 -10 -28 -13 -30 -7 -55 -45 -55 -82 0 -13 7 -18 26 -18 14 0 26 -5 26 -11 0 -7 494 -10 1460 -10 965 0 1459 3 1459 10 0 14 87 13 102 -1 8 -8 13 -8 18 0 9 14 48 15 48 1 0 -6 12 -10 26 -10 15 0 27 4 27 10 0 14 28 14 33 0 5 -15 4019 -15 4034 0 14 14 49 14 49 0 0 -6 28 -10 63 -10 35 0 63 4 63 10 0 16 215 13 243 -3 17 -10 23 -10 26 0 4 10 72 14 292 14 220 0 289 -4 293 -14 5 -10 8 -10 13 0 4 11 181 14 827 15 451 0 832 4 846 8 37 10 53 67 27 96 -19 20 -33 21 -442 21 -271 0 -426 -4 -430 -11 -3 -6 -17 -10 -31 -10 -14 0 -28 4 -32 10 -9 15 -76 13 -82 -3 -3 -10 -7 -10 -18 0 -18 17 -65 17 -81 1 -10 -10 -16 -10 -26 0 -16 16 -686 18 -696 2 -3 -6 -22 -10 -42 -10 -20 0 -36 4 -36 10 0 7 -102 11 -283 11 -178 0 -286 -4 -290 -11 -4 -7 -112 -10 -288 -10 -177 0 -285 3 -289 10 -9 13 -58 14 -58 0 0 -14 -517 -9 -527 5 -5 7 -15 6 -30 -3 -31 -19 -2068 -20 -2080 0 -6 10 -13 10 -33 -1 -24 -13 -1369 -12 -3601 1 -287 2 -523 0 -523 -4z"/>
		<path d="M2985 11192 c-6 -8 -14 -30 -18 -48 -4 -19 -14 -39 -22 -46 -9 -7 -15 -19 -15 -27 0 -8 -10 -20 -21 -27 -12 -8 -21 -19 -21 -25 0 -16 -37 -57 -52 -57 -6 0 -11 -7 -11 -15 0 -8 -6 -17 -14 -19 -9 -4 -5 -14 13 -33 19 -20 35 -27 65 -27 22 0 41 4 41 10 0 6 7 11 15 11 9 0 16 -5 16 -11 0 -13 47 -14 71 -1 36 19 95 43 106 43 7 0 12 5 12 11 0 5 7 10 16 10 8 0 16 5 16 11 0 15 26 42 41 42 6 0 11 -17 11 -37 0 -20 4 -37 9 -37 6 0 13 -12 16 -26 6 -25 11 -26 70 -26 35 0 63 4 63 10 0 6 11 11 26 11 15 0 26 6 26 14 0 16 33 49 51 49 6 0 12 -8 12 -16 0 -9 5 -16 11 -16 5 0 10 -6 10 -14 0 -8 9 -23 21 -33 30 -27 129 -14 165 22 24 24 28 25 44 10 10 -9 24 -16 31 -16 6 0 12 -6 12 -13 0 -17 72 53 79 77 4 12 17 20 32 20 14 0 26 4 26 9 0 5 10 12 23 15 35 9 54 44 37 70 -11 18 -24 21 -88 21 l-74 0 -20 -39 c-11 -22 -23 -42 -27 -45 -4 -3 -8 -14 -10 -25 -3 -11 -10 -22 -17 -25 -10 -3 -13 10 -13 43 0 40 -5 51 -34 76 -31 25 -39 27 -91 21 -40 -5 -62 -13 -72 -27 -17 -24 -55 -28 -55 -7 0 31 -48 60 -98 60 -27 0 -49 -5 -49 -11 0 -6 -6 -10 -12 -10 -6 0 -31 -17 -55 -38 l-44 -37 -3 62 c-4 92 -27 110 -147 115 -69 4 -95 1 -104 -9z m156 -100 c11 -14 11 -19 1 -22 -7 -3 -13 -9 -13 -15 0 -14 -58 -72 -73 -72 -6 0 -11 -5 -11 -10 0 -6 -15 -11 -33 -11 -31 0 -32 2 -26 34 4 18 16 43 28 55 11 13 21 28 21 34 0 26 86 31 106 7z m268 -83 c13 -13 13 -18 1 -30 -27 -27 -71 -26 -71 2 0 40 41 57 70 28z m266 -13 c0 -17 -25 -34 -49 -34 -23 0 -33 20 -18 35 10 10 67 9 67 -1z"/>
		<path d="M192 10714 c-8 -3 -13 -15 -13 -26 0 -11 -5 -20 -11 -20 -6 0 -10 -17 -10 -37 0 -27 8 -46 28 -66 l28 -28 536 3 c301 2 541 8 546 13 14 13 101 13 101 0 0 -6 23 -11 52 -11 29 0 53 5 53 11 0 15 101 12 126 -3 16 -10 25 -10 41 0 27 17 129 17 145 0 10 -9 13 -9 13 0 0 19 405 18 414 0 5 -11 7 -11 12 0 9 18 383 19 383 0 0 -9 2 -9 12 0 8 8 48 13 109 13 79 0 98 -3 103 -17 4 -9 7 -406 7 -883 0 -783 -2 -870 -18 -903 -16 -34 -16 -38 5 -78 18 -33 23 -61 23 -120 0 -43 -4 -78 -10 -78 -13 0 -11 -86 2 -103 15 -18 12 -594 -2 -599 -15 -4 -14 -83 0 -87 8 -3 12 -327 14 -1039 l4 -1034 32 -33 c18 -18 48 -37 66 -44 49 -17 683 -16 700 1 10 10 13 9 13 -2 0 -11 3 -12 13 -2 15 15 92 17 92 2 0 -6 14 -10 31 -10 17 0 34 4 37 10 10 16 305 14 330 -2 17 -10 26 -10 48 2 24 13 29 13 37 0 7 -11 12 -11 23 -3 10 9 365 12 1257 13 934 0 1246 3 1258 12 11 10 17 10 27 1 14 -15 67 -16 76 -2 9 15 68 13 68 -2 0 -10 3 -10 13 0 18 18 287 17 296 -1 5 -10 7 -10 12 0 9 19 383 19 383 1 0 -10 2 -10 12 0 15 15 124 17 124 2 0 -6 12 -10 26 -10 15 0 27 4 27 10 0 16 320 14 346 -3 17 -10 25 -10 42 0 26 17 294 19 294 3 0 -6 33 -10 79 -10 45 0 79 4 79 10 0 7 70 11 189 11 119 0 189 3 189 10 0 15 37 13 50 -3 7 -8 11 -279 12 -795 0 -501 5 -784 11 -786 14 -4 14 -72 0 -80 -15 -10 -13 -135 2 -151 11 -10 11 -17 0 -33 -15 -25 -17 -136 -2 -136 7 0 11 -181 11 -520 -1 -334 3 -521 10 -525 16 -10 13 -89 -3 -90 -8 0 -25 -11 -39 -26 -14 -14 -31 -26 -39 -26 -7 0 -13 -5 -13 -10 0 -6 -11 -11 -24 -11 -13 -1 -33 -8 -44 -16 -11 -9 -29 -16 -38 -15 -10 0 -21 -8 -24 -16 -4 -9 -18 -16 -33 -16 -15 0 -26 -4 -26 -8 0 -4 -19 -16 -42 -26 -24 -10 -42 -23 -42 -29 0 -6 -10 -10 -21 -10 -12 0 -21 -5 -21 -10 0 -5 -21 -12 -47 -16 -25 -4 -52 -14 -60 -23 -14 -17 -114 -67 -134 -67 -6 0 -11 -5 -11 -10 0 -6 -8 -11 -18 -11 -15 0 -108 -42 -161 -73 -28 -16 -92 -43 -104 -43 -6 0 -11 -4 -11 -10 0 -6 -8 -10 -16 -10 -9 0 -16 -5 -16 -11 0 -6 -9 -11 -20 -11 -12 0 -25 -5 -29 -13 -10 -15 -51 -39 -66 -39 -18 0 -95 -36 -95 -44 0 -5 -6 -9 -13 -9 -7 0 -32 -9 -55 -20 -23 -12 -49 -21 -56 -21 -8 0 -29 -12 -46 -27 -17 -14 -40 -26 -51 -26 -11 0 -20 -5 -20 -10 0 -6 -12 -11 -27 -11 -15 0 -29 -7 -33 -16 -3 -8 -15 -15 -26 -15 -17 0 -66 -25 -82 -42 -15 -15 -57 -32 -95 -38 -23 -4 -42 -10 -42 -14 0 -4 -18 -16 -39 -27 -22 -12 -42 -24 -45 -27 -8 -9 -81 -42 -93 -42 -7 0 -12 -4 -12 -9 0 -5 -14 -13 -31 -17 -18 -4 -34 -11 -38 -16 -3 -6 -17 -10 -31 -10 -14 0 -26 -5 -26 -10 0 -6 -9 -11 -20 -11 -11 0 -27 -6 -34 -14 -17 -15 -86 -49 -102 -49 -7 0 -12 -4 -12 -8 0 -4 -23 -19 -52 -32 -29 -13 -55 -28 -58 -34 -4 -5 -18 -10 -32 -10 -14 0 -26 -4 -26 -8 0 -8 -77 -45 -95 -45 -5 0 -10 -4 -10 -10 0 -6 -5 -11 -12 -11 -14 0 -86 -32 -93 -42 -3 -4 -17 -11 -31 -15 -15 -5 -39 -17 -54 -27 -14 -11 -40 -23 -57 -27 -17 -4 -45 -16 -63 -27 -17 -10 -38 -22 -47 -25 -9 -4 -29 -12 -45 -19 -16 -6 -28 -15 -28 -18 -1 -4 -19 -10 -42 -14 -24 -3 -42 -11 -42 -16 0 -5 -11 -13 -24 -17 -13 -4 -26 -10 -29 -14 -13 -17 -64 -43 -84 -43 -11 0 -21 -5 -21 -10 0 -6 -10 -11 -22 -11 -23 0 -77 -27 -102 -50 -8 -7 -21 -13 -29 -13 -8 0 -15 -4 -15 -8 0 -8 -39 -27 -81 -39 -13 -4 -24 -11 -24 -17 0 -5 -12 -9 -26 -9 -15 0 -26 -4 -26 -9 0 -8 -2 -9 -119 -68 -43 -21 -83 -39 -90 -39 -7 0 -12 -5 -12 -10 0 -6 -11 -11 -24 -11 -14 0 -34 -7 -45 -15 -11 -9 -31 -16 -44 -16 -13 0 -23 -5 -23 -11 0 -6 -6 -10 -12 -10 -14 0 -86 -33 -93 -43 -3 -4 -16 -10 -29 -15 -13 -4 -24 -11 -24 -17 0 -5 -11 -9 -25 -9 -14 0 -28 -8 -31 -16 -4 -9 -18 -16 -33 -16 -15 0 -26 -4 -26 -8 0 -8 -77 -44 -95 -44 -6 0 -10 -4 -11 -9 0 -8 -76 -44 -94 -44 -6 0 -10 -4 -10 -10 0 -5 -15 -12 -32 -16 -17 -4 -31 -12 -31 -17 0 -5 -12 -9 -27 -9 -14 0 -26 -5 -26 -10 0 -5 -19 -12 -42 -16 -23 -3 -42 -11 -42 -17 0 -5 -11 -10 -24 -10 -14 0 -35 -11 -48 -24 -34 -37 -12 -49 85 -49 72 0 90 3 139 31 31 17 67 32 78 32 12 0 22 4 22 9 0 6 11 13 24 17 42 12 81 31 81 39 0 4 7 8 15 8 8 0 21 6 29 13 23 21 79 50 97 50 9 0 17 5 17 11 0 5 9 10 20 10 11 0 23 4 26 10 4 5 20 12 38 16 17 4 31 11 31 16 0 5 17 13 37 16 20 4 37 12 37 17 0 5 7 9 15 9 9 0 16 4 16 10 0 5 14 12 31 16 17 4 36 14 43 22 7 8 19 15 27 15 8 0 15 4 15 8 0 8 49 34 65 34 4 0 8 -9 8 -21 0 -12 -4 -21 -8 -21 -4 0 -16 -19 -26 -42 -25 -57 -15 -119 25 -161 28 -29 33 -31 89 -25 60 6 109 37 109 67 0 8 5 14 11 14 14 0 13 46 -3 61 -9 10 -10 15 -1 21 36 23 22 86 -19 86 -22 0 -25 11 -7 29 10 10 7 18 -11 37 -28 31 -28 35 1 44 13 4 26 9 29 11 3 1 16 6 29 10 13 4 24 12 24 16 0 13 62 42 90 42 14 0 25 5 25 11 0 5 9 10 20 10 12 0 25 6 29 13 9 14 47 34 85 45 13 3 24 11 24 16 0 6 5 10 11 10 14 0 86 33 94 42 8 11 142 74 155 74 7 0 13 4 13 10 0 6 5 11 11 11 6 0 28 7 48 17 20 9 38 14 42 11 11 -11 -22 -71 -43 -77 -12 -4 -30 -18 -40 -32 -11 -13 -25 -25 -30 -25 -6 1 -22 -11 -37 -26 -16 -16 -38 -26 -57 -26 -17 0 -31 -4 -31 -8 0 -4 -15 -14 -34 -22 -67 -29 -71 -37 -71 -148 0 -56 3 -105 6 -108 10 -10 47 5 47 19 0 8 4 15 10 15 6 0 11 23 11 50 -1 37 5 55 21 68 11 10 24 19 28 19 5 0 21 6 37 15 28 14 30 13 44 -15 26 -50 115 -52 146 -3 4 7 14 13 22 13 36 0 67 92 38 110 -6 4 -11 44 -11 89 0 62 -4 85 -17 96 -15 13 -14 16 7 33 12 10 32 18 43 18 11 0 20 5 20 11 0 6 11 11 24 11 14 0 33 11 45 26 11 14 30 26 42 26 12 0 28 7 36 16 7 8 21 15 32 16 10 0 21 4 25 9 3 5 18 12 34 16 42 10 87 31 87 40 0 4 19 11 42 14 23 4 42 11 42 16 0 5 6 10 13 10 7 0 35 11 61 26 25 14 55 29 65 32 10 4 19 11 19 16 0 13 49 12 57 0 3 -6 1 -13 -5 -17 -14 -8 -14 -194 0 -194 6 0 11 -9 11 -21 0 -14 7 -21 21 -21 33 0 52 25 52 68 0 23 5 37 13 37 8 0 21 9 29 21 8 12 20 21 27 21 6 0 20 9 31 21 24 27 41 27 67 -1 18 -19 29 -22 76 -17 31 2 57 10 59 17 2 6 15 12 28 12 35 0 61 33 53 67 -4 15 -11 27 -17 27 -5 0 -9 24 -9 53 0 46 -3 54 -26 64 -19 9 -33 9 -58 -2 -42 -17 -94 -69 -94 -93 0 -19 -20 -43 -34 -43 -5 0 -8 7 -9 16 0 29 -41 60 -74 55 -21 -3 -31 0 -30 10 0 7 7 14 15 14 9 0 16 4 16 10 0 6 10 11 21 11 12 0 24 6 27 14 3 8 28 18 55 22 27 4 56 16 65 26 8 10 28 22 42 27 14 4 29 11 32 15 7 10 79 42 93 43 17 0 57 23 67 39 5 7 19 13 31 13 12 0 31 8 42 18 14 13 22 14 31 5 10 -10 10 -12 0 -12 -16 0 -18 -154 -2 -163 6 -4 11 -28 11 -53 0 -26 3 -47 8 -47 20 0 44 40 44 72 0 43 21 68 40 48 7 -8 13 -21 12 -30 0 -9 10 -26 22 -38 35 -35 52 -7 52 90 0 72 -2 81 -21 86 -12 3 -21 10 -21 15 0 5 -19 9 -41 9 -23 0 -45 5 -49 11 -11 19 5 62 25 63 10 0 46 14 81 31 34 17 68 31 74 31 17 1 67 26 67 35 0 4 11 7 25 7 13 0 35 12 49 27 14 14 32 26 41 26 10 0 35 9 56 21 22 12 47 21 55 21 9 0 16 5 16 11 0 5 7 10 16 10 8 0 16 5 16 11 0 5 4 10 10 10 18 0 95 36 95 44 0 5 4 9 10 9 18 0 95 36 95 44 0 4 18 11 42 14 23 4 41 11 42 16 0 4 14 11 31 15 17 4 32 10 32 14 0 12 59 43 82 43 13 0 23 5 23 11 0 6 6 11 14 11 8 0 20 7 28 15 7 9 24 16 38 16 13 0 25 4 25 10 0 5 14 12 32 16 17 4 37 16 44 27 7 11 23 20 35 20 12 0 28 8 36 16 7 9 19 16 27 16 8 0 15 5 15 11 0 5 10 10 23 10 14 0 41 17 64 42 l40 41 -1 701 c-1 534 -4 703 -14 709 -10 6 -10 13 0 29 17 27 17 152 1 178 -10 17 -10 26 2 48 12 22 12 32 2 48 -16 26 -18 436 -2 446 6 3 11 20 11 36 0 17 -5 34 -11 37 -7 4 -10 146 -10 389 0 248 -4 383 -11 383 -6 0 -10 21 -10 47 0 26 4 48 10 48 6 0 11 23 11 52 0 43 -6 57 -32 84 -30 30 -73 43 -73 21 0 -15 -29 -13 -35 3 -4 10 -9 10 -27 0 -31 -19 -413 -19 -443 0 -16 10 -25 10 -41 0 -16 -10 -127 -14 -451 -13 -334 0 -431 -3 -435 -14 -3 -10 -7 -10 -18 0 -18 17 -356 19 -356 3 0 -6 -22 -10 -48 -10 -26 0 -47 4 -47 10 0 7 -91 11 -252 11 -161 0 -252 -4 -252 -11 0 -14 -35 -13 -49 1 -11 11 -914 9 -1256 -3 -80 -3 -148 -1 -151 4 -3 5 -11 5 -18 -1 -15 -12 -329 -15 -336 -2 -3 4 -83 7 -177 5 -349 -7 -1738 -6 -1760 1 -21 6 -23 14 -23 95 0 48 5 91 11 94 14 9 14 65 0 74 -14 8 -14 107 0 115 15 10 13 90 -2 90 -10 -1 -10 2 0 12 17 17 16 89 -1 96 -10 4 -10 6 0 6 17 1 19 185 3 195 -13 8 -15 1167 -1 1175 5 4 12 33 16 65 8 58 8 59 -35 99 -28 27 -43 50 -43 68 0 14 5 27 11 27 14 0 13 98 -3 113 -9 10 -9 15 0 25 16 15 17 124 3 124 -15 0 -14 49 2 74 10 16 10 25 0 41 -17 27 -17 50 0 56 11 4 11 9 0 27 -16 27 -17 82 -2 91 5 3 10 25 10 48 0 22 -5 41 -10 41 -6 0 -11 20 -11 43 0 36 6 50 37 78 43 41 50 91 16 112 -18 11 -21 25 -21 77 0 36 5 69 12 76 10 10 10 16 0 26 -16 15 -18 250 -2 250 6 0 11 16 11 36 0 20 -5 39 -11 42 -6 4 -10 32 -10 63 0 31 4 60 10 63 14 9 14 103 0 117 -7 7 -12 200 -14 552 -3 512 -4 543 -23 561 -18 19 -47 20 -498 22 -335 2 -485 7 -502 15 -17 9 -26 9 -39 -1 -12 -10 -142 -12 -596 -8 -798 6 -1047 14 -1069 34 -17 15 -45 19 -70 9z m5485 -10254 c14 -12 25 -27 25 -32 0 -13 -28 -39 -42 -39 -21 0 -42 28 -42 55 0 45 22 51 59 16z"/>
		<path d="M19719 10579 c-19 -21 -22 -30 -12 -39 6 -7 12 -30 12 -51 0 -22 7 -45 16 -52 9 -8 16 -31 16 -57 0 -55 32 -90 82 -90 31 0 75 -30 75 -51 0 -5 -9 -17 -21 -27 -32 -30 -115 -4 -115 35 0 19 -48 13 -67 -8 -26 -28 -22 -46 23 -89 32 -31 50 -40 93 -45 34 -4 55 -2 60 5 4 7 18 12 31 12 46 0 101 72 104 136 1 40 -10 57 -50 80 -28 16 -31 32 -6 39 12 3 22 14 22 26 0 20 -44 66 -64 66 -5 0 -10 4 -10 10 0 6 -24 11 -52 11 -39 0 -53 3 -53 15 0 8 5 18 11 21 16 11 12 35 -11 58 -28 28 -54 26 -84 -5z m193 -221 c-4 -9 -19 -15 -36 -15 -23 0 -29 4 -24 15 3 9 19 16 36 16 22 0 28 -4 24 -16z"/>
		<path d="M17742 10541 c-29 -32 -40 -99 -19 -120 6 -6 12 -74 14 -151 5 -150 7 -156 56 -144 25 7 26 10 26 100 0 99 4 109 55 122 54 14 30 89 -28 89 -15 0 -27 4 -27 9 0 12 36 44 50 44 16 0 16 55 0 71 -7 7 -32 12 -55 12 -33 -1 -49 -8 -72 -32z"/>
		<path d="M16605 10539 c-29 -15 -50 -59 -35 -77 7 -9 11 -72 11 -169 -1 -154 -1 -155 26 -175 31 -22 57 -16 57 14 0 12 4 22 10 22 6 0 11 9 11 21 0 36 37 63 88 63 26 0 49 4 52 9 4 5 21 12 38 15 57 12 90 67 89 150 -1 69 -20 106 -59 115 -16 3 -32 10 -36 16 -8 13 -225 10 -252 -4z m179 -70 c4 -6 18 -11 31 -11 27 0 37 -23 37 -81 0 -32 -2 -35 -41 -41 -24 -4 -42 -11 -42 -16 0 -5 -11 -4 -24 3 -13 7 -31 16 -39 20 -27 12 -27 82 1 111 24 26 66 33 77 15z"/>
		<path d="M18795 10458 c0 -6 -7 -10 -16 -10 -8 0 -15 -8 -15 -16 0 -9 -5 -16 -11 -16 -15 0 -13 -53 3 -87 14 -30 35 -39 92 -39 60 0 83 -41 43 -77 -29 -27 -67 -21 -104 15 -28 27 -39 31 -65 25 -27 -6 -32 -12 -32 -37 0 -17 4 -31 9 -31 6 0 13 -12 16 -26 4 -17 14 -26 27 -26 11 0 21 -6 24 -12 4 -14 91 -25 127 -16 14 3 40 21 58 40 30 30 33 40 33 98 0 58 -3 67 -31 93 -18 15 -45 28 -61 29 -22 1 -24 2 -8 6 82 20 49 98 -42 98 -26 0 -47 -5 -47 -11z"/>
		<path d="M19173 10459 c0 -5 -17 -11 -37 -15 -43 -7 -57 -19 -82 -73 -28 -58 -16 -159 23 -202 40 -44 74 -59 133 -60 38 -1 54 4 67 20 10 12 28 27 41 34 13 7 23 22 23 33 0 11 5 21 11 21 5 0 10 25 10 57 0 32 -5 58 -10 58 -6 0 -11 13 -11 29 0 18 -13 43 -36 68 -32 35 -42 40 -84 40 -26 0 -48 -5 -48 -10z m84 -122 c0 -8 5 -15 11 -15 5 0 10 -15 10 -32 0 -42 -52 -98 -80 -88 -53 20 -74 93 -39 132 22 24 98 27 98 3z"/>
		<path d="M19459 10452 c-7 -8 -13 -19 -13 -25 0 -6 -5 -11 -10 -11 -7 0 -11 -49 -11 -127 0 -119 2 -129 23 -148 14 -12 32 -18 45 -15 12 4 25 6 29 6 4 0 7 41 6 90 -1 81 1 91 23 110 13 12 37 21 52 21 51 0 84 23 84 58 0 18 -5 38 -12 45 -15 15 -92 17 -92 2 0 -13 -102 -14 -107 -1 -2 5 -10 3 -17 -5z"/>
		<path d="M18438 10441 c-17 -5 -42 -51 -42 -77 0 -30 25 -73 47 -80 12 -5 43 -11 69 -14 39 -5 47 -10 50 -31 2 -13 -5 -33 -15 -44 -28 -31 -65 -25 -106 16 -35 37 -55 46 -55 27 0 -6 -8 -11 -17 -11 -23 0 -30 -29 -14 -61 21 -40 34 -52 66 -60 15 -4 28 -11 28 -17 0 -5 23 -9 52 -9 29 0 53 5 53 11 0 5 5 10 12 10 7 0 26 13 42 28 26 25 30 36 30 97 0 61 -3 71 -28 93 -16 13 -38 24 -50 24 -21 0 -21 0 2 16 51 36 13 89 -62 87 -25 0 -53 -3 -62 -5z"/>
		<path d="M17044 10425 c-7 -7 -13 -19 -13 -27 0 -7 -5 -13 -10 -13 -7 0 -11 -51 -11 -130 0 -122 1 -131 24 -152 22 -20 28 -21 53 -10 24 11 28 20 28 57 0 25 -6 46 -13 50 -11 5 -11 7 0 12 7 3 13 20 13 37 0 39 33 73 71 73 49 0 86 22 86 52 0 41 -23 63 -66 63 -21 0 -38 -5 -38 -10 0 -14 -103 -14 -107 0 -3 7 -9 6 -17 -2z"/>
		<path d="M17408 10421 c-14 -8 -43 -33 -63 -54 -34 -38 -36 -44 -34 -111 1 -66 4 -74 36 -108 20 -20 42 -36 49 -36 8 0 16 -8 20 -16 4 -11 21 -16 57 -16 28 0 52 4 52 8 0 8 31 27 65 40 10 4 19 13 19 20 0 7 9 21 21 32 33 30 26 151 -12 184 -3 2 -15 20 -26 39 -19 33 -21 34 -88 33 -38 -1 -81 -8 -96 -15z m120 -94 c13 -9 22 -33 25 -63 5 -40 2 -52 -16 -69 -27 -25 -79 -27 -107 -2 -21 18 -30 90 -13 113 26 34 80 45 111 21z"/>
		<path d="M18062 10422 c-42 -24 -75 -62 -75 -87 0 -13 -5 -24 -11 -24 -6 0 -10 -24 -10 -52 0 -29 4 -53 10 -53 6 0 11 -7 11 -16 0 -20 60 -77 89 -85 11 -3 56 -4 100 -2 l78 3 3 45 c3 35 0 45 -13 45 -24 0 -20 22 10 54 43 46 31 128 -26 174 -20 16 -135 15 -166 -2z m116 -82 c10 -27 -5 -39 -45 -39 -30 0 -41 4 -41 15 0 10 9 16 25 16 14 0 29 5 32 11 9 14 23 13 29 -3z m16 -115 c20 -20 15 -29 -13 -29 -15 0 -26 -5 -26 -11 0 -16 -31 -13 -49 5 -13 13 -13 18 -2 31 17 19 73 21 90 4z"/>
		<path d="M5250 10203 c-21 -11 -27 -22 -30 -60 -1 -26 -11 -57 -22 -68 -10 -12 -25 -37 -33 -55 -8 -19 -18 -34 -22 -34 -13 0 -40 -66 -40 -97 l0 -29 94 0 c52 0 96 4 99 9 4 5 20 12 38 15 37 8 95 59 95 85 0 10 9 26 21 36 16 14 21 32 23 86 3 72 -3 84 -53 112 -29 17 -136 17 -170 0z m141 -116 c8 -15 8 -21 -2 -25 -7 -3 -13 -12 -13 -22 0 -20 -49 -65 -70 -65 -8 0 -14 -5 -14 -10 0 -6 -12 -11 -26 -11 -19 0 -26 6 -26 21 0 12 3 21 7 21 5 0 15 15 23 34 33 76 93 104 121 57z"/>
		<path d="M6764 10204 c-7 -7 -12 -19 -12 -26 0 -8 -5 -14 -10 -14 -5 0 -12 -15 -16 -34 -8 -42 -30 -92 -39 -92 -4 0 -10 -14 -14 -31 -4 -18 -12 -32 -17 -32 -14 0 -12 -88 3 -103 15 -15 141 -17 150 -2 4 6 20 11 37 11 26 0 34 7 56 55 14 30 28 78 31 107 3 29 11 54 17 56 13 4 16 44 3 44 -4 0 -12 11 -18 24 -8 18 -20 24 -55 26 -24 2 -44 8 -44 14 0 14 -57 12 -72 -3z m72 -103 c0 -6 -8 -10 -16 -10 -9 0 -16 4 -16 10 0 6 7 11 16 11 8 0 16 -5 16 -11z m31 -92 c0 -47 -97 -85 -126 -49 -11 13 -9 20 11 42 30 32 115 38 115 7z"/>
		<path d="M6040 10168 c-7 -3 -13 -13 -13 -21 0 -9 -12 -37 -26 -63 -15 -26 -26 -53 -26 -61 0 -8 -7 -21 -14 -29 -8 -8 -17 -22 -21 -32 -15 -41 -28 -16 -28 55 0 58 -4 74 -16 74 -9 0 -16 4 -16 10 0 16 -34 13 -72 -6 -46 -23 -54 -62 -19 -95 15 -14 32 -25 38 -25 16 0 14 -16 -4 -31 -13 -10 -21 -8 -43 14 -15 15 -34 28 -42 28 -11 0 -15 11 -15 34 0 57 -22 91 -58 93 -49 3 -94 -3 -100 -12 -3 -4 -15 -11 -27 -14 -11 -4 -29 -21 -39 -37 -19 -32 -25 -106 -9 -106 6 0 13 -12 16 -26 6 -22 15 -27 63 -33 31 -3 65 -5 76 -3 26 5 31 38 9 62 -18 20 -18 21 14 21 27 0 34 -5 34 -22 0 -12 9 -31 20 -43 17 -19 29 -21 90 -18 44 3 73 10 79 20 7 12 13 12 35 0 31 -17 59 -8 66 21 8 29 50 26 75 -6 11 -14 31 -26 43 -26 18 0 22 6 22 37 0 41 14 71 50 105 13 13 24 36 24 51 0 24 -5 28 -37 28 -20 0 -37 -5 -37 -11 0 -6 -8 -10 -19 -10 -15 0 -18 7 -14 42 3 38 2 41 -21 41 -14 -1 -31 -4 -38 -6z"/>
		<path d="M6447 10167 c-20 -8 -42 -30 -42 -42 0 -6 -12 -21 -27 -35 -58 -55 -77 -156 -36 -193 17 -17 32 -18 109 -12 98 9 122 22 99 57 -11 19 -10 24 10 42 29 25 30 66 3 83 -13 8 -22 25 -22 42 0 16 -4 35 -8 42 -10 15 -64 25 -86 16z m4 -162 c15 -25 -9 -51 -47 -51 -36 0 -35 -2 -14 41 18 36 42 40 61 10z"/>
		<path d="M7020 10097 c-15 -12 -27 -33 -27 -46 0 -12 -5 -25 -10 -29 -16 -10 -13 -71 6 -108 16 -33 17 -33 92 -33 62 0 82 4 101 20 20 18 22 24 11 37 -11 13 -10 23 4 53 10 22 16 55 14 81 -2 40 -6 45 -29 45 -29 0 -52 -36 -52 -82 0 -16 -4 -28 -9 -28 -4 0 -12 -11 -18 -24 -6 -13 -21 -25 -34 -27 -20 -3 -23 1 -23 29 0 19 6 35 15 39 21 8 22 83 1 91 -8 3 -27 -5 -42 -18z"/>
		<path d="M7539 10114 c-14 -2 -31 -9 -36 -14 -14 -13 -69 -12 -69 1 0 6 -28 11 -64 11 -53 0 -67 -4 -84 -24 -10 -13 -19 -32 -20 -42 0 -9 -5 -20 -10 -24 -6 -3 -11 -14 -11 -24 0 -10 -7 -31 -16 -48 -18 -35 -6 -59 31 -59 15 0 29 12 42 39 33 63 59 87 94 87 25 0 36 -7 46 -28 7 -16 13 -39 13 -51 0 -36 33 -57 87 -57 52 0 87 22 76 49 -3 8 -5 17 -5 20 0 2 -16 4 -35 5 l-34 0 48 23 c25 12 54 29 63 38 13 13 16 13 19 -5 2 -11 8 -25 13 -30 5 -6 10 -23 10 -38 0 -43 29 -62 97 -62 91 0 110 10 110 63 0 30 6 49 17 58 9 6 17 19 17 27 0 8 5 20 11 27 16 15 -9 54 -40 62 -33 9 -119 -2 -127 -14 -4 -6 -17 -14 -30 -18 -13 -4 -24 -12 -24 -17 0 -6 -7 -10 -16 -10 -8 0 -15 -5 -15 -12 0 -8 -5 -8 -16 2 -9 7 -16 22 -16 33 0 32 -52 46 -126 32z"/>
		<path d="M8001 10108 c-16 -8 -27 -23 -30 -41 -1 -16 -7 -29 -13 -29 -5 0 -9 -13 -9 -29 0 -17 -6 -35 -13 -42 -10 -10 -10 -16 0 -26 7 -7 13 -20 13 -30 0 -10 6 -20 15 -24 25 -9 219 4 234 16 18 15 17 45 -3 62 -8 7 -15 22 -15 33 0 11 7 22 15 26 16 6 23 35 8 35 -4 0 -13 11 -18 24 -6 13 -19 25 -28 26 -23 5 -72 -38 -72 -61 0 -9 -10 -29 -22 -42 l-21 -25 3 67 c4 72 -3 81 -44 60z"/>
		<path d="M16771 9793 c-24 -24 -31 -49 -13 -49 6 0 11 -47 11 -121 0 -73 -5 -120 -11 -120 -6 0 -10 -6 -10 -13 0 -23 46 -113 59 -113 6 0 17 -8 25 -16 14 -18 126 -23 126 -5 0 5 11 10 25 10 36 0 98 68 106 117 12 72 -36 177 -81 177 -11 0 -19 5 -19 11 0 5 -30 10 -68 10 -61 0 -68 2 -68 21 0 12 4 21 10 21 14 0 13 32 -3 66 -16 35 -55 37 -89 4z m193 -221 c23 -24 18 -96 -8 -127 -13 -15 -31 -26 -40 -26 -56 0 -89 129 -40 153 34 17 70 17 88 0z"/>
		<path d="M17794 9767 c-15 -16 -28 -37 -28 -47 0 -20 -31 -39 -62 -39 -12 0 -22 -4 -22 -9 0 -5 -19 -12 -42 -16 -32 -5 -45 -13 -52 -32 -5 -14 -15 -28 -21 -32 -36 -22 9 -194 52 -194 11 0 23 -5 26 -11 10 -15 177 -13 192 2 7 7 13 23 13 36 0 13 4 25 10 27 5 2 11 72 13 157 2 116 -1 158 -12 171 -19 24 -35 21 -67 -13z m-46 -180 c15 0 18 -10 18 -57 0 -63 -7 -69 -69 -69 -25 0 -39 5 -43 18 -4 10 -12 22 -18 26 -8 5 -5 19 9 42 25 43 37 52 63 45 12 -3 30 -5 40 -5z"/>
		<path d="M18927 9756 c-3 -5 -20 -12 -38 -16 -36 -7 -49 -18 -77 -68 -16 -28 -18 -47 -12 -106 6 -62 12 -76 41 -105 22 -20 50 -35 76 -39 22 -4 45 -12 49 -18 7 -8 11 -8 14 1 3 8 16 14 29 14 14 0 33 9 43 21 11 11 26 21 33 21 8 0 15 11 15 25 0 14 4 29 10 32 16 10 13 91 -5 141 -8 24 -29 58 -46 75 -26 25 -40 31 -79 31 -26 0 -50 -4 -53 -9z m96 -135 c8 -15 14 -37 14 -47 0 -27 -59 -86 -76 -76 -38 21 -61 52 -61 82 0 44 27 70 73 69 30 0 40 -5 50 -28z"/>
		<path d="M18512 9737 c-25 -9 -95 -79 -95 -95 0 -7 -5 -13 -10 -13 -6 0 -11 -17 -11 -37 0 -20 5 -37 11 -37 5 0 10 -15 10 -33 0 -23 10 -42 31 -63 18 -16 36 -30 41 -30 5 0 15 -7 23 -16 18 -22 92 -18 131 6 17 12 40 24 50 27 10 4 18 12 18 20 0 7 7 19 16 26 8 7 16 24 16 38 0 15 6 25 15 25 9 0 16 4 16 9 0 6 -7 12 -16 16 -8 3 -16 17 -16 30 -1 13 -10 38 -21 55 -11 18 -25 42 -31 55 -9 22 -17 24 -86 23 -42 0 -84 -3 -92 -6z m130 -121 c9 -18 17 -44 17 -58 0 -57 -89 -86 -136 -46 -19 16 -23 29 -20 66 4 50 29 71 89 71 27 0 37 -6 50 -33z"/>
		<path d="M19341 9736 c-14 -2 -30 -10 -34 -16 -4 -7 -30 -11 -60 -10 -67 3 -70 -3 -69 -149 0 -97 3 -116 19 -126 29 -18 54 5 58 55 2 24 8 44 13 44 6 0 10 10 10 22 0 28 51 83 77 83 18 0 19 -7 12 -89 -8 -99 0 -121 44 -121 41 0 56 24 56 89 0 51 4 65 29 90 31 34 69 40 93 16 17 -17 20 -85 4 -95 -17 -11 -12 -66 8 -89 23 -28 59 -27 86 1 18 20 22 37 22 110 0 48 -5 90 -11 93 -6 4 -10 20 -10 35 0 41 -67 69 -139 60 -28 -4 -50 -12 -50 -17 0 -13 -71 -12 -76 0 -4 13 -49 21 -82 14z"/>
		<path d="M18257 9699 c-3 -9 -24 -12 -66 -10 -92 4 -98 -6 -97 -143 1 -116 8 -148 35 -148 8 0 15 -5 15 -10 0 -18 51 15 57 36 3 11 6 42 6 68 0 60 41 105 97 105 25 0 43 8 59 26 30 35 29 56 -4 64 -14 4 -26 11 -26 16 0 15 -71 11 -76 -4z"/>
		<path d="M17283 9671 c0 -6 -11 -11 -25 -11 -14 0 -31 -7 -38 -16 -7 -8 -18 -15 -25 -15 -25 0 -60 -118 -39 -131 6 -4 12 -20 12 -36 0 -50 62 -87 158 -94 65 -4 74 -2 108 24 30 23 37 34 32 52 -4 12 -12 24 -17 28 -5 3 -2 20 7 37 26 49 21 108 -12 143 -25 26 -36 29 -95 29 -37 0 -66 -5 -66 -10z m14 -189 c4 -17 0 -21 -20 -21 -30 0 -35 27 -7 34 10 3 19 6 20 6 0 1 4 -8 7 -19z m123 0 c0 -6 -5 -11 -11 -11 -6 0 -10 5 -10 11 0 5 4 10 10 10 6 0 11 -5 11 -10z"/>
		<path d="M6974 8871 c2 -12 13 -28 24 -34 12 -7 25 -16 29 -22 9 -12 -1 -100 -13 -116 -4 -6 -11 -26 -15 -44 -4 -19 -12 -34 -17 -34 -6 0 -10 -18 -10 -40 0 -33 5 -42 32 -58 54 -30 199 -18 199 17 0 5 14 26 32 45 l31 36 0 -29 c0 -28 19 -64 49 -95 29 -30 136 -4 164 41 18 28 32 24 69 -17 25 -29 40 -37 67 -36 49 1 95 31 106 71 6 18 14 33 19 33 5 0 9 9 9 21 0 11 17 46 37 78 44 69 47 107 11 121 -33 13 -66 3 -72 -21 -3 -11 -14 -23 -25 -26 -11 -4 -27 -11 -37 -16 -11 -6 -24 -10 -31 -10 -7 0 -38 -12 -69 -28 l-57 -27 -30 29 c-27 26 -36 28 -88 24 -56 -5 -71 -13 -102 -58 l-16 -23 -19 37 c-16 29 -28 37 -61 42 l-42 7 7 50 c7 54 0 65 -49 77 -16 4 -29 12 -29 17 0 6 -24 11 -53 11 -49 0 -53 -3 -50 -23z m187 -225 c0 -9 -9 -26 -20 -37 -16 -18 -24 -20 -42 -10 l-21 11 22 26 c25 29 61 35 61 10z m252 -22 c0 -10 -8 -26 -17 -36 -14 -16 -19 -17 -31 -5 -16 16 -20 40 -8 52 15 14 56 7 56 -11z"/>
		<path d="M6638 8859 c-19 -24 -25 -77 -9 -90 17 -14 70 6 70 27 0 8 5 14 11 14 16 0 12 19 -11 42 -24 24 -45 26 -61 7z"/>
		<path d="M6423 8831 c-10 -12 -18 -32 -18 -44 0 -22 -30 -94 -43 -103 -3 -3 -10 -25 -14 -48 -4 -23 -13 -47 -18 -54 -15 -18 -7 -57 14 -70 23 -15 61 18 61 52 0 14 5 25 11 25 5 0 10 7 10 16 0 10 10 16 26 16 15 0 27 -5 27 -11 0 -6 -5 -10 -11 -10 -6 0 -10 -16 -10 -36 0 -61 51 -79 73 -25 5 13 19 38 31 55 12 18 21 44 21 59 0 27 -32 65 -62 75 -12 3 -16 20 -16 61 0 56 -1 57 -32 60 -21 2 -37 -3 -50 -18z"/>
		<path d="M5394 8824 c-24 -13 -28 -22 -28 -62 0 -38 6 -52 37 -85 43 -46 44 -77 2 -91 -47 -15 -60 -4 -60 50 0 47 -1 48 -36 48 -50 0 -69 -10 -69 -33 0 -11 -6 -30 -14 -43 -10 -17 -10 -23 0 -26 8 -3 14 -12 14 -21 0 -18 40 -55 60 -56 7 0 13 -5 13 -10 0 -6 26 -11 58 -11 32 0 58 5 58 11 0 5 6 10 13 10 8 0 28 14 45 31 39 40 55 40 49 3 -9 -61 58 -75 73 -16 5 19 14 35 19 35 6 0 11 7 11 16 0 9 5 15 13 12 7 -2 14 -26 16 -54 3 -48 4 -49 36 -46 28 3 35 9 43 37 6 19 14 35 19 35 5 0 9 7 9 15 0 9 7 16 16 16 8 0 16 5 16 11 0 6 4 8 10 5 6 -4 11 -28 11 -54 0 -47 0 -47 33 -44 40 4 70 50 78 123 5 39 2 53 -16 73 -13 16 -29 23 -41 20 -11 -3 -43 -2 -71 3 -31 4 -57 4 -64 -2 -7 -6 -41 -9 -75 -8 -72 3 -86 -3 -86 -39 0 -34 -24 -60 -41 -43 -6 6 -11 18 -11 25 0 7 -15 30 -33 50 -24 28 -28 38 -16 38 9 0 17 4 17 10 0 6 6 11 14 11 7 0 19 5 26 12 10 10 7 18 -10 37 -27 28 -91 31 -138 7z"/>
		<path d="M6086 8820 c-25 -26 -16 -73 15 -73 11 0 21 4 21 10 0 6 7 11 15 11 11 0 16 11 16 36 0 32 -4 37 -24 36 -13 0 -32 -9 -43 -20z"/>
		<path d="M6240 8826 c-13 -6 -26 -24 -30 -40 -3 -16 -11 -29 -16 -29 -5 0 -9 -12 -9 -26 0 -15 -4 -27 -8 -27 -17 0 -46 -93 -43 -138 3 -35 9 -48 27 -56 13 -5 24 -14 24 -18 0 -15 22 -8 45 16 23 23 23 25 7 55 -22 39 -8 71 39 90 37 14 46 46 22 71 -11 10 -11 17 0 33 7 11 12 29 12 39 0 26 -40 43 -70 30z"/>
		<path d="M4767 8812 c-29 -11 -42 -33 -42 -71 0 -21 7 -45 16 -54 25 -25 19 -80 -11 -108 -29 -28 -33 -56 -14 -96 18 -37 93 -70 93 -41 0 6 9 11 21 11 12 0 21 4 21 9 0 20 53 22 94 4 23 -10 43 -22 43 -26 0 -17 26 -8 39 13 7 11 20 21 29 21 10 0 16 10 16 32 0 31 -20 62 -40 62 -11 0 -44 34 -44 45 0 4 18 25 42 48 27 27 42 51 42 69 0 15 -5 27 -11 27 -6 0 -10 7 -10 16 0 8 -8 16 -16 16 -9 0 -16 4 -16 10 0 6 -7 11 -16 11 -8 0 -15 -5 -15 -11 0 -6 -9 -10 -20 -10 -11 0 -23 -8 -26 -16 -11 -28 -66 -19 -101 16 -33 31 -44 35 -74 23z"/>
		<path d="M6703 8742 c-49 -27 -58 -40 -51 -73 4 -18 16 -43 27 -54 24 -27 28 -57 4 -33 -8 9 -15 21 -15 27 0 6 -16 12 -35 12 -63 0 -66 -68 -6 -122 29 -27 115 -27 145 1 44 39 70 130 43 147 -6 3 -11 21 -11 38 0 20 -9 39 -24 52 -26 22 -45 23 -77 5z"/>
		<path d="M7829 8703 c-10 -18 -17 -42 -17 -52 0 -10 -5 -22 -10 -25 -18 -11 -13 -122 6 -144 17 -18 16 -19 -10 -19 -14 0 -30 5 -33 11 -4 5 -19 10 -35 10 -20 0 -32 -8 -41 -28 -16 -35 -17 -56 -3 -56 6 0 11 -7 11 -16 0 -8 7 -15 15 -15 9 0 16 -5 16 -11 0 -6 24 -10 53 -10 28 0 52 4 52 10 0 6 6 11 13 11 19 0 92 70 92 88 0 8 11 28 25 45 13 16 28 39 31 51 4 12 17 32 29 45 41 44 36 128 -8 128 -18 0 -87 -62 -87 -79 0 -17 -42 -49 -54 -42 -6 4 -2 15 11 26 13 10 22 31 22 49 0 61 -52 76 -78 23z"/>
		<path d="M6035 8699 c-17 -17 -30 -45 -34 -71 -4 -24 -12 -55 -18 -67 -9 -18 -8 -27 5 -40 21 -21 60 -21 60 0 0 8 4 16 9 16 5 0 12 18 16 42 4 23 11 42 17 42 16 0 12 73 -4 90 -20 19 -20 19 -51 -12z"/>
		<path d="M1043 8408 c-12 -13 -25 -43 -28 -66 -4 -23 -11 -43 -17 -45 -6 -2 -11 -20 -11 -40 0 -19 -5 -35 -10 -35 -6 0 -13 -17 -17 -37 -4 -21 -11 -40 -16 -43 -16 -10 -11 -65 7 -72 34 -13 82 -6 105 16 30 28 68 19 68 -15 0 -50 51 -66 84 -25 11 13 20 29 20 36 0 8 5 14 10 14 5 0 12 12 16 28 4 16 11 31 15 34 4 3 16 23 28 44 11 20 39 64 61 96 49 71 46 94 -11 90 -35 -3 -42 -9 -61 -47 -11 -24 -29 -49 -39 -55 -16 -10 -18 -9 -18 12 0 13 5 29 11 36 6 6 10 22 8 36 -7 46 -72 38 -97 -12 -4 -9 -14 -28 -23 -42 -14 -25 -15 -24 -15 30 0 80 -30 107 -70 62z"/>
		<path d="M1449 8353 c0 -45 18 -48 53 -10 21 22 23 28 10 36 -9 6 -26 10 -39 10 -20 0 -24 -5 -24 -36z"/>
		<path d="M1937 8307 c-18 -17 -49 -32 -72 -36 -27 -4 -53 -19 -78 -44 -32 -32 -38 -44 -36 -82 1 -24 7 -46 13 -48 6 -2 11 -10 11 -18 0 -23 35 -36 97 -36 69 0 94 21 90 75 -3 46 6 61 33 54 16 -4 21 -14 21 -46 0 -61 24 -83 91 -83 47 0 60 5 87 31 18 17 32 42 32 56 0 13 5 30 12 36 8 9 8 20 -3 44 -8 18 -18 33 -22 33 -4 0 -8 7 -8 15 0 12 -13 16 -57 16 -51 0 -61 -4 -96 -37 -41 -39 -67 -47 -67 -21 0 9 4 16 10 16 6 0 11 6 11 13 0 7 7 27 16 44 12 25 13 32 2 39 -25 16 -55 9 -87 -21z"/>
		<path d="M1689 8299 c-21 -21 -42 -29 -84 -33 -57 -5 -103 -33 -103 -62 0 -8 -5 -14 -11 -14 -6 0 -10 -11 -10 -24 0 -13 -6 -29 -12 -36 -8 -8 -7 -17 3 -34 18 -29 62 -25 77 7 5 13 14 24 18 24 4 0 8 7 8 16 0 9 9 16 22 16 20 0 21 -5 15 -41 -6 -36 -4 -41 17 -47 30 -8 62 19 62 52 0 14 4 25 9 25 6 0 14 28 18 63 4 35 11 66 16 69 14 9 11 47 -4 47 -8 0 -26 -13 -41 -28z"/>
		<path d="M2515 8285 c-4 -6 -23 -11 -43 -11 -40 0 -64 -19 -91 -74 l-18 -36 0 44 c0 37 -4 45 -21 45 -30 0 -53 -11 -53 -26 0 -7 -7 -19 -16 -26 -8 -8 -15 -25 -15 -39 0 -13 -5 -24 -11 -24 -6 0 -10 -8 -10 -16 0 -9 4 -16 9 -16 5 0 13 -14 17 -31 l7 -32 125 0 c101 0 131 4 154 18 55 35 60 45 64 131 3 70 1 82 -13 82 -9 0 -17 5 -17 11 0 5 -14 10 -31 10 -17 0 -34 -5 -37 -10z"/>
		<path d="M1400 8264 c-12 -5 -25 -23 -29 -39 -4 -16 -17 -50 -29 -74 -24 -49 -20 -76 12 -76 25 0 64 35 64 57 0 9 4 16 10 16 13 0 25 67 17 100 -7 28 -11 29 -45 16z"/>
		<path d="M7051 7641 c-3 -7 -4 -53 -3 -102 3 -105 19 -119 73 -62 42 43 54 124 24 157 -21 23 -87 28 -94 7z"/>
		<path d="M4990 7546 c-13 -7 -23 -16 -23 -20 0 -4 -7 -8 -15 -8 -26 0 -60 -40 -66 -78 -3 -21 -10 -37 -15 -37 -5 0 -9 -26 -9 -58 0 -32 4 -58 10 -58 5 0 11 -53 13 -123 l3 -124 33 -3 c28 -3 35 2 50 31 18 36 23 146 6 146 -23 0 -8 45 26 82 40 42 46 68 21 92 -23 23 -20 30 24 52 33 18 40 27 43 60 2 35 0 39 -23 39 -15 0 -30 5 -33 11 -8 12 -13 11 -45 -4z"/>
		<path d="M7833 7550 c0 -6 -12 -11 -26 -11 -15 0 -26 -5 -26 -10 0 -6 -8 -11 -16 -11 -9 0 -16 -7 -16 -16 0 -8 -4 -15 -8 -15 -4 0 -14 -15 -22 -32 -12 -28 -12 -37 2 -67 24 -49 52 -71 103 -77 32 -4 56 -16 80 -38 32 -30 45 -59 26 -59 -4 0 -13 -11 -18 -24 -9 -20 -20 -24 -69 -27 -53 -3 -61 0 -87 29 -21 24 -37 32 -65 32 -35 0 -36 -1 -36 -39 0 -33 7 -47 41 -79 23 -22 52 -39 63 -39 12 0 22 -5 22 -11 0 -6 18 -10 42 -10 23 0 42 4 42 10 0 6 17 11 39 11 43 0 80 25 91 60 4 13 12 24 17 24 6 0 10 25 10 57 0 32 -5 58 -10 58 -6 0 -11 10 -11 22 0 28 -52 80 -89 89 -15 4 -26 11 -26 16 0 5 -8 10 -17 10 -11 0 -15 5 -11 16 4 9 7 19 7 21 0 3 28 5 63 5 l63 0 0 32 c0 45 -22 62 -78 62 -27 0 -48 5 -48 11 0 5 -8 10 -16 10 -9 0 -16 -5 -16 -10z"/>
		<path d="M8962 7541 c-24 -17 -34 -49 -22 -68 19 -31 -5 -54 -68 -62 -31 -4 -58 -12 -60 -18 -3 -6 -10 -11 -18 -11 -7 0 -23 -9 -35 -20 -20 -17 -23 -31 -23 -98 0 -82 15 -129 56 -174 12 -13 27 -23 35 -23 8 0 14 -5 14 -11 0 -6 17 -10 37 -10 20 0 37 4 37 10 0 6 17 11 39 11 22 0 46 5 53 12 8 8 13 50 13 119 0 58 4 110 9 116 16 16 27 173 13 173 -7 0 -12 11 -12 25 0 17 -8 27 -24 31 -29 8 -32 8 -44 -2z m-33 -229 c13 -5 17 -21 17 -63 0 -31 -5 -56 -10 -56 -6 0 -11 -8 -11 -16 0 -12 -12 -16 -47 -16 -44 0 -47 2 -47 26 0 15 -5 27 -11 27 -6 0 -10 11 -10 26 0 14 4 26 10 26 6 0 11 9 11 19 0 11 3 23 7 26 8 9 69 10 91 1z"/>
		<path d="M3780 7531 c0 -4 -11 -13 -24 -18 -23 -11 -38 -55 -22 -67 28 -20 36 -61 36 -185 0 -81 -5 -131 -11 -131 -6 0 -10 -18 -10 -40 0 -33 5 -42 32 -58 42 -23 65 -23 88 3 14 16 17 30 12 66 -9 57 0 66 80 75 33 4 61 12 61 17 0 6 5 10 13 10 26 1 61 42 67 78 4 21 10 38 15 38 5 0 10 28 10 63 0 46 -5 67 -19 81 -22 22 -88 55 -111 55 -9 0 -19 5 -23 11 -7 12 -194 14 -194 2z m210 -114 c49 -44 39 -87 -30 -127 -30 -18 -73 -17 -91 2 -21 20 -20 94 1 111 24 20 60 39 75 40 8 1 28 -11 45 -26z"/>
		<path d="M8119 7474 c-7 -9 -11 -78 -11 -184 0 -168 0 -170 27 -197 14 -14 33 -26 41 -26 8 0 14 -5 14 -11 0 -6 18 -10 40 -10 45 0 86 33 86 68 0 24 -64 59 -71 39 -3 -9 -11 -8 -27 3 -21 14 -23 21 -17 79 6 63 18 83 53 83 9 0 27 12 41 27 l24 26 -24 21 c-13 12 -31 21 -39 21 -16 0 -33 16 -51 48 -14 24 -70 33 -86 13z"/>
		<path d="M7203 7423 c-9 -5 -33 -12 -54 -15 -35 -6 -39 -10 -45 -46 -13 -72 24 -123 95 -135 49 -8 67 -24 67 -60 0 -25 -3 -27 -48 -27 -41 0 -51 5 -79 37 -31 35 -62 48 -62 26 0 -6 -7 -10 -16 -10 -11 0 -15 -13 -15 -46 0 -53 22 -80 65 -80 15 0 31 -5 34 -11 4 -6 32 -10 64 -10 31 0 57 4 57 10 0 6 10 11 22 11 12 0 35 13 52 30 26 26 31 39 31 85 0 46 -5 59 -31 85 -22 22 -40 31 -68 31 -21 0 -37 1 -37 4 0 18 15 38 31 38 20 0 32 19 32 53 0 13 -8 20 -21 20 -11 0 -23 5 -27 11 -8 12 -26 12 -47 -1z"/>
		<path d="M6872 7403 c-34 -22 -94 -28 -105 -11 -13 22 -45 10 -56 -20 -9 -28 1 -235 15 -303 6 -30 26 -30 55 1 18 19 23 37 23 88 0 42 6 76 18 97 17 29 24 32 71 32 90 1 131 62 76 114 -29 27 -55 28 -97 2z"/>
		<path d="M6035 7398 c-10 -9 -24 -16 -33 -16 -30 0 -59 -40 -59 -79 0 -20 5 -37 11 -37 5 0 10 -7 10 -15 0 -8 8 -17 18 -21 35 -13 66 -32 66 -40 0 -4 12 -8 26 -8 31 0 41 -14 33 -48 -13 -49 -105 -28 -125 30 -8 22 -55 24 -76 3 -18 -17 -21 -48 -5 -48 6 0 11 -10 11 -23 0 -33 50 -82 83 -82 15 0 33 -6 40 -13 10 -9 16 -9 26 0 7 7 25 13 40 13 28 0 84 48 84 71 0 7 4 13 10 13 6 0 11 26 11 58 0 32 -5 58 -11 58 -6 0 -10 6 -10 14 0 22 -36 48 -70 50 -24 1 -26 2 -7 6 13 2 24 9 24 14 0 6 9 10 21 10 31 0 26 23 -13 60 -43 41 -83 53 -105 30z"/>
		<path d="M5670 7392 c0 -6 -11 -10 -25 -10 -14 0 -31 -8 -38 -16 -7 -9 -18 -16 -23 -16 -6 0 -17 -7 -25 -15 -17 -17 -21 -79 -4 -79 5 0 10 -6 10 -14 0 -16 48 -39 81 -39 25 0 66 -19 79 -37 13 -17 9 -36 -8 -36 -8 0 -15 -5 -15 -11 0 -6 -15 -10 -32 -10 -17 0 -31 4 -31 10 0 6 -6 11 -12 11 -6 0 -28 7 -47 16 -32 15 -37 15 -51 1 -23 -22 -21 -76 2 -84 10 -4 32 -16 50 -27 23 -15 51 -21 111 -21 84 -1 90 2 122 59 16 28 18 119 3 119 -6 0 -10 6 -10 14 0 18 -32 53 -57 63 -20 7 -20 8 2 23 14 10 23 27 23 46 0 31 -15 43 -59 43 -14 0 -25 4 -25 10 0 6 -5 11 -10 11 -6 0 -11 -5 -11 -11z m53 -115 c0 -6 -15 -11 -32 -11 -17 0 -31 5 -31 11 0 5 14 10 31 10 17 0 32 -5 32 -10z"/>
		<path d="M6405 7393 c0 -5 -12 -12 -27 -16 -31 -8 -76 -50 -96 -88 -16 -30 -18 -159 -3 -159 6 0 11 -7 11 -14 0 -8 14 -28 32 -45 30 -29 37 -31 120 -31 l88 0 42 42 c30 28 43 50 43 70 0 16 5 32 11 35 42 27 -50 193 -108 194 -9 0 -20 5 -24 11 -8 13 -89 14 -89 1z m97 -119 c59 -28 38 -127 -30 -140 -51 -10 -95 3 -103 30 -11 43 -6 84 12 103 22 22 82 26 121 7z"/>
		<path d="M8371 7374 c-16 -34 -17 -66 -2 -66 6 0 10 -37 10 -89 0 -49 4 -89 8 -89 4 0 13 -11 18 -24 6 -13 21 -28 34 -34 13 -6 24 -14 24 -18 0 -5 9 -8 21 -8 12 0 21 4 21 10 0 6 31 11 73 11 45 0 76 4 81 12 10 18 12 283 1 305 -10 21 -60 25 -79 6 -15 -15 -17 -131 -3 -140 7 -4 6 -14 -1 -29 -7 -13 -16 -30 -20 -39 -9 -21 -63 -27 -74 -9 -5 8 -9 54 -10 104 0 100 -12 126 -58 125 -23 0 -34 -7 -44 -28z"/>
		<path d="M9075 7387 c-16 -18 -18 -47 -3 -47 5 0 13 -17 16 -37 4 -21 12 -40 17 -43 5 -3 9 -17 9 -31 0 -14 4 -26 8 -26 14 0 38 -67 39 -105 0 -28 -10 -50 -37 -82 -31 -37 -42 -44 -76 -44 -57 0 -85 -28 -75 -77 8 -44 24 -52 88 -43 35 5 58 17 87 45 22 20 40 41 40 46 0 5 4 15 10 22 52 63 63 81 63 100 0 12 6 25 14 30 14 9 49 77 49 96 0 7 4 12 9 12 5 0 12 8 16 18 3 10 15 33 27 50 51 79 -6 176 -63 108 -11 -13 -20 -32 -20 -42 0 -10 -5 -18 -11 -18 -6 0 -10 -10 -10 -21 0 -12 -5 -21 -11 -21 -6 0 -10 -7 -10 -15 0 -8 -7 -20 -16 -27 -19 -16 -47 8 -47 40 0 12 -5 24 -11 28 -6 3 -10 19 -10 35 0 50 -62 83 -92 49z"/>
		<path d="M4223 7369 c-7 -7 -12 -19 -12 -26 0 -8 -5 -14 -11 -14 -6 0 -10 -49 -10 -127 0 -119 1 -129 23 -148 14 -12 32 -18 44 -15 12 4 25 6 29 6 4 0 7 41 6 90 -1 81 1 91 23 110 14 12 37 21 53 21 51 0 84 23 84 58 0 18 -6 38 -13 45 -15 15 -92 17 -92 2 0 -6 -20 -10 -45 -10 -25 0 -50 4 -56 10 -7 7 -14 6 -23 -2z"/>
		<path d="M4610 7375 c-63 -21 -91 -44 -101 -81 -4 -16 -11 -28 -16 -28 -13 0 -12 -71 1 -79 6 -3 11 -24 11 -46 0 -49 45 -94 103 -103 21 -3 44 -10 50 -15 8 -6 15 -6 19 1 4 6 16 11 27 11 11 0 32 12 46 26 15 15 30 27 35 27 23 0 45 139 24 152 -6 3 -10 20 -10 38 0 23 -11 41 -40 67 -33 31 -47 36 -86 36 -26 -1 -55 -3 -63 -6z m94 -125 c0 -8 5 -15 11 -15 24 0 9 -66 -21 -97 -18 -17 -32 -26 -32 -20 0 6 -8 12 -19 12 -25 0 -54 36 -54 68 0 41 30 68 75 68 29 0 40 -5 40 -16z"/>
		<path d="M5192 7371 c-23 -10 -43 -33 -71 -81 -20 -36 -26 -160 -7 -160 5 0 10 -7 10 -14 0 -15 55 -68 92 -89 13 -7 49 -13 81 -13 53 0 62 3 95 38 28 29 35 44 30 60 -4 13 -8 24 -10 26 -7 8 -88 -11 -88 -20 0 -17 -85 -11 -103 7 -25 25 0 36 82 36 97 0 115 15 115 95 0 55 -4 67 -30 94 -28 29 -35 31 -102 31 -40 -1 -82 -5 -94 -10z"/>
		<path d="M16719 6622 c-39 -38 -33 -99 13 -143 20 -20 37 -44 37 -53 0 -55 -114 -74 -158 -26 -23 24 -25 24 -38 7 -8 -10 -14 -25 -14 -34 -1 -19 73 -94 92 -94 7 0 13 -5 13 -10 0 -6 16 -11 36 -11 20 0 37 4 37 9 0 5 17 12 38 15 37 6 98 61 98 89 0 7 5 13 11 13 6 0 11 12 11 26 0 14 -5 28 -11 32 -6 3 -10 15 -10 27 0 11 -5 20 -11 20 -6 0 -25 13 -42 28 -25 22 -29 31 -19 42 10 12 14 12 20 1 12 -19 45 3 50 33 5 38 -17 54 -76 53 -41 -1 -59 -6 -77 -24z"/>
		<path d="M17013 6590 c-13 -12 -24 -32 -24 -42 0 -10 -8 -34 -17 -52 -30 -58 -33 -65 -40 -110 -12 -66 26 -101 82 -80 19 7 24 64 6 69 -20 7 19 66 53 81 48 21 62 11 56 -39 -7 -52 12 -98 47 -115 35 -16 139 -16 160 1 12 9 19 40 25 111 7 93 6 98 -15 103 -11 3 -21 10 -21 15 0 5 -26 10 -58 10 -42 0 -60 -5 -64 -16 -4 -9 -17 -16 -30 -16 -13 0 -30 7 -37 16 -7 8 -20 16 -28 16 -8 0 -14 10 -14 24 0 50 -42 63 -81 24z m270 -159 c0 -22 -38 -57 -63 -57 -12 0 -21 4 -21 10 0 6 5 11 11 11 5 0 10 6 10 13 0 20 22 39 44 39 10 0 19 -7 19 -16z"/>
		<path d="M17457 6497 c-9 -13 -16 -32 -16 -42 0 -18 -4 -29 -30 -79 -27 -51 -1 -116 34 -87 19 16 80 138 80 161 0 9 5 18 13 21 8 3 4 12 -12 27 -33 29 -49 28 -69 -1z"/>
		<path d="M17688 6513 c-63 -5 -89 -31 -105 -106 -4 -18 -12 -33 -17 -33 -6 0 -10 -17 -10 -37 0 -32 3 -37 26 -37 26 0 79 47 79 71 0 7 12 16 26 19 15 4 27 11 27 16 0 5 7 10 15 10 9 0 16 -5 16 -11 0 -21 28 -10 61 24 18 19 34 39 34 44 0 18 -47 47 -73 46 -15 -1 -50 -4 -79 -6z"/>
		<path d="M17900 6513 c-25 -6 -35 -51 -22 -98 17 -65 3 -76 -59 -46 -32 17 -34 16 -56 -7 -15 -16 -18 -25 -10 -28 7 -2 13 -11 13 -19 0 -19 34 -36 73 -36 18 0 32 -6 32 -13 0 -9 3 -10 8 -2 4 7 26 15 48 19 44 8 60 34 60 96 0 20 4 37 10 37 17 0 12 61 -8 83 -17 20 -47 25 -89 14z"/>
		<path d="M12141 6385 c-14 -12 -24 -32 -24 -47 0 -26 3 -27 50 -27 43 0 51 3 62 27 12 24 10 30 -10 47 -29 24 -49 24 -78 0z"/>
		<path d="M10907 6345 c-10 -2 -18 -9 -18 -14 0 -6 -6 -10 -14 -10 -36 -1 -91 -86 -91 -141 0 -15 -5 -27 -11 -27 -27 0 -1 -63 46 -109 39 -40 100 -47 161 -21 25 11 45 23 45 27 0 5 7 9 16 9 18 0 21 42 4 59 -9 9 -25 5 -59 -13 -27 -14 -59 -25 -71 -25 -33 0 -62 34 -53 64 16 55 40 95 63 103 13 6 28 15 31 21 11 16 54 13 69 -5 18 -21 52 -20 69 3 19 25 18 40 -3 65 -15 18 -30 21 -92 20 -41 0 -82 -3 -92 -6z"/>
		<path d="M12482 6345 c-10 -2 -19 -12 -19 -22 0 -10 -12 -26 -27 -37 -21 -15 -29 -17 -41 -7 -11 9 -15 10 -15 1 0 -6 -10 -11 -22 -11 -25 0 -64 -25 -106 -66 -42 -43 -42 -99 1 -138 18 -15 39 -27 48 -27 9 0 26 -5 37 -11 14 -8 21 -8 21 0 0 6 11 11 24 11 30 0 60 30 60 61 0 20 16 60 31 75 8 8 28 42 54 92 22 43 22 45 4 65 -11 12 -22 21 -26 20 -3 0 -14 -3 -24 -6z m-97 -178 c-12 -49 -68 -80 -68 -37 0 29 30 65 54 65 18 0 20 -5 14 -28z"/>
		<path d="M13014 6280 c-5 -6 -31 -12 -56 -13 -33 -3 -49 -10 -58 -25 -6 -11 -14 -23 -18 -26 -3 -3 -9 -23 -13 -45 -4 -21 -12 -39 -17 -39 -6 0 -10 -17 -10 -37 0 -31 3 -36 24 -36 25 0 81 49 81 71 0 19 59 45 86 38 28 -6 82 33 82 60 0 39 -75 77 -101 52z"/>
		<path d="M11881 6258 c-4 -6 -25 -10 -47 -10 -54 0 -74 -9 -74 -33 0 -11 -5 -20 -10 -20 -6 0 -11 -8 -11 -18 0 -10 -7 -32 -16 -49 -8 -16 -15 -44 -15 -60 0 -24 4 -30 21 -30 24 0 75 45 86 76 9 23 55 41 86 33 28 -7 80 37 80 68 0 39 -81 74 -100 43z"/>
		<path d="M12684 6259 c0 -5 -19 -11 -43 -15 -66 -8 -93 -40 -93 -110 0 -46 4 -60 23 -76 13 -11 30 -20 37 -20 7 0 13 -5 13 -11 0 -6 14 -10 32 -10 17 0 31 4 31 10 0 6 10 11 22 11 28 0 83 55 83 83 0 12 5 22 11 22 5 0 10 21 10 47 0 47 0 47 -42 54 -23 3 -45 10 -48 15 -7 12 -36 12 -36 0z m35 -85 c8 -33 -3 -60 -28 -67 -67 -18 -88 10 -42 56 35 36 62 40 70 11z"/>
		<path d="M12096 6250 c-49 -8 -98 -89 -93 -154 5 -60 30 -70 71 -30 18 18 33 42 33 53 0 12 7 27 15 34 16 13 23 90 8 97 -4 2 -20 2 -34 0z"/>
		<path d="M11232 6240 c-21 -2 -39 -9 -39 -14 0 -6 -6 -10 -14 -10 -8 0 -24 -11 -37 -24 -34 -37 -32 -115 6 -152 24 -25 37 -29 89 -28 49 0 65 5 87 25 14 14 27 31 27 38 0 7 5 15 12 17 6 2 14 31 17 64 4 49 2 60 -12 60 -8 0 -17 4 -19 9 -5 12 -68 20 -117 15z m68 -84 c6 -29 -3 -55 -19 -55 -8 0 -14 -5 -14 -11 0 -16 -49 -12 -63 5 -11 12 -7 21 17 47 33 35 73 42 79 14z"/>
		<path d="M11480 6239 c-6 -4 -15 -24 -19 -44 -5 -20 -17 -44 -28 -54 -13 -11 -19 -31 -19 -61 0 -42 1 -44 28 -41 16 2 34 13 40 25 5 12 25 36 43 55 26 28 41 34 76 34 57 0 96 35 80 71 -9 22 -17 23 -99 23 -50 0 -95 -3 -102 -8z"/>
		<path d="M9694 5003 c-8 -9 -13 -46 -13 -95 0 -70 3 -82 24 -100 13 -10 31 -19 41 -20 10 0 20 -4 24 -10 3 -5 26 -13 50 -17 25 -4 49 -12 53 -19 7 -9 11 -8 14 1 3 8 12 14 21 14 8 0 15 7 15 15 0 27 -66 79 -99 79 -29 0 -51 33 -44 67 3 17 11 35 17 38 6 4 5 17 -3 35 -11 22 -20 28 -50 28 -20 -1 -43 -8 -50 -16z"/>
		<path d="M9687 4704 c-15 -16 -18 -33 -14 -84 2 -36 9 -68 15 -72 6 -4 13 -15 17 -25 4 -11 15 -22 26 -26 10 -4 21 -11 25 -17 4 -6 34 -13 66 -15 61 -5 101 13 101 46 0 8 4 15 10 15 13 0 14 38 1 46 -5 3 -11 24 -14 47 -10 69 -62 106 -153 106 -48 0 -66 -5 -80 -21z m131 -69 c20 -7 45 -63 38 -84 -4 -8 -19 -15 -36 -15 -21 0 -34 9 -47 32 -10 18 -18 38 -18 46 0 18 23 39 36 32 6 -3 18 -8 27 -11z"/>
		<path d="M9650 4463 c0 -6 -8 -11 -16 -11 -28 0 -19 -53 16 -86 24 -23 31 -39 31 -72 0 -23 5 -41 11 -41 5 0 10 -6 10 -12 0 -34 71 -72 133 -72 60 0 79 19 85 84 8 84 1 97 -82 140 -41 21 -84 38 -95 38 -11 0 -20 5 -20 11 0 5 -9 10 -21 10 -12 0 -21 5 -21 11 0 5 -7 10 -16 10 -8 0 -15 -5 -15 -10z m168 -159 c0 -11 4 -20 10 -20 6 0 11 -7 11 -16 0 -10 -10 -15 -27 -15 -16 0 -26 5 -26 16 0 8 -7 18 -16 22 -19 7 -21 32 -2 38 24 8 50 -5 50 -25z"/>
		<path d="M9513 4168 c-18 -16 -22 -25 -13 -28 7 -3 13 -11 13 -20 0 -8 11 -14 26 -14 15 0 27 -5 27 -11 0 -17 51 24 52 40 0 20 -24 42 -54 49 -18 5 -33 0 -51 -16z"/>
		<path d="M9674 4089 c-8 -21 46 -74 85 -84 15 -4 27 -11 27 -16 0 -5 12 -9 26 -9 14 0 28 -5 31 -10 3 -5 21 -6 40 -2 68 14 39 85 -36 85 -22 0 -40 5 -40 11 0 5 -7 10 -14 10 -8 0 -21 7 -28 16 -18 21 -83 20 -91 -1z"/>
		<path d="M9691 3952 c-13 -15 -16 -153 -4 -173 3 -4 19 -11 37 -15 17 -4 45 -14 60 -22 16 -8 34 -14 41 -14 8 0 14 -5 14 -11 0 -21 61 -11 74 12 14 27 -2 72 -27 72 -9 0 -16 5 -16 10 0 6 -18 13 -39 17 -48 9 -55 18 -55 73 0 24 -6 48 -13 55 -18 18 -56 16 -72 -4z"/>
		<path d="M9694 3701 c-8 -8 -13 -43 -13 -83 0 -64 2 -69 26 -75 15 -4 27 -11 27 -16 0 -5 8 -9 19 -9 25 0 86 -31 86 -43 0 -17 80 -11 95 7 11 14 8 21 -19 47 -19 17 -43 31 -55 31 -12 0 -21 4 -21 10 0 6 -7 11 -15 11 -24 0 -52 39 -45 63 10 39 -10 73 -43 73 -16 -1 -35 -8 -42 -16z"/>
		<path d="M9734 3467 c0 -4 -11 -12 -24 -18 -13 -6 -28 -21 -34 -34 -6 -13 -14 -23 -18 -23 -5 0 -8 -15 -8 -32 0 -17 4 -31 10 -31 5 0 13 -12 17 -27 3 -14 10 -26 14 -26 5 0 11 -9 14 -21 7 -26 48 -42 107 -42 70 0 97 14 105 54 5 20 13 42 19 49 8 10 8 16 0 21 -6 4 -14 19 -19 34 -11 38 -26 52 -54 52 -13 0 -24 5 -24 10 0 6 -19 14 -42 17 -24 4 -42 11 -42 16 0 5 -5 10 -11 10 -6 0 -10 -4 -10 -9z m73 -97 c0 -6 12 -15 26 -20 19 -8 27 -18 27 -37 0 -24 -5 -26 -39 -26 -46 0 -87 33 -87 70 0 20 5 24 36 24 20 0 37 -5 37 -11z"/>
		<path d="M9563 3206 c-10 -3 -21 -20 -25 -42 -7 -40 3 -152 15 -161 4 -3 12 -15 19 -26 6 -12 22 -27 34 -33 13 -6 33 -22 44 -34 18 -19 33 -22 99 -22 54 0 81 4 86 13 5 8 17 17 27 21 11 4 22 15 25 26 3 10 10 26 15 36 22 40 8 82 -44 137 -32 33 -55 37 -79 13 -15 -15 -15 -21 -2 -45 8 -16 20 -35 28 -43 8 -8 11 -21 8 -29 -3 -9 -6 -20 -6 -25 0 -6 -28 -10 -63 -10 -45 0 -63 4 -63 14 0 7 -14 27 -31 44 -36 34 -39 51 -15 98 23 47 16 69 -22 71 -18 1 -40 0 -50 -3z"/>
		<path d="M10494 2485 c-33 -19 -57 -46 -57 -65 0 -19 -32 -82 -44 -87 -5 -2 -11 -27 -15 -55 -4 -29 -11 -52 -16 -52 -13 0 -11 -36 4 -50 7 -7 23 -13 36 -13 14 0 25 -5 25 -10 0 -6 9 -11 20 -11 11 0 23 5 27 11 3 5 25 10 48 10 22 0 41 4 41 10 0 5 13 12 29 16 41 9 74 84 78 179 1 40 -1 79 -5 86 -24 38 -125 57 -171 31z m78 -191 c10 -10 -23 -34 -58 -41 -38 -8 -47 0 -34 35 9 22 15 24 48 19 21 -4 40 -9 44 -13z"/>
		<path d="M11332 2459 c-13 -11 -24 -38 -29 -68 -4 -27 -12 -49 -17 -49 -5 0 -9 -10 -9 -22 0 -44 -19 -62 -64 -62 -22 0 -50 -6 -62 -13 -16 -11 -24 -9 -41 6 -21 19 -21 19 2 44 13 13 40 28 60 33 32 8 37 14 40 47 3 35 1 38 -29 42 -58 9 -88 -3 -124 -46 -30 -38 -34 -50 -34 -107 0 -70 20 -101 63 -101 12 0 31 -6 42 -13 17 -10 25 -10 42 0 11 7 37 13 58 13 20 0 37 5 37 11 0 5 6 10 14 10 8 0 20 7 28 16 7 8 21 16 31 16 10 0 24 -8 32 -16 21 -26 42 -19 42 13 0 38 22 86 39 86 7 0 13 8 13 16 0 9 5 16 11 16 5 0 10 14 10 32 0 28 -3 31 -36 31 -20 0 -38 -6 -41 -13 -3 -7 -6 12 -6 42 -1 50 -3 55 -26 55 -13 0 -34 -8 -46 -19z"/>
		<path d="M11815 2467 c-13 -5 -23 -16 -23 -23 0 -24 -36 -48 -55 -36 -16 10 -82 -11 -82 -26 0 -4 -11 -9 -24 -13 -32 -8 -60 -62 -60 -116 0 -35 7 -51 33 -78 27 -28 40 -33 82 -33 39 0 54 5 72 26 13 15 23 32 23 39 0 20 43 103 53 103 6 0 10 -26 10 -58 0 -75 35 -120 94 -120 32 0 47 8 96 57 31 32 60 58 65 58 4 0 8 -14 8 -31 0 -21 5 -32 15 -32 9 0 16 -4 16 -8 0 -11 63 -34 91 -34 21 0 89 64 101 95 3 8 6 2 7 -14 0 -17 8 -37 16 -46 14 -13 21 -14 47 -2 17 7 33 21 36 30 7 19 28 51 46 71 7 8 31 17 52 20 40 6 87 39 87 61 0 7 -11 22 -24 35 -18 17 -39 23 -89 25 -60 2 -66 0 -91 -29 -15 -17 -27 -35 -27 -40 0 -4 -9 -20 -21 -35 l-21 -27 0 39 c0 60 -36 90 -109 90 -55 0 -61 -3 -100 -44 -24 -24 -44 -42 -46 -39 -2 2 -9 17 -16 33 -6 16 -19 29 -28 29 -9 0 -16 5 -16 11 0 5 -7 10 -16 10 -8 0 -15 -5 -15 -10 0 -6 -16 -11 -36 -11 -43 0 -101 -28 -101 -48 0 -8 -7 -15 -16 -15 -8 0 -15 4 -15 9 0 5 7 15 15 23 19 15 21 87 3 102 -8 6 -23 7 -37 2z m187 -173 c0 -53 -64 -89 -94 -53 -10 12 -6 21 17 46 37 41 77 44 77 7z m252 -3 c0 -36 -18 -54 -50 -54 -35 0 -41 27 -13 58 34 36 63 34 63 -4z m-536 -2 c0 -6 -5 -10 -12 -10 -7 0 -18 -8 -25 -18 -7 -10 -18 -14 -25 -9 -10 6 -8 13 6 27 21 21 56 27 56 10z"/>
		<path d="M10889 2405 c0 -6 -22 -11 -48 -11 -44 0 -84 -16 -117 -48 -17 -16 -28 -101 -20 -146 5 -29 13 -38 35 -44 16 -3 35 -11 42 -16 15 -12 118 0 118 13 0 6 9 10 19 10 17 0 21 12 27 81 4 45 11 83 17 85 6 2 11 22 11 45 0 41 -1 41 -42 41 -24 0 -42 -5 -42 -10z m-21 -123 c0 -26 -32 -56 -60 -56 -19 0 -24 6 -24 24 0 32 18 50 54 50 21 0 30 -6 30 -18z"/>
		<path d="M7703 1584 c-3 -14 -6 -60 -6 -103 0 -62 5 -84 20 -103 25 -30 50 -30 75 -1 25 29 25 36 -1 59 -12 10 -21 26 -21 36 0 11 9 27 21 37 12 10 21 23 21 30 0 22 -39 57 -71 63 -26 6 -32 3 -38 -18z"/>
		<path d="M6892 1166 c-13 -5 -26 -15 -30 -21 -4 -7 -19 -17 -33 -22 -17 -7 -25 -18 -25 -36 0 -21 -5 -26 -26 -26 -15 0 -26 4 -26 10 0 6 -14 11 -30 11 -56 0 -156 -129 -117 -153 5 -3 10 -19 10 -35 0 -39 18 -54 63 -54 51 0 104 27 116 60 15 38 13 43 -19 47 -28 4 -28 4 5 10 31 5 35 3 35 -19 0 -20 5 -24 31 -24 31 0 32 0 32 57 0 48 3 58 18 58 10 0 24 -14 32 -31 10 -23 22 -32 40 -32 25 0 25 1 25 99 0 80 -3 99 -17 105 -22 8 -57 7 -84 -4z"/>
		<path d="M5972 706 c-16 -2 -29 -8 -29 -14 0 -5 -7 -9 -15 -9 -22 0 -69 -61 -69 -90 0 -14 -5 -28 -10 -31 -22 -14 -10 -51 30 -91 40 -40 64 -51 64 -30 0 6 9 11 21 11 12 0 21 7 21 15 0 11 11 16 37 16 35 0 79 29 79 52 0 5 -12 19 -27 30 -22 18 -26 29 -26 79 0 42 -4 59 -17 64 -9 3 -19 5 -23 4 -4 0 -20 -3 -36 -6z"/>
	</g>
</svg>
