<?xml version="1.0" encoding="utf-8"?>
<svg xmlns="http://www.w3.org/2000/svg" xmlns:serif="http://www.serif.com/" xmlns:xlink="http://www.w3.org/1999/xlink" height="100%" style="fill-rule:evenodd;clip-rule:evenodd;stroke-linecap:round;stroke-linejoin:round;stroke-miterlimit:1.5;" version="1.1" viewBox="0 0 452 68" width="100%" xml:space="preserve">
<title>Sixth set of hieroglyphics, fourteen little dancing men, one upside down. Three of them are holding up black flags, including the upside-down figure.</title>
<path d="M328.636,11.455l11.327,10.963l10.582,-10.089" style="fill:none;stroke:#000;stroke-width:2.5px;"/><path d="M323.172,41.678l4.802,-0.024l-3.254,-11.418l14.372,3.386l0.994,-15.331" style="fill:none;stroke:#000;stroke-width:2.5px;"/><path d="M342.478,49.397l-3.823,-0.493l1.192,-16.632" style="fill:none;stroke:#000;stroke-width:2.5px;"/><ellipse cx="339.388" cy="13.83" rx="3.366" ry="3.295"/><path d="M382.479,12.341l-21.922,10.619l8.743,6.469l7.512,8.084l-8.366,10.363l4.479,1.966" style="fill:none;stroke:#000;stroke-width:2.5px;"/><path d="M357.888,44.941l3.573,-2.399l-6.747,-7.564l14.286,-4.507l0.787,-13.777" style="fill:none;stroke:#000;stroke-width:2.5px;"/><ellipse cx="369.181" cy="13.892" rx="3.366" ry="3.295"/><path d="M390.477,12.43l9.703,9.299l11.659,-8.276" style="fill:none;stroke:#000;stroke-width:2.5px;"/><path d="M387.206,45.585l4.02,-0.964l-4.233,-10.065l12.948,-3.748l0.557,-13.117" style="fill:none;stroke:#000;stroke-width:2.5px;"/><path d="M403.166,49.412l-2.743,-1.113l6.425,-9.521l-8.017,-8.476" style="fill:none;stroke:#000;stroke-width:2.5px;"/><ellipse cx="400.208" cy="14.457" rx="3.366" ry="3.295"/><path d="M416.329,12.629l10.186,10.316l9.666,-9.731" style="fill:none;stroke:#000;stroke-width:2.5px;"/><path d="M415.335,47.28l4.618,0.508l6.409,-16.526l0.773,-13.841" style="fill:none;stroke:#000;stroke-width:2.5px;"/><path d="M436.891,47.42l-3.606,0.639l-6.142,-16.33" style="fill:none;stroke:#000;stroke-width:2.5px;"/><ellipse cx="426.441" cy="15.019" rx="3.366" ry="3.295"/><ellipse cx="306.835" cy="47.312" rx="3.366" ry="3.295"/><path d="M295.845,14.283l3.472,-2.566l8.751,15.68l8.191,-13.904l3.207,2.631" style="fill:none;stroke:#000;stroke-width:2.5px;"/><path d="M296.21,49.44l11.222,-9.493l10.386,7.546l0.848,8.692" style="fill:none;stroke:#000;stroke-width:2.5px;"/><path d="M307.977,26.01l-0.53,16.788" style="fill:none;stroke:#000;stroke-width:2.5px;"/><rect height="5.863" style="stroke:#000;stroke-width:2.5px;" width="5.875" x="318.913" y="53.542"/><ellipse cx="276.77" cy="14.701" rx="3.366" ry="3.295"/><path d="M266.615,12.239l10.12,8.788l11.143,-8.667" style="fill:none;stroke:#000;stroke-width:2.5px;"/><path d="M266.866,47.399l3.136,1.466l6.332,-18l0.131,-13.258" style="fill:none;stroke:#000;stroke-width:2.5px;"/><path d="M287.671,46.468l-3.621,-0.748l6.755,-8.278l-13.742,-6.876" style="fill:none;stroke:#000;stroke-width:2.5px;"/><ellipse cx="244.126" cy="14.466" rx="3.366" ry="3.295"/><path d="M233.988,12.11l9.67,8.301l11.542,-7.363l-0.17,-5.303" style="fill:none;stroke:#000;stroke-width:2.5px;"/><path d="M233.708,47.934l3.845,1.53l7.261,-15.232l0.018,-17.552" style="fill:none;stroke:#000;stroke-width:2.5px;"/><path d="M254.052,46.671l-3.698,2.043l-5.813,-13.925" style="fill:none;stroke:#000;stroke-width:2.5px;"/><rect height="5.863" style="stroke:#000;stroke-width:2.5px;" width="5.875" x="254.923" y="4.923"/><ellipse cx="211.483" cy="14.231" rx="3.366" ry="3.295"/><path d="M201.602,13.918l9.942,7.499l11.292,-7.604" style="fill:none;stroke:#000;stroke-width:2.5px;"/><path d="M203.376,48.371l4.694,2.228l3.479,-18.672l0.213,-15.251" style="fill:none;stroke:#000;stroke-width:2.5px;"/><path d="M229.656,31.823l-0.253,3.195l-18.198,-3.079" style="fill:none;stroke:#000;stroke-width:2.5px;"/><ellipse cx="180.924" cy="16.457" rx="3.366" ry="3.295"/><path d="M171.604,14.912l9.343,8.497l11.228,-9.254" style="fill:none;stroke:#000;stroke-width:2.5px;"/><path d="M169.983,47.242l3.465,2.183l7.292,-13.749l0.316,-16.446" style="fill:none;stroke:#000;stroke-width:2.5px;"/><path d="M190.484,46.646l-3.441,2.365l-5.294,-13.604" style="fill:none;stroke:#000;stroke-width:2.5px;"/><ellipse cx="153.06" cy="15.525" rx="3.35" ry="3.295"/><path d="M149.434,50.52l6.3,-0.07" style="fill:none;stroke:#000;stroke-width:2.5px;"/><path d="M153.252,16.213l-0.258,34.267" style="fill:none;stroke:#000;stroke-width:2.5px;"/><path d="M164.511,13.269l-11.299,8.296l-9.437,-7.251" style="fill:none;stroke:#000;stroke-width:2.5px;"/><ellipse cx="123.109" cy="16.878" rx="3.35" ry="3.295"/><path d="M111.719,14.629l10.915,9.653l9.726,-6.916l0.163,-10.147" style="fill:none;stroke:#000;stroke-width:2.5px;"/><path d="M112.51,48.839l3.926,1.456l6.535,-13.807l0.083,-16.884" style="fill:none;stroke:#000;stroke-width:2.5px;"/><path d="M134.067,48.071l-4.272,2.247l-6.627,-14.554" style="fill:none;stroke:#000;stroke-width:2.5px;"/><rect height="5.863" style="stroke:#000;stroke-width:2.5px;" width="5.875" x="132.062" y="6.243"/><ellipse cx="92.857" cy="17.689" rx="3.35" ry="3.295"/><path d="M81.277,15.089l10.599,9.379l12.297,-8.98" style="fill:none;stroke:#000;stroke-width:2.5px;"/><path d="M81.955,48.826l4.443,-2.048l-7.706,-9.503l14.018,-2.377l0.185,-14.927" style="fill:none;stroke:#000;stroke-width:2.5px;"/><path d="M98.696,51.115l-4.441,-1.191l8.738,-7.767l-10.551,-7.821" style="fill:none;stroke:#000;stroke-width:2.5px;"/><ellipse cx="61.484" cy="16.686" rx="3.35" ry="3.295"/><path d="M50.809,15.215l10.857,9.26l11.082,-9.036" style="fill:none;stroke:#000;stroke-width:2.5px;"/><path d="M46.546,44.95l4.951,-1.075l-5.422,-10.391l14.881,1.502" style="fill:none;stroke:#000;stroke-width:2.5px;"/><path d="M64.376,51.085l-3.191,-0.082l0.527,-31.614" style="fill:none;stroke:#000;stroke-width:2.5px;"/><ellipse cx="26.555" cy="18.42" rx="3.35" ry="3.295" style="stroke:#000;stroke-width:0.75px;"/><path d="M14.299,15.927l11.725,10.298l11.184,-10.379" style="fill:none;stroke:#000;stroke-width:2.5px;"/><path d="M14.283,50.844l4.741,-2.098l-7.662,-9.97l15.037,-4.249l-0.039,-12.973" style="fill:none;stroke:#000;stroke-width:2.5px;"/><path d="M33.452,52.667l-5.096,-1.513l6.082,-7.619l-8.365,-9.713" style="fill:none;stroke:#000;stroke-width:2.5px;"/></svg>
