<?xml version="1.0" encoding="utf-8"?>
<svg xmlns="http://www.w3.org/2000/svg" xmlns:svg="http://www.w3.org/2000/svg" version="1.1" viewBox="0 0 282 50">
	<title>Second set of hieroglyphics, a line of nine small figures of dancing men in various attitudes.</title>
	<path d="m 260.06641,0.42773438 a 1.2758188,1.2758188 0 0 0 -1.14649,0.81835942 l -3.58789,8.9863282 a 1.2758188,1.2758188 0 0 0 0.9082,1.71875 l 20.47071,4.564453 a 1.2758188,1.2758188 0 0 0 1.48242,-0.828125 l 3.73047,-10.7460938 a 1.2758188,1.2758188 0 1 0 -2.41016,-0.8359374 l -3.35742,9.6718752 -17.89844,-3.9902346 3.03125,-7.59375 a 1.2758188,1.2758188 0 0 0 -1.22265,-1.76562502 z"/>
	<path d="M 269.01953,8.6796875 A 1.2758188,1.2758188 0 0 0 267.75,9.6777344 l -3.04297,12.7988276 -12.4082,-2.732421 a 1.2758188,1.2758188 0 0 0 -1.42774,1.791015 l 4.87305,10.320313 -3.13281,0.474609 a 1.2761547,1.2761547 0 1 0 0.38281,2.523438 l 4.82813,-0.732422 a 1.2758188,1.2758188 0 0 0 0.96289,-1.806641 l -4.49805,-9.519531 11.0957,2.443359 a 1.2758188,1.2758188 0 0 0 1.51563,-0.951172 l 3.33398,-14.019531 a 1.2758188,1.2758188 0 0 0 -1.21289,-1.5878905 z"/>
	<path d="m 264.91992,22.498047 a 1.2758188,1.2758188 0 0 0 -1.10742,1.892578 l 5.45898,10.208984 -5.8496,8.384766 a 1.2758188,1.2758188 0 0 0 0.66015,1.945313 l 3.88086,1.230468 a 1.2758188,1.2758188 0 1 0 0.77149,-2.43164 l -2.22852,-0.707032 5.30664,-7.601562 a 1.2758188,1.2758188 0 0 0 0.0781,-1.332031 L 266.06055,23.1875 a 1.2758188,1.2758188 0 0 0 -1.14063,-0.689453 z"/>
	<path d="M 268.78906 4.40625 C 266.69774 4.4062472 264.98828 6.0845899 264.98828 8.1523438 C 264.98828 10.220098 266.69774 11.89844 268.78906 11.898438 C 270.88038 11.898433 272.58984 10.220093 272.58984 8.1523438 C 272.58984 6.0845942 270.88038 4.4062533 268.78906 4.40625 z"/>
	<path d="m 164.75195,3.015625 a 1.2758188,1.2758188 0 0 0 -0.83593,2.2597656 l 11.76757,9.9980474 a 1.2758188,1.2758188 0 0 0 1.59375,0.04687 L 189.21289,6.3320312 A 1.2758188,1.2758188 0 1 0 187.67773,4.2949219 L 176.55664,12.667969 165.56836,3.3300781 A 1.2758188,1.2758188 0 0 0 164.75195,3.015625 Z"/>
	<path d="m 176.48438,7.2109375 a 1.2758188,1.2758188 0 0 0 -1.31836,1.2304687 l -0.71094,14.4179688 -13.75,2.841797 -0.62305,-3.228516 a 1.2761224,1.2761224 0 1 0 -2.50586,0.484375 l 0.8711,4.498047 a 1.2758188,1.2758188 0 0 0 1.50976,1.007813 l 14.70899,-3.041016 -0.20118,15.851563 a 1.2758188,1.2758188 0 0 0 1.04493,1.269531 l 4.66601,0.857422 a 1.2758188,1.2758188 0 1 0 0.46094,-2.507813 l -3.60742,-0.664062 0.21875,-17.277344 a 1.2758188,1.2758188 0 0 0 -0.20703,-0.730469 l 0.67382,-13.6542968 a 1.2758188,1.2758188 0 0 0 -1.23046,-1.3554687 z"/>
	<path d="M 176.5918 2.9667969 C 174.50061 2.9669145 172.79109 4.6452722 172.79102 6.7128906 C 172.79109 8.7805091 174.50061 10.458867 176.5918 10.458984 C 178.68298 10.458867 180.39251 8.7805091 180.39258 6.7128906 C 180.3925 4.6452722 178.68298 2.9669145 176.5918 2.9667969 z"/>
	<path d="m 194.5293,3.4863281 a 1.2758188,1.2758188 0 0 0 -0.97657,0.5273438 l -3.06835,4.2421875 A 1.2758188,1.2758188 0 1 0 192.55273,9.75 l 2.02149,-2.7949219 10.1543,14.3671879 a 1.2758188,1.2758188 0 0 0 2.08398,-0.002 l 9.79883,-13.9218745 0.77539,0.9648437 A 1.2759317,1.2759317 0 0 0 219.375,6.7636719 L 217.53516,4.4804688 A 1.2758188,1.2758188 0 0 0 215.5,4.5449219 L 205.76758,18.373047 195.62695,4.0234375 A 1.2758188,1.2758188 0 0 0 194.5293,3.4863281 Z"/>
	<path d="m 205.92578,18.759766 a 1.2758188,1.2758188 0 0 0 -1.19922,1.21875 l -0.71875,12.5 -10.58203,7.628906 a 1.2760116,1.2760116 0 1 0 1.49219,2.070312 l 9.01562,-6.5 -0.043,2.830078 a 1.2758188,1.2758188 0 1 0 2.55079,0.03711 l 0.0801,-5.339844 0.75196,-13.080078 a 1.2758188,1.2758188 0 0 0 -1.34766,-1.365234 z"/>
	<path d="M 205.04297 37.646484 C 202.95165 37.646482 201.24219 39.324824 201.24219 41.392578 C 201.24219 43.460332 202.95165 45.138675 205.04297 45.138672 C 207.13428 45.138669 208.84375 43.460328 208.84375 41.392578 C 208.84375 39.324829 207.13428 37.646488 205.04297 37.646484 z"/>
	<path d="m 221.95703,2.3359375 a 1.2758188,1.2758188 0 0 0 -0.78125,2.2304687 L 233.24609,15.53125 a 1.2758188,1.2758188 0 0 0 0.0801,0.06641 l -0.3789,10.240235 a 1.2758188,1.2758188 0 0 0 -0.33204,0.421875 L 225.82031,40.125 223.22852,38.654297 a 1.2758188,1.2758188 0 1 0 -1.25977,2.21875 l 3.76953,2.138672 a 1.2758188,1.2758188 0 0 0 1.77539,-0.546875 l 6.25586,-12.763672 5.74414,11.542969 a 1.2758188,1.2758188 0 0 0 1.63672,0.609375 l 4.42969,-1.863282 a 1.2758188,1.2758188 0 1 0 -0.98828,-2.351562 l -3.32813,1.398437 -5.81836,-11.693359 0.46485,-12.605469 10.60937,-8.8906248 a 1.2758188,1.2758188 0 1 0 -1.63867,-1.9550781 l -8.84375,7.4082029 0.0664,-1.7910154 a 1.2758188,1.2758188 0 1 0 -2.54883,-0.09375 l -0.10547,2.8515624 -10.5586,-9.5898436 a 1.2758188,1.2758188 0 0 0 -0.93359,-0.3417969 z"/>
	<path d="M 234.63867 3.0019531 C 232.54736 3.0019564 230.83789 4.6802973 230.83789 6.7480469 C 230.83789 8.8157963 232.54736 10.494137 234.63867 10.494141 C 236.72999 10.494143 238.43945 8.8158006 238.43945 6.7480469 C 238.43945 4.680293 236.72999 3.0019504 234.63867 3.0019531 z"/>
	<path d="m 66.193359,1.5566406 a 1.2758188,1.2758188 0 0 0 -0.861328,2.25 L 76.876953,13.837891 a 1.2758188,1.2758188 0 0 0 1.654297,0.01563 L 89.746094,4.4863281 A 1.2758188,1.2758188 0 1 0 88.111328,2.5273438 L 77.730469,11.199219 67.005859,1.8808594 a 1.2758188,1.2758188 0 0 0 -0.8125,-0.3242188 z"/>
	<path d="M 78.140625,7.9570312 A 1.2758188,1.2758188 0 0 0 76.820312,9.1855469 L 76.029297,24.728516 69.173828,37.935547 67.421875,36.814453 a 1.2762059,1.2762059 0 1 0 -1.375,2.150391 l 2.929687,1.873047 a 1.2758188,1.2758188 0 0 0 1.820313,-0.486329 L 78.419922,25.658203 A 1.2758188,1.2758188 0 0 0 78.5625,25.134766 L 79.367188,9.3144531 A 1.2758188,1.2758188 0 0 0 78.140625,7.9570312 Z"/>
	<path d="m 77.171875,23.666016 a 1.2758188,1.2758188 0 0 0 -1.160156,1.861328 l 7.5625,15.146484 a 1.2758188,1.2758188 0 0 0 1.943359,0.421875 l 2.523438,-2.037109 A 1.2763975,1.2763975 0 1 0 86.4375,37.072266 l -1.289062,1.041015 -6.853516,-13.724609 a 1.2758188,1.2758188 0 0 0 -1.123047,-0.722656 z"/>
	<path d="M 77.255859 2.5546875 C 75.164542 2.5546871 73.455078 4.2330292 73.455078 6.3007812 C 73.455078 8.3685335 75.164542 10.046875 77.255859 10.046875 C 79.347176 10.046875 81.058594 8.368533 81.058594 6.3007812 C 81.058594 4.2330295 79.347176 2.5546877 77.255859 2.5546875 z"/>
	<path d="m 103.00977,0.00195313 a 1.2758188,1.2758188 0 0 0 -1.13282,0.83593749 L 98.955078,8.4960938 a 1.2758188,1.2758188 0 0 0 0.771484,1.6582032 l 14.111328,4.925781 -4.99805,2.773438 a 1.2760469,1.2760469 0 1 0 1.24024,2.230468 l 7.48242,-4.154296 a 1.2758188,1.2758188 0 0 0 -0.19922,-2.320313 l -15.55664,-5.4316406 2.45313,-6.4296875 a 1.2758188,1.2758188 0 0 0 -1.25,-1.74609377 z"/>
	<path d="m 110.21289,6.4550781 a 1.2758188,1.2758188 0 0 0 -1.29492,1.1152344 l -2.01953,14.4062495 -9.49219,3.824219 a 1.2758188,1.2758188 0 0 0 -0.777344,0.953125 l -1.697265,9.21875 -2.773438,-1.396484 a 1.2758188,1.2758188 0 1 0 -1.146484,2.279297 l 4.292969,2.162109 a 1.2758188,1.2758188 0 0 0 1.828124,-0.908203 l 1.876954,-10.203125 9.525394,-3.837891 a 1.2758188,1.2758188 0 0 0 0.78711,-1.005859 l 2.12109,-15.1367188 a 1.2758188,1.2758188 0 0 0 -1.23047,-1.4707031 z"/>
	<path d="m 107.5957,20.998047 a 1.2758188,1.2758188 0 0 0 -0.98828,2.029297 l 6.89844,9.707031 -5.49609,7.152344 a 1.2758188,1.2758188 0 0 0 0.40429,1.898437 l 3.89453,2.115235 a 1.2758188,1.2758188 0 1 0 1.2168,-2.242188 l -2.58203,-1.402344 5.16016,-6.714843 a 1.2758188,1.2758188 0 0 0 0.0293,-1.515625 L 108.6875,21.548828 a 1.2758188,1.2758188 0 0 0 -1.0918,-0.550781 z"/>
	<path d="M 110.53906 2.3164062 C 108.44775 2.3164095 106.73828 3.9947504 106.73828 6.0625 C 106.73828 8.1302496 108.44775 9.8085905 110.53906 9.8085938 C 112.63038 9.8085964 114.33984 8.1302538 114.33984 6.0625 C 114.33984 3.9947462 112.63038 2.3164036 110.53906 2.3164062 z"/>
	<path d="m 146.42773,2.9941406 a 1.2758188,1.2758188 0 0 0 -0.79687,0.2617188 L 134.87891,11.248047 125.26562,3.4550781 A 1.2761069,1.2761069 0 1 0 123.6582,5.4375 l 10.38282,8.416016 a 1.2758188,1.2758188 0 0 0 1.56445,0.0332 l 11.54687,-8.5820315 a 1.2758188,1.2758188 0 0 0 -0.72461,-2.3105469 z"/>
	<path d="M 135.37109,9.1777344 A 1.2758188,1.2758188 0 0 0 134.1543,10.378906 L 131.95703,41 129.31055,40.226562 a 1.2758188,1.2758188 0 1 0 -0.7168,2.447266 l 4.16406,1.21875 a 1.2758188,1.2758188 0 0 0 1.63086,-1.132812 l 1.22071,-17.017578 16.72851,1.365234 a 1.2758188,1.2758188 0 0 0 1.36523,-1.083984 l 0.48633,-3.267579 a 1.2758188,1.2758188 0 1 0 -2.52343,-0.375 l -0.31055,2.085938 -15.56445,-1.269531 0.90625,-12.636719 a 1.2758188,1.2758188 0 0 0 -1.32618,-1.3828126 z"/>
	<path d="M 135.48828 2.7792969 C 133.39697 2.7793001 131.6875 4.457641 131.6875 6.5253906 C 131.6875 8.5931402 133.39697 10.271481 135.48828 10.271484 C 137.5796 10.271487 139.28906 8.5931445 139.28906 6.5253906 C 139.28906 4.4576368 137.5796 2.7792941 135.48828 2.7792969 z"/>
	<path d="M 25.033203,1.5605469 A 1.2758188,1.2758188 0 0 0 24.232422,1.8125 L 12.457031,10.34375 2.0917969,1.96875 A 1.2758188,1.2758188 0 1 0 0.48828125,3.953125 L 11.613281,12.941406 a 1.2758188,1.2758188 0 0 0 1.550781,0.04102 L 25.730469,3.8789062 A 1.2758188,1.2758188 0 0 0 25.033203,1.5605469 Z M 11.189453,21.529297 a 1.2758188,1.2758188 0 0 0 -0.205078,2.521484 l 12.548828,2.958985 -6.294922,10.03125 a 1.2758188,1.2758188 0 0 0 0.957031,1.947265 l 5.734376,0.558594 a 1.2758188,1.2758188 0 1 0 0.246093,-2.539063 l -3.677734,-0.359374 6.144531,-9.792969 A 1.2758188,1.2758188 0 0 0 25.855469,24.935547 L 11.570312,21.566406 a 1.2758188,1.2758188 0 0 0 -0.380859,-0.03711 z"/>
	<path d="M 13.371094 0.52929688 C 11.279887 0.52929706 9.5703125 2.2057996 9.5703125 4.2734375 C 9.5703125 6.3410753 11.279887 8.0195312 13.371094 8.0195312 C 15.462301 8.0195316 17.171875 6.3410757 17.171875 4.2734375 C 17.171875 2.2057992 15.462301 0.5292965 13.371094 0.52929688 z"/>
	<path d="M 35.521484,1.3105469 A 1.2758188,1.2758188 0 0 0 34.578125,1.7695312 L 31.855469,5.046875 a 1.2758188,1.2758188 0 1 0 1.960937,1.6308594 L 35.460938,4.6992188 44.314453,17.615234 44.205078,32.369141 33.757812,42.28125 a 1.2758188,1.2758188 0 1 0 1.75586,1.849609 l 8.666016,-8.21875 -0.0039,0.591797 a 1.2758188,1.2758188 0 1 0 2.550781,0.01758 l 0.0059,-0.669922 8.193359,7.177735 -0.103515,4.136719 a 1.2758188,1.2758188 0 1 0 2.550781,0.0625 l 0.117187,-4.732422 a 1.2758188,1.2758188 0 0 0 -0.433593,-0.992188 l -10.300782,-9.021484 0.105469,-14.416016 8.714844,-11.9453122 1.365234,1.328125 a 1.2758188,1.2758188 0 1 0 1.779297,-1.828125 L 56.302734,3.2675781 A 1.2758188,1.2758188 0 0 0 54.382812,3.4296875 L 45.802734,15.1875 a 1.2758188,1.2758188 0 0 0 -0.06641,-0.0098 l -9.125,-13.3144528 A 1.2758188,1.2758188 0 0 0 35.521484,1.3105469 Z m -23.107422,4.40625 A 1.2758188,1.2758188 0 0 0 11.193359,6.9160156 L 8.8398438,38.777344 5.3964844,37.828125 A 1.2758188,1.2758188 0 1 0 4.71875,40.287109 l 4.9375,1.363282 a 1.2758188,1.2758188 0 0 0 1.613281,-1.136719 L 13.738281,7.1035156 A 1.2758188,1.2758188 0 0 0 12.414062,5.7167969 Z"/>
	<path d="M 45.048828 36.142578 C 42.957511 36.142578 41.248047 37.822873 41.248047 39.890625 C 41.248047 41.958377 42.957511 43.636719 45.048828 43.636719 C 47.140145 43.636719 48.849609 41.958377 48.849609 39.890625 C 48.849609 37.822873 47.140145 36.142578 45.048828 36.142578 z"/>
	<path d="M 61.763672 41.958984 A 1.2758188 1.2758188 0 0 0 61.673828 41.964844 L 55.710938 42.578125 A 1.2758188 1.2758188 0 0 0 54.572266 43.976562 L 55.074219 48.855469 A 1.2758188 1.2758188 0 0 0 56.472656 49.994141 L 62.435547 49.380859 A 1.2758188 1.2758188 0 0 0 63.574219 47.982422 L 63.074219 43.103516 A 1.2758188 1.2758188 0 0 0 61.763672 41.958984 z"/>
</svg>
