<?xml version="1.0" encoding="utf-8"?>
<svg xmlns="http://www.w3.org/2000/svg" xmlns:svg="http://www.w3.org/2000/svg" version="1.1" viewBox="0 0 378 114">
	<title>Fifth set of hieroglyphics, two lines of dancing men, one above the other. Both rows have twelve men, and in each row two men are holding up black flags.</title>
	<path d="m 283.19336,58.158203 a 1.2536791,1.2536791 0 0 0 -1.29883,1.330078 l 0.26758,5.69336 -12.06641,8.880859 -0.004,-0.951172 a 1.2539161,1.2539161 0 0 0 -2.50782,0.0078 l 0.043,12.623047 -14.45312,0.300781 a 1.2536791,1.2536791 0 0 0 -0.98242,1.998047 l 6.82812,9.21289 -3.2168,1.363282 a 1.2537044,1.2537044 0 1 0 0.97852,2.308595 l 4.68359,-1.984377 a 1.2536791,1.2536791 0 0 0 0.51758,-1.90039 l -6.33008,-8.542969 12.64454,-0.261719 5.16796,7.271484 -7.48632,8.373051 a 1.2536791,1.2536791 0 0 0 0.83593,2.08398 l 5.81836,0.46485 a 1.2539626,1.2539626 0 1 0 0.19922,-2.5 L 269.53125,103.66797 276,96.433594 a 1.2536791,1.2536791 0 0 0 0.0879,-1.5625 l -5.95312,-8.373047 -0.0312,-9.660156 a 1.2536791,1.2536791 0 0 0 0.79492,-0.253907 l 13.29101,-9.78125 a 1.2536791,1.2536791 0 0 0 0.50977,-1.068359 l -0.30078,-6.365234 a 1.2536791,1.2536791 0 0 0 -1.20508,-1.210938 z"/>
	<path d="M 283.2793 57.888672 A 1.2536791 1.2536791 0 0 0 282.02539 59.142578 L 282.02539 65.023438 A 1.2536791 1.2536791 0 0 0 283.2793 66.277344 L 289.16797 66.277344 A 1.2536791 1.2536791 0 0 0 290.42188 65.023438 L 290.42188 59.142578 A 1.2536791 1.2536791 0 0 0 289.16797 57.888672 L 283.2793 57.888672 z"/>
	<path d="M 267.87305 65.675781 C 265.74492 65.675778 263.99805 67.378833 263.99805 69.480469 C 263.99805 71.582105 265.74492 73.287113 267.87305 73.287109 C 270.00117 73.287106 271.74609 71.582101 271.74609 69.480469 C 271.74609 67.378837 270.00117 65.675784 267.87305 65.675781 z"/>
	<path d="m 312.92969,66.451172 a 1.2536791,1.2536791 0 0 0 -0.95508,0.490234 l -8.99023,11.726563 a 1.2536791,1.2536791 0 0 0 -0.41407,0.126953 l -6.26562,-11.417969 a 1.2536791,1.2536791 0 0 0 -2,-0.269531 l -2.79102,2.876953 a 1.2541584,1.2541584 0 1 0 1.80078,1.746094 l 1.60743,-1.658203 6.50585,11.853515 a 1.2536791,1.2536791 0 0 0 0.41602,0.447266 l -0.26953,18.308593 a 1.2536791,1.2536791 0 1 0 2.50586,0.0371 l 0.29297,-19.744141 8.64257,-11.273437 1.95704,2.316406 a 1.2536791,1.2536791 0 1 0 1.91406,-1.617187 l -2.96094,-3.50586 a 1.2536791,1.2536791 0 0 0 -0.99609,-0.443359 z"/>
	<path d="M 302.73633 98.800781 C 300.6082 98.800778 298.86328 100.50579 298.86328 102.60742 C 298.86328 104.70906 300.6082 106.41407 302.73633 106.41406 C 304.86445 106.41406 306.61133 104.70906 306.61133 102.60742 C 306.61133 100.50579 304.86445 98.800784 302.73633 98.800781 z"/>
	<path d="m 345.68164,66.523438 a 1.2536791,1.2536791 0 0 0 -0.7832,0.253906 l -10.42578,7.701172 -9.22657,-6.660157 a 1.2536791,1.2536791 0 1 0 -1.46679,2.033203 l 9.41406,6.794922 -0.4668,9.386719 -14.20703,0.591797 a 1.2536791,1.2536791 0 0 0 -1.11328,1.712891 l 3.74805,9.501953 -3.34961,0.796875 a 1.2536791,1.2536791 0 1 0 0.57812,2.437501 l 4.75781,-1.128908 a 1.2536791,1.2536791 0 0 0 0.87696,-1.679687 l -3.63281,-9.208984 12.89648,-0.53711 4.53125,8.199219 -5.17188,7.41211 a 1.2536791,1.2536791 0 0 0 0.79883,1.95117 l 5.58203,1.03516 a 1.2536791,1.2536791 0 1 0 0.45704,-2.46485 l -3.66993,-0.67968 4.50782,-6.458988 a 1.2536791,1.2536791 0 0 0 0.0684,-1.324219 l -5.16016,-9.333984 a 1.2536791,1.2536791 0 0 0 -0.0273,-0.04687 l 0.50585,-10.125 10.68555,-7.888672 a 1.2536791,1.2536791 0 0 0 -0.70703,-2.271484 z"/>
	<path d="M 334.4668 67.398438 C 332.33867 67.398441 330.5918 69.101493 330.5918 71.203125 C 330.5918 73.304757 332.33867 75.009763 334.4668 75.009766 C 336.59493 75.009769 338.33984 73.304762 338.33984 71.203125 C 338.33984 69.101489 336.59492 67.398433 334.4668 67.398438 z"/>
	<path d="m 355.5625,66.007812 a 1.2536791,1.2536791 0 0 0 -0.93945,0.470704 l -2.85157,3.58789 a 1.2536791,1.2536791 0 1 0 1.96094,1.560547 l 1.80078,-2.263672 7.45313,10.779297 -0.19141,19.203125 a 1.2536791,1.2536791 0 1 0 2.50586,0.02539 l 0.19727,-19.617188 7.83398,-9.679687 2.38086,1.457031 a 1.2536791,1.2536791 0 1 0 1.30859,-2.138672 l -3.31836,-2.03125 a 1.2536791,1.2536791 0 0 0 -1.6289,0.28125 l -7.91797,9.785156 -7.52148,-10.880859 a 1.2536791,1.2536791 0 0 0 -1.07227,-0.539063 z"/>
	<path d="M 363.77539 98.025391 C 361.64727 98.025394 359.90234 99.728444 359.90234 101.83008 C 359.90234 103.93171 361.64727 105.63672 363.77539 105.63672 C 365.90352 105.63672 367.64844 103.93172 367.64844 101.83008 C 367.64844 99.72844 365.90352 98.025387 363.77539 98.025391 z"/>
	<path d="M 158.33594 0.97460938 A 1.2536791 1.2536791 0 0 0 157.08203 2.2285156 L 157.08203 8.1113281 A 1.2536791 1.2536791 0 0 0 158.33594 9.3652344 L 164.22461 9.3652344 A 1.2536791 1.2536791 0 0 0 165.47852 8.1113281 L 165.47852 2.2285156 A 1.2536791 1.2536791 0 0 0 164.22461 0.97460938 L 158.33594 0.97460938 z"/>
	<path d="M 148.51562 11.005859 C 146.38751 11.005856 144.64258 12.710864 144.64258 14.8125 C 144.64258 16.914136 146.38751 18.61719 148.51562 18.617188 C 150.64375 18.617183 152.39062 16.914132 152.39062 14.8125 C 152.39062 12.710868 150.64375 11.005862 148.51562 11.005859 z"/>
	<path d="m 158.16797,1.6445312 a 1.2536791,1.2536791 0 0 0 -1.26563,1.2402344 l -0.31445,12.8964844 -7.44141,5.355469 -10.33984,-7.566407 a 1.2536791,1.2536791 0 1 0 -1.48047,2.023438 l 11.07422,8.103516 a 1.2536791,1.2536791 0 0 0 1.47266,0.0059 l 8.68554,-6.25 a 1.2536791,1.2536791 0 0 0 0.51953,-0.986328 l 0.33204,-13.5214845 a 1.2536791,1.2536791 0 0 0 -1.24219,-1.3007813 z"/>
	<path d="m 149.08398,17.511719 a 1.2536791,1.2536791 0 0 0 -1.23437,1.271484 l -0.002,16.826172 L 141.6582,48.255859 136.57617,46 a 1.2543102,1.2543102 0 0 0 -1.01758,2.292969 l 6.1875,2.74414 a 1.2536791,1.2536791 0 0 0 1.63477,-0.59375 l 6.22852,-12.732421 5.69921,11.884765 a 1.2536791,1.2536791 0 0 0 1.95508,0.402344 l 4.00586,-3.496094 a 1.2536791,1.2536791 0 1 0 -1.64844,-1.888672 l -2.76367,2.41211 -5.80273,-12.101563 a 1.2536791,1.2536791 0 0 0 -0.70117,-0.646484 l 0.004,-15.494141 a 1.2536791,1.2536791 0 0 0 -1.27344,-1.271484 z"/>
	<path d="M 368.79883 0 A 1.2536791 1.2536791 0 0 0 367.54492 1.2539062 L 367.54492 7.1367188 A 1.2536791 1.2536791 0 0 0 368.79883 8.390625 L 374.6875 8.390625 A 1.2536791 1.2536791 0 0 0 375.94141 7.1367188 L 375.94141 1.2539062 A 1.2536791 1.2536791 0 0 0 374.6875 0 L 368.79883 0 z"/>
	<path d="m 368.4668,1.4355469 a 1.2536791,1.2536791 0 0 0 -1.27735,1.3496093 l 0.61719,9.6992188 -8.52148,6.224609 -9.56836,-8.679687 a 1.2536791,1.2536791 0 1 0 -1.6836,1.855469 l 10.32422,9.367187 a 1.2536791,1.2536791 0 0 0 1.58203,0.08398 l 9.90039,-7.232422 a 1.2536791,1.2536791 0 0 0 0.51172,-1.091797 L 369.69141,2.6269531 A 1.2536791,1.2536791 0 0 0 368.4668,1.4355469 Z"/>
	<path d="m 359.43164,15.994141 a 1.2536791,1.2536791 0 0 0 -1.29492,1.208984 l -0.79883,16.339844 -6.68359,12.539062 -4.02149,-1.96875 a 1.2543456,1.2543456 0 0 0 -1.10156,2.253907 l 5.10937,2.498046 a 1.2536791,1.2536791 0 0 0 1.65821,-0.535156 l 6.79687,-12.755859 5.44727,13.128906 a 1.2536791,1.2536791 0 0 0 1.9707,0.474609 l 4.12695,-3.517578 a 1.2538147,1.2538147 0 0 0 -1.62695,-1.908203 l -2.81445,2.400391 -5.33399,-12.851563 a 1.2536791,1.2536791 0 0 0 -0.96679,-0.773437 l 0.74218,-15.201172 a 1.2536791,1.2536791 0 0 0 -1.20898,-1.332031 z"/>
	<path d="M 359.20312 10.207031 C 357.075 10.207028 355.33008 11.912036 355.33008 14.013672 C 355.33008 16.115308 357.07501 17.818363 359.20312 17.818359 C 361.33125 17.818356 363.07812 16.115304 363.07812 14.013672 C 363.07812 11.91204 361.33125 10.207034 359.20312 10.207031 z"/>
	<path d="M 66.501953 59.496094 A 1.2536791 1.2536791 0 0 0 65.248047 60.748047 L 65.248047 66.630859 A 1.2536791 1.2536791 0 0 0 66.501953 67.884766 L 72.390625 67.884766 A 1.2536791 1.2536791 0 0 0 73.644531 66.630859 L 73.644531 60.748047 A 1.2536791 1.2536791 0 0 0 72.390625 59.496094 L 66.501953 59.496094 z"/>
	<path d="m 66.164062,60.013672 a 1.2536791,1.2536791 0 0 0 -1.228515,1.279297 l 0.04883,9.86914 -7.876953,5.873047 -9.90625,-9.148437 a 1.2536791,1.2536791 0 1 0 -1.699219,1.841797 l 10.669922,9.853515 a 1.2536791,1.2536791 0 0 0 1.599609,0.08398 l 9.220704,-6.873047 a 1.2536791,1.2536791 0 0 0 0.503906,-1.011719 l -0.05469,-10.501953 a 1.2536791,1.2536791 0 0 0 -1.277344,-1.265625 z"/>
	<path d="m 57.443359,74.390625 a 1.2536791,1.2536791 0 0 0 -1.253906,1.119141 l -1.365234,11.160156 -10.828125,0.21289 a 1.2536791,1.2536791 0 0 0 -1.228516,1.285157 l 0.251953,10.134765 -2.851562,0.492188 a 1.2536791,1.2536791 0 1 0 0.425781,2.470698 l 3.917969,-0.67578 a 1.2536791,1.2536791 0 0 0 1.041015,-1.265621 l -0.248046,-9.958985 10.076171,-0.199218 3.732422,8 -3.117187,8.929684 a 1.2536791,1.2536791 0 0 0 1.041015,1.65821 l 4.308594,0.48828 a 1.2540048,1.2540048 0 1 0 0.28125,-2.49219 l -2.748047,-0.31055 2.769532,-7.927731 a 1.2536791,1.2536791 0 0 0 -0.04883,-0.94336 l -4.271484,-9.160156 a 1.2536791,1.2536791 0 0 0 -0.05664,-0.109375 1.2536791,1.2536791 0 0 0 0,-0.002 l 1.40625,-11.482422 a 1.2536791,1.2536791 0 0 0 -1.234375,-1.423828 z"/>
	<path d="M 56.978516 68.484375 C 54.85039 68.484375 53.103516 70.189382 53.103516 72.291016 C 53.103515 74.39265 54.85039 76.095703 56.978516 76.095703 C 59.106642 76.095703 60.851563 74.39265 60.851562 72.291016 C 60.851562 70.189382 59.106641 68.484375 56.978516 68.484375 z"/>
	<path d="M 183.60938 105.60938 A 1.2536791 1.2536791 0 0 0 182.35547 106.86328 L 182.35547 112.74609 A 1.2536791 1.2536791 0 0 0 183.60938 114 L 189.49805 114 A 1.2536791 1.2536791 0 0 0 190.75195 112.74609 L 190.75195 106.86328 A 1.2536791 1.2536791 0 0 0 189.49805 105.60938 L 183.60938 105.60938 z"/>
	<path d="m 167.55859,66.976562 a 1.2536791,1.2536791 0 0 0 -0.61132,0.177735 l -4.83789,2.904297 a 1.2536791,1.2536791 0 1 0 1.29101,2.148437 l 3.59766,-2.158203 5.17578,12.333984 0.56055,18.386718 a 1.2536791,1.2536791 0 1 0 2.50585,-0.0762 l -0.56835,-18.619141 a 1.2536791,1.2536791 0 0 0 -0.0684,-0.373047 1.2536791,1.2536791 0 0 0 0.5625,-0.408203 l 8.08984,-10.142578 1.48437,1.558593 a 1.2537054,1.2537054 0 1 0 1.81641,-1.728515 l -2.47461,-2.601563 a 1.2536791,1.2536791 0 0 0 -1.88867,0.08203 l -8.61328,10.796874 -4.83203,-11.513671 a 1.2536791,1.2536791 0 0 0 -1.18946,-0.767579 z"/>
	<path d="m 173.77539,95.685547 a 1.2536791,1.2536791 0 0 0 -0.91406,0.462891 l -9.68555,11.996092 a 1.2536791,1.2536791 0 1 0 1.94922,1.57617 l 8.8418,-10.949216 9.58593,8.937496 a 1.2536791,1.2536791 0 1 0 1.70899,-1.83398 l -10.57031,-9.855469 a 1.2536791,1.2536791 0 0 0 -0.91602,-0.333984 z"/>
	<path d="M 174.00977 99.935547 C 171.88164 99.935544 170.13476 101.64055 170.13477 103.74219 C 170.13477 105.84382 171.88164 107.54883 174.00977 107.54883 C 176.13789 107.54883 177.88281 105.84382 177.88281 103.74219 C 177.88281 101.64055 176.13789 99.93555 174.00977 99.935547 z"/>
	<path d="m 234.99609,10.611328 a 1.2536791,1.2536791 0 0 0 -0.84375,2.166016 l 9.61328,9.341797 -0.0898,10.791015 -5.93359,14 -5.41602,-1.5625 a 1.2542237,1.2542237 0 0 0 -0.69531,2.410156 l 6.48437,1.869141 a 1.2536791,1.2536791 0 0 0 1.50196,-0.716797 l 5.38672,-12.710937 5.31836,10.955078 a 1.2536791,1.2536791 0 0 0 1.5332,0.638672 l 4.61328,-1.583985 a 1.2536791,1.2536791 0 1 0 -0.81445,-2.371093 l -3.5625,1.222656 -5.91016,-12.177735 0.0918,-10.677734 11.00976,-9.332031 a 1.2536791,1.2536791 0 1 0 -1.62109,-1.912109 l -9.36133,7.933593 0.004,-0.480469 a 1.253951,1.253951 0 1 0 -2.50781,-0.02148 l -0.002,0.259766 -7.89453,-7.673828 a 1.2536791,1.2536791 0 0 0 -0.9043,-0.367188 z"/>
	<path d="m 244.75391,11.316406 c -2.12813,-3e-6 -3.87305,1.703052 -3.87305,3.804688 0,2.101636 1.74492,3.806644 3.87305,3.80664 2.12812,-3e-6 3.875,-1.705008 3.875,-3.80664 0,-2.101632 -1.74688,-3.804685 -3.875,-3.804688 z"/>
	<path d="M 244.75391 12.316406 C 243.15535 12.316404 241.88086 13.570989 241.88086 15.121094 C 241.88086 16.671198 243.15535 17.927737 244.75391 17.927734 C 246.35246 17.927732 247.62891 16.671195 247.62891 15.121094 C 247.62891 13.570993 246.35246 12.316409 244.75391 12.316406 z"/>
	<path d="m 278.84375,13.011719 a 1.2536791,1.2536791 0 0 0 -1.21289,1.292969 l 0.25976,15.662109 -18.42968,0.982422 -0.0312,-0.921875 a 1.2537004,1.2537004 0 1 0 -2.50586,0.08789 L 257,32.3125 a 1.2536791,1.2536791 0 0 0 1.31836,1.208984 l 19.47656,-1.041015 -1.20898,14.517578 a 1.2536791,1.2536791 0 0 0 1.04297,1.341797 l 3.96679,0.662109 a 1.2536791,1.2536791 0 1 0 0.41407,-2.472656 l -2.83008,-0.472656 1.22461,-14.710938 a 1.2536791,1.2536791 0 0 0 0.004,-0.04687 l 0.004,-0.04102 a 1.2536791,1.2536791 0 0 0 0.004,-0.125 L 280.137,14.26172 a 1.2536791,1.2536791 0 0 0 -1.29297,-1.25 z"/>
	<path d="M 278.77734 9.0273438 C 276.64922 9.0273405 274.9043 10.732348 274.9043 12.833984 C 274.9043 14.935621 276.64922 16.638675 278.77734 16.638672 C 280.90547 16.638669 282.65234 14.935616 282.65234 12.833984 C 282.65234 10.732352 280.90547 9.0273467 278.77734 9.0273438 z"/>
	<path d="m 287.84375,8.4082031 a 1.2536791,1.2536791 0 0 0 -0.70898,2.2597659 l 12.05468,9.242187 a 1.2536791,1.2536791 0 0 0 1.51953,0.0059 l 11.27149,-8.519532 A 1.2536791,1.2536791 0 1 0 310.46875,9.3964844 L 299.95703,17.339844 288.66016,8.6777344 a 1.2536791,1.2536791 0 0 0 -0.81641,-0.2695313 z"/>
	<path d="m 300.11719,14.728516 a 1.2536791,1.2536791 0 0 0 -1.26758,1.240234 l -0.75977,29.830078 -4.04492,0.419922 a 1.2538162,1.2538162 0 1 0 0.25977,2.494141 l 5.13867,-0.533203 a 1.2536791,1.2536791 0 0 0 1.12305,-1.214844 l 0.41992,-16.466797 11.4082,3.589844 -7.52148,9.380859 a 1.2536791,1.2536791 0 0 0 0.89453,2.035156 l 6.20312,0.417969 a 1.2537925,1.2537925 0 0 0 0.16797,-2.501953 l -3.80664,-0.25586 7.16211,-8.9375 a 1.2536791,1.2536791 0 0 0 -0.60156,-1.980468 l -13.83985,-4.355469 0.30274,-11.859375 a 1.2536791,1.2536791 0 0 0 -1.23828,-1.302734 z"/>
	<path d="M 299.99023 8.7695312 C 297.86211 8.7695281 296.11719 10.474535 296.11719 12.576172 C 296.11719 14.677808 297.86211 16.382816 299.99023 16.382812 C 302.11836 16.38281 303.86523 14.677804 303.86523 12.576172 C 303.86523 10.47454 302.11836 8.7695344 299.99023 8.7695312 z"/>
	<path d="m 338.9707,9.1992188 a 1.2536791,1.2536791 0 0 0 -0.76172,0.3125 l -10.44531,8.9726562 -9.6289,-7.935547 a 1.2536791,1.2536791 0 1 0 -1.59375,1.933594 l 10.4414,8.607422 a 1.2536791,1.2536791 0 0 0 1.61524,-0.01563 l 11.24414,-9.660157 a 1.2536791,1.2536791 0 0 0 -0.8711,-2.2148432 z"/>
	<path d="m 327.86719,16.714844 a 1.2536791,1.2536791 0 0 0 -1.28321,1.222656 l -0.96484,25.271484 -4.30859,2.888672 a 1.2543076,1.2543076 0 1 0 1.39648,2.083985 l 4.83789,-3.246094 a 1.2536791,1.2536791 0 0 0 0.55469,-0.994141 l 0.42578,-11.152344 16.84375,2.986329 a 1.2536791,1.2536791 0 0 0 1.47266,-1.238282 l -0.0176,-4.492187 a 1.2539146,1.2539146 0 1 0 -2.50781,0.0098 l 0.0117,2.990234 -15.62109,-2.769531 a 1.2536791,1.2536791 0 0 0 -0.084,-0.01172 l 0.46679,-12.230469 a 1.2536791,1.2536791 0 0 0 -1.22265,-1.318359 z"/>
	<path d="M 327.45312 10.230469 C 325.325 10.230472 323.58008 11.935478 323.58008 14.037109 C 323.58008 16.138741 325.32501 17.841794 327.45312 17.841797 C 329.58125 17.8418 331.32812 16.138746 331.32812 14.037109 C 331.32812 11.935473 329.58125 10.230466 327.45312 10.230469 z"/>
	<path d="m 34.703125,69.412109 a 1.2536791,1.2536791 0 0 0 -0.955078,0.535157 l -7.667969,11 -7.263672,-10.785157 a 1.2536791,1.2536791 0 0 0 -1.71875,-0.353515 l -4.792968,3.083984 a 1.2541984,1.2541984 0 1 0 1.357421,2.109375 l 3.759766,-2.421875 7.103516,10.546875 0.441406,19.341797 a 1.2536791,1.2536791 0 1 0 2.505859,-0.0566 L 27.042969,83.556641 a 1.2536791,1.2536791 0 0 0 0.603515,-0.472657 l 7.337891,-10.527343 2.068359,1.894531 a 1.2538466,1.2538466 0 0 0 1.69336,-1.84961 l -3.123047,-2.861328 a 1.2536791,1.2536791 0 0 0 -0.919922,-0.328125 z"/>
	<path d="m 25.498047,96.353516 a 1.2536791,1.2536791 0 0 0 -0.851563,0.359375 l -9.279296,9.126949 a 1.2540469,1.2540469 0 1 0 1.759765,1.78711 l 8.396485,-8.261716 8.763671,8.646486 a 1.2536791,1.2536791 0 1 0 1.759766,-1.78516 L 26.40625,96.712891 a 1.2536791,1.2536791 0 0 0 -0.908203,-0.359375 z"/>
	<path d="M 26.65625 101.58008 C 24.528123 101.58008 22.781248 103.28508 22.78125 105.38672 C 22.781248 107.48835 24.528123 109.19336 26.65625 109.19336 C 28.784377 109.19336 30.529299 107.48835 30.529297 105.38672 C 30.529299 103.28508 28.784377 101.58008 26.65625 101.58008 z"/>
	<path d="m 75.742188,69.53125 a 1.2536791,1.2536791 0 0 0 -0.869141,2.154297 l 9.003906,8.962891 -0.679687,6.919921 L 72.375,90.753906 a 1.2536791,1.2536791 0 0 0 -0.742188,1.8125 l 5.033204,9.054684 -3.732422,-0.0352 a 1.2539598,1.2539598 0 1 0 -0.02344,2.50781 l 5.886719,0.0527 a 1.2536791,1.2536791 0 0 0 1.107422,-1.86132 l -5.318359,-9.56641 9.632812,-2.835938 8.65625,4.720704 -5.759766,10.107424 a 1.2536791,1.2536791 0 0 0 0.697266,1.81054 l 4.714844,1.55274 a 1.2544175,1.2544175 0 1 0 0.785156,-2.38281 l -3.259766,-1.07227 5.632813,-9.884765 A 1.2536791,1.2536791 0 0 0 95.19531,93.013592 l -9.505859,-5.185547 0.6875,-7.009766 10.392578,-8.998047 a 1.2544634,1.2544634 0 0 0 -1.642578,-1.896484 l -9.556641,8.277344 a 1.2536791,1.2536791 0 0 0 -0.605468,-0.0059 l -8.322266,-8.287109 a 1.2536791,1.2536791 0 0 0 -0.90039,-0.376953 z"/>
	<path d="M 85.189453 70.472656 C 83.061328 70.472656 81.316407 72.17571 81.316406 74.277344 C 81.316406 76.378978 83.061327 78.083984 85.189453 78.083984 C 87.317579 78.083984 89.064454 76.378978 89.064453 74.277344 C 89.064453 72.17571 87.317579 70.472656 85.189453 70.472656 z"/>
	<path d="m 126.41016,68.943359 a 1.2536791,1.2536791 0 0 0 -0.8711,0.361329 l -9.15234,8.763671 -9.32813,-7.826171 a 1.2536791,1.2536791 0 1 0 -1.61132,1.919921 l 10.1875,8.548829 a 1.2536791,1.2536791 0 0 0 1.67382,-0.05469 l 9.96485,-9.541016 a 1.2536791,1.2536791 0 0 0 -0.86328,-2.171875 z"/>
	<path d="M 116.03906,75.228516 A 1.2536791,1.2536791 0 0 0 114.80273,76.5 l 0.002,15.822266 -5.10352,11.917964 -3.86914,-1.83789 a 1.2536973,1.2536973 0 0 0 -1.07422,2.26563 l 5.04492,2.39453 a 1.2536791,1.2536791 0 0 0 1.69141,-0.63867 l 5.7168,-13.349611 a 1.2536791,1.2536791 0 0 0 0.10156,-0.494141 L 117.31055,76.5 a 1.2536791,1.2536791 0 0 0 -1.27149,-1.271484 z"/>
	<path d="m 115.91406,91.263672 a 1.2536791,1.2536791 0 0 0 -1.07617,1.939453 l 7.66797,12.115235 a 1.2536791,1.2536791 0 0 0 1.66406,0.42773 l 3.80664,-2.0957 a 1.2536791,1.2536791 0 1 0 -1.20898,-2.19531 l -2.77344,1.52734 -7.03711,-11.121092 a 1.2536791,1.2536791 0 0 0 -1.04297,-0.597656 z"/>
	<path d="M 115.7793 69.515625 C 113.65117 69.515628 111.90625 71.220634 111.90625 73.322266 C 111.90625 75.423898 113.65117 77.128903 115.7793 77.128906 C 117.90743 77.128909 119.6543 75.423902 119.6543 73.322266 C 119.6543 71.220629 117.90742 69.515622 115.7793 69.515625 z"/>
	<path d="m 155.69531,68.464844 a 1.2536791,1.2536791 0 0 0 -0.78125,0.267578 l -9.40429,7.154297 -8.8125,-7.070313 a 1.2536791,1.2536791 0 1 0 -1.56836,1.955078 l 9.57617,7.683594 a 1.2536791,1.2536791 0 0 0 1.54297,0.01953 l 10.18359,-7.746093 a 1.2536791,1.2536791 0 0 0 -0.73633,-2.263672 z"/>
	<path d="m 145.50781,73.386719 a 1.2536791,1.2536791 0 0 0 -1.1875,1.316406 L 145,93.115234 l -5.29492,9.156246 -4.51367,-1.98437 a 1.2536791,1.2536791 0 1 0 -1.00782,2.29492 l 5.53907,2.43555 a 1.2536791,1.2536791 0 0 0 1.58984,-0.51953 l 5.16797,-8.933597 4.5957,9.804687 a 1.2536791,1.2536791 0 0 0 1.88281,0.47461 l 4.22266,-3.14648 a 1.2541104,1.2541104 0 1 0 -1.49805,-2.01172 l -2.99023,2.22851 -5.0332,-10.742185 a 1.2536791,1.2536791 0 0 0 -0.19922,-0.306641 l -0.63477,-17.253906 a 1.2536791,1.2536791 0 0 0 -1.31836,-1.224609 z"/>
	<path d="M 145.57422 67.460938 C 143.44609 67.460933 141.70117 69.165942 141.70117 71.267578 C 141.70117 73.369215 143.44609 75.072269 145.57422 75.072266 C 147.70234 75.072263 149.44922 73.36921 149.44922 71.267578 C 149.44922 69.165946 147.70234 67.460941 145.57422 67.460938 z"/>
	<path d="M 200.8418,66.474609 A 1.2536791,1.2536791 0 0 0 199.89062,66.875 l -3.41015,3.662109 a 1.2541237,1.2541237 0 1 0 1.83594,1.708985 l 2.15234,-2.3125 6.04102,12.685547 0.64257,18.400389 a 1.2537006,1.2537006 0 1 0 2.50586,-0.0879 l -0.65234,-18.660156 a 1.2536791,1.2536791 0 0 0 -0.0488,-0.298828 l 7.79492,-12.128906 2.17188,2.078125 a 1.2536791,1.2536791 0 1 0 1.73242,-1.810547 l -3.27148,-3.130859 a 1.2536791,1.2536791 0 0 0 -1.91993,0.228515 l -7.76367,12.080078 -5.76172,-12.099609 a 1.2536791,1.2536791 0 0 0 -1.09765,-0.714844 z"/>
	<path d="m 208.20898,95.703125 a 1.2536791,1.2536791 0 0 0 -0.85742,0.404297 l -8.89258,9.669918 a 1.2536791,1.2536791 0 1 0 1.84375,1.69727 l 8.04297,-8.744141 8.52539,7.896481 a 1.2536791,1.2536791 0 1 0 1.70313,-1.83789 l -9.44727,-8.751951 a 1.2536791,1.2536791 0 0 0 -0.91797,-0.333984 z"/>
	<path d="M 208.48242 99.853516 C 206.35429 99.853512 204.60936 101.55852 204.60938 103.66016 C 204.60936 105.76179 206.35429 107.4668 208.48242 107.4668 C 210.61055 107.46679 212.35742 105.76179 212.35742 103.66016 C 212.35742 101.55852 210.61055 99.853519 208.48242 99.853516 z"/>
	<path d="m 230.04492,66.865234 a 1.2536791,1.2536791 0 0 0 -0.81445,2.222657 l 8.99805,7.585937 a 1.2536791,1.2536791 0 0 0 1.54492,0.05469 l 9.10547,-6.623047 a 1.2542449,1.2542449 0 0 0 -1.47461,-2.029297 l -8.31055,6.046875 -8.24609,-6.951172 a 1.2536791,1.2536791 0 0 0 -0.80274,-0.306641 z"/>
	<path d="m 239.27344,71.246094 a 1.2536791,1.2536791 0 0 0 -1.24414,1.261718 l -0.25391,29.874998 c -1.07713,0.0108 -2.28125,0.0273 -2.28125,0.0273 a 1.2536791,1.2536791 0 1 0 0.0449,2.50586 c 0,0 1.26976,-0.0167 2.47266,-0.0273 a 1.2536791,1.2536791 0 0 0 1.16211,0.49219 c 0,0 0.63382,-0.0823 1.27539,-0.17969 0.32078,-0.0487 0.64148,-0.0989 0.91016,-0.15234 0.13433,-0.0267 0.24937,-0.0524 0.38867,-0.0937 0.0696,-0.0206 0.13888,-0.0356 0.28515,-0.10938 0.0731,-0.0369 0.16865,-0.0777 0.33203,-0.23828 0.0817,-0.0803 0.18739,-0.19635 0.27539,-0.39844 0.044,-0.10104 0.0956,-0.36042 0.0957,-0.36132 1e-4,-9e-4 -0.0228,-0.41536 -0.0234,-0.42383 -1.3e-4,-5.7e-4 -0.12664,-0.32952 -0.12695,-0.33008 -3.1e-4,-5.6e-4 -0.10568,-0.16538 -0.15821,-0.22461 -0.10504,-0.11846 -0.19694,-0.18425 -0.26953,-0.23047 -0.14517,-0.0924 -0.22768,-0.11708 -0.29297,-0.13867 -0.13057,-0.0432 -0.1911,-0.0493 -0.25,-0.0586 -0.11778,-0.0186 -0.20433,-0.0245 -0.30664,-0.0312 -0.20461,-0.0136 -0.45135,-0.0219 -0.74218,-0.0273 -0.0791,-10e-4 -0.19825,-8.4e-4 -0.28321,-0.002 l 0.25196,-29.851563 a 1.2536791,1.2536791 0 0 0 -1.26172,-1.283203 z"/>
	<path d="M 239.43945 65.851562 C 237.31133 65.851559 235.56445 67.554614 235.56445 69.65625 C 235.56445 71.757887 237.31132 73.462894 239.43945 73.462891 C 241.56758 73.462888 243.3125 71.757882 243.3125 69.65625 C 243.3125 67.554618 241.56758 65.851567 239.43945 65.851562 z"/>
	<path d="M 12.757812 11.363281 C 10.629688 11.363281 8.8847659 13.068288 8.8847656 15.169922 C 8.8847652 17.271556 10.629688 18.976562 12.757812 18.976562 C 14.885938 18.976564 16.632813 17.271556 16.632812 15.169922 C 16.632812 13.068288 14.885938 11.363281 12.757812 11.363281 z"/>
	<path d="m 24.060547,11.746094 a 1.2536791,1.2536791 0 0 0 -0.787109,0.24414 L 12.6875,19.576172 C 12.135888,19.216121 10.710251,18.288389 8.6464844,16.916016 7.4320487,16.108435 6.1925863,15.27557 5.2109375,14.599609 4.7201131,14.261629 4.2934699,13.963419 3.9726562,13.730469 3.6518426,13.497518 3.3975935,13.285435 3.4277344,13.314453 A 1.2536791,1.2536791 0 1 0 1.6894531,15.119141 C 1.9293336,15.350082 2.150503,15.504034 2.5,15.757812 c 0.349497,0.253779 0.7880876,0.563234 1.2890625,0.908204 1.0019499,0.689939 2.248127,1.526195 3.46875,2.33789 2.0360279,1.353927 3.3874185,2.234605 3.9824215,2.623047 L 11.470703,34.851562 5.9160156,48.3125 1.8632812,46.132812 a 1.2536791,1.2536791 0 1 0 -1.18749995,2.207032 l 5.27539065,2.83789 A 1.2536791,1.2536791 0 0 0 7.703125,50.550781 l 5.162109,-12.501953 4.730469,11.91211 a 1.2536791,1.2536791 0 0 0 1.832031,0.599609 l 4.34961,-2.732422 a 1.2536791,1.2536791 0 1 0 -1.333985,-2.123047 l -3.074218,1.931641 -5.011719,-12.621094 a 1.2536791,1.2536791 0 0 0 -0.384766,-0.529297 l -0.21875,-12.58789 10.980469,-7.871094 a 1.2536791,1.2536791 0 0 0 -0.673828,-2.28125 z"/>
	<path d="M 51.292969 11.710938 C 49.164843 11.710937 47.419921 13.413991 47.419922 15.515625 C 47.419922 17.617259 49.164843 19.322266 51.292969 19.322266 C 53.421094 19.322266 55.166015 17.617259 55.166016 15.515625 C 55.166016 13.413991 53.421095 11.710936 51.292969 11.710938 z"/>
	<path d="m 43.076172,7.5214844 a 1.2536791,1.2536791 0 0 0 -1.197266,0.8828125 l -3.111328,9.5566411 a 1.2536791,1.2536791 0 0 0 0.751953,1.5625 L 56.138672,25.748047 49.335938,30.513672 37.375,30.765625 a 1.2536791,1.2536791 0 0 0 -1.115234,0.736328 l -4.621094,10.238281 -3.550781,-1.720703 a 1.2536791,1.2536791 0 1 0 -1.09375,2.25586 l 4.708984,2.28125 a 1.2536791,1.2536791 0 0 0 1.689453,-0.611329 L 38.21875,33.253906 49.769531,33.011719 a 1.2536791,1.2536791 0 0 0 0.691407,-0.226563 l 9.064453,-6.349609 a 1.2536791,1.2536791 0 0 0 -0.279297,-2.201172 l -17.72461,-6.638672 2.742188,-8.4140624 a 1.2536791,1.2536791 0 0 0 -1.1875,-1.6601562 z"/>
	<path d="m 50.576172,15.583984 a 1.2536791,1.2536791 0 0 0 -1.246094,1.126954 l -1.591797,13.759765 a 1.2536791,1.2536791 0 0 0 0.0098,0.648438 1.2536791,1.2536791 0 0 0 0.0039,0.0098 1.2536791,1.2536791 0 0 0 0.310547,0.548828 1.2536791,1.2536791 0 0 0 0.002,0.002 l 5.767578,7.810546 -5.787109,10.273438 a 1.2536791,1.2536791 0 0 0 1.146484,1.867187 l 5.611328,-0.242187 a 1.2536791,1.2536791 0 1 0 -0.109375,-2.503906 l -3.355468,0.144531 5.078125,-9.015625 a 1.2536791,1.2536791 0 0 0 -0.08398,-1.361328 L 50.265625,30.439453 51.820312,17 a 1.2536791,1.2536791 0 0 0 -1.24414,-1.416016 z"/>
	<path d="M 83.976562 12.486328 C 81.848438 12.486328 80.101562 14.189381 80.101562 16.291016 C 80.101563 18.39265 81.848438 20.097656 83.976562 20.097656 C 86.104688 20.097656 87.849609 18.39265 87.849609 16.291016 C 87.84961 14.189381 86.104688 12.486328 83.976562 12.486328 z"/>
	<path d="M 78.068359,8.1621094 A 1.2536791,1.2536791 0 0 0 76.902344,8.9101562 L 72.292969,18.966797 a 1.2536791,1.2536791 0 0 0 0.84375,1.740234 l 18.609375,4.535157 a 1.2536791,1.2536791 0 0 0 1.460937,-0.751954 l 3.935547,-9.814453 a 1.2536791,1.2536791 0 1 0 -2.326172,-0.933593 l -3.53125,8.80664 -16.080078,-3.919922 3.976563,-8.6738279 A 1.2536791,1.2536791 0 0 0 78.068359,8.1621094 Z"/>
	<path d="m 83.773438,17.101562 a 1.2536791,1.2536791 0 0 0 -1.283204,1.222657 L 82.033203,30.298828 70.173828,27.113281 a 1.2536791,1.2536791 0 0 0 -1.501953,1.642578 l 3.777344,10.298829 -3.638672,1.783203 a 1.2536791,1.2536791 0 1 0 1.101562,2.251953 l 4.654297,-2.28125 a 1.2536791,1.2536791 0 0 0 0.625,-1.556641 L 71.857422,30.162109 82.900391,33.125 a 1.2536791,1.2536791 0 0 0 1.576171,-1.162109 l 0.519532,-13.542969 a 1.2536791,1.2536791 0 0 0 -1.222656,-1.31836 z"/>
	<path d="m 82.283203,30.048828 a 1.2536791,1.2536791 0 0 0 -0.951172,2.064453 l 6.759766,8.199219 -5.164063,8.724609 a 1.2536791,1.2536791 0 0 0 0.929688,1.882813 l 4.541016,0.542969 a 1.2536791,1.2536791 0 1 0 0.296874,-2.488282 l -2.630859,-0.314453 4.632813,-7.828125 a 1.2536791,1.2536791 0 0 0 -0.111328,-1.435547 l -7.31836,-8.878906 a 1.2536791,1.2536791 0 0 0 -0.984375,-0.46875 z"/>
	<path d="M 119.51367 11.337891 C 117.38555 11.337894 115.63867 13.042899 115.63867 15.144531 C 115.63867 17.246163 117.38555 18.949216 119.51367 18.949219 C 121.6418 18.949222 123.38672 17.246167 123.38672 15.144531 C 123.38672 13.042895 121.6418 11.337887 119.51367 11.337891 z"/>
	<path d="m 131.17969,11.853516 a 1.2536791,1.2536791 0 0 0 -0.67774,0.199218 l -11.27929,7.007813 -9.83594,-6.525391 A 1.2540375,1.2540375 0 1 0 108,14.625 l 9.88281,6.554688 -1.1289,11.958984 -15.73829,-0.582031 -1.564448,-2.753907 a 1.2539161,1.2539161 0 1 0 -2.179688,1.240235 l 1.910157,3.359375 a 1.2536791,1.2536791 0 0 0 1.042969,0.632812 l 17.73437,0.65625 -1.05859,13.044922 a 1.2536791,1.2536791 0 0 0 1.26367,1.355469 l 4.40821,-0.05078 a 1.2536791,1.2536791 0 1 0 -0.0293,-2.50586 l -3.0332,0.0332 1.05468,-12.978515 a 1.2536791,1.2536791 0 0 0 -1.20312,-1.355469 l -0.0977,-0.0039 1.12695,-11.94336 11.43555,-7.105468 a 1.2536791,1.2536791 0 0 0 -0.64648,-2.328125 z"/>
	<path d="M 183.45898 11.398438 C 181.33086 11.39844 179.58594 13.103446 179.58594 15.205078 C 179.58594 17.30671 181.33086 19.011716 183.45898 19.011719 C 185.58711 19.011722 187.33398 17.306715 187.33398 15.205078 C 187.33398 13.103442 185.58711 11.398434 183.45898 11.398438 z"/>
	<path d="m 183.66992,15.587891 a 1.2536791,1.2536791 0 0 0 -1.20703,1.169921 c 0,0 -0.37837,4.730778 -0.66992,9.248047 -0.14578,2.258635 -0.27009,4.459096 -0.31445,6.015625 -0.008,0.287386 0.005,0.435966 0.002,0.675782 l -15.62305,-0.41211 -0.42578,-3.123047 a 1.2537532,1.2537532 0 0 0 -2.48437,0.339844 l 0.57031,4.177735 a 1.2536791,1.2536791 0 0 0 1.20898,1.083984 l 16.84766,0.445312 -0.78711,13.841797 a 1.2536791,1.2536791 0 0 0 1.18359,1.322266 l 4.5625,0.242187 a 1.2537131,1.2537131 0 0 0 0.13282,-2.503906 l -3.30469,-0.175781 0.7832,-13.785156 a 1.2536791,1.2536791 0 0 0 -0.16015,-0.814453 c -0.009,-0.298801 -0.0168,-0.654393 0,-1.242188 0.0425,-1.48982 0.16564,-3.682597 0.31054,-5.927734 0.28981,-4.490276 0.66602,-9.208985 0.66602,-9.208985 a 1.2536791,1.2536791 0 0 0 -1.29102,-1.36914 z"/>
	<path d="M 210.33984 9.5820312 C 208.21172 9.5820281 206.4668 11.287036 206.4668 13.388672 C 206.4668 15.490308 208.21172 17.195316 210.33984 17.195312 C 212.46797 17.19531 214.21484 15.490304 214.21484 13.388672 C 214.21484 11.28704 212.46797 9.5820344 210.33984 9.5820312 z"/>
	<path d="m 220.24219,9.8710938 a 1.2536791,1.2536791 0 0 0 -0.88086,0.3281252 l -8.86524,7.892578 -9.93359,-7.021485 a 1.2542219,1.2542219 0 0 0 -1.44727,2.048829 l 10.7461,7.59375 a 1.2536791,1.2536791 0 0 0 1.55664,-0.08594 l 9.60937,-8.554687 a 1.2536791,1.2536791 0 0 0 -0.78515,-2.2011722 z"/>
	<path d="m 210.1875,15.707031 a 1.2536791,1.2536791 0 0 0 -1.24023,1.265625 l -0.14063,30.566406 -5.12891,-0.345703 a 1.2537922,1.2537922 0 1 0 -0.16796,2.501953 l 6.46093,0.435547 a 1.2536791,1.2536791 0 0 0 1.33789,-1.246093 l 0.0781,-16.890625 16.07226,4.857421 a 1.2536791,1.2536791 0 0 0 1.50977,-0.693359 l 1.77344,-4.017578 a 1.2536791,1.2536791 0 1 0 -2.29297,-1.011719 l -1.32617,3.001953 -15.72461,-4.751953 0.0566,-12.394531 a 1.2536791,1.2536791 0 0 0 -1.26758,-1.277344 z"/>
	<path d="m 302.58008,93.757812 a 1.2536791,1.2536791 0 0 0 -0.86914,0.359376 l -11.77149,11.240232 a 1.2543503,1.2543503 0 1 0 1.73243,1.81446 l 11.76953,-11.242192 a 1.2536791,1.2536791 0 0 0 -0.86133,-2.171876 z"/>
	<path d="m 364.44141,94.400391 a 1.2536791,1.2536791 0 0 0 -0.79297,2.230468 l 12.28515,10.166021 a 1.2536791,1.2536791 0 1 0 1.59766,-1.93165 l -12.2832,-10.166011 a 1.2536791,1.2536791 0 0 0 -0.80664,-0.298828 z"/>
</svg>
