<?xml version="1.0" encoding="utf-8"?>
<svg xmlns="http://www.w3.org/2000/svg" xmlns:serif="http://www.serif.com/" xmlns:xlink="http://www.w3.org/1999/xlink" height="100%" style="fill-rule:evenodd;clip-rule:evenodd;stroke-linecap:round;stroke-linejoin:round;stroke-miterlimit:1.5;" version="1.1" viewBox="0 0 494 170" width="100%" xml:space="preserve">
	<title>XXXXXXX</title>
	<clipPath id="_clip1">
		<rect height="151.174" id="frame" width="467.483" x="15.568" y="9.782"/>
	</clipPath>
	<g clip-path="url(#_clip1)">
		<path d="M21.532,11.764c-5.799,3.612 -6.464,6.939 -5.704,28.139c0.381,10.267 0.571,26.713 0.476,36.41c-0.286,47.627 0.19,83.657 1.235,84.322c0.571,0.285 5.609,0.475 11.218,0.19c9.316,-0.38 10.267,-0.57 12.359,-2.947c1.235,-1.331 2.186,-3.042 2.281,-3.802c0,-2.662 3.042,-3.803 11.313,-4.088c6.559,-0.285 9.411,-0.856 13.309,-2.852c4.468,-2.282 5.989,-2.472 14.64,-2.187c6.369,0.191 9.887,-0.095 10.362,-0.855c1.141,-1.711 5.989,-3.613 7.795,-2.947c0.856,0.38 2.472,-0.285 3.708,-1.331c3.327,-3.042 11.122,-4.658 15.115,-3.137c4.278,1.521 6.084,0.76 8.651,-3.613c1.141,-1.901 2.662,-3.517 3.327,-3.517c2.852,0 11.978,3.993 12.549,5.419c0.76,2.186 6.464,5.608 9.316,5.513c1.236,0 3.137,-0.57 4.183,-1.426c2.567,-1.901 7.51,-1.901 9.982,-0.095c2.662,1.997 4.848,1.902 9.221,-0.285c3.137,-1.616 4.658,-1.806 9.602,-0.95c3.422,0.475 6.274,0.475 6.844,0c0.476,-0.476 4.278,-0.666 8.366,-0.381c4.658,0.285 8.936,0 11.313,-0.76c2.757,-0.951 5.038,-1.046 8.651,-0.19c2.852,0.57 5.323,0.665 5.894,0.095c1.806,-1.521 17.206,-2.092 19.393,-0.761c1.426,0.951 2.757,0.856 5.989,-0.19c3.422,-1.141 4.753,-1.141 7.605,-0.095c3.042,1.046 3.898,1.046 6.084,-0.475c1.807,-1.141 4.659,-1.712 9.222,-1.712c7.13,0 9.886,-0.665 12.358,-3.137c1.331,-1.331 1.616,-1.235 2.092,0.951c0.38,1.331 1.14,2.472 1.616,2.472c0.57,0 1.045,0.665 1.045,1.521c0,2.376 9.887,0.855 12.074,-1.807c1.521,-1.901 1.616,-1.901 4.278,-0.19c2.756,1.807 2.851,1.807 4.182,-0.095c0.761,-1.045 1.141,-2.471 0.856,-3.232c-0.38,-1.046 0.095,-1.236 1.711,-0.855c1.331,0.38 2.662,0.665 3.137,0.665c0.476,0 -0.095,1.236 -1.236,2.662c-2.661,3.327 -1.806,4.373 1.236,1.521c1.616,-1.521 3.518,-2.187 6.56,-2.187c6.084,0 4.753,-2.186 -2.092,-3.612c-3.042,-0.571 -5.989,-1.426 -6.654,-1.806c-1.521,-0.951 -5.134,1.14 -5.134,3.042c0,1.14 -0.475,1.331 -1.711,0.855c-4.373,-1.806 -5.228,-1.711 -6.369,0.951c-1.046,2.091 -1.902,2.567 -4.944,2.567c-5.038,0 -6.939,-2.377 -6.939,-8.556c0.095,-11.218 -1.331,-17.397 -3.993,-17.397c-1.521,0 -2.187,3.993 -1.046,5.514c0.666,0.76 1.236,3.992 1.331,7.32c0.285,8.651 -1.331,10.077 -11.218,10.172c-4.658,0 -8.46,0.57 -9.981,1.426c-3.233,1.901 -5.229,1.901 -4.849,0.095c0.381,-1.997 -0.19,-1.997 -7.225,0.285c-4.468,1.426 -7.225,1.426 -6.464,0.095c1.236,-1.901 -0.57,-2.947 -2.757,-1.521c-1.996,1.236 -7.51,2.091 -10.172,1.521c-1.996,-0.38 -7.035,0.285 -7.985,1.046c-0.571,0.475 -3.232,0.38 -5.989,-0.095c-3.328,-0.666 -5.989,-0.571 -8.271,0.19c-2.282,0.76 -3.708,0.76 -4.373,0.095c-0.76,-0.666 -1.901,-0.476 -3.708,0.57c-1.806,1.046 -3.707,1.331 -5.513,0.856c-2.757,-0.666 -2.757,-0.761 -1.046,-2.662c1.711,-1.901 1.616,-1.996 -0.38,-1.996c-1.141,0 -2.852,1.14 -3.803,2.566c-1.331,1.997 -2.472,2.472 -5.894,2.472c-4.088,0 -6.749,-2.091 -4.468,-3.517c1.711,-1.046 1.046,-2.472 -1.046,-2.472c-1.235,0 -2.376,0.951 -2.947,2.472c-0.95,2.471 -5.608,5.513 -8.46,5.513c-1.236,0 -1.521,-0.57 -0.951,-2.186c0.57,-1.806 0.38,-1.996 -1.711,-1.331c-1.331,0.38 -3.708,0.951 -5.324,1.236c-2.472,0.38 -2.757,0.285 -1.806,-0.761c1.711,-1.806 1.616,-2.947 -0.285,-2.947c-0.856,0 -2.282,1.331 -3.232,2.947c-1.902,3.423 -4.659,3.898 -9.127,1.616c-3.232,-1.711 -4.658,-4.563 -2.852,-5.703c1.426,-0.856 0.476,-1.236 -2.471,-0.856c-1.046,0.095 -2.472,-0.38 -3.233,-0.951c-0.76,-0.665 -2.186,-1.045 -3.137,-0.95c-1.045,0.095 -2.661,-0.095 -3.612,-0.571c-2.092,-0.855 -6.75,0.856 -6.75,2.567c0,1.901 -3.707,6.084 -4.468,4.943c-1.426,-2.376 -15.876,-0.475 -19.488,2.567c-1.236,1.046 -1.901,1.046 -2.757,0.19c-0.856,-0.855 -1.616,-0.76 -2.947,0.476c-1.046,0.95 -2.662,1.711 -3.612,1.711c-1.046,0 -1.997,0.855 -2.282,1.996c-0.475,1.521 -1.141,1.806 -3.232,1.331c-1.426,-0.285 -3.232,-0.951 -4.088,-1.331c-0.856,-0.475 -2.852,-0.57 -4.468,-0.285c-1.711,0.285 -4.088,0.475 -5.514,0.475c-1.331,0 -4.468,1.141 -6.94,2.567c-3.612,2.187 -5.799,2.662 -11.978,2.757c-8.365,0.19 -12.833,1.521 -13.594,4.183c-1.996,6.464 -2.186,6.654 -12.549,6.749l-9.696,0l-0.285,-63.408c-0.286,-74.436 -0.286,-75.576 1.616,-78.428c3.042,-4.564 -23.862,-4.373 353.356,-3.328c52.19,0.19 96.396,0.666 98.202,1.046c7.51,1.616 7.035,-2.282 7.225,62.172c0.19,57.039 0.19,57.895 -1.806,58.56c-1.046,0.476 -2.567,0.381 -3.328,-0.095c-1.711,-1.045 -5.799,0.571 -8.461,3.423c-2.851,3.137 -15.495,5.989 -20.343,4.658c-2.567,-0.761 -3.993,-0.571 -6.275,0.57c-1.616,0.856 -3.612,1.331 -4.278,1.046c-0.76,-0.285 -2.091,0 -3.042,0.76c-1.14,0.761 -4.658,1.141 -10.362,0.951c-8.556,-0.19 -13.784,-1.616 -15.4,-4.088c-0.381,-0.665 -1.331,-1.331 -1.997,-1.331c-0.665,0 -3.992,-1.33 -7.415,-3.042c-5.894,-2.757 -6.749,-2.947 -13.309,-2.281c-5.418,0.475 -7.32,0.38 -7.89,-0.666c-0.666,-1.045 -1.141,-1.045 -2.282,-0.19c-0.855,0.761 -4.468,1.141 -9.791,0.951c-7.606,-0.19 -8.366,-0.475 -8.366,-2.187c0,-1.14 0.951,-2.471 2.186,-3.042c2.472,-1.045 2.852,-1.996 1.331,-2.947c-1.806,-1.141 -5.894,1.711 -6.274,4.373c-0.19,2.092 -0.856,2.662 -3.232,2.852c-6.56,0.476 -13.119,1.426 -14.45,1.997c-3.422,1.33 -5.324,1.426 -12.358,0.57c-3.898,-0.475 -4.754,-0.285 -4.373,0.76c0.285,0.856 1.616,1.331 3.612,1.141c1.711,-0.095 3.137,0.19 3.137,0.761c0,1.236 4.468,1.331 6.845,0c3.042,-1.616 11.978,-2.377 25.097,-2.092c36.79,0.761 35.079,0.666 40.688,3.328c2.852,1.426 5.989,3.137 6.939,3.992c4.468,3.708 23.672,5.799 27.854,3.042c1.331,-0.855 2.662,-1.33 2.947,-0.95c0.381,0.285 2.377,-0.095 4.468,-0.951c3.138,-1.236 4.469,-1.331 7.32,-0.38c2.662,0.855 4.469,0.855 6.94,0c1.806,-0.571 4.849,-1.141 6.75,-1.331c2.091,-0.19 4.658,-1.426 6.749,-3.232c2.662,-2.377 4.373,-3.042 9.412,-3.423l6.179,-0.475l0,-49.434c0,-27.188 -0.285,-54.377 -0.475,-60.556c-0.476,-10.362 -0.761,-11.218 -3.042,-13.119c-1.331,-1.141 -4.944,-2.472 -7.986,-3.042c-3.802,-0.761 -73.77,-1.141 -226.064,-1.141c-219.6,0 -220.646,0 -223.973,1.997Z" style="fill-rule:nonzero;"/>
	</g>
	<ellipse cx="309.416" cy="58.002" rx="3.366" ry="3.295"/>
	<path d="M302.747,53.539l-2.417,7.296l16.116,4.903l3.039,-7.388" style="fill:none;stroke:#000;stroke-width:2.5px;"/>
	<path d="M296.898,82.182l3.204,-2.647l-4.063,-9.022l10.046,3.233l2.639,-12.019" style="fill:none;stroke:#000;stroke-width:2.5px;"/>
	<path d="M311.585,90.57l-4.179,0.049l4.352,-8.389l-5.72,-8.809" style="fill:none;stroke:#000;stroke-width:2.5px;"/>
	<ellipse cx="339.401" cy="57.662" rx="3.366" ry="3.295"/>
	<path d="M330.098,54.568l-1.187,7.64l17.406,5.412l-10.19,6.834l-9.948,3.688l-2.054,8.833l-3.629,-0.873" style="fill:none;stroke:#000;stroke-width:2.5px;"/>
	<path d="M342.147,91.899l-4.798,-1.221l7.741,-8.611l-8.763,-7.001" style="fill:none;stroke:#000;stroke-width:2.5px;"/>
	<path d="M339.438,59.229l-2.487,14.209" style="fill:none;stroke:#000;stroke-width:2.5px;"/>
	<ellipse cx="368.358" cy="56.872" rx="3.366" ry="3.295"/>
	<path d="M357.307,56.277l10.675,7.873l9.814,-9.245" style="fill:none;stroke:#000;stroke-width:2.5px;"/>
	<path d="M357.314,88.884l4.363,2.425l5.683,-16.875l1.114,-14.89" style="fill:none;stroke:#000;stroke-width:2.5px;"/>
	<path d="M376.688,89.072l-4.145,-0.747l6.175,-9.139l-10.135,-5.564" style="fill:none;stroke:#000;stroke-width:2.5px;"/>
	<ellipse cx="397.86" cy="56.991" rx="3.366" ry="3.295"/>
	<path d="M410.249,55.257l-19.098,15.274l6.622,4.487l7.324,7.273l-6.434,8.122l4.157,1.281" style="fill:none;stroke:#000;stroke-width:2.5px;"/>
	<path d="M384.887,88.753l6.203,-1.297l-4.267,-9.388l11.909,-3.663l-0.251,-14.452" style="fill:none;stroke:#000;stroke-width:2.5px;"/>
	<ellipse cx="450.992" cy="58.349" rx="3.366" ry="3.295"/>
	<path d="M444.219,86.679l3.12,-3.154l-9.068,-8.967l12.767,-0.402l0.208,-14.481" style="fill:none;stroke:#000;stroke-width:2.5px;"/>
	<path d="M465.06,55.221l-13.914,11.371" style="fill:none;stroke:#000;stroke-width:2.5px;"/>
	<path d="M455.159,92.419l-3.502,-1.55l6.893,-8.319l-7.874,-9.09" style="fill:none;stroke:#000;stroke-width:2.5px;"/>
	<ellipse cx="247.749" cy="58.17" rx="3.366" ry="3.295"/>
	<path d="M243.376,90.689l2.782,-2.366l-7.632,-7.666l9.077,-6.7l0.358,-13.521" style="fill:none;stroke:#000;stroke-width:2.5px;"/>
	<path d="M254.514,89.701l-3.782,-1.836l8.056,-9.362l-11.282,-4.299" style="fill:none;stroke:#000;stroke-width:2.5px;"/>
	<ellipse cx="72.241" cy="58.031" rx="3.366" ry="3.295"/>
	<path d="M88.472,44.796l-5.874,0.13l0.131,5.862l5.873,-0.13l-0.13,-5.862Z" id="_-Rectangle-" style="stroke:#000;stroke-width:2.5px;" serif:id="(Rectangle)"/>
	<path d="M60.575,53.697l11.633,11.066l10.653,-9.442l-0.403,-10.362" style="fill:none;stroke:#000;stroke-width:2.5px;"/>
	<path d="M64.338,87.56l5.299,-0.335l-8.741,-8.148l10.516,-4.78l0.942,-11.914" style="fill:none;stroke:#000;stroke-width:2.5px;"/>
	<path d="M79.398,89.377l-4.471,-0.237l7.296,-8.483l-9.034,-7.579" style="fill:none;stroke:#000;stroke-width:2.5px;"/>
	<path d="M30.198,87.352l3.539,2.786l7.032,-15.295l0.068,-14.369" style="fill:none;stroke:#000;stroke-width:2.5px;"/>
	<path d="M48.766,88.883l-4.287,-1.879l5.517,-8.905l-8.833,-3.998" style="fill:none;stroke:#000;stroke-width:2.5px;"/>
	<ellipse cx="41.158" cy="56.572" rx="3.366" ry="3.295"/>
	<path d="M29.986,53.071l10.936,9.352l11.584,-7.845" style="fill:none;stroke:#000;stroke-width:2.5px;"/>
	<path d="M209.295,54.684l9.472,9.124l11.851,-8.163" style="fill:none;stroke:#000;stroke-width:2.5px;"/>
	<path d="M209.35,89.29l3.947,1.459l5.497,-17.229l0.48,-12.188" style="fill:none;stroke:#000;stroke-width:2.5px;"/>
	<path d="M228.142,87.974l-4.95,-0.955l5.974,-8.357l-9.494,-4.915" style="fill:none;stroke:#000;stroke-width:2.5px;"/>
	<ellipse cx="219.271" cy="57.593" id="_-Ellipse-" rx="3.366" ry="3.295" serif:id="(Ellipse)"/>
	<path d="M92.661,55.389l8.976,7.56l9.084,-6.602" style="fill:none;stroke:#000;stroke-width:2.5px;"/>
	<path d="M98.126,90.804c0,0 5.927,-0.104 5.96,0.039c0.026,0.113 -2.472,0.434 -2.472,0.434l0.291,-30.15" style="fill:none;stroke:#000;stroke-width:2.5px;"/>
	<ellipse cx="102.039" cy="56.911" rx="3.366" ry="3.295"/>
	<path d="M119.916,55.925l9.553,7.658l10.161,-7.721" style="fill:none;stroke:#000;stroke-width:2.5px;"/>
	<path d="M118.693,87.461l5.527,2.426l6.024,-10.404l-0.521,-18.286" style="fill:none;stroke:#000;stroke-width:2.5px;"/>
	<path d="M140.387,87.717l-4.212,3.136l-5.673,-12.094" style="fill:none;stroke:#000;stroke-width:2.5px;"/>
	<ellipse cx="129.555" cy="57.394" rx="3.366" ry="3.295"/>
	<ellipse cx="160.984" cy="56.919" rx="3.366" ry="3.295"/>
	<path d="M149.743,53.98l10.898,8.762l10.526,-8.125" style="fill:none;stroke:#000;stroke-width:2.5px;"/>
	<path d="M152.685,89.348l4.561,2.344l4.005,-16.35l-0.513,-13.427" style="fill:none;stroke:#000;stroke-width:2.5px;"/>
	<path d="M177.043,75.558l-0.266,3.933l-14.691,-4.517" style="fill:none;stroke:#000;stroke-width:2.5px;"/>
	<path d="M209.905,45.476l-7.547,-0.864l-0.667,5.825l7.547,0.865l0.667,-5.826Z" style="stroke:#000;stroke-width:2.5px;"/>
	<ellipse cx="188.721" cy="56.627" rx="3.366" ry="3.295"/>
	<path d="M178.295,56.397l11.049,8.076l10.388,-6.17l2.615,-13.082" style="fill:none;stroke:#000;stroke-width:2.5px;"/>
	<path d="M176.301,88.854l6.173,2.736l6.83,-13.946l0.004,-17.059" style="fill:none;stroke:#000;stroke-width:2.5px;"/>
	<path d="M200.624,87.27l-3.998,3.485l-6.499,-13.543" style="fill:none;stroke:#000;stroke-width:2.5px;"/>
	<rect height="5.863" style="stroke:#000;stroke-width:2.5px;" width="7.138" x="287.365" y="45.186"/>
	<ellipse cx="277.381" cy="56.956" rx="3.366" ry="3.295"/>
	<path d="M266.956,56.727l11.048,8.076l8.666,-6.229l0.329,-13.475" style="fill:none;stroke:#000;stroke-width:2.5px;"/>
	<path d="M264.961,89.183l6.173,2.736l6.83,-13.946l0.004,-17.059" style="fill:none;stroke:#000;stroke-width:2.5px;"/>
	<path d="M289.284,87.6l-3.998,3.484l-6.499,-13.543" style="fill:none;stroke:#000;stroke-width:2.5px;"/>
	<path d="M413.939,57.222l10.164,8.521l9.942,-9.51" style="fill:none;stroke:#000;stroke-width:2.5px;"/>
	<path d="M412.983,89.448l5.034,2.388l5.705,-13.306l0.169,-15.89" style="fill:none;stroke:#000;stroke-width:2.5px;"/>
	<path d="M435.01,88.468l-3.8,2.089l-7.649,-12.076" style="fill:none;stroke:#000;stroke-width:2.5px;"/>
	<ellipse cx="423.443" cy="59.335" rx="3.366" ry="3.295"/>
</svg>
