<?xml version="1.0" encoding="utf-8"?>
<svg xmlns="http://www.w3.org/2000/svg" xmlns:svg="http://www.w3.org/2000/svg" version="1.1" viewBox="0 0 28 40">
	<title>Dancing man with one arm in the air, one on his hip.</title>
	<path d="m 14.294541,-0.00465655 c -2.13347,-3e-7 -3.87685,1.71165355 -3.87685,3.81216675 0,2.1005131 1.74338,3.8102377 3.87685,3.8102375 2.133469,-3e-7 3.876849,-1.7097248 3.876849,-3.8102375 0,-2.1005128 -1.74338,-3.81216644 -3.876849,-3.81216675 z"/>
	<path d="M 26.70046,0.80176333 A 1.2640354,1.2486069 0 0 0 25.92509,1.0911485 L 6.7673974,16.469074 a 1.2640354,1.2486069 0 0 0 0.080075,1.998687 l 6.5447478,4.450743 6.480295,6.459076 -5.77133,7.311798 a 1.2640354,1.2486069 0 0 0 0.619124,1.958172 l 4.171764,1.290658 a 1.2647806,1.2493429 0 1 0 0.75584,-2.384533 l -2.431577,-0.750473 5.333843,-6.756178 a 1.2640354,1.2486069 0 0 0 -0.09961,-1.647566 L 15.105066,21.078014 A 1.2640354,1.2486069 0 0 0 14.92343,20.927534 L 9.6716169,17.356522 27.518797,3.0300288 A 1.2640354,1.2486069 0 0 0 26.70046,0.80176333 Z"/>
	<path d="M 14.876556,5.5225993 A 1.2640354,1.2486069 0 0 0 13.653933,6.8093985 L 13.888302,20.425933 2.8456269,23.83489 A 1.2640354,1.2486069 0 0 0 2.070257,25.536475 l 3.6405279,8.041048 -4.6912811,0.985838 a 1.2640354,1.2486069 0 1 0 0.5253765,2.442411 L 7.7654177,35.69968 A 1.2640354,1.2486069 0 0 0 8.657972,33.969157 L 4.9568987,25.80078 15.544508,22.530728 A 1.2640354,1.2486069 0 0 0 16.431202,21.31724 L 16.181209,6.7669554 A 1.2640354,1.2486069 0 0 0 14.876556,5.5225993 Z"/>
</svg>
