<?xml version="1.0" encoding="utf-8"?>
<svg xmlns="http://www.w3.org/2000/svg" xmlns:svg="http://www.w3.org/2000/svg" version="1.1" viewBox="0 0 30 40">
	<title>Dancing man with arms in the air and one leg straight out to the right.</title>
	<path d="m 12.582537,0.40870608 c -2.132785,-1.1e-7 -3.8888277,1.68683692 -3.8888277,3.77534272 -10e-8,2.0885057 1.7560427,3.7753427 3.8888277,3.7753426 2.132785,-5e-7 3.888829,-1.6868373 3.888829,-3.7753426 0,-2.0885054 -1.756044,-3.77534229 -3.888829,-3.77534272 z"/>
	<path d="M 1.2324714,5.0814356e-4 A 1.2506469,1.2505807 0 0 0 0.48634768,2.2407141 L 11.459445,10.951541 a 1.2506469,1.2505807 0 0 0 1.535219,0.01563 L 23.590793,2.8891433 A 1.2506469,1.2505807 0 1 0 22.075108,0.90088733 L 12.252446,8.3871204 2.0410978,0.28175457 A 1.2506469,1.2505807 0 0 0 1.2324714,5.0814356e-4 Z"/>
	<path d="m 12.307137,6.4652698 a 1.2506469,1.2505807 0 0 0 -1.189501,1.306624 L 11.594217,22.363505 7.9827431,36.923867 4.7931617,35.304748 a 1.2506469,1.2505807 0 1 0 -1.1309049,2.230439 l 4.5900284,2.330049 a 1.2506469,1.2505807 0 0 0 1.7793688,-0.814443 l 4.033365,-16.253699 a 1.2506469,1.2505807 0 0 0 0.03516,-0.341793 L 13.617736,7.6898636 A 1.2506469,1.2505807 0 0 0 12.307137,6.4652698 Z"/>
	<path d="m 13.686098,20.875243 a 1.2506469,1.2505807 0 0 0 -0.357436,2.453094 L 28.11832,27.818514 A 1.2506469,1.2505807 0 0 0 29.729712,26.7072 l 0.267589,-3.912059 a 1.2509858,1.2509196 0 0 0 -2.496194,-0.16992 l -0.160163,2.341767 -13.285691,-4.033152 a 1.2506469,1.2505807 0 0 0 -0.369155,-0.05859 z"/>
</svg>
