<?xml version="1.0" encoding="utf-8"?>
<svg xmlns="http://www.w3.org/2000/svg" xmlns:svg="http://www.w3.org/2000/svg" viewBox="0 0 33 40">
	<title>Dancing man with arms by his side, one leg straight out to the left.</title>
	<path d="M 9.533892,0.31060378 A 1.2477211,1.2488835 0 0 0 8.6849165,2.4633451 L 19.426894,13.014122 a 1.2477211,1.2488835 0 0 0 1.608174,0.115256 L 32.454275,4.7782257 A 1.2477211,1.2488835 0 1 0 30.982717,2.7622284 L 20.418342,10.488265 10.431659,0.67981259 A 1.2477211,1.2488835 0 0 0 9.533892,0.31060378 Z"/>
	<path d="m 1.1866101,15.834955 a 1.2477211,1.2488835 0 0 0 -1.1905172,1.301023 l 0.14052006,4.877853 A 1.2477211,1.2488835 0 0 0 1.4091001,23.224992 L 20.104123,22.842109 a 1.2483494,1.2495124 0 1 0 -0.05074,-2.498508 L 2.5957139,20.703042 2.490324,17.063698 A 1.2477211,1.2488835 0 0 0 1.1866101,15.834955 Z"/>
	<path d="M 20.367598,4.9970161 A 1.2477211,1.2488835 0 0 0 19.077546,6.2023168 L 17.508405,38.690739 a 1.2477211,1.2488835 0 0 0 1.323231,1.306883 L 23.31852,39.720226 A 1.2477211,1.2488835 0 1 0 23.164338,37.227578 L 20.067041,37.419019 21.569826,6.323433 A 1.2477211,1.2488835 0 0 0 20.367598,4.9970161 Z"/>
	<path d="M 20.1939,-4.4924776e-7 C 18.154634,-5.1924776e-7 16.491586,1.6504027 16.491586,3.6803667 c 0,2.0299641 1.663048,3.6803673 3.702314,3.6803672 2.039267,1e-7 3.704265,-1.6504031 3.704265,-3.6803672 0,-2.029964 -1.664998,-3.68036721924776 -3.704265,-3.68036714924776 z"/>
</svg>
